<?xml version="1.0" encoding="UTF-8" standalone="no"?>
<!-- Created with Inkscape (http://www.inkscape.org/) -->

<svg
   xmlns:dc="http://purl.org/dc/elements/1.1/"
   xmlns:cc="http://creativecommons.org/ns#"
   xmlns:rdf="http://www.w3.org/1999/02/22-rdf-syntax-ns#"
   xmlns:svg="http://www.w3.org/2000/svg"
   xmlns="http://www.w3.org/2000/svg"
   xmlns:xlink="http://www.w3.org/1999/xlink"
   xmlns:inkscape="http://www.inkscape.org/namespaces/inkscape"
   version="1.0"
   width="48"
   height="48"
   viewBox="0 0 48 48"
   id="svg2">
  <metadata
     id="metadata188">
    <rdf:RDF>
      <cc:Work
         rdf:about="">
        <dc:format>image/svg+xml</dc:format>
        <dc:type
           rdf:resource="http://purl.org/dc/dcmitype/StillImage" />
      </cc:Work>
    </rdf:RDF>
  </metadata>
  <defs
     id="defs4">
    <linearGradient
       id="linearGradient2195">
      <stop
         id="stop2197"
         style="stop-color:#ffffff;stop-opacity:1"
         offset="0" />
      <stop
         id="stop2199"
         style="stop-color:#ffffff;stop-opacity:0.1134"
         offset="1" />
    </linearGradient>
    <linearGradient
       id="linearGradient2959">
      <stop
         id="stop2961"
         style="stop-color:#00b5ff;stop-opacity:0.70588237"
         offset="0" />
      <stop
         id="stop2977"
         style="stop-color:#341c70;stop-opacity:0.70588237"
         offset="1" />
    </linearGradient>
    <linearGradient
       id="linearGradient2798">
      <stop
         id="stop2800"
         style="stop-color:#1759ff;stop-opacity:1"
         offset="0" />
      <stop
         id="stop2802"
         style="stop-color:#1759ff;stop-opacity:0"
         offset="1" />
    </linearGradient>
    <linearGradient
       x1="49.41"
       y1="587.5"
       x2="104.33"
       y2="587.5"
       id="linearGradient3098"
       xlink:href="#linearGradient2959"
       gradientUnits="userSpaceOnUse" />
    <linearGradient
       x1="-18.138"
       y1="248.84"
       x2="53.062"
       y2="306.32001"
       id="linearGradient2215"
       gradientUnits="userSpaceOnUse">
      <stop
         id="stop2211"
         style="stop-color:#ffffff;stop-opacity:1"
         offset="0" />
      <stop
         id="stop2213"
         style="stop-color:#ffffff;stop-opacity:0"
         offset="1" />
    </linearGradient>
    <linearGradient
       x1="49.41"
       y1="587.5"
       x2="104.33"
       y2="587.5"
       id="linearGradient2923"
       xlink:href="#linearGradient2959"
       gradientUnits="userSpaceOnUse" />
    <linearGradient
       x1="49.41"
       y1="587.5"
       x2="104.33"
       y2="587.5"
       id="linearGradient2925"
       xlink:href="#linearGradient2959"
       gradientUnits="userSpaceOnUse" />
    <linearGradient
       x1="49.41"
       y1="587.5"
       x2="104.33"
       y2="587.5"
       id="linearGradient2927"
       xlink:href="#linearGradient2959"
       gradientUnits="userSpaceOnUse" />
    <linearGradient
       x1="49.41"
       y1="587.5"
       x2="104.33"
       y2="587.5"
       id="linearGradient2929"
       xlink:href="#linearGradient2959"
       gradientUnits="userSpaceOnUse" />
    <linearGradient
       x1="49.41"
       y1="587.5"
       x2="104.33"
       y2="587.5"
       id="linearGradient2931"
       xlink:href="#linearGradient2959"
       gradientUnits="userSpaceOnUse" />
    <linearGradient
       x1="49.41"
       y1="587.5"
       x2="104.33"
       y2="587.5"
       id="linearGradient2933"
       xlink:href="#linearGradient2959"
       gradientUnits="userSpaceOnUse" />
    <linearGradient
       x1="49.41"
       y1="587.5"
       x2="104.33"
       y2="587.5"
       id="linearGradient2935"
       xlink:href="#linearGradient2959"
       gradientUnits="userSpaceOnUse" />
    <linearGradient
       x1="49.41"
       y1="587.5"
       x2="104.33"
       y2="587.5"
       id="linearGradient2937"
       xlink:href="#linearGradient2959"
       gradientUnits="userSpaceOnUse" />
    <linearGradient
       x1="49.41"
       y1="587.5"
       x2="104.33"
       y2="587.5"
       id="linearGradient2939"
       xlink:href="#linearGradient2959"
       gradientUnits="userSpaceOnUse" />
    <linearGradient
       x1="49.41"
       y1="587.5"
       x2="104.33"
       y2="587.5"
       id="linearGradient2941"
       xlink:href="#linearGradient2959"
       gradientUnits="userSpaceOnUse" />
    <linearGradient
       x1="49.41"
       y1="587.5"
       x2="104.33"
       y2="587.5"
       id="linearGradient2943"
       xlink:href="#linearGradient2959"
       gradientUnits="userSpaceOnUse" />
    <linearGradient
       x1="49.41"
       y1="587.5"
       x2="104.33"
       y2="587.5"
       id="linearGradient2946"
       xlink:href="#linearGradient2959"
       gradientUnits="userSpaceOnUse" />
    <linearGradient
       x1="49.41"
       y1="587.5"
       x2="104.33"
       y2="587.5"
       id="linearGradient2948"
       xlink:href="#linearGradient2959"
       gradientUnits="userSpaceOnUse" />
    <linearGradient
       x1="49.41"
       y1="587.5"
       x2="104.33"
       y2="587.5"
       id="linearGradient2950"
       xlink:href="#linearGradient2959"
       gradientUnits="userSpaceOnUse" />
    <linearGradient
       x1="49.41"
       y1="587.5"
       x2="104.33"
       y2="587.5"
       id="linearGradient2952"
       xlink:href="#linearGradient2959"
       gradientUnits="userSpaceOnUse" />
    <linearGradient
       x1="49.41"
       y1="587.5"
       x2="104.33"
       y2="587.5"
       id="linearGradient2954"
       xlink:href="#linearGradient2959"
       gradientUnits="userSpaceOnUse" />
    <linearGradient
       x1="49.41"
       y1="587.5"
       x2="104.33"
       y2="587.5"
       id="linearGradient2956"
       xlink:href="#linearGradient2959"
       gradientUnits="userSpaceOnUse" />
    <linearGradient
       x1="49.41"
       y1="587.5"
       x2="104.33"
       y2="587.5"
       id="linearGradient2958"
       xlink:href="#linearGradient2959"
       gradientUnits="userSpaceOnUse" />
    <linearGradient
       x1="49.41"
       y1="587.5"
       x2="104.33"
       y2="587.5"
       id="linearGradient2960"
       xlink:href="#linearGradient2959"
       gradientUnits="userSpaceOnUse" />
    <linearGradient
       x1="49.41"
       y1="587.5"
       x2="104.33"
       y2="587.5"
       id="linearGradient2962"
       xlink:href="#linearGradient2959"
       gradientUnits="userSpaceOnUse" />
    <linearGradient
       x1="49.41"
       y1="587.5"
       x2="104.33"
       y2="587.5"
       id="linearGradient2964"
       xlink:href="#linearGradient2959"
       gradientUnits="userSpaceOnUse" />
    <linearGradient
       x1="49.41"
       y1="587.5"
       x2="104.33"
       y2="587.5"
       id="linearGradient2966"
       xlink:href="#linearGradient2959"
       gradientUnits="userSpaceOnUse" />
    <linearGradient
       x1="49.41"
       y1="587.5"
       x2="104.33"
       y2="587.5"
       id="linearGradient2968"
       xlink:href="#linearGradient2959"
       gradientUnits="userSpaceOnUse" />
    <linearGradient
       x1="49.41"
       y1="587.5"
       x2="104.33"
       y2="587.5"
       id="linearGradient2970"
       xlink:href="#linearGradient2959"
       gradientUnits="userSpaceOnUse" />
    <linearGradient
       x1="49.41"
       y1="587.5"
       x2="104.33"
       y2="587.5"
       id="linearGradient2972"
       xlink:href="#linearGradient2959"
       gradientUnits="userSpaceOnUse" />
    <linearGradient
       x1="49.41"
       y1="587.5"
       x2="104.33"
       y2="587.5"
       id="linearGradient2975"
       xlink:href="#linearGradient2959"
       gradientUnits="userSpaceOnUse" />
    <linearGradient
       x1="49.41"
       y1="587.5"
       x2="104.33"
       y2="587.5"
       id="linearGradient2977"
       xlink:href="#linearGradient2959"
       gradientUnits="userSpaceOnUse" />
    <linearGradient
       x1="49.41"
       y1="587.5"
       x2="104.33"
       y2="587.5"
       id="linearGradient2979"
       xlink:href="#linearGradient2959"
       gradientUnits="userSpaceOnUse" />
    <linearGradient
       x1="49.41"
       y1="587.5"
       x2="104.33"
       y2="587.5"
       id="linearGradient2981"
       xlink:href="#linearGradient2959"
       gradientUnits="userSpaceOnUse" />
    <linearGradient
       x1="49.41"
       y1="587.5"
       x2="104.33"
       y2="587.5"
       id="linearGradient2983"
       xlink:href="#linearGradient2959"
       gradientUnits="userSpaceOnUse" />
    <linearGradient
       x1="49.41"
       y1="587.5"
       x2="104.33"
       y2="587.5"
       id="linearGradient2985"
       xlink:href="#linearGradient2959"
       gradientUnits="userSpaceOnUse" />
    <linearGradient
       x1="49.41"
       y1="587.5"
       x2="104.33"
       y2="587.5"
       id="linearGradient2987"
       xlink:href="#linearGradient2959"
       gradientUnits="userSpaceOnUse" />
    <linearGradient
       x1="49.41"
       y1="587.5"
       x2="104.33"
       y2="587.5"
       id="linearGradient2989"
       xlink:href="#linearGradient2959"
       gradientUnits="userSpaceOnUse" />
    <linearGradient
       x1="49.41"
       y1="587.5"
       x2="104.33"
       y2="587.5"
       id="linearGradient2991"
       xlink:href="#linearGradient2959"
       gradientUnits="userSpaceOnUse" />
    <linearGradient
       x1="49.41"
       y1="587.5"
       x2="104.33"
       y2="587.5"
       id="linearGradient2993"
       xlink:href="#linearGradient2959"
       gradientUnits="userSpaceOnUse" />
    <linearGradient
       x1="49.41"
       y1="587.5"
       x2="104.33"
       y2="587.5"
       id="linearGradient2995"
       xlink:href="#linearGradient2959"
       gradientUnits="userSpaceOnUse" />
    <linearGradient
       x1="49.41"
       y1="587.5"
       x2="104.33"
       y2="587.5"
       id="linearGradient2997"
       xlink:href="#linearGradient2959"
       gradientUnits="userSpaceOnUse" />
    <linearGradient
       x1="49.41"
       y1="587.5"
       x2="104.33"
       y2="587.5"
       id="linearGradient2999"
       xlink:href="#linearGradient2959"
       gradientUnits="userSpaceOnUse" />
    <linearGradient
       x1="49.41"
       y1="587.5"
       x2="104.33"
       y2="587.5"
       id="linearGradient3001"
       xlink:href="#linearGradient2959"
       gradientUnits="userSpaceOnUse" />
    <linearGradient
       x1="49.41"
       y1="587.5"
       x2="104.33"
       y2="587.5"
       id="linearGradient3003"
       xlink:href="#linearGradient2959"
       gradientUnits="userSpaceOnUse" />
    <linearGradient
       x1="49.41"
       y1="587.5"
       x2="104.33"
       y2="587.5"
       id="linearGradient3005"
       xlink:href="#linearGradient2959"
       gradientUnits="userSpaceOnUse" />
    <linearGradient
       x1="49.41"
       y1="587.5"
       x2="104.33"
       y2="587.5"
       id="linearGradient3007"
       xlink:href="#linearGradient2959"
       gradientUnits="userSpaceOnUse" />
    <linearGradient
       x1="49.41"
       y1="587.5"
       x2="104.33"
       y2="587.5"
       id="linearGradient3009"
       xlink:href="#linearGradient2959"
       gradientUnits="userSpaceOnUse" />
    <linearGradient
       x1="49.41"
       y1="587.5"
       x2="104.33"
       y2="587.5"
       id="linearGradient3011"
       xlink:href="#linearGradient2959"
       gradientUnits="userSpaceOnUse" />
    <linearGradient
       x1="49.41"
       y1="587.5"
       x2="104.33"
       y2="587.5"
       id="linearGradient3013"
       xlink:href="#linearGradient2959"
       gradientUnits="userSpaceOnUse" />
    <linearGradient
       x1="49.41"
       y1="587.5"
       x2="104.33"
       y2="587.5"
       id="linearGradient3015"
       xlink:href="#linearGradient2959"
       gradientUnits="userSpaceOnUse" />
    <linearGradient
       x1="49.41"
       y1="587.5"
       x2="104.33"
       y2="587.5"
       id="linearGradient3017"
       xlink:href="#linearGradient2959"
       gradientUnits="userSpaceOnUse" />
    <linearGradient
       x1="49.41"
       y1="587.5"
       x2="104.33"
       y2="587.5"
       id="linearGradient3019"
       xlink:href="#linearGradient2959"
       gradientUnits="userSpaceOnUse" />
    <linearGradient
       x1="49.41"
       y1="587.5"
       x2="104.33"
       y2="587.5"
       id="linearGradient3021"
       xlink:href="#linearGradient2959"
       gradientUnits="userSpaceOnUse" />
    <linearGradient
       x1="49.41"
       y1="587.5"
       x2="104.33"
       y2="587.5"
       id="linearGradient3023"
       xlink:href="#linearGradient2959"
       gradientUnits="userSpaceOnUse" />
    <linearGradient
       x1="49.41"
       y1="587.5"
       x2="104.33"
       y2="587.5"
       id="linearGradient3025"
       xlink:href="#linearGradient2959"
       gradientUnits="userSpaceOnUse" />
    <linearGradient
       x1="49.41"
       y1="587.5"
       x2="104.33"
       y2="587.5"
       id="linearGradient3027"
       xlink:href="#linearGradient2959"
       gradientUnits="userSpaceOnUse" />
    <linearGradient
       x1="49.41"
       y1="587.5"
       x2="104.33"
       y2="587.5"
       id="linearGradient3029"
       xlink:href="#linearGradient2959"
       gradientUnits="userSpaceOnUse" />
    <linearGradient
       x1="49.41"
       y1="587.5"
       x2="104.33"
       y2="587.5"
       id="linearGradient3031"
       xlink:href="#linearGradient2959"
       gradientUnits="userSpaceOnUse" />
    <linearGradient
       x1="49.41"
       y1="587.5"
       x2="104.33"
       y2="587.5"
       id="linearGradient3033"
       xlink:href="#linearGradient2959"
       gradientUnits="userSpaceOnUse" />
    <linearGradient
       x1="49.41"
       y1="587.5"
       x2="104.33"
       y2="587.5"
       id="linearGradient3035"
       xlink:href="#linearGradient2959"
       gradientUnits="userSpaceOnUse" />
    <linearGradient
       x1="49.41"
       y1="587.5"
       x2="104.33"
       y2="587.5"
       id="linearGradient3037"
       xlink:href="#linearGradient2959"
       gradientUnits="userSpaceOnUse" />
    <linearGradient
       x1="49.41"
       y1="587.5"
       x2="104.33"
       y2="587.5"
       id="linearGradient3039"
       xlink:href="#linearGradient2959"
       gradientUnits="userSpaceOnUse" />
    <linearGradient
       x1="49.41"
       y1="587.5"
       x2="104.33"
       y2="587.5"
       id="linearGradient3041"
       xlink:href="#linearGradient2959"
       gradientUnits="userSpaceOnUse" />
    <linearGradient
       x1="49.41"
       y1="587.5"
       x2="104.33"
       y2="587.5"
       id="linearGradient3043"
       xlink:href="#linearGradient2959"
       gradientUnits="userSpaceOnUse" />
    <linearGradient
       x1="49.41"
       y1="587.5"
       x2="104.33"
       y2="587.5"
       id="linearGradient3045"
       xlink:href="#linearGradient2959"
       gradientUnits="userSpaceOnUse" />
    <linearGradient
       x1="49.41"
       y1="587.5"
       x2="104.33"
       y2="587.5"
       id="linearGradient3047"
       xlink:href="#linearGradient2959"
       gradientUnits="userSpaceOnUse" />
    <linearGradient
       x1="49.41"
       y1="587.5"
       x2="104.33"
       y2="587.5"
       id="linearGradient3049"
       xlink:href="#linearGradient2959"
       gradientUnits="userSpaceOnUse" />
    <linearGradient
       x1="49.41"
       y1="587.5"
       x2="104.33"
       y2="587.5"
       id="linearGradient3051"
       xlink:href="#linearGradient2959"
       gradientUnits="userSpaceOnUse" />
    <linearGradient
       x1="49.41"
       y1="587.5"
       x2="104.33"
       y2="587.5"
       id="linearGradient3053"
       xlink:href="#linearGradient2959"
       gradientUnits="userSpaceOnUse" />
    <linearGradient
       x1="49.41"
       y1="587.5"
       x2="104.33"
       y2="587.5"
       id="linearGradient3055"
       xlink:href="#linearGradient2959"
       gradientUnits="userSpaceOnUse" />
    <linearGradient
       x1="49.41"
       y1="587.5"
       x2="104.33"
       y2="587.5"
       id="linearGradient3057"
       xlink:href="#linearGradient2959"
       gradientUnits="userSpaceOnUse" />
    <linearGradient
       x1="49.41"
       y1="587.5"
       x2="104.33"
       y2="587.5"
       id="linearGradient3059"
       xlink:href="#linearGradient2959"
       gradientUnits="userSpaceOnUse" />
    <linearGradient
       x1="49.41"
       y1="587.5"
       x2="104.33"
       y2="587.5"
       id="linearGradient3061"
       xlink:href="#linearGradient2959"
       gradientUnits="userSpaceOnUse" />
    <linearGradient
       x1="49.41"
       y1="587.5"
       x2="104.33"
       y2="587.5"
       id="linearGradient3063"
       xlink:href="#linearGradient2959"
       gradientUnits="userSpaceOnUse" />
    <linearGradient
       x1="49.41"
       y1="587.5"
       x2="104.33"
       y2="587.5"
       id="linearGradient3065"
       xlink:href="#linearGradient2959"
       gradientUnits="userSpaceOnUse" />
    <linearGradient
       x1="-18.138"
       y1="248.84"
       x2="53.062"
       y2="306.32001"
       id="linearGradient2998"
       xlink:href="#linearGradient2215"
       gradientUnits="userSpaceOnUse"
       gradientTransform="matrix(-0.02821993,-0.00701429,0.0756232,-0.12185527,-0.09126426,75.826417)" />
    <linearGradient
       x1="495.5"
       y1="390.23999"
       x2="459.67999"
       y2="418.28"
       id="linearGradient3002"
       xlink:href="#linearGradient2195"
       gradientUnits="userSpaceOnUse"
       gradientTransform="matrix(0.04349383,-0.06351381,0.08125488,0.06329267,-16.426187,16.127954)" />
    <linearGradient
       x1="117.5"
       y1="328.44"
       x2="216.13"
       y2="328.44"
       id="linearGradient3006"
       xlink:href="#linearGradient2195"
       gradientUnits="userSpaceOnUse"
       gradientTransform="matrix(0.04349383,-0.06351381,0.08125488,0.06329267,-16.68715,16.509037)" />
    <linearGradient
       x1="-100.96"
       y1="304.12"
       x2="82.57"
       y2="440.12"
       id="linearGradient3012"
       xlink:href="#linearGradient2959"
       gradientUnits="userSpaceOnUse"
       gradientTransform="matrix(0.04349383,-0.06351381,0.08125488,0.06329267,-16.68715,16.509037)" />
    <linearGradient
       x1="-18.138"
       y1="248.84"
       x2="53.062"
       y2="306.32001"
       id="linearGradient3016"
       xlink:href="#linearGradient2215"
       gradientUnits="userSpaceOnUse"
       gradientTransform="matrix(0.0697437,-0.03985278,0.07186271,0.09338339,-6.825584,0.98869622)" />
    <linearGradient
       x1="-18.138"
       y1="248.84"
       x2="53.062"
       y2="306.32001"
       id="linearGradient3022"
       xlink:href="#linearGradient2215"
       gradientUnits="userSpaceOnUse"
       gradientTransform="matrix(0.04819551,-0.07037965,0.1522879,0.11862312,-35.911301,6.9691016)" />
    <linearGradient
       x1="147"
       y1="337.72"
       x2="192.60001"
       y2="337.72"
       id="linearGradient3028"
       xlink:href="#linearGradient2195"
       gradientUnits="userSpaceOnUse"
       gradientTransform="matrix(0.04349383,-0.06351381,0.08125488,0.06329267,-16.68715,16.509037)" />
    <linearGradient
       x1="494.14999"
       y1="412.72"
       x2="527.09998"
       y2="412.72"
       id="linearGradient3032"
       xlink:href="#linearGradient2798"
       gradientUnits="userSpaceOnUse"
       gradientTransform="matrix(0.0386621,-0.05645806,0.08690209,0.06769151,-16.23101,10.934089)"
       spreadMethod="repeat" />
    <linearGradient
       x1="302"
       y1="368.67001"
       x2="406.31"
       y2="368.67001"
       id="linearGradient3072"
       xlink:href="#linearGradient2798"
       gradientUnits="userSpaceOnUse"
       gradientTransform="matrix(0.03390475,-0.04951092,-0.02831083,-0.02205243,31.865436,50.017001)" />
    <linearGradient
       x1="302"
       y1="368.67001"
       x2="406.31"
       y2="368.67001"
       id="linearGradient3075"
       xlink:href="#linearGradient2798"
       gradientUnits="userSpaceOnUse"
       gradientTransform="matrix(0.01959832,-0.02861932,0.02288869,0.01782891,13.304906,27.217763)" />
    <linearGradient
       x1="260.76999"
       y1="417.47"
       x2="532"
       y2="417.47"
       id="linearGradient3078"
       xlink:href="#linearGradient2959"
       gradientUnits="userSpaceOnUse"
       gradientTransform="matrix(0.04349383,-0.06351381,0.08125488,0.06329267,-16.68715,16.509037)" />
    <radialGradient
       cx="117.14"
       cy="334.69"
       r="219.64"
       id="radialGradient3081"
       xlink:href="#linearGradient2959"
       gradientUnits="userSpaceOnUse"
       gradientTransform="matrix(0.0440897,-0.06438395,0.04652086,0.03623695,-5.4068841,26.598803)" />
  </defs>
  <g
     transform="matrix(-0.0074564,0.05397946,0.0310121,0.02296399,-0.34037192,-15.514708)"
     id="g3096"
     style="fill:url(#linearGradient2958);fill-rule:evenodd">
    <path
       d="m 67.14,613.16 a 27.453,27.453 0 1 1 2.623,0.85"
       inkscape:connector-curvature="0"
       transform="matrix(1,0,0,1.3641,-144.41,107.49)"
       id="path3098"
       style="fill:url(#linearGradient2923)" />
    <path
       d="m 67.14,613.16 a 27.453,27.453 0 1 1 2.623,0.85"
       inkscape:connector-curvature="0"
       transform="matrix(1.1654,0,0,1.0666,-120.58,271.01)"
       id="path3100"
       style="fill:url(#linearGradient2925)" />
    <path
       d="m 67.14,613.16 a 27.453,27.453 0 1 1 2.623,0.85"
       inkscape:connector-curvature="0"
       transform="translate(-82.327,294.4)"
       id="path3102"
       style="fill:url(#linearGradient2927)" />
    <path
       d="m 67.14,613.16 a 27.453,27.453 0 1 1 2.623,0.85"
       inkscape:connector-curvature="0"
       transform="matrix(0.87405,0,0,0.79975,-54.187,393.55)"
       id="path3104"
       style="fill:url(#linearGradient2929)" />
    <path
       d="m 67.14,613.16 a 27.453,27.453 0 1 1 2.623,0.85"
       inkscape:connector-curvature="0"
       transform="matrix(0.90002,0,0,0.76334,-33.896,393.94)"
       id="path3106"
       style="fill:url(#linearGradient2931)" />
    <path
       d="m 67.14,613.16 a 27.453,27.453 0 1 1 2.623,0.85"
       inkscape:connector-curvature="0"
       transform="translate(-16.41,243.4)"
       id="path3108"
       style="fill:url(#linearGradient2933)" />
    <path
       d="m 67.14,613.16 a 27.453,27.453 0 1 1 2.623,0.85"
       inkscape:connector-curvature="0"
       transform="translate(9.1619,230.4)"
       id="path3110"
       style="fill:url(#linearGradient2935)" />
    <path
       d="m 67.14,613.16 a 27.453,27.453 0 1 1 2.623,0.85"
       inkscape:connector-curvature="0"
       transform="translate(38.59,210.4)"
       id="path3112"
       style="fill:url(#linearGradient2937)" />
    <path
       d="m 67.14,613.16 a 27.453,27.453 0 1 1 2.623,0.85"
       inkscape:connector-curvature="0"
       transform="translate(69.59,194.33)"
       id="path3114"
       style="fill:url(#linearGradient2939)" />
    <path
       d="m 67.14,613.16 a 27.453,27.453 0 1 1 2.623,0.85"
       inkscape:connector-curvature="0"
       transform="matrix(0.90002,0,0,0.82758,103.61,281.43)"
       id="path3116"
       style="fill:url(#linearGradient2941)" />
    <path
       d="m 67.14,613.16 a 27.453,27.453 0 1 1 2.623,0.85"
       inkscape:connector-curvature="0"
       transform="matrix(0.83612,0,0,0.87383,137.77,251.99)"
       id="path3118"
       style="fill:url(#linearGradient2943)" />
    <path
       d="m 67.14,613.16 a 27.453,27.453 0 1 1 2.623,0.85"
       inkscape:connector-curvature="0"
       transform="matrix(0.76479,0,0,0.87383,167.21,256.99)"
       id="path3120"
       style="fill:url(#linearGradient2946)" />
    <path
       d="m 67.14,613.16 a 27.453,27.453 0 1 1 2.623,0.85"
       inkscape:connector-curvature="0"
       transform="translate(179.59,198.33)"
       id="path3122"
       style="fill:url(#linearGradient2948)" />
    <path
       d="m 67.14,613.16 a 27.453,27.453 0 1 1 2.623,0.85"
       inkscape:connector-curvature="0"
       transform="translate(200.67,208.4)"
       id="path3124"
       style="fill:url(#linearGradient2950)" />
    <path
       d="m 67.14,613.16 a 27.453,27.453 0 1 1 2.623,0.85"
       inkscape:connector-curvature="0"
       transform="matrix(1.1654,0,0,1.1274,206.42,147.03)"
       id="path3126"
       style="fill:url(#linearGradient2952)" />
    <path
       d="m 67.14,613.16 a 27.453,27.453 0 1 1 2.623,0.85"
       inkscape:connector-curvature="0"
       transform="matrix(1.1,0,0,1.2379,233.65,103.08)"
       id="path3128"
       style="fill:url(#linearGradient2954)" />
    <path
       d="m 67.14,613.16 a 27.453,27.453 0 1 1 2.623,0.85"
       inkscape:connector-curvature="0"
       transform="matrix(1.1639,0,0,1.3641,250.49,45.491)"
       id="path3130"
       style="fill:url(#linearGradient2956)" />
  </g>
  <g
     transform="matrix(0.01201648,-0.0175476,0.00951251,0.00740967,21.096742,14.019899)"
     id="g3026"
     style="fill:url(#linearGradient2995);fill-rule:evenodd">
    <path
       d="m 67.14,613.16 a 27.453,27.453 0 1 1 2.623,0.85"
       inkscape:connector-curvature="0"
       transform="matrix(1,0,0,1.3641,-144.41,107.49)"
       id="path3028"
       style="fill:url(#linearGradient2960)" />
    <path
       d="m 67.14,613.16 a 27.453,27.453 0 1 1 2.623,0.85"
       inkscape:connector-curvature="0"
       transform="matrix(1.1654,0,0,1.0666,-120.58,271.01)"
       id="path3030"
       style="fill:url(#linearGradient2962)" />
    <path
       d="m 67.14,613.16 a 27.453,27.453 0 1 1 2.623,0.85"
       inkscape:connector-curvature="0"
       transform="translate(-82.327,294.4)"
       id="path3032"
       style="fill:url(#linearGradient2964)" />
    <path
       d="m 67.14,613.16 a 27.453,27.453 0 1 1 2.623,0.85"
       inkscape:connector-curvature="0"
       transform="matrix(0.87405,0,0,0.79975,-54.187,393.55)"
       id="path3034"
       style="fill:url(#linearGradient2966)" />
    <path
       d="m 67.14,613.16 a 27.453,27.453 0 1 1 2.623,0.85"
       inkscape:connector-curvature="0"
       transform="matrix(0.90002,0,0,0.76334,-33.896,393.94)"
       id="path3036"
       style="fill:url(#linearGradient2968)" />
    <path
       d="m 67.14,613.16 a 27.453,27.453 0 1 1 2.623,0.85"
       inkscape:connector-curvature="0"
       transform="translate(-16.41,243.4)"
       id="path3038"
       style="fill:url(#linearGradient2970)" />
    <path
       d="m 67.14,613.16 a 27.453,27.453 0 1 1 2.623,0.85"
       inkscape:connector-curvature="0"
       transform="translate(9.1619,230.4)"
       id="path3040"
       style="fill:url(#linearGradient2972)" />
    <path
       d="m 67.14,613.16 a 27.453,27.453 0 1 1 2.623,0.85"
       inkscape:connector-curvature="0"
       transform="translate(38.59,210.4)"
       id="path3042"
       style="fill:url(#linearGradient2975)" />
    <path
       d="m 67.14,613.16 a 27.453,27.453 0 1 1 2.623,0.85"
       inkscape:connector-curvature="0"
       transform="translate(69.59,194.33)"
       id="path3044"
       style="fill:url(#linearGradient2977)" />
    <path
       d="m 67.14,613.16 a 27.453,27.453 0 1 1 2.623,0.85"
       inkscape:connector-curvature="0"
       transform="matrix(0.90002,0,0,0.82758,103.61,281.43)"
       id="path3046"
       style="fill:url(#linearGradient2979)" />
    <path
       d="m 67.14,613.16 a 27.453,27.453 0 1 1 2.623,0.85"
       inkscape:connector-curvature="0"
       transform="matrix(0.83612,0,0,0.87383,137.77,251.99)"
       id="path3048"
       style="fill:url(#linearGradient2981)" />
    <path
       d="m 67.14,613.16 a 27.453,27.453 0 1 1 2.623,0.85"
       inkscape:connector-curvature="0"
       transform="matrix(0.76479,0,0,0.87383,167.21,256.99)"
       id="path3050"
       style="fill:url(#linearGradient2983)" />
    <path
       d="m 67.14,613.16 a 27.453,27.453 0 1 1 2.623,0.85"
       inkscape:connector-curvature="0"
       transform="translate(179.59,198.33)"
       id="path3052"
       style="fill:url(#linearGradient2985)" />
    <path
       d="m 67.14,613.16 a 27.453,27.453 0 1 1 2.623,0.85"
       inkscape:connector-curvature="0"
       transform="translate(200.67,208.4)"
       id="path3054"
       style="fill:url(#linearGradient2987)" />
    <path
       d="m 67.14,613.16 a 27.453,27.453 0 1 1 2.623,0.85"
       inkscape:connector-curvature="0"
       transform="matrix(1.1654,0,0,1.1274,206.42,147.03)"
       id="path3056"
       style="fill:url(#linearGradient2989)" />
    <path
       d="m 67.14,613.16 a 27.453,27.453 0 1 1 2.623,0.85"
       inkscape:connector-curvature="0"
       transform="matrix(1.1,0,0,1.2379,233.65,103.08)"
       id="path3058"
       style="fill:url(#linearGradient2991)" />
    <path
       d="m 67.14,613.16 a 27.453,27.453 0 1 1 2.623,0.85"
       inkscape:connector-curvature="0"
       transform="matrix(1.1639,0,0,1.3641,250.49,45.491)"
       id="path3060"
       style="fill:url(#linearGradient2993)" />
  </g>
  <path
     d="m 1.6706941,28.264792 c -2.37313321,3.80026 -2.27519191,9.121157 0.6608888,13.536223 3.913401,5.886333 11.3987601,7.943003 16.7069311,4.58921 l 0.927251,-0.662654 c 1.348661,-1.083352 2.349575,-2.452188 3.010883,-3.976475 l 0.411174,-0.329331 c 1.35851,-1.203265 2.411091,-2.658466 3.15683,-4.238728 l 0.333098,-0.346321 c 3.87004,-4.255851 5.978609,-10.067854 4.917085,-13.561334 -0.963436,-3.174569 -4.282783,-3.369145 -7.879795,-0.778357 -3.584559,-3.109656 -8.879816,-3.40096 -13.127025,-0.317385 -0.56154,0.406991 -1.0717986,0.86464 -1.5500475,1.350144 -1.5380581,0.17908 -3.030858,0.677802 -4.3817497,1.531517 -1.3267309,0.838448 -2.3939186,1.936526 -3.1855237,3.203491 z"
     inkscape:connector-curvature="0"
     id="path2792"
     style="fill:url(#radialGradient3081);fill-rule:evenodd" />
  <path
     d="m 28.236379,26.104623 c 0,0 7.11822,-8.034825 10.59104,-11.803412 2.295708,-2.513626 3.502788,-2.182088 3.502788,-2.182088 L 41.646932,10.134765 39.508304,8.4689017 37.30378,8.203838 c 0,0 -0.769211,-0.5670293 -2.270429,5.084036 C 31.63,20.03723 27.633725,24.273639 27.633725,24.273639 l 0.602654,1.830984 z"
     inkscape:connector-curvature="0"
     id="path2908"
     style="fill:url(#linearGradient3078);fill-rule:evenodd" />
  <path
     d="m 28.74028,21.744359 c -0.05323,0.0832 -0.05949,0.194222 -0.0072,0.281672 0.06924,0.117235 0.215522,0.147425 0.326838,0.06857 l 0.02004,-0.01653 c 0.09652,-0.08454 0.120023,-0.229854 0.05555,-0.339485 -0.06967,-0.1166 -0.215956,-0.146791 -0.32646,-0.0673 -0.02845,0.01972 -0.05165,0.0445 -0.06873,0.07307 z m -0.349071,0.697154 c -0.08069,0.125113 -0.09636,0.28627 -0.03141,0.407954 0.08825,0.162241 0.289372,0.194237 0.449469,0.06962 l 0.02813,-0.02289 c 0.140744,-0.130929 0.185402,-0.343522 0.103477,-0.49499 -0.08782,-0.162877 -0.288937,-0.194873 -0.449035,-0.07025 -0.04002,0.03116 -0.07442,0.06864 -0.100629,0.110558 z M 28.168953,23.2355 c -0.0938,0.146071 -0.118449,0.329447 -0.04979,0.465714 0.02395,0.0469 0.05698,0.08237 0.09528,0.108308 -0.0114,0.0057 -0.02236,0.01082 -0.03257,0.01845 -0.195429,0.138004 -0.25332,0.417228 -0.129395,0.623812 0.06772,0.112163 0.175176,0.17541 0.289864,0.1917 -0.04125,0.01657 -0.08386,0.03694 -0.123883,0.0681 -0.213695,0.16468 -0.291651,0.475023 -0.174685,0.691769 0.116965,0.216747 0.384726,0.258775 0.598857,0.09346 l 0.03672,-0.03178 c 0.187785,-0.174149 0.248286,-0.457184 0.137969,-0.659986 -0.05667,-0.106473 -0.151212,-0.170377 -0.25711,-0.188586 0.02361,-0.01083 0.04815,-0.02482 0.07025,-0.04072 l 0.03449,-0.0267 c 0.169952,-0.148109 0.210504,-0.403831 0.0941,-0.597741 -0.04793,-0.07921 -0.117543,-0.128568 -0.193912,-0.160785 0.01694,-0.01018 0.03414,-0.01529 0.05076,-0.02864 l 0.03205,-0.0286 c 0.161827,-0.154438 0.219877,-0.397504 0.134348,-0.567363 -0.09142,-0.181267 -0.314298,-0.208784 -0.496726,-0.06065 -0.04643,0.03688 -0.08561,0.08135 -0.116607,0.130252 z"
     inkscape:connector-curvature="0"
     id="path2928"
     style="fill:url(#linearGradient3075);fill-rule:evenodd" />
  <path
     d="m 35.956939,22.934326 c -0.09981,0.138469 -0.245847,0.224368 -0.372575,0.207464 -0.16897,-0.02254 -0.239047,-0.222239 -0.156678,-0.444413 l 0.01704,-0.04126 c 0.09227,-0.205699 0.280154,-0.341786 0.437955,-0.321132 0.168535,0.02317 0.239047,0.222239 0.156678,0.444414 -0.02081,0.05586 -0.04942,0.108564 -0.08242,0.154931 z m -0.85297,1.012694 c -0.148897,0.208336 -0.359672,0.345098 -0.534297,0.330818 -0.233142,-0.01798 -0.315724,-0.299496 -0.184422,-0.627697 l 0.02504,-0.05841 c 0.144279,-0.303483 0.416907,-0.519651 0.635079,-0.501642 0.233954,0.01862 0.316536,0.300129 0.184422,0.627697 -0.03241,0.08189 -0.07592,0.159995 -0.125826,0.22923 z m -1.005992,0.888628 c -0.174066,0.243271 -0.413146,0.40863 -0.60709,0.400727 -0.06725,-0.0037 -0.120581,-0.0277 -0.163039,-0.06759 -0.0064,0.02031 -0.01037,0.04062 -0.01768,0.0622 -0.143551,0.389755 -0.500896,0.671413 -0.800657,0.628808 -0.162298,-0.02318 -0.26771,-0.140355 -0.313114,-0.303307 -0.01309,0.07551 -0.03165,0.153573 -0.06362,0.234829 -0.175736,0.436756 -0.570429,0.771133 -0.882368,0.746311 -0.310692,-0.02482 -0.421217,-0.400174 -0.245481,-0.83693 l 0.03354,-0.07809 c 0.192661,-0.405068 0.555169,-0.692444 0.846771,-0.668855 0.152662,0.01178 0.2574,0.109923 0.30245,0.257016 0.01005,-0.04379 0.02309,-0.09012 0.04025,-0.135191 l 0.02751,-0.0711 c 0.161346,-0.359338 0.492046,-0.598446 0.772339,-0.558343 0.114688,0.01629 0.195279,0.08783 0.253597,0.180979 0.01058,-0.03364 0.01231,-0.06346 0.02706,-0.09774 l 0.03157,-0.06793 c 0.172344,-0.351745 0.481975,-0.609212 0.724891,-0.598224 0.258699,0.01159 0.339814,0.328 0.181637,0.706363 -0.03986,0.09459 -0.09001,0.186029 -0.148557,0.266063 z"
     inkscape:connector-curvature="0"
     id="path2947"
     style="fill:url(#linearGradient3072);fill-rule:evenodd" />
  <g
     transform="matrix(0.03353461,-0.04897042,0.04280751,0.03334448,-10.056168,-9.223721)"
     id="g3079"
     style="fill:url(#linearGradient3031);fill-rule:evenodd">
    <path
       d="m 67.14,613.16 a 27.453,27.453 0 1 1 2.623,0.85"
       inkscape:connector-curvature="0"
       transform="matrix(1,0,0,1.3641,-144.41,107.49)"
       id="path3001"
       style="fill:url(#linearGradient2997)" />
    <path
       d="m 67.14,613.16 a 27.453,27.453 0 1 1 2.623,0.85"
       inkscape:connector-curvature="0"
       transform="matrix(1.1654,0,0,1.0666,-120.58,271.01)"
       id="path3019"
       style="fill:url(#linearGradient2999)" />
    <path
       d="m 67.14,613.16 a 27.453,27.453 0 1 1 2.623,0.85"
       inkscape:connector-curvature="0"
       transform="translate(-82.327,294.4)"
       id="path3023"
       style="fill:url(#linearGradient3001)" />
    <path
       d="m 67.14,613.16 a 27.453,27.453 0 1 1 2.623,0.85"
       inkscape:connector-curvature="0"
       transform="matrix(0.87405,0,0,0.79975,-54.187,393.55)"
       id="path3027"
       style="fill:url(#linearGradient3003)" />
    <path
       d="m 67.14,613.16 a 27.453,27.453 0 1 1 2.623,0.85"
       inkscape:connector-curvature="0"
       transform="matrix(0.90002,0,0,0.76334,-33.896,393.94)"
       id="path3031"
       style="fill:url(#linearGradient3005)" />
    <path
       d="m 67.14,613.16 a 27.453,27.453 0 1 1 2.623,0.85"
       inkscape:connector-curvature="0"
       transform="translate(-16.41,243.4)"
       id="path3035"
       style="fill:url(#linearGradient3007)" />
    <path
       d="m 67.14,613.16 a 27.453,27.453 0 1 1 2.623,0.85"
       inkscape:connector-curvature="0"
       transform="translate(9.1619,230.4)"
       id="path3039"
       style="fill:url(#linearGradient3009)" />
    <path
       d="m 67.14,613.16 a 27.453,27.453 0 1 1 2.623,0.85"
       inkscape:connector-curvature="0"
       transform="translate(38.59,210.4)"
       id="path3043"
       style="fill:url(#linearGradient3011)" />
    <path
       d="m 67.14,613.16 a 27.453,27.453 0 1 1 2.623,0.85"
       inkscape:connector-curvature="0"
       transform="translate(69.59,194.33)"
       id="path3047"
       style="fill:url(#linearGradient3013)" />
    <path
       d="m 67.14,613.16 a 27.453,27.453 0 1 1 2.623,0.85"
       inkscape:connector-curvature="0"
       transform="matrix(0.90002,0,0,0.82758,103.61,281.43)"
       id="path3051"
       style="fill:url(#linearGradient3015)" />
    <path
       d="m 67.14,613.16 a 27.453,27.453 0 1 1 2.623,0.85"
       inkscape:connector-curvature="0"
       transform="matrix(0.83612,0,0,0.87383,137.77,251.99)"
       id="path3055"
       style="fill:url(#linearGradient3017)" />
    <path
       d="m 67.14,613.16 a 27.453,27.453 0 1 1 2.623,0.85"
       inkscape:connector-curvature="0"
       transform="matrix(0.76479,0,0,0.87383,167.21,256.99)"
       id="path3059"
       style="fill:url(#linearGradient3019)" />
    <path
       d="m 67.14,613.16 a 27.453,27.453 0 1 1 2.623,0.85"
       inkscape:connector-curvature="0"
       transform="translate(179.59,198.33)"
       id="path3063"
       style="fill:url(#linearGradient3021)" />
    <path
       d="m 67.14,613.16 a 27.453,27.453 0 1 1 2.623,0.85"
       inkscape:connector-curvature="0"
       transform="translate(200.67,208.4)"
       id="path3067"
       style="fill:url(#linearGradient3023)" />
    <path
       d="m 67.14,613.16 a 27.453,27.453 0 1 1 2.623,0.85"
       inkscape:connector-curvature="0"
       transform="matrix(1.1654,0,0,1.1274,206.42,147.03)"
       id="path3075"
       style="fill:url(#linearGradient3025)" />
    <path
       d="m 67.14,613.16 a 27.453,27.453 0 1 1 2.623,0.85"
       inkscape:connector-curvature="0"
       transform="matrix(1.1,0,0,1.2379,233.65,103.08)"
       id="path3015"
       style="fill:url(#linearGradient3027)" />
    <path
       d="m 67.14,613.16 a 27.453,27.453 0 1 1 2.623,0.85"
       inkscape:connector-curvature="0"
       transform="matrix(1.1639,0,0,1.3641,250.49,45.491)"
       id="path3011"
       style="fill:url(#linearGradient3029)" />
  </g>
  <g
     transform="matrix(0.03618643,-0.05284285,-0.03111412,-0.02423603,60.405785,49.62385)"
     id="g3132"
     style="fill:url(#linearGradient3098);fill-rule:evenodd">
    <path
       d="m 67.14,613.16 a 27.453,27.453 0 1 1 2.623,0.85"
       inkscape:connector-curvature="0"
       transform="matrix(1,0,0,1.3641,-144.41,107.49)"
       id="path3134"
       style="fill:url(#linearGradient3033)" />
    <path
       d="m 67.14,613.16 a 27.453,27.453 0 1 1 2.623,0.85"
       inkscape:connector-curvature="0"
       transform="matrix(1.1654,0,0,1.0666,-120.58,271.01)"
       id="path3136"
       style="fill:url(#linearGradient3035)" />
    <path
       d="m 67.14,613.16 a 27.453,27.453 0 1 1 2.623,0.85"
       inkscape:connector-curvature="0"
       transform="translate(-82.327,294.4)"
       id="path3138"
       style="fill:url(#linearGradient3037)" />
    <path
       d="m 67.14,613.16 a 27.453,27.453 0 1 1 2.623,0.85"
       inkscape:connector-curvature="0"
       transform="matrix(0.87405,0,0,0.79975,-54.187,393.55)"
       id="path3140"
       style="fill:url(#linearGradient3039)" />
    <path
       d="m 67.14,613.16 a 27.453,27.453 0 1 1 2.623,0.85"
       inkscape:connector-curvature="0"
       transform="matrix(0.90002,0,0,0.76334,-33.896,393.94)"
       id="path3142"
       style="fill:url(#linearGradient3041)" />
    <path
       d="m 67.14,613.16 a 27.453,27.453 0 1 1 2.623,0.85"
       inkscape:connector-curvature="0"
       transform="translate(-16.41,243.4)"
       id="path3144"
       style="fill:url(#linearGradient3043)" />
    <path
       d="m 67.14,613.16 a 27.453,27.453 0 1 1 2.623,0.85"
       inkscape:connector-curvature="0"
       transform="translate(9.1619,230.4)"
       id="path3146"
       style="fill:url(#linearGradient3045)" />
    <path
       d="m 67.14,613.16 a 27.453,27.453 0 1 1 2.623,0.85"
       inkscape:connector-curvature="0"
       transform="translate(38.59,210.4)"
       id="path3148"
       style="fill:url(#linearGradient3047)" />
    <path
       d="m 67.14,613.16 a 27.453,27.453 0 1 1 2.623,0.85"
       inkscape:connector-curvature="0"
       transform="translate(69.59,194.33)"
       id="path3150"
       style="fill:url(#linearGradient3049)" />
    <path
       d="m 67.14,613.16 a 27.453,27.453 0 1 1 2.623,0.85"
       inkscape:connector-curvature="0"
       transform="matrix(0.90002,0,0,0.82758,103.61,281.43)"
       id="path3152"
       style="fill:url(#linearGradient3051)" />
    <path
       d="m 67.14,613.16 a 27.453,27.453 0 1 1 2.623,0.85"
       inkscape:connector-curvature="0"
       transform="matrix(0.83612,0,0,0.87383,137.77,251.99)"
       id="path3154"
       style="fill:url(#linearGradient3053)" />
    <path
       d="m 67.14,613.16 a 27.453,27.453 0 1 1 2.623,0.85"
       inkscape:connector-curvature="0"
       transform="matrix(0.76479,0,0,0.87383,167.21,256.99)"
       id="path3156"
       style="fill:url(#linearGradient3055)" />
    <path
       d="m 67.14,613.16 a 27.453,27.453 0 1 1 2.623,0.85"
       inkscape:connector-curvature="0"
       transform="translate(179.59,198.33)"
       id="path3158"
       style="fill:url(#linearGradient3057)" />
    <path
       d="m 67.14,613.16 a 27.453,27.453 0 1 1 2.623,0.85"
       inkscape:connector-curvature="0"
       transform="translate(200.67,208.4)"
       id="path3160"
       style="fill:url(#linearGradient3059)" />
    <path
       d="m 67.14,613.16 a 27.453,27.453 0 1 1 2.623,0.85"
       inkscape:connector-curvature="0"
       transform="matrix(1.1654,0,0,1.1274,206.42,147.03)"
       id="path3162"
       style="fill:url(#linearGradient3061)" />
    <path
       d="m 67.14,613.16 a 27.453,27.453 0 1 1 2.623,0.85"
       inkscape:connector-curvature="0"
       transform="matrix(1.1,0,0,1.2379,233.65,103.08)"
       id="path3164"
       style="fill:url(#linearGradient3063)" />
    <path
       d="m 67.14,613.16 a 27.453,27.453 0 1 1 2.623,0.85"
       inkscape:connector-curvature="0"
       transform="matrix(1.1639,0,0,1.3641,250.49,45.491)"
       id="path3166"
       style="fill:url(#linearGradient3065)" />
  </g>
  <path
     d="m 41.158031,11.935262 a 2.7227653,1.1245765 38.640621 1 1 0.126745,-0.03719"
     inkscape:connector-curvature="0"
     id="path3202"
     style="fill:url(#linearGradient3032);fill-rule:evenodd" />
  <path
     d="m 19.037837,25.623585 c 1.353077,0.840676 2.0288,1.929955 1.512833,2.563333 l -0.118816,0.120741 c -0.690086,0.574691 -2.376347,0.400692 -3.935856,-0.405996 -0.565828,-0.292709 -1.032049,-0.634441 -1.392005,-0.983973 1.367543,0.01534 2.867885,-0.4853 3.933844,-1.294105 z"
     inkscape:connector-curvature="0"
     id="path3268"
     style="fill:url(#linearGradient3028);fill-rule:evenodd" />
  <path
     d="m 19.411046,28.149565 a 1.2964576,0.73534699 39.588881 1 1 0.07075,-0.03368"
     inkscape:connector-curvature="0"
     id="path3281"
     style="fill-rule:evenodd" />
  <path
     d="m 19.408799,27.56043 a 0.52240754,0.20193733 38.534878 1 1 0.02306,-0.0064"
     inkscape:connector-curvature="0"
     id="path3283"
     style="fill:#ffffff;fill-rule:evenodd" />
  <path
     d="m 14.206487,45.718347 a 9.2845858,6.6699095 41.694176 1 1 0.586876,-0.35232"
     inkscape:connector-curvature="0"
     id="path2207"
     style="opacity:0.77209;fill:url(#linearGradient3022);fill-rule:evenodd" />
  <path
     d="m 16.950438,31.534889 a 5.4453574,6.4884451 82.236072 1 1 0.629469,-0.160708"
     inkscape:connector-curvature="0"
     id="path2217"
     style="opacity:0.77209;fill:url(#linearGradient3016);fill-rule:evenodd" />
  <path
     d="m 12.898022,34.527662 c 0,0 2.602153,-1.643818 1.56489,2.036081 -1.03645,3.680532 -3.833552,7.171972 -3.833552,7.171972 L 8.6274705,46.14415 c 0,0 -0.8833757,0.531262 -0.040623,0.299493 0.842753,-0.231769 2.7512515,-1.141029 3.2495735,-2.430946 0.498321,-1.289917 2.095281,-3.907609 2.095281,-3.907609 0,0 0.377699,-1.192011 0.458948,-0.189855 0.08081,1.002791 -1.549417,4.2695 -1.549417,4.2695 0,0 -0.538946,0.788839 0.600698,0.763981 1.139644,-0.02486 0.923566,-0.02955 1.583946,-0.915662 0.660816,-0.886748 0.836274,0.218009 0.828541,-1.733925 -0.0069,-1.951301 -0.385059,-2.359797 -0.53329,-3.664428 -0.149479,-1.304628 -0.466682,-1.762079 -0.162877,-2.00558 0.302557,-0.243499 -4.37e-4,-0.799936 0.687175,-0.28478 0.688424,0.515789 1.018206,-0.728155 1.490992,1.383449 0.473163,2.112872 -0.296074,1.394864 0.358647,3.360876 0.655533,1.966644 -0.301739,2.645845 1.666013,1.688269 1.968998,-0.957579 2.772378,-0.08928 3.493257,-1.824289 0.720501,-1.736271 1.813043,-1.011857 0.05887,-2.451298 -1.753739,-1.440077 -0.970671,-0.822323 -2.805656,-1.663412 -1.834172,-0.840457 -1.692423,0.11338 -2.522597,-1.356246 -0.830174,-1.469626 0.121433,-0.897845 -1.335416,-2.131009 -1.457661,-1.233798 -0.412661,-1.36062 -3.649657,-1.431641 -3.2365611,-0.07165 -2.535557,-1.257261 -3.9310852,0.664173 -1.3950926,1.920799 -0.5718372,2.239695 -0.5718372,2.239695 0,0 -0.1356478,-1.404882 1.5640688,-1.166836 1.6989046,0.237414 1.1802736,2.077363 1.1802736,2.077363 0,0 -4.1183035,3.663158 -1.7248775,2.364172 2.3929915,-1.298351 3.6272785,-1.221243 3.8364375,-2.367281 0.208347,-1.14667 0.03981,-1.100697 -0.05484,-1.202662 z"
     inkscape:connector-curvature="0"
     id="path2221"
     style="opacity:0.21859999;fill:url(#linearGradient3012);fill-rule:evenodd;stroke:#000000;stroke-width:0.07348166px" />
  <path
     d="m 12.769396,27.961556 c 2.320999,0.249632 0.928201,-0.445703 2.320999,0.249632 1.392799,0.695335 2.010809,0.88455 2.010809,0.88455 l 2.054304,0.821035 c 0,0 0.531023,0.316242 0.0057,-0.19032 -0.52529,-0.506563 -1.923821,-1.011577 -1.923821,-1.011577 0,0 -1.166233,0.0655 -1.967316,-0.948063 -0.801083,-1.013568 -1.082609,-1.330252 -0.409639,-1.585192 0.672971,-0.25494 0.07552,0.253613 1.459224,-0.12946 1.383701,-0.383073 1.920457,-0.257151 2.604893,-0.892732 0.684436,-0.63558 0.852678,-0.699315 0.333121,-1.396198 -0.519558,-0.696882 -0.9201,-1.203666 -1.186795,-0.632263 -0.266696,0.571403 -0.04586,1.522562 -0.04586,1.522562 0,0 0.481797,0.570077 -1.43866,0.827228 -1.920458,0.257151 -3.025998,-0.31182 -3.396879,0.957572 -0.370882,1.269392 -1.128472,0.192311 -0.420109,1.523226 z"
     inkscape:connector-curvature="0"
     id="path2976"
     style="opacity:0.33488045;fill:url(#linearGradient3006);fill-rule:evenodd;stroke:#000000;stroke-width:0.08895869px" />
  <path
     d="m 34.670963,14.537586 c 0,0 2.79507,-4.445525 2.25495,-5.8401749 -0.54012,-1.3946501 0.273425,1.9660529 1.71545,2.4075539 1.442025,0.441501 -1.659494,-0.123932 -1.659494,-0.123932 l -0.530028,2.411535 -1.780878,1.145018 z"
     inkscape:connector-curvature="0"
     id="path3012"
     style="opacity:0.67580997;fill:url(#linearGradient3002);fill-rule:evenodd" />
  <path
     d="M 24.656351,35.808609 A 2.1602382,6.9232684 33.840153 1 1 24.55661,35.575652"
     inkscape:connector-curvature="0"
     id="path3022"
     style="opacity:0.50698003;fill:url(#linearGradient2998);fill-rule:evenodd" />
</svg>
