<?xml version="1.0" encoding="UTF-8" standalone="no"?>
<!-- Created with Inkscape (http://www.inkscape.org/) -->

<svg
   xmlns:dc="http://purl.org/dc/elements/1.1/"
   xmlns:cc="http://creativecommons.org/ns#"
   xmlns:rdf="http://www.w3.org/1999/02/22-rdf-syntax-ns#"
   xmlns:svg="http://www.w3.org/2000/svg"
   xmlns="http://www.w3.org/2000/svg"
   xmlns:xlink="http://www.w3.org/1999/xlink"
   xmlns:inkscape="http://www.inkscape.org/namespaces/inkscape"
   version="1.0"
   width="48"
   height="48"
   viewBox="0 0 48 48"
   id="svg2713"
   xml:space="preserve"
   style="fill-rule:evenodd"><metadata
     id="metadata39"><rdf:RDF><cc:Work
         rdf:about=""><dc:format>image/svg+xml</dc:format><dc:type
           rdf:resource="http://purl.org/dc/dcmitype/StillImage" /></cc:Work></rdf:RDF></metadata><defs
     id="defs2715"><style
       type="text/css"
       id="style2717" /><radialGradient
       cx="35.626801"
       cy="134.98801"
       r="12.6696"
       fx="35.626801"
       fy="134.98801"
       id="id0"
       gradientUnits="userSpaceOnUse"><stop
         id="stop2720"
         style="stop-color:#fff212;stop-opacity:1"
         offset="0" /><stop
         id="stop2724"
         style="stop-color:#ed3237;stop-opacity:1"
         offset="1" /></radialGradient><radialGradient
       cx="166.39915"
       cy="41.354259"
       r="19.181074"
       fx="166.39915"
       fy="41.354259"
       id="radialGradient2889"
       xlink:href="#id0"
       gradientUnits="userSpaceOnUse"
       gradientTransform="matrix(-0.18330588,-0.12022094,0.13165934,-0.20012932,63.164036,37.964068)" /><radialGradient
       cx="159.91669"
       cy="227.87195"
       r="19.181129"
       fx="159.91669"
       fy="227.87195"
       id="radialGradient2892"
       xlink:href="#id0"
       gradientUnits="userSpaceOnUse"
       gradientTransform="matrix(0.20043675,-0.12734483,0.12030454,0.18877393,-27.730414,19.660392)" /><radialGradient
       cx="9.8203402"
       cy="108.2161"
       r="19.181072"
       fx="9.8203402"
       fy="108.2161"
       id="radialGradient2896"
       xlink:href="#id0"
       gradientUnits="userSpaceOnUse"
       gradientTransform="matrix(0.01809342,0.23518311,-0.25054676,0.01921619,29.837778,15.850538)" /><radialGradient
       cx="155.55669"
       cy="159.07855"
       r="44.963108"
       fx="155.55669"
       fy="159.07855"
       id="radialGradient2906"
       xlink:href="#id0"
       gradientUnits="userSpaceOnUse"
       gradientTransform="matrix(0.12961516,0.36235997,-0.29927007,0.1067178,47.647932,-52.144743)" /></defs><path
     d="m 2.3858134,20.119583 0.6361108,-0.366214 0.010371,0.01486 0.00942,0.0151 0.00849,0.01539 0.00754,0.01559 0.00659,0.0158 0.00566,0.01593 0.00474,0.01609 0.00384,0.01616 0.00292,0.01624 0.00203,0.01629 0.0011,0.0163 2.307e-4,0.01628 -6.344e-4,0.01624 -0.00152,0.01616 -0.00238,0.01607 -0.00325,0.01593 -0.00411,0.01576 -0.00495,0.01558 -0.00578,0.01534 -0.00662,0.01511 -0.00745,0.01482 -0.00826,0.01449 -0.00909,0.01417 -0.00989,0.0138 -0.010669,0.0134 -0.011474,0.01298 -0.012278,0.01251 -0.013054,0.01202 -0.013798,0.01152 -0.014573,0.01098 -0.015348,0.0104 -0.016093,0.0098 -0.01663,0.009 -0.016959,0.0082 -0.017256,0.0074 -0.017524,0.0065 -0.017702,0.0057 -0.017941,0.0049 -0.01806,0.004 -0.01821,0.0032 -0.018298,0.0024 -0.018329,0.0015 -0.018389,7.67e-4 -0.018358,2.7e-5 -0.018298,-7.68e-4 -0.01827,-0.0015 -0.01812,-0.0024 -0.018,-0.0031 -0.017822,-0.0038 -0.017583,-0.0046 -0.017376,-0.0053 -0.017107,-0.006 -0.01678,-0.0068 -0.016451,-0.0075 -0.016065,-0.0082 -0.015676,-0.0089 -0.0152,-0.0096 -0.014752,-0.01033 -0.014246,-0.011 -0.01371,-0.01169 -0.013114,-0.01236 -0.012518,-0.01305 -0.011891,-0.01368 -0.011205,-0.0144 0,0 z M 0.179215,15.707454 0.92732458,15.58595 l 0,0 0.0264053,0.115896 0.0289385,0.117011 0.0314121,0.118074 0.033975,0.119032 0.036508,0.120096 0.039071,0.121132 0.041545,0.122168 0.044078,0.123075 0.046641,0.12403 0.049175,0.125013 0.051708,0.125997 0.054211,0.12685 0.056744,0.127805 0.059248,0.128656 0.061811,0.129562 0.064285,0.130437 0.066818,0.131262 0.069351,0.132086 0.071855,0.132964 0.074358,0.133735 0.076832,0.134506 0.079365,0.135302 0.081868,0.136049 0.084342,0.136819 0.086845,0.137563 0.089319,0.138282 0.091822,0.138972 0.094266,0.13969 0.09677,0.140327 0.099213,0.141047 0.101687,0.141685 0.1041311,0.142296 L 2.3858134,20.119583 2.2779869,19.972236 2.1726043,19.825393 2.0696953,19.679137 1.96923,19.533383 1.871209,19.388164 1.775691,19.243554 1.682617,19.099476 1.592017,18.955959 1.50392,18.813077 1.418297,18.670756 1.335177,18.529018 1.254531,18.387919 1.176477,18.24743 1.100867,18.107608 1.02782,17.968395 0.957247,17.829796 0.88926642,17.691913 0.8238195,17.554695 0.76087601,17.418063 0.70055516,17.282175 0.64276755,17.146978 0.5876026,17.012472 0.53497088,16.878684 0.484932,16.74556 0.43751577,16.613183 0.39269236,16.481548 0.35052142,16.350683 0.31091352,16.220486 0.27401767,16.091032 0.23974447,15.962428 0.2081237,15.834569 0.179215,15.707454 l 0,0 0,0 z m 0.53394675,-3.578107 0.65882045,0.345636 0,-2.7e-5 -0.050814,0.07942 -0.048429,0.08056 -0.046045,0.08165 -0.043691,0.08282 -0.041337,0.08396 -0.038952,0.08508 -0.036628,0.08628 -0.034303,0.08739 -0.0318889,0.08851 -0.0295644,0.08973 -0.0271801,0.09088 -0.0248555,0.09204 -0.0224713,0.09322 -0.0201169,0.09436 -0.0177327,0.09558 -0.0153782,0.0967 -0.0129344,0.09787 -0.01058,0.09907 -0.008166,0.100181 -0.005752,0.101351 -0.003308,0.102549 -9.2462e-4,0.10369 0.001549,0.104806 0.003964,0.105925 0.006467,0.107094 0.008881,0.108184 0.0113549,0.109301 0.0138583,0.110392 0.0163319,0.111481 0.0188353,0.112597 0.021309,0.113635 0.0238422,0.114698 -0.74810959,0.121504 -0.0262265,-0.126184 -0.0235144,-0.125333 -0.020862,-0.124562 -0.0181201,-0.123763 -0.01540804,-0.122942 -0.01272579,-0.122115 -0.0099541,-0.121266 -0.0072421,-0.120387 -0.0045002,-0.119591 -0.0017285,-0.118685 0.001043,-0.117782 0.003785,-0.116852 0.0065864,-0.115975 0.0093581,-0.115017 0.01218934,-0.114061 0.014961,-0.113128 0.01782207,-0.112119 0.0205937,-0.111057 0.0234548,-0.110097 0.0262861,-0.10901 0.0291471,-0.107998 0.0320082,-0.106827 0.0348097,-0.105738 0.0377303,-0.104676 0.0405616,-0.103451 0.0434226,-0.102228 0.0462837,-0.101033 0.0491448,-0.09981 0.0519761,-0.09856 0.0548669,-0.09728 0.0576684,-0.09593 0.0605295,-0.09463 0,-2.5e-5 0,0 z M 11.562807,9.6537115 l -0.100316,0.6688865 0,0 -0.469096,-0.05602 -0.461437,-0.04802 -0.453598,-0.03999 -0.4454621,-0.03196 -0.4371474,-0.02393 -0.4285344,-0.01585 -0.4197423,-0.0078 -0.4106527,3.84e-4 -0.4013839,0.0083 -0.3917874,0.01643 -0.382042,0.02451 -0.3719985,0.0326 -0.361776,0.0406 -0.3511959,0.04863 -0.3405268,0.05666 -0.3294996,0.06461 -0.3182938,0.07256 -0.3068794,0.08048 -0.2952263,0.0883 -0.2834246,0.09609 -0.2713543,0.103823 -0.2591651,0.111481 -0.2468564,0.119086 -0.2343692,0.126662 -0.2218221,0.13416 -0.209156,0.141631 -0.1965197,0.149129 -0.1837937,0.156627 -0.171068,0.164204 -0.1583422,0.171808 -0.1455568,0.179597 -0.1328012,0.187628 -0.65882045,-0.345636 0.15783556,-0.222936 0.17285619,-0.213311 0.1874893,-0.2035 0.2017053,-0.193557 0.2154444,-0.183639 0.2288258,-0.173642 0.2417601,-0.163753 0.2543669,-0.153833 0.2665562,-0.144051 0.2783877,-0.134347 0.2899812,-0.124775 0.3012764,-0.115257 0.3122735,-0.1058708 0.3230027,-0.096645 0.3335826,-0.087445 0.3438647,-0.078407 0.3539378,-0.069392 0.3638324,-0.06054 0.3735482,-0.051765 0.3829956,-0.042993 0.3923239,-0.034351 0.4014138,-0.025737 0.4103247,-0.017236 0.4190273,-0.00871 0.4275805,-1.919e-4 0.4358956,0.00806 0.4440913,0.01643 0.4519891,0.024727 0.4597085,0.032969 0.467307,0.04121 0.474669,0.049398 0.481792,0.057563 0,0 0,0 z m 18.090649,6.0358755 -0.376825,0.58386 0,0 -0.597486,-0.303361 -0.59713,-0.296025 -0.596533,-0.288739 -0.595786,-0.281349 -0.594774,-0.273983 -0.593553,-0.266565 -0.592033,-0.259148 -0.590363,-0.25165 -0.588396,-0.244179 -0.58625,-0.236654 -0.583897,-0.229131 -0.581214,-0.221526 -0.578413,-0.213922 -0.575312,-0.206265 -0.572006,-0.198635 -0.568429,-0.190977 -0.564672,-0.18324 -0.560651,-0.175505 -0.556447,-0.167713 -0.551918,-0.159951 -0.547269,-0.152133 -0.542291,-0.144262 -0.537106,-0.136446 -0.531712,-0.128499 -0.526079,-0.120573 -0.520177,-0.112677 -0.514039,-0.104676 -0.50772,-0.09667 -0.501104,-0.08867 -0.494309,-0.08064 -0.487187,-0.07258 -0.479884,-0.0645 0.100316,-0.6688865 0.492223,0.06615 0.499107,0.074338 0.505754,0.082501 0.51225,0.090635 0.518509,0.098746 0.524529,0.106802 0.530311,0.114858 0.535914,0.122859 0.541367,0.130838 0.546464,0.138786 0.551471,0.14671 0.55615,0.154632 0.56068,0.16245 0.564971,0.170319 0.569054,0.178107 0.5729,0.185953 0.576535,0.193637 0.579932,0.201399 0.58312,0.209084 0.586103,0.216794 0.588843,0.224397 0.591348,0.232055 0.593641,0.239632 0.595728,0.24721 0.597576,0.254734 0.599245,0.262284 0.600585,0.269757 0.601807,0.277227 0.602763,0.284645 0.603506,0.29209 0.603982,0.299428 0.604281,0.306817 0,0 0,0 z m 14.900233,10.952741 -0.601957,0.408755 0,0 L 43.653079,26.71313 43.342624,26.373502 43.020484,26.032413 42.686842,25.69002 42.341785,25.346484 41.985554,25.00199 41.618234,24.65678 41.239946,24.310931 40.85093,23.964682 40.451276,23.618142 40.041159,23.271548 39.620732,22.925035 39.190111,22.578814 38.749477,22.232992 38.299007,21.88778 37.838764,21.543339 37.368982,21.19983 36.889783,20.857437 36.401315,20.516321 35.903757,20.176641 35.3972,19.838554 34.88185,19.50225 34.357858,19.167888 33.825311,18.835651 33.284419,18.505675 32.735304,18.178117 32.17814,17.853219 l -0.565089,-0.32216 -0.57284,-0.319236 -0.580439,-0.316097 -0.587919,-0.312854 -0.595222,-0.309423 0.376825,-0.58386 0.602077,0.312986 0.594714,0.31647 0.587234,0.31982 0.579576,0.322958 0.571766,0.325987 0.563899,0.328834 0.555792,0.331545 0.547567,0.334018 0.539221,0.336436 0.530729,0.338619 0.522026,0.340663 0.513233,0.342554 0.504293,0.344252 0.495202,0.345849 0.485935,0.347233 0.476577,0.348454 0.467039,0.349546 0.457383,0.350475 0.447548,0.351246 0.437595,0.351859 0.427462,0.352309 0.417209,0.352602 0.406809,0.352709 0.396286,0.352735 0.38556,0.352496 0.37477,0.352231 0.363742,0.351724 0.352627,0.351087 0.341392,0.350316 0.329945,0.349386 0.318384,0.348295 0.306641,0.347045 0,0 0,0 z m 2.672951,9.598909 -0.636528,-0.377328 -2.8e-5,2.7e-5 0.133427,-0.19159 0.118556,-0.197491 0.103952,-0.203554 0.08959,-0.209614 0.07537,-0.215758 0.06124,-0.221951 0.04718,-0.22812 0.03314,-0.234343 0.0192,-0.24051 0.0052,-0.246597 -0.0088,-0.252581 -0.02277,-0.258455 -0.03675,-0.264147 -0.05067,-0.269729 -0.06458,-0.27502 -0.07841,-0.280259 -0.09224,-0.285204 -0.105949,-0.289988 -0.11957,-0.294562 -0.133157,-0.298896 -0.14657,-0.303096 -0.159893,-0.307005 -0.173154,-0.310754 -0.186267,-0.314343 -0.199202,-0.317666 -0.212076,-0.320857 -0.224804,-0.323782 -0.237439,-0.326625 -0.249866,-0.329153 -0.262175,-0.331546 -0.274424,-0.333806 -0.286435,-0.335851 0.601957,-0.408755 0.294541,0.345317 0.28259,0.343749 0.27052,0.342074 0.258271,0.340266 0.245903,0.338271 0.233386,0.336172 0.220779,0.333938 0.207904,0.331544 0.19497,0.329074 0.181855,0.326439 0.168596,0.323702 0.155153,0.320805 0.141564,0.317825 0.127735,0.314715 0.113815,0.311472 0.09963,0.308174 0.08527,0.304666 0.07066,0.301076 0.05585,0.297327 0.0408,0.293498 0.02551,0.289457 0.0099,0.285231 -0.0059,0.280842 -0.02206,0.276244 -0.03844,0.271352 -0.05505,0.266192 -0.07197,0.260717 -0.08902,0.254893 -0.106336,0.248699 -0.123681,0.242159 -0.141147,0.235191 -0.158639,0.227801 -3.1e-5,2.7e-5 0,0 z m -4.528145,2.291304 -0.147821,-0.664208 0,-2.7e-5 0.178607,-0.031 0.17545,-0.03321 0.17229,-0.03531 0.169042,-0.03749 0.165792,-0.03962 0.162545,-0.04174 0.159266,-0.04381 0.155928,-0.04594 0.15259,-0.04802 0.149223,-0.05004 0.145854,-0.05214 0.142427,-0.05418 0.138971,-0.05615 0.135513,-0.05817 0.132027,-0.0602 0.12857,-0.06216 0.125082,-0.06413 0.121536,-0.06607 0.117989,-0.06799 0.114471,-0.06995 0.110897,-0.07181 0.10738,-0.07375 0.103803,-0.07564 0.100255,-0.07753 0.09668,-0.07942 0.09316,-0.0813 0.08956,-0.08317 0.08601,-0.08511 0.08246,-0.08694 0.07889,-0.08888 0.07537,-0.09079 0.07179,-0.09274 0.636528,0.377328 -0.0858,0.110764 -0.08986,0.108289 -0.09391,0.105791 -0.0979,0.103267 -0.101866,0.100739 -0.10571,0.09816 -0.109556,0.09566 -0.11331,0.09303 -0.117006,0.0905 -0.120671,0.08792 -0.124248,0.08535 -0.127823,0.08282 -0.131342,0.08021 -0.134797,0.07772 -0.138225,0.07511 -0.141535,0.07258 -0.144902,0.07008 -0.148238,0.06753 -0.151427,0.06503 -0.154707,0.06253 -0.157806,0.05998 -0.160995,0.05756 -0.164124,0.05509 -0.167194,0.05259 -0.170233,0.05015 -0.173273,0.0477 -0.176254,0.04525 -0.179264,0.0428 -0.182213,0.04041 -0.185106,0.03797 -0.187967,0.03555 -0.190886,0.03318 0,-2.7e-5 0,0 z m -7.488248,-0.209749 0.131668,-0.664313 0.265364,0.04273 0.263069,0.04031 0.260745,0.03797 0.258421,0.0356 0.256006,0.03321 0.253592,0.03084 0.251147,0.0285 0.248705,0.02614 0.246201,0.02377 0.243667,0.02143 0.241134,0.0191 0.238542,0.01678 0.23589,0.01441 0.233325,0.01209 0.230584,0.0098 0.227931,0.0075 0.225161,0.0052 0.222387,0.0028 0.219617,5.76e-4 0.216786,-0.0019 0.213985,-0.004 0.211032,-0.0063 0.208143,-0.0086 0.205223,-0.01084 0.202242,-0.01311 0.199231,-0.01534 0.196221,-0.01758 0.193093,-0.01983 0.190022,-0.02204 0.186953,-0.02427 0.183765,-0.02645 0.180575,-0.02863 0.147821,0.664207 -0.192734,0.0306 -0.195627,0.02815 -0.198516,0.02576 -0.201348,0.02337 -0.204238,0.02095 -0.20695,0.01852 -0.209782,0.0162 -0.212494,0.01374 -0.215236,0.01138 -0.217977,0.009 -0.22069,0.0066 -0.223281,0.0042 -0.225965,0.0019 -0.228558,-5.75e-4 -0.231151,-0.003 -0.233744,-0.0053 -0.236276,-0.0077 -0.238809,-0.01013 -0.241313,-0.01251 -0.243817,-0.01489 -0.246231,-0.01731 -0.248644,-0.01967 -0.251059,-0.02207 -0.253473,-0.02451 -0.255796,-0.02688 -0.258123,-0.02924 -0.260447,-0.03169 -0.26274,-0.03411 -0.264978,-0.0365 -0.267181,-0.03887 -0.269447,-0.04132 -0.271623,-0.04374 0,0 z m 0.131668,-0.664313 -0.131668,0.664313 -0.01922,-0.0036 -0.0188,-0.0044 -0.01836,-0.0052 -0.01792,-0.0059 -0.0174,-0.0067 -0.01694,-0.0074 -0.0164,-0.0081 -0.01586,-0.0088 -0.01532,-0.0094 -0.01472,-0.01 -0.01413,-0.01061 -0.01353,-0.01113 -0.01288,-0.01169 -0.01223,-0.01217 -0.01153,-0.01269 -0.01084,-0.01317 -0.01017,-0.01359 -0.0094,-0.01399 -0.0087,-0.01438 -0.0079,-0.01476 -0.0071,-0.01507 -0.0063,-0.01541 -0.0054,-0.01568 -0.0046,-0.01595 -0.0037,-0.0162 -0.003,-0.01641 -0.0017,-0.01658 -9.61e-4,-0.01676 -6e-5,-0.01691 9.61e-4,-0.01702 0.0017,-0.0171 0.003,-0.01718 0.0039,-0.01702 0.0048,-0.01662 0.0057,-0.01624 0.0066,-0.0158 0.0074,-0.01539 0.0082,-0.01491 0.0089,-0.01447 0.0097,-0.01399 0.01044,-0.01346 0.01111,-0.01297 0.0118,-0.01242 0.01244,-0.01186 0.01305,-0.01131 0.01363,-0.01071 0.01419,-0.01009 0.01472,-0.0095 0.01521,-0.0088 0.0157,-0.0082 0.01613,-0.0075 0.01653,-0.0068 0.01696,-0.0061 0.01728,-0.0054 0.01765,-0.0047 0.01794,-0.0039 0.0182,-0.0031 0.01847,-0.0024 0.01872,-0.0015 0.01886,-7.67e-4 0.01907,1.34e-4 0.0192,0.0012 0.01931,0.0019 0.0194,0.0027 0,0 z"
     inkscape:connector-curvature="0"
     id="path2773"
     style="fill:#fff212;fill-rule:nonzero" /><g
     transform="matrix(0.29802788,0,0,0.26587418,-7.253958,-15.395889)"
     id="g2754"><g
       id="g2756"><path
         d="m 132.768,85.5865 c 3.8246,8.1746 6.3504,15.8691 8.8674,27.5571 2.3876,12.008 3.5208,22.073 4.0152,35.8599 0.3449,14.3388 -0.2226,25.2067 -1.9378,38.6883 -1.9715,14.1971 -4.2719,23.9272 -7.9741,34.8266 -1.9707,-6.7266 -5.912,-20.1802 -5.912,-20.1802 3.3281,-6.8178 5.5407,-13.2656 7.751,-23.1983 2.0602,-10.0412 3.0471,-18.4849 3.5005,-30.0941 0.3315,-12.195 -0.1259,-21.4438 -1.5403,-32.9634 -1.6558,-12.3587 -3.6187,-20.8956 -6.7699,-30.4959 l 0,0 z"
         inkscape:connector-curvature="0"
         id="_201969216"
         style="fill:#f47e63;fill-rule:nonzero" /><path
         d="m 135.438,92.9957 c 2.3623,6.6766 3.9889,12.6499 5.6365,20.9347 2.1968,11.8359 3.204,21.6797 3.5564,35.0826 0.2003,13.754 -0.4347,24.116 -2.1932,36.9005 -2.0008,13.3566 -4.2707,22.4533 -7.8807,32.5688 -1.1824,-4.0361 -3.5472,-12.108 -3.5472,-12.108 3.4162,-7.6014 5.6604,-14.6887 7.8443,-25.4561 2.0101,-10.746 2.9283,-19.692 3.2452,-31.882 0.1797,-12.575 -0.4032,-22.0407 -1.9991,-33.7406 -1.2683,-8.6522 -2.6175,-15.001 -4.6622,-22.2999 l 0,0 z"
         inkscape:connector-curvature="0"
         id="_203009568"
         style="fill:#f9ab6d;fill-rule:nonzero" /><path
         d="m 137.796,101.235 c 1.1405,4.3619 2.0234,8.3787 2.8967,13.2296 1.9967,11.7621 2.8666,21.4557 3.0517,34.5566 0.0329,13.218 -0.69,23.0965 -2.521,35.2 -2.0559,12.5002 -4.3103,20.9315 -7.8492,30.225 -0.3941,-1.3454 -1.1825,-4.0361 -1.1825,-4.0358 3.4869,-8.43 5.7429,-16.174 7.8759,-27.7999 1.9331,-11.4314 2.7627,-20.8585 2.9174,-33.5825 0.007,-12.8733 -0.7136,-22.4892 -2.5037,-34.2666 -0.7958,-4.9406 -1.6146,-9.042 -2.6853,-13.5264 z"
         inkscape:connector-curvature="0"
         id="_206669992"
         style="fill:#fff57c;fill-rule:nonzero" /></g></g><g
     transform="matrix(0.29802788,0,0,0.26587418,-7.253958,-15.395889)"
     id="g2733"><g
       id="g2735"><path
         d="m 39.2976,156.891 c 5.3885,-7.3871 10.9148,-13.3746 19.8619,-21.3004 9.2031,-7.9045 17.2701,-13.7783 28.7933,-20.8957 12.0274,-7.2324 21.5082,-12.0011 33.7405,-17.0862 12.8869,-5.1915 22.2151,-8.0029 33.2241,-10.2242 -4.8188,5.067 -14.4566,15.2012 -14.4566,15.2012 -7.3639,0.5171 -13.8779,1.789 -23.2726,4.6926 -9.4608,3.0911 -17.0642,6.3008 -27.1278,11.5019 -10.5159,5.591 -18.1982,10.472 -27.4006,17.2605 -9.9214,7.4801 -16.4274,13.3667 -23.3622,20.8503 l 0,0 z"
         inkscape:connector-curvature="0"
         id="_11749056"
         style="fill:#f47e63;fill-rule:nonzero" /><path
         d="m 44.4925,150.952 c 4.7368,-5.3671 9.1805,-9.7292 15.6015,-15.2407 9.1353,-7.6464 17.0758,-13.3057 28.3288,-20.105 11.5933,-6.8207 20.6768,-11.2831 32.3339,-15.987 12.1925,-4.7563 20.9675,-7.2813 31.2693,-9.194 -2.8912,3.0402 -8.674,9.1208 -8.6738,9.1205 -8.0757,0.8319 -15.1375,2.39 -25.2274,5.7229 -10.0376,3.4805 -18.0378,6.9975 -28.5342,12.601 -10.7775,5.9159 -18.5846,11.0103 -27.8653,18.0514 -6.9104,5.3457 -11.8127,9.6472 -17.2328,15.0309 l 0,0 z"
         inkscape:connector-curvature="0"
         id="_188840392"
         style="fill:#f9ab6d;fill-rule:nonzero" /><path
         d="m 50.5134,144.894 c 3.2855,-3.1654 6.3915,-5.936 10.2177,-9.1011 9.1595,-7.4315 17.0328,-12.8935 28.1003,-19.3952 11.21,-6.4109 19.9255,-10.5618 31.0336,-14.8652 11.4909,-4.2894 19.7028,-6.5017 29.2698,-8.0675 -0.9638,1.0134 -2.8914,3.0402 -2.8914,3.0402 -8.8093,1.1819 -16.4395,3.0546 -27.2271,6.8495 -10.5881,3.8864 -18.9545,7.7147 -29.8341,13.7225 -10.9589,6.2185 -18.8295,11.5075 -28.0942,18.7614 -3.9409,3.14 -7.1487,5.8914 -10.5746,9.0554 l 0,0 z"
         inkscape:connector-curvature="0"
         id="_186378600"
         style="fill:#fff57c;fill-rule:nonzero" /></g></g><path
     d="M 38.697079,24.588365 A 14.056833,13.420628 0 1 1 38.464854,22.158964"
     inkscape:connector-curvature="0"
     id="path6697"
     style="fill:url(#radialGradient2906);fill-opacity:1;stroke:none" /><g
     transform="matrix(0.29802788,0,0,0.26587418,-7.253958,-15.395889)"
     id="g2743"><g
       id="g2745"><path
         d="m 145.107,201.214 c -9.0917,-0.973 -17.0408,-2.7658 -28.3778,-6.5506 -11.4474,-4.0181 -20.567,-8.0674 -32.4928,-14.4884 -12.2765,-6.7988 -21.1477,-12.6265 -31.667,-20.6765 -10.9399,-8.565 -18.0382,-15.2371 -25.4668,-23.6609 6.7976,1.6397 20.393,4.9192 20.393,4.9192 4.1296,6.1185 8.4881,11.1242 15.7002,17.8081 7.4046,6.6459 13.9909,11.6293 23.5245,17.7421 10.1023,6.3127 18.166,10.5235 28.6489,15.1 11.4376,4.8518 19.7902,7.5431 29.7378,9.807 l 0,0 z"
         inkscape:connector-curvature="0"
         id="_188841424"
         style="fill:#f47e63;fill-rule:nonzero" /><path
         d="m 137.366,199.684 c -7.013,-1.4173 -13.0194,-3.0871 -20.9993,-5.8906 -11.1941,-4.0905 -20.057,-8.1337 -31.576,-14.4816 -11.7042,-6.6297 -20.1091,-12.2644 -30.0119,-20.008 -10.2146,-8.1798 -16.7906,-14.5189 -23.5971,-22.4831 4.0785,0.9838 12.2358,2.9516 12.2356,2.9516 4.7577,6.5771 9.6388,11.9149 17.5699,18.9859 8.0337,6.953 15.0778,12.1221 25.1797,18.4106 10.5143,6.377 18.8253,10.5886 29.5659,15.107 8.0839,3.311 14.2611,5.4062 21.6332,7.4082 l 0,0 z"
         inkscape:connector-curvature="0"
         id="_206699112"
         style="fill:#f9ab6d;fill-rule:nonzero" /><path
         d="m 129.109,197.499 c -4.3855,-1.2633 -8.3351,-2.5665 -12.9908,-4.2981 -11.0167,-4.2174 -19.6814,-8.3038 -30.8467,-14.6384 -11.1591,-6.5036 -19.1076,-11.9736 -28.3905,-19.443 -9.4608,-7.8073 -15.4817,-13.8118 -21.6216,-21.3146 1.3595,0.328 4.0786,0.984 4.0786,0.984 5.4284,7.0382 10.8649,12.7094 19.5454,20.1545 8.6585,7.2253 16.1595,12.5584 26.8013,18.9756 10.8659,6.3821 19.3789,10.5527 30.2947,14.95 4.6876,1.8419 8.6785,3.2459 13.1296,4.63 l 0,0 z"
         inkscape:connector-curvature="0"
         id="_203499608"
         style="fill:#fff57c;fill-rule:nonzero" /></g></g><path
     d="m 4.4578224,26.317376 c 1.7205448,-1.884515 3.9201097,-3.787936 6.4409486,-5.603377 2.510855,-1.808263 5.353088,-3.536818 8.373809,-5.072375 3.025252,-1.537869 6.107574,-2.822095 9.070091,-3.800405 2.964126,-0.978816 5.829723,-1.661209 8.418841,-1.9830221"
     inkscape:connector-curvature="0"
     id="_11752392"
     style="fill:none" /><path
     d="m 35.991974,38.101451 c -2.689702,-0.387005 -5.637227,-1.13467 -8.660036,-2.17453 -3.010795,-1.035714 -6.109929,-2.367317 -9.11092,-3.933344 C 15.215497,30.425238 12.427624,28.68597 9.9966706,26.886294 7.5644353,25.085662 5.4691801,23.212924 3.8622137,21.3735"
     inkscape:connector-curvature="0"
     id="_206699416"
     style="fill:none" /><path
     d="M 8.1129259,21.012123 C 8.4254676,22.852238 7.0478338,24.564442 5.0359072,24.836431 3.0239507,25.10842 1.1395502,23.837169 0.82700841,21.997054 0.51443676,20.156939 1.8920706,18.444735 3.904027,18.172746 c 2.0119566,-0.271988 3.896357,0.999263 4.2088989,2.839377 l 0,0 z"
     inkscape:connector-curvature="0"
     id="_188840176"
     style="fill:url(#radialGradient2896);fill-opacity:1" /><path
     d="m 32.314608,7.3593505 c 1.004741,2.2252875 1.792816,4.8565115 2.330221,7.7173965 0.537671,2.862563 0.823898,5.971641 0.827862,9.149157 0.0039,3.172729 -0.275647,6.282661 -0.810398,9.143759 -0.536273,2.869288 -1.328697,5.496656 -2.343244,7.713648"
     inkscape:connector-curvature="0"
     id="_188840296"
     style="fill:none" /><path
     d="m 35.785738,40.054297 c 0.312543,1.840117 -1.065092,3.552346 -3.077048,3.824309 -2.011956,0.271989 -3.896356,-0.999235 -4.208899,-2.839376 -0.312542,-1.840117 1.065091,-3.552319 3.077049,-3.824308 2.011926,-0.271964 3.896328,0.99926 4.208898,2.839375 z"
     inkscape:connector-curvature="0"
     id="_188840872"
     style="fill:url(#radialGradient2892);fill-opacity:1" /><path
     d="m 39.973626,9.7700067 c 0.312572,1.8401413 -1.065063,3.5523433 -3.077019,3.8243073 -2.011956,0.271989 -3.896356,-0.999235 -4.208899,-2.839377 -0.312541,-1.8401147 1.065094,-3.5523185 3.07705,-3.8243073 2.011925,-0.2719638 3.896327,0.9992602 4.208868,2.839377 z"
     inkscape:connector-curvature="0"
     id="_206670272"
     style="fill:url(#radialGradient2889);fill-opacity:1" /><path
     d="m 38.391993,9.36508 0.04953,0.673831 -0.01961,9.6e-4 -0.0194,-2.7e-5 -0.01917,-7.68e-4 -0.01895,-0.0017 -0.01865,-0.0025 -0.0184,-0.0033 -0.01807,-0.0041 -0.01771,-0.0049 -0.01734,-0.0056 -0.01693,-0.0064 -0.01651,-0.007 -0.01609,-0.00772 -0.01559,-0.00841 -0.01509,-0.00904 -0.01461,-0.00967 -0.01401,-0.010268 -0.01344,-0.010883 -0.01288,-0.011401 -0.01223,-0.011996 -0.01155,-0.012495 -0.0109,-0.012994 -0.01019,-0.013512 -0.0094,-0.013954 -0.0087,-0.014414 -0.008,-0.014837 -0.0071,-0.015259 -0.0063,-0.015624 -0.0055,-0.016026 -0.0046,-0.016353 -0.0036,-0.016698 -0.0027,-0.017025 -0.0017,-0.017313 -9.61e-4,-0.01737 1.92e-4,-0.017197 0.0012,-0.017044 0.0021,-0.016794 0.003,-0.016583 0.004,-0.016334 0.0048,-0.016065 0.0057,-0.015758 0.0065,-0.015412 0.0073,-0.015105 0.0081,-0.014702 0.0089,-0.014337 0.0096,-0.013934 0.01034,-0.013474 0.01105,-0.013032 0.01171,-0.012552 0.0124,-0.012054 0.01301,-0.011516 0.01363,-0.010959 0.01421,-0.010403 0.01478,-0.00979 0.01532,-0.00919 0.01586,-0.00854 0.01634,-0.00787 0.0168,-0.00718 0.01728,-0.00649 0.0177,-0.00574 0.01813,-0.00499 0.01851,-0.0042 0.01886,-0.00344 0.01922,-0.00257 0.01952,-0.00173 0,0 z m 5.595921,0.4477588 -0.247185,0.6414482 2.8e-5,0 -0.130266,-0.0373 -0.132683,-0.03584 -0.135096,-0.03432 -0.137569,-0.03284 -0.139925,-0.03132 -0.142367,-0.02978 -0.144754,-0.02829 -0.147015,-0.02672 -0.149432,-0.02515 -0.151726,-0.02364 -0.15402,-0.02204 -0.156316,-0.02047 -0.15858,-0.01889 -0.160847,-0.01731 -0.16305,-0.01572 -0.165256,-0.01409 -0.167463,-0.01248 -0.169638,-0.01088 -0.171813,-0.0092 -0.173899,-0.0076 -0.176076,-0.00595 -0.17816,-0.0043 -0.180247,-0.00265 -0.182334,-9.597e-4 -0.18436,7.677e-4 -0.186387,0.0023 -0.188353,0.00401 -0.19044,0.00572 -0.192348,0.00733 -0.194314,0.0091 -0.19628,0.01079 -0.198218,0.01248 -0.04953,-0.6738313 0.205013,-0.012898 0.203195,-0.011171 0.201467,-0.0094 0.19956,-0.00766 0.197711,-0.00593 0.195925,-0.00418 0.193956,-0.00242 0.192107,-7.677e-4 0.190202,9.597e-4 0.188234,0.00276 0.186327,0.00453 0.18442,0.00622 0.182484,0.00798 0.180454,0.00971 0.178461,0.011401 0.176461,0.013167 0.174495,0.014894 0.17241,0.016622 0.170383,0.018311 0.168355,0.020048 0.16621,0.0218 0.164215,0.023478 0.162096,0.025232 0.159922,0.026959 0.157865,0.028688 0.15566,0.030416 0.153513,0.032117 0.15137,0.033873 0.149192,0.035602 0.147018,0.037354 0.144722,0.039084 0.142487,0.040811 3.1e-5,0 0,0 z m 3.322056,2.2346982 -0.664901,0.336172 0,2.7e-5 -0.05302,-0.08093 -0.05549,-0.07958 -0.05791,-0.07827 -0.06035,-0.07689 -0.06276,-0.07559 -0.06527,-0.07429 -0.06765,-0.07304 -0.07007,-0.07168 -0.07251,-0.07035 -0.07498,-0.06907 -0.07743,-0.06777 -0.07987,-0.06647 -0.08231,-0.06519 -0.08473,-0.06384 -0.0872,-0.06253 -0.08962,-0.06123 -0.09209,-0.0599 -0.0945,-0.05855 -0.09698,-0.05722 -0.09939,-0.05586 -0.101807,-0.05451 -0.10422,-0.05312 -0.106695,-0.05171 -0.109108,-0.05039 -0.111492,-0.04897 -0.113877,-0.04754 -0.116261,-0.0461 -0.118613,-0.04469 -0.120971,-0.04323 -0.123413,-0.0418 -0.125679,-0.04031 -0.128061,-0.03884 0.247185,-0.6414482 0.140341,0.042565 0.138194,0.044348 0.136051,0.046049 0.133904,0.047857 0.131668,0.049586 0.129434,0.05137 0.127228,0.05312 0.124963,0.05488 0.122639,0.0566 0.120403,0.05841 0.118109,0.06019 0.115753,0.06195 0.1134,0.06373 0.110984,0.06551 0.108572,0.06727 0.106159,0.06905 0.103683,0.0708 0.10121,0.07258 0.09874,0.07442 0.09608,0.07609 0.09358,0.07785 0.09096,0.07968 0.08834,0.08136 0.08568,0.08316 0.083,0.08487 0.08023,0.08654 0.07749,0.08827 0.07475,0.09 0.07191,0.09167 0.06905,0.09332 0.06622,0.09494 0.06333,0.09662 0,2.7e-5 0,0 z m -3.021556,9.620153 -0.599215,-0.411946 0,0 0.288938,-0.334417 0.277346,-0.332502 0.265602,-0.330429 0.2538,-0.328195 0.24176,-0.325775 0.22969,-0.323143 0.217382,-0.320406 0.205073,-0.317401 0.192557,-0.314262 0.179948,-0.31094 0.167223,-0.30743 0.154409,-0.30371 0.141443,-0.299771 0.128391,-0.29568 0.115247,-0.291372 0.102046,-0.286904 0.08869,-0.2822 0.07534,-0.277305 0.0619,-0.272256 0.04843,-0.26699 0.0349,-0.261567 0.02134,-0.255984 0.0078,-0.25024 -0.0058,-0.244393 -0.01934,-0.238461 -0.0329,-0.232481 -0.04649,-0.226339 -0.06014,-0.22033 -0.07385,-0.214241 -0.08762,-0.208234 -0.101568,-0.202276 -0.115725,-0.196401 0.664901,-0.336172 0.137539,0.233412 0.120642,0.240243 0.103773,0.246572 0.08709,0.252581 0.07051,0.258296 0.05418,0.263615 0.03803,0.268639 0.0222,0.273398 0.0066,0.277998 -0.0088,0.282305 -0.0239,0.2864 -0.03872,0.290387 -0.05338,0.294217 -0.06768,0.297833 -0.0819,0.301447 -0.09585,0.304852 -0.109553,0.308174 -0.123176,0.311366 -0.136497,0.314449 -0.149789,0.317427 -0.162812,0.320245 -0.175688,0.323011 -0.188472,0.325617 -0.201019,0.328141 -0.213537,0.330481 -0.225786,0.332742 -0.237976,0.334842 -0.249985,0.336836 -0.261908,0.338724 -0.273649,0.340425 -0.285272,0.34202 -0.296748,0.343458 0,0 z m -14.904762,10.958748 -0.378315,-0.583061 0,0 0.593193,-0.309931 0.585953,-0.313306 0.578562,-0.316549 0.571051,-0.319607 0.563333,-0.322533 0.555552,-0.325297 0.547597,-0.327823 0.539461,-0.330269 0.531234,-0.332529 0.522891,-0.334602 0.514335,-0.336544 0.505666,-0.338272 0.49687,-0.33992 0.487902,-0.341329 0.478813,-0.342605 0.469601,-0.343696 0.460216,-0.344627 0.450707,-0.345423 0.441051,-0.346035 0.431216,-0.346461 0.421292,-0.346727 0.411221,-0.346831 0.400965,-0.346754 0.390625,-0.34654 0.380105,-0.346142 0.369435,-0.345556 0.358677,-0.344813 0.34771,-0.343908 0.336622,-0.342846 0.325447,-0.341542 0.314031,-0.340106 0.302528,-0.33851 0.599215,0.411946 -0.310337,0.347231 -0.32172,0.348402 -0.332956,0.349517 -0.344135,0.35045 -0.355099,0.351192 -0.365948,0.351832 -0.376649,0.35231 -0.387257,0.352628 -0.397659,0.352816 -0.407999,0.352815 -0.418133,0.352682 -0.428147,0.352363 -0.438071,0.351937 -0.447847,0.351354 -0.457442,0.350581 -0.466891,0.349678 -0.476279,0.348588 -0.485487,0.347336 -0.494518,0.345957 -0.503489,0.34444 -0.51228,0.342738 -0.520951,0.340851 -0.529447,0.338804 -0.537852,0.336676 -0.546076,0.33431 -0.554213,0.331811 -0.56217,0.329126 -0.570008,0.32636 -0.577727,0.323383 -0.585297,0.320218 -0.592688,0.316923 -0.59999,0.313439 0,0 0,0 z m -18.082513,6.035424 -0.09585,-0.669472 0,0 0.477411,-0.06174 0.484921,-0.07006 0.492193,-0.0783 0.499197,-0.0866 0.505991,-0.09481 0.512549,-0.103026 0.518807,-0.111163 0.524827,-0.119324 0.530698,-0.127433 0.536182,-0.135489 0.541517,-0.143573 0.546613,-0.151548 0.551381,-0.159578 0.556031,-0.167526 0.560381,-0.175452 0.564466,-0.183321 0.568338,-0.191215 0.572006,-0.199007 0.575372,-0.206823 0.578532,-0.214587 0.581481,-0.222326 0.584136,-0.230007 0.586608,-0.237665 0.588754,-0.245294 0.590782,-0.252901 0.592538,-0.26045 0.593999,-0.268027 0.595281,-0.275473 0.596294,-0.282969 0.5971,-0.29039 0.597664,-0.297804 0.597994,-0.305143 0.378315,0.583061 -0.604847,0.308654 -0.604579,0.301261 -0.604014,0.293739 -0.603326,0.286318 -0.602375,0.27877 -0.601152,0.271218 -0.599752,0.263641 -0.598051,0.256037 -0.596206,0.248379 -0.594059,0.240696 -0.591703,0.232986 -0.589172,0.225248 -0.586341,0.217459 -0.583299,0.209696 -0.580053,0.201825 -0.576564,0.193981 -0.572869,0.186033 -0.568906,0.178109 -0.564733,0.170185 -0.560382,0.162131 -0.555732,0.154101 -0.550875,0.14607 -0.545838,0.137936 -0.540533,0.129772 -0.53502,0.121666 -0.529297,0.113395 -0.523278,0.105153 -0.517138,0.09694 -0.51076,0.08856 -0.504114,0.08022 -0.497319,0.07187 -0.490226,0.06338 0,0 0,0 z M 0.64640351,35.92748 1.3309735,35.624382 l -2.98e-5,-2.7e-5 0.1193006,0.198875 0.1324436,0.190338 0.1456164,0.182071 0.1586701,0.174041 0.1717831,0.166093 0.1848073,0.158275 0.1978904,0.150538 0.2109144,0.142799 0.2238785,0.135065 0.2367832,0.127301 0.2495685,0.119483 0.2622944,0.111614 0.2748115,0.103717 0.2871796,0.09569 0.2992795,0.08763 0.3112605,0.07955 0.3229727,0.07136 0.3344767,0.06314 0.3457421,0.05488 0.3567395,0.04658 0.3674981,0.03831 0.3779888,0.02994 0.3882708,0.02164 0.3982248,0.01326 0.4080299,0.0049 0.4175073,-0.0034 0.4267462,-0.01179 0.4357168,-0.02013 0.4445383,-0.02848 0.4529727,-0.0368 0.461228,-0.04509 0.469215,-0.05339 0.09585,0.669472 -0.482507,0.05488 -0.474997,0.04648 -0.4673377,0.03791 -0.4594398,0.02943 -0.4513334,0.02087 -0.4430781,0.01221 -0.4344948,0.0036 -0.4258522,-0.0051 -0.4169409,-0.0139 -0.4078214,-0.02271 -0.3984932,-0.03159 -0.3890156,-0.04055 -0.37933,-0.04956 -0.3694055,-0.05865 -0.3592726,-0.06782 -0.3489609,-0.0771 L 4.2544781,38.413745 3.9268857,38.317818 3.6103207,38.212292 3.3049911,38.097089 3.0112845,37.972074 2.7294099,37.837117 2.4597244,37.692108 2.2025859,37.536944 1.9584117,37.371597 1.7274996,37.195961 1.5103863,37.009982 1.3074889,36.81374 1.1191949,36.607263 0.94598113,36.390628 0.78826478,36.16397 0.64643331,35.927501 l -2.98e-5,-2.5e-5 0,0 z m 0.13339728,-4.868663 0.71276351,0.232373 0,0 -0.066937,0.161679 -0.062944,0.160269 -0.05898,0.158834 -0.054956,0.157344 -0.050963,0.155803 -0.04691,0.15426 -0.042916,0.152691 -0.038893,0.151095 -0.034899,0.149448 -0.030846,0.147748 -0.0268523,0.146097 -0.0228588,0.144369 -0.0188055,0.142589 -0.0148417,0.140834 -0.0108183,0.138972 -0.006825,0.137164 -0.002861,0.135331 0.001132,0.133441 0.005096,0.131583 0.00906,0.129613 0.0130238,0.127725 0.0169876,0.12576 0.0209216,0.123871 0.0248257,0.121876 0.0287597,0.119883 0.032723,0.117994 0.036628,0.116028 0.040562,0.114059 0.044525,0.112121 0.048459,0.110151 0.052393,0.108238 0.056417,0.106322 -0.68457,0.303098 L 0.5790766,35.800524 0.5165503,35.671494 0.4589117,35.540393 0.4061012,35.407323 0.3580889,35.272364 0.3149047,35.135545 0.2764591,34.996972 0.2427522,34.856564 0.2138137,34.714481 0.1895542,34.570829 0.169944,34.425502 0.1549532,34.27858 0.1445818,34.130143 l -0.005812,-0.149874 -0.001311,-0.151362 0.003219,-0.152772 0.007659,-0.154179 0.0121297,-0.155563 0.0165108,-0.15684 0.0208918,-0.158221 0.025243,-0.159471 0.0295346,-0.160722 0.0338262,-0.161997 0.0381178,-0.163166 0.0422902,-0.16439 0.046552,-0.165615 0.0507243,-0.166755 0.0548967,-0.167873 0.0590095,-0.168989 0.0631521,-0.170106 0.0672351,-0.171172 0.0713479,-0.172259 0,0 0,0 z m 4.34715401,-5.961378 0.5681603,0.445074 -0.1907975,0.192652 -0.1870721,0.192094 -0.1832872,0.191509 -0.1795321,0.190898 -0.1757768,0.190232 -0.1719918,0.189596 -0.1681772,0.188877 -0.1643922,0.188159 -0.1606071,0.187442 -0.1567628,0.186616 -0.152918,0.18582 -0.1491033,0.184969 -0.145229,0.184144 -0.1413845,0.183213 -0.1375101,0.182338 -0.1336654,0.181352 -0.1297613,0.180395 -0.1258573,0.17936 -0.121953,0.178374 -0.1180487,0.17726 -0.1141448,0.176194 -0.110181,0.175052 -0.1062767,0.173908 -0.102313,0.172738 -0.098409,0.171516 -0.094385,0.170212 -0.090422,0.168991 -0.086488,0.167739 -0.082524,0.166304 -0.078501,0.165002 -0.074537,0.163565 -0.070543,0.162156 -0.71276351,-0.232373 0.074954,-0.172365 0.0790668,-0.173457 0.0830306,-0.174521 0.087114,-0.175609 0.091077,-0.17662 0.095071,-0.177657 0.099094,-0.178722 0.103058,-0.179597 0.1069622,-0.180608 0.110926,-0.181565 L 1.8250431,29.105599 1.943837,28.922226 2.066535,28.737948 2.1931373,28.552821 2.3236437,28.366815 2.4579947,28.180038 2.5962497,27.99241 2.7383496,27.804064 2.884264,27.614949 3.0340231,27.425062 3.1876563,27.234456 3.3450448,27.043214 3.506278,26.851279 3.6712959,26.658678 3.840099,26.465469 4.0126869,26.271646 4.1890301,26.077266 4.369158,25.8823 4.5529816,25.68683 4.74062,25.490853 l 0.1913042,-0.196454 0.1950295,-0.19696 0,0 z m 0.5681603,0.445074 -0.5681603,-0.445074 0.013441,-0.01278 0.013977,-0.01203 0.014513,-0.01132 0.01499,-0.01056 0.015467,-0.0098 0.015884,-0.0091 0.016243,-0.0083 0.01663,-0.0076 0.016928,-0.0068 0.017226,-0.006 0.017464,-0.0053 0.017703,-0.0045 0.017852,-0.0038 0.018031,-0.003 0.01815,-0.0021 0.01821,-0.0013 0.018298,-7.68e-4 0.01827,7.8e-5 0.018269,7.68e-4 0.018239,0.0015 0.01812,0.0024 0.018,0.0032 0.017852,0.004 0.017674,0.0048 0.017464,0.0056 0.017197,0.0063 0.016899,0.0072 0.01657,0.0079 0.016213,0.0087 0.015824,0.0095 0.015407,0.01031 0.014961,0.01111 0.014275,0.01178 0.013472,0.01228 0.012578,0.01276 0.011772,0.01319 0.010907,0.01361 0.010044,0.01399 0.00921,0.01434 0.00838,0.01464 0.00748,0.01497 0.00665,0.0152 0.00578,0.01541 0.00492,0.01566 0.00405,0.01581 0.00319,0.01595 0.00235,0.01607 0.00142,0.01614 5.959e-4,0.01622 -2.691e-4,0.01622 -0.00115,0.0162 -0.00203,0.0162 -0.00292,0.01608 -0.00378,0.01601 -0.00468,0.01587 -0.00557,0.01574 -0.00644,0.01553 -0.00733,0.01532 -0.0082,0.01505 -0.00912,0.01478 -0.010013,0.01449 -0.010878,0.01413 -0.011801,0.01378 -0.012697,0.01338 0,0 z"
     inkscape:connector-curvature="0"
     id="_11749296"
     style="fill:#fff212;fill-rule:nonzero" /><path
     d="m 31.813622,42.883997 -0.671516,-0.311923 0.0093,-0.01539 0.01007,-0.01478 0.01077,-0.0142 0.01148,-0.01357 0.01209,-0.01292 0.01273,-0.01228 0.01328,-0.01161 0.01386,-0.01098 0.0144,-0.01031 0.01484,-0.0096 0.01532,-0.0089 0.01576,-0.0082 0.01613,-0.0075 0.01647,-0.0068 0.01684,-0.0061 0.01711,-0.0054 0.01738,-0.0046 0.01761,-0.0039 0.01782,-0.0031 0.01797,-0.0024 0.01813,-0.0015 0.0182,-7.68e-4 0.0183,5.4e-5 0.01832,7.67e-4 0.01836,0.0015 0.0183,0.0024 0.01826,0.0033 0.01818,0.0042 0.01807,0.005 0.01788,0.0059 0.01774,0.0068 0.01749,0.0076 0.01705,0.0084 0.0164,0.0091 0.01571,0.0097 0.01501,0.01035 0.0143,0.01092 0.01361,0.01148 0.01288,0.01201 0.01217,0.0125 0.01142,0.01297 0.01065,0.01344 0.0099,0.01382 0.0091,0.01422 0.0083,0.01457 0.0076,0.01489 0.0067,0.01518 0.006,0.01545 0.0051,0.01568 0.0043,0.01593 0.0035,0.01607 0.0027,0.01624 0.0017,0.01635 9.61e-4,0.01645 -3.1e-5,0.01651 -9.61e-4,0.01656 -0.0017,0.01656 -0.0027,0.01654 -0.0037,0.01649 -0.0046,0.01641 -0.0055,0.01629 -0.0065,0.01616 -0.0075,0.01601 -0.0085,0.0158 0,0 z m -3.282746,3.927413 -0.478097,-0.527759 -2.9e-5,0 0.102014,-0.07668 0.101777,-0.07926 0.101568,-0.08189 0.101359,-0.08441 0.101062,-0.08702 0.100851,-0.08963 0.100585,-0.09213 0.100198,-0.0947 0.09996,-0.09731 0.09966,-0.09983 0.09924,-0.102389 0.09895,-0.104914 0.09856,-0.107466 0.09817,-0.109965 0.09778,-0.112518 0.09733,-0.11499 0.09692,-0.11757 0.0965,-0.120043 0.09605,-0.122514 0.09555,-0.125015 0.09507,-0.127487 0.09456,-0.129959 0.09409,-0.132458 0.09358,-0.134878 0.09298,-0.137297 0.09245,-0.139798 0.09191,-0.142189 0.09132,-0.144636 0.09075,-0.147081 0.09013,-0.149448 0.08953,-0.15184 0.0889,-0.15426 0.671516,0.311923 -0.09212,0.159843 -0.09287,0.157531 -0.09358,0.15519 -0.09433,0.152824 -0.09501,0.150539 -0.09578,0.148198 -0.09644,0.145805 -0.09716,0.143466 -0.09787,0.141101 -0.0985,0.138678 -0.09921,0.136341 -0.0999,0.133921 -0.100554,0.131502 -0.10118,0.12916 -0.101867,0.126691 -0.10246,0.124268 -0.103178,0.121903 -0.103804,0.119432 -0.104429,0.116984 -0.104994,0.114485 -0.105681,0.112094 -0.106276,0.109566 -0.106874,0.107121 -0.107469,0.104595 -0.108123,0.102149 -0.108691,0.09962 -0.109258,0.09707 -0.109883,0.09457 -0.110419,0.09202 -0.111045,0.08949 -0.111611,0.08691 -0.112149,0.08434 -2.9e-5,0 0,0 z m -3.844531,1.266917 0.04804,-0.680424 -6e-5,0 0.104579,0.0047 0.104339,0.0021 0.104369,-5.76e-4 0.10431,-0.003 0.104191,-0.0055 0.104071,-0.0081 0.104072,-0.01065 0.104071,-0.0132 0.104041,-0.01574 0.103952,-0.01827 0.103953,-0.02082 0.103952,-0.02334 0.103833,-0.0259 0.103922,-0.02848 0.103952,-0.03097 0.103802,-0.03347 0.103833,-0.0361 0.103834,-0.03863 0.103773,-0.04116 0.103714,-0.04374 0.103683,-0.04626 0.103684,-0.04884 0.103535,-0.05137 0.103446,-0.05392 0.103386,-0.05647 0.103325,-0.05902 0.103149,-0.0616 0.103057,-0.06413 0.10291,-0.06666 0.10273,-0.06918 0.102582,-0.07176 0.102401,-0.07426 0.478097,0.527761 -0.112714,0.08176 -0.11325,0.0792 -0.113878,0.07673 -0.114413,0.0741 -0.114919,0.07152 -0.115546,0.06894 -0.116022,0.06631 -0.116559,0.0637 -0.117155,0.06104 -0.11766,0.05833 -0.118108,0.05565 -0.118647,0.05296 -0.11915,0.05022 -0.119688,0.04749 -0.120046,0.04464 -0.120582,0.0419 -0.12109,0.03911 -0.121416,0.03618 -0.121803,0.03337 -0.122372,0.03047 -0.122608,0.02754 -0.122966,0.02465 -0.123323,0.02167 -0.123652,0.01871 -0.123862,0.01572 -0.124157,0.01272 -0.124456,0.0097 -0.124636,0.0066 -0.124694,0.0036 -0.124934,5.76e-4 -0.125083,-0.0027 -0.125082,-0.0057 -6e-5,0 0,0 z m -7.775666,-7.627105 0.704717,-0.24503 0,0 0.176015,0.40296 0.180188,0.393439 0.1843,0.383737 0.188235,0.373818 0.192108,0.363638 0.195864,0.353292 0.19956,0.342765 0.203076,0.33197 0.206533,0.320992 0.209812,0.309769 0.21303,0.298364 0.21607,0.286745 0.21905,0.274941 0.221853,0.262922 0.224475,0.250666 0.227007,0.238278 0.229422,0.225646 0.231597,0.212886 0.233654,0.199885 0.235561,0.186776 0.237351,0.173509 0.238928,0.160136 0.240359,0.146577 0.241701,0.132936 0.242863,0.119272 0.244025,0.105445 0.245009,0.09165 0.246053,0.07772 0.247094,0.06383 0.248139,0.0498 0.249328,0.03576 0.250732,0.02159 -0.04804,0.680424 L 24.38853,48.0527 24.093065,48.01034 23.800223,47.95156 23.51033,47.87671 23.223629,47.78613 22.940233,47.68018 22.660325,47.559207 22.384023,47.423558 22.111389,47.273605 21.842418,47.109587 21.577262,46.931903 21.315832,46.740794 21.058157,46.536522 20.804296,46.319357 20.554222,46.089508 20.307991,45.847271 20.065546,45.592828 19.826944,45.326423 19.592218,45.048239 19.361365,44.758461 19.134447,44.45736 18.911463,44.145065 18.692531,43.821841 18.477653,43.487823 18.266828,43.14325 18.060176,42.788255 17.857695,42.423103 17.659507,42.047928 17.46567,41.662995 l -0.189486,-0.394583 -0.185016,-0.403969 -0.180486,-0.413222 0,0 0,0 z m -2.981441,-16.908082 0.755203,0.0039 0,2.7e-5 -4.23e-4,0.601061 0.0063,0.597846 0.01302,0.594414 0.01958,0.590798 0.02611,0.586971 0.03254,0.582983 0.03889,0.578754 0.04515,0.574369 0.05138,0.569767 0.05746,0.564957 0.06345,0.560011 0.06944,0.554772 0.07525,0.549404 0.08109,0.543818 0.08679,0.538076 0.09236,0.532068 0.0979,0.525926 0.103326,0.519491 0.108721,0.512978 0.114025,0.506197 0.119182,0.499259 0.124277,0.49208 0.129344,0.484689 0.134292,0.47719 0.139119,0.469402 0.143888,0.461451 0.148567,0.453288 0.153186,0.444942 0.157657,0.436379 0.162067,0.427632 0.166419,0.418644 0.170591,0.409528 -0.704716,0.245029 L 16.735909,40.031824 16.565676,39.6035 16.400032,39.166457 16.239037,38.720879 16.082811,38.266951 15.931323,37.804889 15.784753,37.334824 15.64313,36.856968 15.506514,36.371534 15.375025,35.878657 15.24872,35.3786 15.127632,34.871472 15.011877,34.357511 14.901548,33.836876 14.796672,33.30978 l -0.09927,-0.53337 -0.09367,-0.539459 -0.08792,-0.54536 -0.08217,-0.551104 -0.07627,-0.556582 -0.07033,-0.561952 -0.06428,-0.567083 -0.05818,-0.572027 -0.05198,-0.576789 -0.04569,-0.581385 -0.03937,-0.585722 -0.03296,-0.589948 -0.0264,-0.593936 -0.01982,-0.597765 -0.01314,-0.601328 -0.0064,-0.604812 4.23e-4,-0.608026 0,2.7e-5 0,0 z m 3.15844,-16.5310743 0.698577,0.2589622 0,0 -0.173124,0.3899039 -0.169161,0.399397 -0.165048,0.4086751 -0.160845,0.4178208 -0.156525,0.4267285 -0.152173,0.435475 -0.147702,0.4440368 -0.143083,0.452412 -0.138434,0.460653 -0.133725,0.468603 -0.128838,0.476474 -0.12389,0.48413 -0.118913,0.491601 -0.113817,0.498886 -0.108601,0.505986 -0.103297,0.512925 -0.09793,0.519676 -0.09251,0.526218 -0.08696,0.532627 -0.0813,0.538847 -0.07561,0.54483 -0.0698,0.550732 -0.06393,0.556393 -0.05797,0.561845 -0.05192,0.56719 -0.04578,0.572294 -0.03955,0.577267 -0.0332,0.582052 -0.02688,0.58665 -0.02032,0.591013 -0.01383,0.595292 -0.0072,0.59936 -0.755203,-0.0039 0.0073,-0.606274 0.01395,-0.602205 0.02062,-0.597978 0.02718,-0.593564 0.03362,-0.589017 0.04002,-0.584286 0.04631,-0.579313 0.05257,-0.574261 0.05868,-0.568971 0.06476,-0.563521 0.07069,-0.55791 0.07662,-0.552114 0.08243,-0.546186 0.08816,-0.540016 0.09382,-0.533717 0.09936,-0.527228 0.104846,-0.520582 0.11027,-0.513802 0.115605,-0.506756 0.120821,-0.499577 0.125976,-0.492213 0.131103,-0.484769 0.136109,-0.477058 0.140997,-0.469215 0.145885,-0.461185 0.150683,-0.4529696 0.155332,-0.4446206 0.159981,-0.4360873 0.164541,-0.4273926 0.169042,-0.4185137 0.173392,-0.4094985 0.177774,-0.4002742 0,0 0,0 z m 7.748755,-6.92559658 -0.0061,0.68180786 -3.1e-5,0 -0.24638,0.005105 -0.244947,0.0187712 -0.243579,0.0323314 -0.242416,0.0458359 -0.241343,0.0592099 -0.24036,0.072584 -0.239315,0.085877 -0.238333,0.099198 -0.237291,0.1124392 -0.236157,0.1255983 -0.234876,0.1387323 -0.233535,0.1517878 -0.231955,0.1647356 -0.230376,0.1776049 -0.228587,0.190286 -0.226591,0.2028616 -0.224504,0.2153316 -0.222239,0.2275886 -0.219855,0.2397111 -0.217322,0.2516514 -0.214639,0.2634285 -0.21184,0.2750463 -0.208917,0.2864261 -0.205817,0.2976716 -0.202689,0.308681 -0.199351,0.3195809 -0.195953,0.3302161 -0.192437,0.3406899 -0.18883,0.3510083 -0.185076,0.3610562 -0.18123,0.3709753 -0.177327,0.3807313 -0.698577,-0.2589622 0.182273,-0.3914202 0.186655,-0.3820346 0.190917,-0.3724359 0.195089,-0.362653 0.199232,-0.3527607 0.203344,-0.3426592 0.207398,-0.3323964 0.211331,-0.3219206 0.215296,-0.3113374 0.219169,-0.3005179 0.223044,-0.2895643 0.22686,-0.2784225 0.230613,-0.2670714 0.2344,-0.2555573 L 20.251432,2.207455 20.493281,1.9755326 20.738826,1.7557078 20.988037,1.5481937 21.240945,1.3532552 21.497517,1.1710784 21.757754,1.0019551 22.021538,0.846152 22.28893,0.70390916 22.559836,0.575572 l 0.274336,-0.11413975 0.277642,-0.0996487 0.280833,-0.0847603 0.283782,-0.0696339 0.286582,-0.0541314 0.289059,-0.0383927 0.291261,-0.02233352 0.293111,-0.0060651 -2.9e-5,0 0,0 z m 4.65135,2.24751358 -0.564644,0.4527318 0,0 L 28.799816,2.6635615 28.675956,2.5441839 28.551589,2.4286603 28.426745,2.3169946 28.301453,2.209156 28.175746,2.1051984 28.04962,2.0050968 27.923137,1.9089029 27.796326,1.8165919 27.669187,1.7281618 27.54169,1.6436146 27.414017,1.5629751 27.286103,1.4862972 27.15792,1.4134733 27.029589,1.3445591 26.90111,1.2796065 26.772422,1.2185079 26.643583,1.161319 26.514716,1.1080379 26.385701,1.0586646 26.256535,1.0131204 26.12737,0.97151092 l -0.129284,-0.0377267 -0.129344,-0.0338726 -0.129435,-0.0299917 -0.129522,-0.0261338 -0.129583,-0.0222548 -0.12973,-0.0184065 -0.129823,-0.0145103 -0.129968,-0.0106716 -0.13006,-0.006814 -0.130268,-0.002879 0.0061,-0.68180786 0.155243,0.0034548 0.154974,0.0080805 0.154646,0.01268688 0.154261,0.0172741 0.153811,0.0218019 0.153365,0.0263488 0.152829,0.0308151 0.152263,0.0353083 0.151635,0.0396672 0.151041,0.0441085 0.150326,0.0484155 0.149609,0.0527245 0.148925,0.0569758 0.14818,0.0612579 0.147314,0.0654305 0.146572,0.0695533 0.145764,0.0737279 0.144901,0.077795 0.144098,0.0818621 0.143231,0.0858774 0.142338,0.0898927 0.141445,0.0938 0.140609,0.097787 0.139686,0.1016717 0.138761,0.1055507 0.137868,0.1094085 0.136973,0.1132626 0.136021,0.117038 0.135095,0.1208651 0.134142,0.1246156 0.13322,0.128364 0.132204,0.1320857 0,0 0,0 z M 33.180111,8.4504726 32.468598,8.6789114 32.373736,8.4413001 32.277623,8.2069305 32.180347,7.9758334 32.081818,7.7480318 31.982158,7.5235276 31.881335,7.3023747 31.77938,7.0845441 31.676322,6.8700897 31.572131,6.6590382 31.466896,6.4513648 31.360591,6.2471731 31.25324,6.0464113 31.144878,5.8490794 31.035561,5.655256 30.925232,5.46497 30.813977,5.2781944 30.701801,5.095033 30.58867,4.915409 30.474673,4.7393204 30.359843,4.5668747 30.244178,4.3980969 30.127679,4.2329639 30.010376,4.0714969 29.892327,3.9137284 29.773502,3.7596548 29.653995,3.6093027 29.53377,3.4627528 29.412859,3.3199246 29.291323,3.1808717 29.169192,3.0456748 29.046464,2.9142801 28.923139,2.7867145 l 0.564644,-0.4527318 0.131848,0.1363408 0.130894,0.1401162 0.12988,0.143811 0.128927,0.1475076 0.127943,0.1511217 0.12696,0.1547935 0.125947,0.1584344 0.124963,0.1619968 0.123891,0.1655859 0.122906,0.1691751 0.121864,0.1727394 0.12079,0.1762748 0.119717,0.1797833 0.118647,0.1832133 0.117541,0.1866968 0.11653,0.1902342 0.115307,0.1936353 0.114264,0.1970402 0.113071,0.2004681 0.11194,0.2038194 0.110805,0.2071954 0.109585,0.2105736 0.108393,0.2138959 0.107231,0.2172183 0.105979,0.2205157 0.104756,0.2237345 0.103506,0.227055 0.102222,0.2303005 0.100973,0.2334906 0.09966,0.2367342 0.09838,0.2398992 0.09701,0.2430892 0,0 z m -0.711513,0.2284388 0.711513,-0.2284388 0.0061,0.01666 0.005,0.016756 0.0041,0.016794 0.0031,0.016833 0.0021,0.016794 0.0012,0.016794 3.84e-4,0.016718 -5.76e-4,0.016622 -0.0015,0.016506 -0.0024,0.016372 -0.0032,0.016199 -0.0041,0.016007 -0.0049,0.015796 -0.0058,0.015528 -0.0066,0.01524 -0.0074,0.014952 -0.0082,0.014606 -0.0089,0.014242 -0.0097,0.013858 -0.0104,0.013435 -0.01115,0.012994 -0.01186,0.012495 -0.01255,0.012015 -0.01321,0.011516 -0.01392,0.010921 -0.01451,0.010364 -0.01521,0.00973 -0.0158,0.00912 -0.0164,0.00845 -0.01701,0.00773 -0.01755,0.00704 -0.01815,0.0063 -0.01847,0.00545 -0.01853,0.00457 -0.01863,0.00367 -0.01863,0.00278 -0.01863,0.00194 -0.01857,0.00115 -0.01853,1.92e-4 -0.01842,-5.758e-4 -0.0183,-0.00134 -0.01813,-0.00219 -0.01794,-0.00296 -0.01772,-0.00372 -0.01745,-0.00447 -0.01721,-0.00522 -0.0169,-0.00595 -0.01653,-0.00668 -0.01619,-0.00737 -0.01576,-0.00808 -0.01534,-0.00871 -0.01488,-0.0094 -0.0144,-0.010077 -0.01386,-0.010691 -0.01332,-0.011324 -0.01273,-0.011938 -0.01209,-0.012552 -0.01148,-0.013128 -0.01078,-0.013685 -0.01011,-0.01428 -0.0094,-0.014817 -0.0086,-0.015336 -0.0078,-0.015873 -0.007,-0.016372 0,0 z"
     inkscape:connector-curvature="0"
     id="path2769"
     style="fill:#fff212;fill-rule:nonzero" /></svg>