<?xml version="1.0" encoding="UTF-8" standalone="no"?>
<!-- Created with Inkscape (http://www.inkscape.org/) -->

<svg
   xmlns:svg="http://www.w3.org/2000/svg"
   xmlns="http://www.w3.org/2000/svg"
   version="1.1"
   width="48"
   height="48"
   viewBox="0 0 48 48"
   id="svg2">
  <title
     id="title4">tan autumn leaf</title>
  <defs
     id="defs36" />
  <g
     transform="matrix(0.09161532,0,0,0.11816611,-5.5786625,-4.468176)"
     id="g7">
    <title
       id="title9">Layer 1</title>
    <g
       id="layer1">
      <g
         id="g2537">
        <path
           d="m 265.80029,370.55035 -14.96573,-7.95303 -9.35359,-19.0871 -3.74141,-11.13424 -5.61218,-17.49656 -13.095,-33.40255 -18.70714,19.08716 -29.93147,22.26837 -11.22429,12.72482 -7.48288,20.67773 -1.8707,4.77179 -3.74145,-9.54357 -1.87072,-15.90595 1.87072,-36.58377 5.61215,-27.04019 3.74144,-25.44957 1.8707,-34.99317 11.22433,-25.44955 26.19003,-20.67778 14.9657,4.77182 0,12.72478 -3.74141,9.54359 -3.74145,7.95297 -5.61214,6.36241 0,0 3.74144,-3.18123 5.61215,-6.36236 1.87072,-3.18118 7.48289,-12.72481 1.8707,-9.5436 16.83644,4.77181 13.09497,4.77179 14.96573,12.72481 5.61218,14.31538 1.87073,7.95297 1.8707,7.95299 0,4.77182 3.74139,3.18115 3.74146,14.31539 -3.74146,-9.54355 0,-6.36241 -1.8707,-6.3624 0,-3.18118 -3.74139,-19.08719 -3.74146,-9.54358 -7.48284,-11.1342 29.93145,6.36239 31.80216,9.5436 3.74139,-1.59061 -9.35351,-3.18118 -29.93152,-9.5436 -13.09497,-3.18118 7.48285,-3.18121 22.44857,-7.95299 18.70719,-6.3624 28.06076,-15.90596 9.35357,-3.18122 11.22425,-1.59061 -14.9657,3.18121 -14.9657,3.1812 -41.15576,17.49657 -24.31934,7.953 -22.44857,3.1812 -28.06073,-7.95299 13.095,-9.54359 11.22427,-12.72477 7.4829,-14.31538 3.74144,-7.95303 7.48284,-12.72477 -5.61215,6.36238 -7.48286,7.95301 -9.35359,17.49656 -11.22431,11.13421 -9.35354,7.95298 -13.09504,1.59058 -7.48286,-1.59058 -5.61214,-3.18119 1.87072,-9.54358 13.09503,-41.35556 16.83642,-20.677776 33.67287,-23.858978 37.41434,-25.44957 0,36.583748 9.3536,25.449566 0,9.5436 -1.87072,6.36239 20.57785,-6.36239 37.41433,-22.268366 11.22428,-4.77179 16.83648,-3.181229 11.22431,0 9.35361,6.362411 0,4.771797 0,0 -7.48291,-1.590614 -11.22431,12.724811 39.28507,-1.59062 14.96569,3.18119 24.31937,15.90599 20.57782,17.49658 9.35355,11.1342 0,14.31538 0,1.59058 -7.48285,-4.77178 -9.35352,0 -43.02646,19.08719 -3.74151,3.18119 43.02649,31.81195 14.96575,15.90602 29.9314,25.44955 24.31934,25.44956 18.70727,39.76498 13.09497,63.6239 -28.06079,-20.67782 -18.70715,-9.54352 -28.06082,-14.31537 -14.96567,-4.77188 -43.02646,1.59067 -16.83643,1.59057 -37.41436,0 -14.9657,-1.59057 9.3536,38.17434 16.8364,31.81198 3.74149,17.49652 1.87072,20.67777 -1.87072,0 -7.48288,-6.36237 -18.70719,-11.13415 -28.06073,-9.54361 -28.06076,-12.72479 -18.70718,-11.13419 -9.35358,-9.54358 -11.22424,-14.31537 -11.22434,-15.90597 -1.87069,6.36236 -1.87076,12.72483 1.87076,3.18115 -11.22431,-4.77179 z"
           id="path24"
           style="fill:#ff7f00;stroke:#000000;stroke-width:2" />
        <path
           d="m 260.18814,117.64524 -7.48286,7.95301 -9.3536,17.49657 -11.2243,11.1342 -9.35355,7.95299 -13.09503,1.59057 -7.48286,-1.59057 -5.61214,-3.1812 -9.35359,-6.3624 -26.19003,-7.95298 -28.06073,-12.72477 -16.83644,-11.1342 L 101.17729,108.10169 89.952981,92.195702 78.7287,74.699097 71.245797,63.56493 l 0,0 -9.353546,19.087177 14.965698,23.858973 13.095032,12.72478 16.836439,11.1342 18.70719,11.13415 22.44858,9.54359 37.41432,9.54358 9.35359,4.77181 14.9657,4.77182 0,12.72478 -3.74141,9.54359 -3.74145,7.95297 -5.61214,6.36241 3.74144,-3.18123 5.61215,-6.36236 1.87072,-3.18119 7.48289,-12.7248 1.8707,-9.5436 16.83644,4.77181 13.09497,4.77179 14.96573,12.72481 5.61218,14.31538 1.87073,7.95297 1.8707,7.95299 0,4.77182 3.74139,3.18115 3.74146,14.31539 -3.74146,-9.54355 0,-6.36241 -1.8707,-6.3624 0,-3.18118 -3.74139,-19.08719 -3.74146,-9.54358 -7.48284,-11.1342 29.93145,6.36239 31.80216,9.5436 3.74139,-1.59061 -9.35351,-3.18118 -29.93152,-9.5436 -13.09497,-3.18118 7.48285,-3.18121 22.44857,-7.95299 18.70719,-6.3624 28.06076,-15.90596 9.35357,-3.18123 11.22425,-1.5906 -14.9657,3.18121 -14.9657,3.1812 -41.15576,17.49657 -24.31934,7.953 -22.44857,3.1812 -28.06073,-7.95299 13.095,-9.5436 11.22427,-12.72476 7.4829,-14.31538 3.74144,-7.95303 1.87069,-6.36239 z"
           id="path26"
           style="fill:#ff7f00;stroke:#000000;stroke-width:2" />
        <path
           d="m 194.7131,206.71876 -22.44862,63.62392 -16.83644,39.76496 -3.74144,19.08718"
           id="path76"
           style="fill:#ff7f00;stroke:#000000;stroke-width:2" />
        <path
           d="m 185.35951,238.53072 0,38.17436"
           id="path78"
           style="fill:#ff7f00;stroke:#000000;stroke-width:2" />
        <path
           d="m 278.89529,246.48369 24.31928,74.75813 39.28506,52.48975 61.73368,55.6709"
           id="path80"
           style="fill:#ff7f00;stroke:#000000;stroke-width:2" />
        <path
           d="m 282.63675,262.38968 -22.44861,33.40256 0,39.76498 5.61215,27.0401 0,-1.59058"
           id="path82"
           style="fill:#ff7f00;stroke:#000000;stroke-width:2" />
        <path
           d="m 260.18814,337.1478 -7.48286,20.67779"
           id="path84"
           style="fill:#ff7f00;stroke:#000000;stroke-width:2" />
        <path
           d="m 291.99033,286.24866 52.38,30.22137"
           id="path86"
           style="fill:#ff7f00;stroke:#000000;stroke-width:2" />
        <path
           d="m 323.79245,195.58456 69.21655,39.76496 82.31147,38.17434 43.02645,27.04017 48.63868,55.67093"
           id="path88"
           style="fill:#ff7f00;stroke:#000000;stroke-width:2" />
        <path
           d="m 357.46539,217.85292 26.19,39.765 44.89719,42.94611 -1.87073,0"
           id="path90"
           style="fill:#ff7f00;stroke:#000000;stroke-width:2" />
        <path
           d="m 383.6554,259.20847 1.87072,55.67095 1.87067,0"
           id="path92"
           style="fill:#ff7f00;stroke:#000000;stroke-width:2" />
        <path
           d="m 406.104,241.71193 61.73365,-1.59061 41.15567,15.90599"
           id="path94"
           style="fill:#ff7f00;stroke:#000000;stroke-width:2" />
        <path
           d="m 368.68964,139.9136 46.76794,-7.95294 35.54361,0 31.80216,6.36237 16.83639,15.90599"
           id="path96"
           style="fill:#ff7f00;stroke:#000000;stroke-width:2" />
        <path
           d="m 370.56042,139.9136 72.95795,17.4966"
           id="path98"
           style="fill:#ff7f00;stroke:#000000;stroke-width:2" />
        <path
           d="m 398.62112,147.86662 29.93146,44.53676"
           id="path100"
           style="fill:#ff7f00;stroke:#000000;stroke-width:2" />
        <path
           d="m 348.11182,144.68542 13.09503,-28.63076 18.70706,-22.268359 18.70721,-9.543594 5.61219,1.590584"
           id="path102"
           style="fill:#ff7f00;stroke:#000000;stroke-width:2" />
        <path
           d="M 357.46539,124.00764 393.009,114.46406"
           id="path104"
           style="fill:#ff7f00;stroke:#000000;stroke-width:2" />
        <path
           d="m 349.98251,138.32303 -9.35357,-15.90596 1.87069,-14.31539"
           id="path106"
           style="fill:#ff7f00;stroke:#000000;stroke-width:2" />
        <path
           d="M 265.80029,111.28288 295.73175,47.65894"
           id="path108"
           style="fill:#ff7f00;stroke:#000000;stroke-width:2" />
        <path
           d="M 247.09311,135.14185 239.61027,90.605088"
           id="path110"
           style="fill:#ff7f00;stroke:#000000;stroke-width:2" />
        <path
           d="m 258.31744,122.41707 43.02643,-19.08721"
           id="path112"
           style="fill:#ff7f00;stroke:#000000;stroke-width:2" />
      </g>
    </g>
  </g>
</svg>
