<?xml version="1.0" encoding="UTF-8" standalone="no"?>
<!-- Created with Inkscape (http://www.inkscape.org/) -->

<svg
   xmlns:svg="http://www.w3.org/2000/svg"
   xmlns="http://www.w3.org/2000/svg"
   version="1.0"
   width="48"
   height="48"
   viewBox="0 0 48 48"
   id="svg4569">
  <defs
     id="defs4571">
    <linearGradient
       x1="334.13"
       y1="214.21001"
       x2="629.29999"
       y2="542.17999"
       id="linearGradient3225"
       gradientUnits="userSpaceOnUse"
       gradientTransform="matrix(0.87832,0,0,0.9681,-102.25,7.2056)">
      <stop
         id="stop2475"
         style="stop-color:#ff6600;stop-opacity:1"
         offset="0" />
      <stop
         id="stop2477"
         style="stop-color:#89a02c;stop-opacity:1"
         offset="1" />
    </linearGradient>
  </defs>
  <g
     transform="matrix(0.08391866,0,0,0.08901279,-6.3305005,-6.9161331)"
     id="layer1">
    <path
       d="m 228.8,616.86 c -2.73,-0.48 -2.54,-2.54 1.2,-13.06 4.05,-11.38 4.9,-19.88 2.27,-22.78 -2.61,-2.88 -8.49,-3.5 -19.91,-2.09 -9.17,1.12 -10.22,1.09 -12.34,-0.45 -1.63,-1.17 -2.14,-2.15 -1.7,-3.29 1.8,-4.71 1.54,-5.96 -1.52,-7.37 -1.65,-0.76 -7.33,-2.08 -12.62,-2.95 -5.29,-0.86 -14.88,-2.63 -21.31,-3.94 -6.44,-1.3 -13.35,-2.38 -15.37,-2.39 -4.39,-0.01 -5.22,-0.53 -6.96,-4.34 -3.04,-6.65 -3,-6.77 3.56,-12.03 3.34,-2.68 7.8,-7.38 9.92,-10.45 2.12,-3.07 5.44,-7.8 7.37,-10.51 3.17,-4.45 6.56,-10.16 10.01,-16.86 1.95,-3.77 2.71,-8.76 2.15,-14.04 -0.48,-4.54 -0.84,-5.11 -5.68,-9.15 -2.84,-2.36 -7.42,-5.63 -10.17,-7.26 -4.37,-2.58 -5.43,-3.81 -8.33,-9.73 -2.44,-4.97 -3.33,-7.95 -3.34,-11.16 -0.02,-6.18 -1.8,-8.35 -10.45,-12.72 -7.21,-3.65 -12.4,-7.79 -12.4,-9.88 0,-0.53 0.76,-1.87 1.68,-2.97 1.67,-1.98 3.8,-13.34 2.96,-15.76 -0.23,-0.65 -1.72,-1.46 -3.32,-1.79 -4.24,-0.87 -6.75,-4.35 -13.1,-18.12 -3.12,-6.78 -6.43,-13.52 -7.35,-14.98 -0.91,-1.46 -3.72,-6.71 -6.234,-11.66 -5.758,-11.35 -9.674,-17.48 -16.064,-25.12 -8.818,-10.54 -8.56,-12.01 1.768,-10.06 3.215,0.6 13.579,1.57 23.03,2.15 14.99,0.91 18.3,0.84 25.91,-0.58 9.12,-1.69 16.78,-4.23 20.18,-6.69 1.1,-0.8 2.48,-3.1 3.07,-5.11 0.58,-2.02 1.35,-4.02 1.71,-4.45 1.47,-1.79 7.84,-0.64 14.95,2.69 9.61,4.5 22.62,8.26 28.62,8.26 4.06,0 4.91,-0.34 6.16,-2.44 2.38,-4 -0.85,-15.22 -7.03,-24.42 -6.16,-9.17 -10.33,-18.26 -10.02,-21.81 0.31,-3.54 1.15,-3.68 9.1,-1.58 3.63,0.96 5.15,0.93 8.32,-0.18 3.49,-1.23 4.05,-1.86 5.49,-6.13 1.58,-4.71 1.58,-4.83 -0.35,-10.17 -1.07,-2.97 -2.59,-6.49 -3.38,-7.82 -2.22,-3.74 -7.05,-15.93 -7.05,-17.79 0,-2.59 5.68,-4.84 9.01,-3.56 4.77,1.83 10.82,1.28 13.46,-1.22 4.48,-4.25 4.31,-19.19 -0.33,-29.36 -4.97,-10.9 -4.49,-14.46 1.91,-14.03 5.91,0.4 7.4,-0.42 8.44,-4.69 2.3,-9.42 4.63,-26.85 5.22,-39.23 0.37,-7.45 1.12,-14.78 1.68,-16.29 0.57,-1.51 0.75,-3.23 0.42,-3.82 -0.33,-0.59 -0.92,-4.37 -1.31,-8.39 -0.78,-7.95 -1.94,-19.316 -2.97,-28.834 -0.56,-5.255 -0.45,-6.113 0.9,-6.681 1.17,-0.496 3.21,1.338 8.45,7.614 7.48,8.952 25.48,23.881 36.36,30.161 6.43,3.7 11.04,7.32 18.5,14.53 2.45,2.37 6.99,5.93 10.1,7.93 3.11,2 9.73,6.71 14.71,10.48 14.33,10.85 17.32,12.4 22.97,11.91 4.42,-0.37 5.08,-0.76 8.4,-4.91 1.97,-2.47 4,-4.5 4.5,-4.5 1.68,0 3.71,3.36 6.33,10.46 1.43,3.86 4.17,9.95 6.1,13.53 3.02,5.58 4.24,6.91 8.59,9.33 2.79,1.55 6.2,2.82 7.58,2.82 3.38,0 7.63,-4.68 11.34,-12.5 1.63,-3.42 3.35,-6.08 3.84,-5.91 1.29,0.45 5.45,9.07 7.09,14.7 4.2,14.36 9.65,26.84 15.19,34.85 6.38,9.21 8.7,11.14 13.41,11.14 4.62,0 11.49,-5.98 28.67,-24.97 l 14.29,-15.8 3.05,3.57 c 2.8,3.28 3.33,3.51 6.56,2.94 6,-1.05 12.73,-4.33 16.68,-8.11 3.49,-3.33 7.22,-6.04 22.86,-16.55 3.14,-2.11 8.24,-6.36 11.33,-9.45 l 5.61,-5.62 2.51,3.32 c 1.38,1.82 2.51,3.88 2.51,4.57 0,0.7 1.74,3.11 3.86,5.36 l 3.87,4.1 -0.87,5.81 c -0.47,3.2 -0.65,8.47 -0.39,11.73 0.26,3.25 -0.11,11.96 -0.82,19.36 -1.7,17.78 -1.8,37.13 -0.2,40.73 1.03,2.33 1.66,2.69 4.36,2.46 5.26,-0.45 5.11,2.96 -0.95,21.08 -1.94,5.82 -2.4,15.41 -0.88,18.54 1.68,3.46 6.3,4.84 13.81,4.11 3.72,-0.36 7.7,-1.04 8.85,-1.52 4.09,-1.67 1.66,5.32 -6.42,18.5 -8.55,13.93 -10.16,17.68 -10.16,23.62 0,7.63 3.29,10.23 14.93,11.78 2.65,0.36 10.36,2.08 17.12,3.84 6.77,1.76 15.66,3.47 19.77,3.8 4.1,0.32 11.16,1.11 15.68,1.74 7.31,1.02 8.32,1.4 9.17,3.46 0.62,1.49 0.66,2.83 0.13,3.75 -0.46,0.79 -4.98,3.86 -10.05,6.81 -10.07,5.87 -18.42,12.01 -24.65,18.15 -2.21,2.17 -7.89,7.63 -12.61,12.13 -4.73,4.5 -8.9,9.07 -9.27,10.16 -1.02,3.05 0.74,6.08 4.49,7.74 1.86,0.82 3.39,1.9 3.39,2.4 0,0.5 -1.37,2.15 -3.05,3.67 -2.15,1.96 -5.45,3.4 -11.2,4.91 -4.48,1.17 -10.59,3.45 -13.59,5.07 -7.86,4.27 -8.34,8.22 -1.29,10.7 4.27,1.5 4.88,2.25 3.75,4.58 -2.57,5.3 -17.39,10.39 -27.2,9.34 -5.29,-0.57 -6.83,-0.26 -16.69,3.34 -14.6,5.34 -18.9,6.48 -31.48,8.35 -9.93,1.47 -11.45,1.47 -20.5,0.01 -8.24,-1.33 -11.15,-1.4 -18.62,-0.45 -5.1,0.66 -11.97,0.86 -16.22,0.48 -5.46,-0.49 -9.05,-0.25 -13.87,0.93 -5.81,1.43 -6.81,2.02 -9.48,5.62 -5.29,7.16 -5.46,7.95 -2.93,13.33 1.23,2.61 4.55,8.34 7.38,12.73 9.96,15.46 16.28,29.06 21.54,46.37 3.48,11.45 5.5,15.18 9.22,17.04 1.79,0.9 3.41,1.74 3.59,1.87 0.3,0.21 0.42,4.75 0.2,7.78 -0.12,1.59 -4.93,4.26 -6.49,3.6 -0.68,-0.29 -2.91,-3.73 -4.94,-7.65 -2.67,-5.14 -3.93,-8.9 -4.51,-13.45 -1.62,-12.61 -8.24,-28.16 -20.79,-48.88 -11.23,-18.55 -11.83,-19.27 -16.4,-20.03 -2.92,-0.48 -5.08,-0.07 -9.41,1.78 -3.09,1.32 -7.53,3.09 -9.87,3.93 -2.74,0.98 -6.86,3.96 -11.55,8.35 -11.17,10.45 -18.8,20.97 -27.76,38.25 -5.76,11.1 -13.8,23.95 -16.81,26.87 -1.18,1.14 -3.21,1.69 -6.29,1.69 -2.73,0 -5.86,0.73 -7.8,1.83 -4.81,2.7 -15.79,12.14 -24.05,20.68 -5.63,5.81 -7.84,7.5 -9.83,7.5 -1.88,0 -2.69,-0.55 -3.05,-2.08 -0.47,-1.96 -0.88,-2.05 -7.46,-1.55 -7.9,0.6 -11.73,2.21 -23.44,9.88 -8.09,5.31 -15.15,8.15 -18.66,7.52 z"
       id="path2481"
       style="opacity:0.78972;fill:url(#linearGradient3225)" />
  </g>
</svg>
