<?xml version="1.0" encoding="UTF-8" standalone="no"?>
<!-- Created with Inkscape (http://www.inkscape.org/) -->

<svg
   xmlns:svg="http://www.w3.org/2000/svg"
   xmlns="http://www.w3.org/2000/svg"
   xmlns:xlink="http://www.w3.org/1999/xlink"
   version="1.1"
   width="48"
   height="48"
   viewBox="0 0 48 48"
   id="svg11263">
  <defs
     id="defs11265">
    <linearGradient
       id="linearGradient4069-3">
      <stop
         id="stop4071-4"
         style="stop-color:#ffcaa6;stop-opacity:1"
         offset="0" />
      <stop
         id="stop4077-4"
         style="stop-color:#d54800;stop-opacity:1"
         offset="0.78634" />
      <stop
         id="stop4073-7"
         style="stop-color:#8d3d17;stop-opacity:1"
         offset="1" />
    </linearGradient>
    <linearGradient
       id="linearGradient15851-2">
      <stop
         id="stop15853-4"
         style="stop-color:#ffffff;stop-opacity:1"
         offset="0" />
      <stop
         id="stop15855-8"
         style="stop-color:#ffffff;stop-opacity:0"
         offset="1" />
    </linearGradient>
    <radialGradient
       cx="224.32001"
       cy="98.153999"
       r="100"
       id="radialGradient11773"
       xlink:href="#linearGradient4069-3"
       gradientUnits="userSpaceOnUse"
       gradientTransform="matrix(1.4593434,0,0,1.3964834,-162.85886,740.30594)" />
    <radialGradient
       cx="127.99"
       cy="56.796001"
       r="58.689999"
       id="radialGradient11775"
       xlink:href="#linearGradient15851-2"
       gradientUnits="userSpaceOnUse"
       gradientTransform="matrix(0.98925627,0,0,0.94664491,46.162557,911.57997)" />
    <radialGradient
       cx="127.99"
       cy="56.796001"
       r="58.689999"
       id="radialGradient11777"
       xlink:href="#linearGradient15851-2"
       gradientUnits="userSpaceOnUse"
       gradientTransform="matrix(1.0289455,0,0,0.98462459,21.933269,804.60036)" />
    <radialGradient
       cx="148.95"
       cy="63.394001"
       r="98.405998"
       id="radialGradient11779"
       xlink:href="#linearGradient4069-3"
       gradientUnits="userSpaceOnUse"
       gradientTransform="matrix(2.1284094,0,0,2.0008016,-147.78864,725.41368)" />
  </defs>
  <g
     transform="matrix(0.18483956,0,0,0.18435362,0.17510408,-145.99604)"
     id="layer1">
    <g
       transform="matrix(1,0,0,1.0467001,0,-36.98674)"
       id="g11766">
      <path
         d="M 130.10111,792.01548 C 78.263432,791.37523 28.249773,823.76052 9.5185225,870.02611 2.5134663,886.9311 -0.18488273,905.45101 0.26202686,923.56439 2.8200681,977.82995 46.908266,1027.2346 102.61094,1037.9385 c 51.52457,11.1018 108.72647,-11.3131 136.81425,-54.24066 29.11412,-42.62923 27.17838,-102.3661 -5.80723,-142.56985 -24.19031,-30.38001 -63.45084,-49.60358 -103.51685,-49.11251 z"
         id="path2985"
         style="color:#000000;fill:url(#radialGradient11773);enable-background:accumulate" />
      <path
         d="m 172.75244,909.78976 c -32.0645,0 -58.05674,24.87141 -58.05674,55.556 0,30.68335 25.99094,55.55604 58.05674,55.55604 32.0645,0 58.09442,-24.87145 58.09442,-55.55604 0,-30.68335 -26.02992,-55.556 -58.09442,-55.556 z"
         id="path15938"
         style="opacity:0.37673998;color:#000000;fill:url(#radialGradient11775);enable-background:accumulate" />
      <path
         d="m 153.60286,802.73806 c -33.35196,0 -60.384834,25.86969 -60.384834,57.7838 0,31.91536 27.034174,57.7838 60.384834,57.7838 33.35197,0 60.4251,-25.86969 60.4251,-57.7838 0,-31.91536 -27.07313,-57.7838 -60.4251,-57.7838 z"
         id="path15927"
         style="opacity:0.48372001;color:#000000;fill:url(#radialGradient11777);enable-background:accumulate" />
      <path
         d="m 164.76262,799.824 c 4.39116,8.11932 7.56109,17.92566 9.62676,28.82725 -12.21208,-2.76859 -24.2033,-7.27518 -36.20752,-11.69351 -15.42099,-5.67022 -30.90695,-11.15024 -47.10094,-12.16095 -2.024089,-0.12556 -4.044278,-0.18026 -6.089154,-0.1554 -1.977315,0.0249 -3.971526,0.13178 -5.968329,0.3108 -4.560043,2.7947 -10.360783,4.8435 -15.022155,6.72197 9.160354,-2.95633 18.076476,-3.73209 26.836689,-3.18631 15.383329,0.95974 30.454849,6.23214 45.836869,11.88869 12.4979,4.59983 25.20365,9.38862 38.40309,12.19824 0.93539,5.73985 1.57198,11.79422 1.94874,18.02636 -14.19979,-2.65049 -29.07514,-4.13735 -43.96348,-4.42826 -1.79284,-0.0361 -3.57269,-0.0386 -5.36553,-0.0398 -49.115938,-0.0236 -97.972045,12.85591 -123.5784351,40.28705 -0.6612709,2.65298 -1.2186097,5.31342 -1.7057932,8.0037 23.4303013,-30.73556 77.1660463,-45.48858 130.5653083,-44.4443 15.04424,0.29464 29.99754,1.86231 44.24929,4.62345 0,0.14172 0.026,0.28593 0.039,0.42642 0.29881,7.45172 0.20786,15.17198 -0.16889,23.03893 -2.39046,-0.31951 -4.80689,-0.55074 -7.22332,-0.58306 -1.03933,-0.0137 -2.07865,0 -3.11798,0.0386 -10.0165,0.38042 -20.033,3.19253 -29.43889,8.54697 -33.57543,19.11913 -80.112546,58.4166 -109.415035,106.80183 0.880829,1.06916 1.804529,2.1383 2.720435,3.18259 28.838694,-48.28578 75.60316,-87.93134 108.79923,-106.83788 12.05618,-6.86618 25.06074,-9.37123 37.51966,-7.61334 -1.10429,18.45153 -3.88448,37.6092 -7.92486,55.98366 -6.0151,27.42492 -14.75843,53.13424 -24.47612,72.1427 -4.85885,9.5104 -9.93856,17.3426 -14.97929,22.8375 -3.10498,3.394 -6.22296,5.8555 -9.13308,7.3473 2.15661,0.1492 4.33919,0.2238 6.53477,0.2735 1.89677,-1.4794 3.75457,-3.2323 5.59937,-5.2463 5.3915,-5.8803 10.67907,-13.9611 15.62886,-23.658 9.91257,-19.39385 18.6559,-45.33938 24.72296,-73.00052 4.04038,-18.37445 6.87254,-37.48239 8.00281,-55.98116 10.52318,2.27505 20.47472,7.65063 28.9842,16.12426 17.70751,17.62854 28.89326,48.89495 23.63167,93.476 1.64993,-2.08857 3.16995,-4.26417 4.67697,-6.45219 3.48174,-41.77143 -7.5611,-71.80707 -25.33357,-89.51145 -9.18504,-9.1375 -20.17591,-14.86242 -31.7514,-17.21081 0.38974,-7.92663 0.44171,-15.7252 0.1559,-23.27142 33.03757,7.00915 61.56706,20.59356 76.81917,40.13289 -0.45471,-2.68033 -0.94839,-5.35942 -1.58497,-8.0037 -16.95401,-17.79885 -44.39221,-29.86284 -75.42908,-36.20811 -0.35077,-6.20978 -0.98736,-12.21442 -1.87079,-17.98782 1.66293,0.29463 3.35183,0.59673 5.02774,0.81553 12.51089,1.63605 25.52844,0.98586 39.18258,-3.65127 -1.0653,-0.95105 -2.11762,-1.91701 -3.20891,-2.83574 -12.30302,3.87754 -23.98245,4.33006 -35.40204,2.83574 -2.07865,-0.27226 -4.14431,-0.57808 -6.20997,-0.97094 -1.87079,-10.50004 -4.72893,-20.11741 -8.76931,-28.39959 -1.67591,-0.47988 -3.36482,-0.93986 -5.07971,-1.36006 z"
         id="path15950"
         style="text-indent:0;text-transform:none;block-progression:tb;color:#000000;fill:url(#radialGradient11779);enable-background:accumulate" />
      <path
         d="m 163.74928,796.72844 c 4.25773,8.22412 7.33375,18.1457 9.34458,29.18778 -11.85286,-2.8039 -23.49656,-7.3693 -35.1539,-11.84531 -14.9572,-5.74307 -29.99754,-11.28673 -45.710852,-12.30976 -1.964196,-0.12788 -3.921243,-0.18011 -5.906097,-0.15484 -1.918202,0.0244 -3.846543,0.12779 -5.784752,0.30968 -4.424801,2.83039 -10.039893,4.91063 -14.563561,6.81297 8.888186,-2.99412 17.511345,-3.80506 26.01043,-3.25171 14.927312,0.97187 29.576622,6.30948 44.497432,12.03887 12.13557,4.65976 24.44625,9.54092 37.25724,12.38722 0.9046,5.81381 1.53145,11.9199 1.90131,18.23273 -13.78276,-2.68506 -28.22289,-4.19541 -42.67731,-4.49043 -1.73204,-0.0353 -3.44536,-0.0379 -5.17793,-0.0386 -49.983771,-0.025 -99.724606,14.33532 -123.4212345,44.98137 -1.2136204,1.64002 0.046895,2.0739 -0.4045188,4.1033 -0.2756548,1.09785 -0.8442442,4.01416 -1.3348842,4.83877 l 0.2022659,0.11612 C 23.398355,863.04589 78.313732,846.40445 132.88614,847.51836 c 14.61032,0.29814 29.1388,1.8868 42.96053,4.68386 0.006,0.14333 0.0348,0.28229 0.0404,0.42582 0.2928,7.54707 0.20223,15.37337 -0.16181,23.34226 -2.3203,-0.32327 -4.65228,-0.54835 -6.9983,-0.58064 -1.00959,-0.0139 -2.02227,-8.3e-4 -3.03392,0.0386 -9.71186,0.38528 -19.47698,3.24723 -28.59965,8.67105 -33.07396,19.66365 -79.097901,60.36592 -107.441612,110.40088 0.883791,1.03919 1.792447,2.0473 2.710303,3.05814 C 60.2355,947.69742 106.479,906.70051 139.15671,887.27307 c 11.69878,-6.95507 24.31892,-9.48398 36.40758,-7.70335 -1.06466,18.6952 -3.77379,38.09902 -7.68595,56.71093 -5.83984,27.78297 -14.32321,53.79066 -23.74599,73.04655 -4.71126,9.6277 -9.66586,17.5776 -14.56356,23.1484 -3.01715,3.4324 -6.02743,5.9151 -8.85908,7.4323 2.10022,0.1442 4.22422,0.2238 6.35106,0.271 1.84168,-1.4956 3.66805,-3.2635 5.46114,-5.3033 5.23171,-5.9518 10.32297,-14.1401 15.12869,-23.9613 9.61272,-19.64385 18.13883,-45.91385 24.02921,-73.93676 3.91255,-18.61438 6.63012,-37.97469 7.72647,-56.71092 10.20983,2.30439 19.8979,7.75432 28.15535,16.33561 17.67763,18.37197 28.60874,51.34653 22.41045,98.59424 1.59031,-1.84229 3.13293,-3.72213 4.61162,-5.6517 4.62124,-44.80731 -6.25427,-76.85942 -24.15003,-95.4589 -8.90468,-9.25485 -19.5848,-15.07997 -30.8251,-17.45821 0.37944,-8.02882 0.44148,-15.93033 0.16181,-23.57475 34.88237,7.7251 64.64346,23.33605 78.19498,46.02689 -0.5189,-3.24338 -1.14248,-6.48054 -1.90132,-9.63876 -16.04459,-20.13482 -44.29088,-33.61978 -76.49569,-40.49093 -0.33835,-6.28971 -0.92179,-12.38448 -1.77984,-18.23273 1.61082,0.29803 3.22607,0.59062 4.8543,0.81291 12.13024,1.65619 24.77883,1.01926 38.02504,-3.6775 -1.02833,-0.96381 -2.05345,-1.93367 -3.11486,-2.86457 -11.94185,3.92738 -23.25882,4.37817 -34.34452,2.86457 -2.01799,-0.27552 -4.02479,-0.60827 -6.02744,-1.00647 -1.82142,-10.63542 -4.57849,-20.37227 -8.49507,-28.76136 -1.62744,-0.48557 -3.28089,-0.92978 -4.93523,-1.35484 z"
         id="path4012"
         style="text-indent:0;text-transform:none;block-progression:tb;color:#000000;enable-background:accumulate" />
    </g>
  </g>
</svg>
