<?xml version="1.0" encoding="UTF-8" standalone="no"?>
<!-- Created with Inkscape (http://www.inkscape.org/) -->

<svg
   xmlns:svg="http://www.w3.org/2000/svg"
   xmlns="http://www.w3.org/2000/svg"
   xmlns:xlink="http://www.w3.org/1999/xlink"
   version="1.1"
   width="48"
   height="48"
   viewBox="0 0 48 48"
   id="svg11263">
  <defs
     id="defs11265">
    <radialGradient
       cx="108.17"
       cy="98.795998"
       r="98.995003"
       id="radialGradient3999"
       gradientUnits="userSpaceOnUse"
       gradientTransform="matrix(1.2671,0,0,1.2671,210.41,-10.944)">
      <stop
         id="stop3787"
         style="stop-color:#fffd40;stop-opacity:1"
         offset="0" />
      <stop
         id="stop3795"
         style="stop-color:#f8ff56;stop-opacity:1"
         offset="0.39004999" />
      <stop
         id="stop3793"
         style="stop-color:#bdbe32;stop-opacity:1"
         offset="0.79395998" />
      <stop
         id="stop3789"
         style="stop-color:#6c6c1e;stop-opacity:1"
         offset="1" />
    </radialGradient>
    <linearGradient
       id="linearGradient3805">
      <stop
         id="stop3809"
         style="stop-color:#ffffff;stop-opacity:1"
         offset="0" />
      <stop
         id="stop4034"
         style="stop-color:#d9d19b;stop-opacity:1"
         offset="0.5" />
      <stop
         id="stop3807"
         style="stop-color:#8a7e2b;stop-opacity:1"
         offset="1" />
    </linearGradient>
    <radialGradient
       cx="108.17"
       cy="98.795998"
       r="98.995003"
       id="radialGradient11473"
       xlink:href="#radialGradient3999"
       gradientUnits="userSpaceOnUse"
       gradientTransform="matrix(1.2671,0,0,1.2671,210.41,-10.944)" />
    <radialGradient
       cx="394.07001"
       cy="159.82001"
       r="48.625"
       id="radialGradient11475"
       xlink:href="#linearGradient3805"
       gradientUnits="userSpaceOnUse"
       gradientTransform="matrix(1.2335,0,0,1.3849,-93.23,-60.957)" />
    <radialGradient
       cx="294.44"
       cy="82.759003"
       r="43.827999"
       id="radialGradient11477"
       xlink:href="#linearGradient3805"
       gradientUnits="userSpaceOnUse"
       gradientTransform="matrix(1.5682,0.42019,-0.46078,1.7197,-119.65,-178.4)" />
    <radialGradient
       cx="357.31"
       cy="136.97"
       r="47.75"
       id="radialGradient11479"
       xlink:href="#linearGradient3805"
       gradientUnits="userSpaceOnUse"
       gradientTransform="matrix(2.0124,0,0,2.2567,-276.45,-87.373)" />
    <radialGradient
       cx="401.76001"
       cy="171.48"
       r="44.155998"
       id="radialGradient11481"
       xlink:href="#linearGradient3805"
       gradientUnits="userSpaceOnUse"
       gradientTransform="matrix(2.305,0,0,2.5938,-517.21,-287.68)" />
    <radialGradient
       cx="317.57001"
       cy="97.977997"
       r="43.827999"
       id="radialGradient11483"
       xlink:href="#linearGradient3805"
       gradientUnits="userSpaceOnUse"
       gradientTransform="matrix(1.6505,0.44225,-0.48498,1.81,-143.8,-190.8)" />
    <radialGradient
       cx="313.73001"
       cy="94.722"
       r="42.655998"
       id="radialGradient11485"
       xlink:href="#linearGradient3805"
       gradientUnits="userSpaceOnUse"
       gradientTransform="matrix(3.2291,0,0,3.5401,-700.21,-254.42)" />
  </defs>
  <g
     transform="matrix(0.18464485,0,0,0.18455319,0.00353497,-146.18781)"
     id="layer1">
    <g
       transform="matrix(1.3995462,0,0,1.3993808,-339.87672,722.73482)"
       id="layer1-17">
      <path
         d="m 335.75,49.581 c -3.1783,0 -6.3047,0.17729 -9.4008,0.48872 -1.5449,1.4058 -3.9654,2.6003 -6.8134,3.2486 -3.3778,0.76886 -6.5556,0.57412 -8.5958,-0.37373 -34.933,9.6515 -61.572,39.188 -67.041,75.666 1.4856,1.8884 1.7376,5.8139 0.45998,9.947 -0.40251,1.3021 -0.93139,2.5101 -1.5237,3.5648 -0.004,0.007 0.004,0.0215 0,0.0287 -4.3e-4,0.11513 0,0.22976 0,0.34498 0,51.178 41.36,92.71 92.484,92.944 1.8063,-1.2748 4.7398,-2.0986 8.0496,-2.0986 2.315,0 4.434,0.41245 6.1234,1.0924 0.008,0.004 0.0206,-0.004 0.0287,0 43.346,-6.4436 76.935,-42.842 79.058,-87.453 -0.84591,-1.9931 -1.3512,-4.6525 -1.3512,-7.5896 0,-2.4392 0.34317,-4.6893 0.9487,-6.5259 -4.8253,-46.791 -44.36,-83.284 -92.426,-83.284 z"
         id="path2985-4"
         style="color:#000000;fill:url(#radialGradient11473)" />
      <path
         d="m 427.6,135.16 c -27.566,9.6964 -54.544,32.336 -73.021,64.339 -6.4599,11.189 -11.369,22.707 -14.834,34.182 1.1202,-0.22419 2.3471,-0.34498 3.6223,-0.34498 1.2337,0 2.4173,0.13445 3.5073,0.34498 15.175,-39.932 46.073,-74.48 80.754,-89.954 -0.2577,-1.3356 -0.40248,-2.7996 -0.40248,-4.341 0,-1.4968 0.12999,-2.9217 0.37373,-4.226 z"
         id="path2998"
         style="color:#000000;fill:url(#radialGradient11475)" />
      <path
         d="m 322.92,52.197 c -1.0325,0.45952 -2.1644,0.8417 -3.3923,1.1212 -1.5971,0.36353 -3.1629,0.50828 -4.571,0.45998 -14.73,33.3 -40.947,61.79 -70.405,76.04 0.82147,2.0381 0.83698,5.1508 -0.115,8.4233 25.099,-9.7423 49.406,-30.562 66.265,-59.567 5.0448,-8.6788 9.0981,-17.574 12.218,-26.477 z"
         id="path3009"
         style="color:#000000;fill:url(#radialGradient11477)" />
      <path
         d="m 427.5,135.2 c -27.566,9.6964 -54.544,32.336 -73.021,64.339 -6.4599,11.189 -11.369,22.707 -14.834,34.182 0.89597,-0.17931 1.8723,-0.24936 2.8748,-0.28748 3.46,-11.38 8.3419,-22.799 14.748,-33.894 17.816,-30.858 43.531,-53.008 70.06,-63.247 0.0489,-0.36962 0.10654,-0.73951 0.17249,-1.0924 z m -81.444,98.176 c -0.45131,0 -0.88579,0.0568 -1.3224,0.0862 0.70775,0.0591 1.3908,0.13312 2.0411,0.25873 0.04,-0.10525 0.0748,-0.21105 0.115,-0.31623 -0.27389,-0.0131 -0.55416,-0.0287 -0.83371,-0.0287 z"
         id="path3917"
         style="color:#000000;fill:url(#radialGradient11479)" />
      <path
         d="m 427.43,142.52 c -25.694,10.615 -50.441,32.379 -67.731,62.327 -5.447,9.4344 -9.7748,19.098 -13.081,28.777 0.47485,0.0851 0.912,0.19685 1.3512,0.31623 3.2152,-9.0818 7.3073,-18.14 12.419,-26.995 17.235,-29.852 41.867,-51.532 67.473,-62.183 -0.17649,-0.70479 -0.32744,-1.4546 -0.43122,-2.2424 z"
         id="path3938"
         style="color:#000000;fill:url(#radialGradient11481)" />
      <path
         d="m 313.03,53.577 c -14.687,32.486 -40.274,60.255 -69.054,74.459 -0.0301,0.19219 -0.0574,0.38237 -0.0862,0.57497 0.26261,0.33381 0.47733,0.75641 0.66121,1.2074 29.458,-14.249 55.675,-42.74 70.405,-76.04 -0.68279,-0.02246 -1.3225,-0.09044 -1.9262,-0.20124 z"
         id="path3962"
         style="color:#000000;fill:url(#radialGradient11483)" />
      <path
         d="m 322.92,52.197 c -0.52398,0.23321 -1.0639,0.44241 -1.6387,0.63247 -3.0535,8.4611 -6.9346,16.906 -11.729,25.155 -16.522,28.423 -40.208,48.982 -64.77,58.963 -0.0933,0.43109 -0.21726,0.85464 -0.34498,1.2937 25.099,-9.7423 49.406,-30.562 66.265,-59.567 5.0448,-8.6788 9.0981,-17.574 12.218,-26.477 z"
         id="path3980"
         style="color:#000000;fill:url(#radialGradient11485)" />
    </g>
  </g>
</svg>
