<?xml version="1.0" encoding="UTF-8" standalone="no"?>
<!-- Created with Inkscape (http://www.inkscape.org/) -->

<svg
   xmlns:svg="http://www.w3.org/2000/svg"
   xmlns="http://www.w3.org/2000/svg"
   xmlns:xlink="http://www.w3.org/1999/xlink"
   version="1.1"
   width="48"
   height="48"
   viewBox="0 0 48 48"
   id="svg11263">
  <defs
     id="defs11265">
    <radialGradient
       cx="613.15997"
       cy="665.46997"
       r="100.01"
       id="radialGradient6615"
       gradientUnits="userSpaceOnUse">
      <stop
         id="stop6297"
         style="stop-color:#000000;stop-opacity:1"
         offset="0" />
      <stop
         id="stop6299"
         style="stop-color:#000000;stop-opacity:0"
         offset="1" />
    </radialGradient>
    <radialGradient
       cx="108.17"
       cy="98.795998"
       r="98.995003"
       id="radialGradient3999"
       gradientUnits="userSpaceOnUse"
       gradientTransform="matrix(1.2671,0,0,1.2671,210.41,-10.944)">
      <stop
         id="stop3787"
         style="stop-color:#fffd40;stop-opacity:1"
         offset="0" />
      <stop
         id="stop3795"
         style="stop-color:#f8ff56;stop-opacity:1"
         offset="0.39004999" />
      <stop
         id="stop3793"
         style="stop-color:#bdbe32;stop-opacity:1"
         offset="0.79395998" />
      <stop
         id="stop3789"
         style="stop-color:#6c6c1e;stop-opacity:1"
         offset="1" />
    </radialGradient>
    <linearGradient
       id="linearGradient3805">
      <stop
         id="stop3809"
         style="stop-color:#ffffff;stop-opacity:1"
         offset="0" />
      <stop
         id="stop4034"
         style="stop-color:#d9d19b;stop-opacity:1"
         offset="0.5" />
      <stop
         id="stop3807"
         style="stop-color:#8a7e2b;stop-opacity:1"
         offset="1" />
    </linearGradient>
    <linearGradient
       id="linearGradient11301">
      <stop
         id="stop11303"
         style="stop-color:#ffffff;stop-opacity:1"
         offset="0" />
      <stop
         id="stop11305"
         style="stop-color:#d9d19b;stop-opacity:1"
         offset="0.5" />
      <stop
         id="stop11307"
         style="stop-color:#8a7e2b;stop-opacity:1"
         offset="1" />
    </linearGradient>
    <linearGradient
       id="linearGradient11310">
      <stop
         id="stop11312"
         style="stop-color:#ffffff;stop-opacity:1"
         offset="0" />
      <stop
         id="stop11314"
         style="stop-color:#d9d19b;stop-opacity:1"
         offset="0.5" />
      <stop
         id="stop11316"
         style="stop-color:#8a7e2b;stop-opacity:1"
         offset="1" />
    </linearGradient>
    <linearGradient
       id="linearGradient11319">
      <stop
         id="stop11321"
         style="stop-color:#ffffff;stop-opacity:1"
         offset="0" />
      <stop
         id="stop11323"
         style="stop-color:#d9d19b;stop-opacity:1"
         offset="0.5" />
      <stop
         id="stop11325"
         style="stop-color:#8a7e2b;stop-opacity:1"
         offset="1" />
    </linearGradient>
    <linearGradient
       id="linearGradient11328">
      <stop
         id="stop11330"
         style="stop-color:#ffffff;stop-opacity:1"
         offset="0" />
      <stop
         id="stop11332"
         style="stop-color:#d9d19b;stop-opacity:1"
         offset="0.5" />
      <stop
         id="stop11334"
         style="stop-color:#8a7e2b;stop-opacity:1"
         offset="1" />
    </linearGradient>
    <linearGradient
       id="linearGradient11337">
      <stop
         id="stop11339"
         style="stop-color:#ffffff;stop-opacity:1"
         offset="0" />
      <stop
         id="stop11341"
         style="stop-color:#d9d19b;stop-opacity:1"
         offset="0.5" />
      <stop
         id="stop11343"
         style="stop-color:#8a7e2b;stop-opacity:1"
         offset="1" />
    </linearGradient>
    <radialGradient
       cx="613.15997"
       cy="665.46997"
       r="100.01"
       id="radialGradient6615-8"
       gradientUnits="userSpaceOnUse">
      <stop
         id="stop6297-0"
         style="stop-color:#000000;stop-opacity:1"
         offset="0" />
      <stop
         id="stop6299-6"
         style="stop-color:#000000;stop-opacity:0"
         offset="1" />
    </radialGradient>
    <linearGradient
       id="linearGradient4069">
      <stop
         id="stop4071"
         style="stop-color:#ffcaa6;stop-opacity:1"
         offset="0" />
      <stop
         id="stop4077"
         style="stop-color:#d54800;stop-opacity:1"
         offset="0.78634" />
      <stop
         id="stop4073"
         style="stop-color:#8d3d17;stop-opacity:1"
         offset="1" />
    </linearGradient>
    <linearGradient
       id="linearGradient15851">
      <stop
         id="stop15853"
         style="stop-color:#ffffff;stop-opacity:1"
         offset="0" />
      <stop
         id="stop15855"
         style="stop-color:#ffffff;stop-opacity:0"
         offset="1" />
    </linearGradient>
    <linearGradient
       id="linearGradient11534">
      <stop
         id="stop11536"
         style="stop-color:#ffffff;stop-opacity:1"
         offset="0" />
      <stop
         id="stop11538"
         style="stop-color:#ffffff;stop-opacity:0"
         offset="1" />
    </linearGradient>
    <linearGradient
       id="linearGradient11541">
      <stop
         id="stop11543"
         style="stop-color:#ffcaa6;stop-opacity:1"
         offset="0" />
      <stop
         id="stop11545"
         style="stop-color:#d54800;stop-opacity:1"
         offset="0.78634" />
      <stop
         id="stop11547"
         style="stop-color:#8d3d17;stop-opacity:1"
         offset="1" />
    </linearGradient>
    <radialGradient
       cx="613.15997"
       cy="665.46997"
       r="100.01"
       id="radialGradient6615-5"
       gradientUnits="userSpaceOnUse">
      <stop
         id="stop6297-9"
         style="stop-color:#000000;stop-opacity:1"
         offset="0" />
      <stop
         id="stop6299-5"
         style="stop-color:#000000;stop-opacity:0"
         offset="1" />
    </radialGradient>
    <linearGradient
       id="linearGradient4069-3">
      <stop
         id="stop4071-4"
         style="stop-color:#ffcaa6;stop-opacity:1"
         offset="0" />
      <stop
         id="stop4077-4"
         style="stop-color:#d54800;stop-opacity:1"
         offset="0.78634" />
      <stop
         id="stop4073-7"
         style="stop-color:#8d3d17;stop-opacity:1"
         offset="1" />
    </linearGradient>
    <linearGradient
       id="linearGradient15851-2">
      <stop
         id="stop15853-4"
         style="stop-color:#ffffff;stop-opacity:1"
         offset="0" />
      <stop
         id="stop15855-8"
         style="stop-color:#ffffff;stop-opacity:0"
         offset="1" />
    </linearGradient>
    <linearGradient
       id="linearGradient11663">
      <stop
         id="stop11665"
         style="stop-color:#ffffff;stop-opacity:1"
         offset="0" />
      <stop
         id="stop11667"
         style="stop-color:#ffffff;stop-opacity:0"
         offset="1" />
    </linearGradient>
    <linearGradient
       id="linearGradient11670">
      <stop
         id="stop11672"
         style="stop-color:#ffcaa6;stop-opacity:1"
         offset="0" />
      <stop
         id="stop11674"
         style="stop-color:#d54800;stop-opacity:1"
         offset="0.78634" />
      <stop
         id="stop11676"
         style="stop-color:#8d3d17;stop-opacity:1"
         offset="1" />
    </linearGradient>
    <radialGradient
       cx="224.32001"
       cy="98.153999"
       r="100"
       id="radialGradient11773"
       xlink:href="#linearGradient4069-3"
       gradientUnits="userSpaceOnUse"
       gradientTransform="matrix(1.4593434,0,0,1.3964834,-162.85886,740.30594)" />
    <radialGradient
       cx="127.99"
       cy="56.796001"
       r="58.689999"
       id="radialGradient11775"
       xlink:href="#linearGradient15851-2"
       gradientUnits="userSpaceOnUse"
       gradientTransform="matrix(0.98925627,0,0,0.94664491,46.162557,911.57997)" />
    <radialGradient
       cx="127.99"
       cy="56.796001"
       r="58.689999"
       id="radialGradient11777"
       xlink:href="#linearGradient15851-2"
       gradientUnits="userSpaceOnUse"
       gradientTransform="matrix(1.0289455,0,0,0.98462459,21.933269,804.60036)" />
    <radialGradient
       cx="148.95"
       cy="63.394001"
       r="98.405998"
       id="radialGradient11779"
       xlink:href="#linearGradient4069-3"
       gradientUnits="userSpaceOnUse"
       gradientTransform="matrix(2.1284094,0,0,2.0008016,-147.78864,725.41368)" />
    <radialGradient
       cx="197.81616"
       cy="215.28618"
       r="99.943504"
       fx="197.81616"
       fy="215.28618"
       id="radialGradient4437"
       xlink:href="#radialGradient6615-6"
       gradientUnits="userSpaceOnUse"
       gradientTransform="matrix(1.4993186,0,0,0.17867234,388.21622,833.32433)" />
    <radialGradient
       cx="613.15997"
       cy="665.46997"
       r="100.01"
       id="radialGradient6615-6"
       gradientUnits="userSpaceOnUse">
      <stop
         id="stop6297-8"
         style="stop-color:#000000;stop-opacity:1"
         offset="0" />
      <stop
         id="stop6299-58"
         style="stop-color:#000000;stop-opacity:0"
         offset="1" />
    </radialGradient>
    <radialGradient
       cx="1160.8"
       cy="738.28003"
       r="27.416"
       id="radialGradient4439"
       xlink:href="#linearGradient4992"
       gradientUnits="userSpaceOnUse"
       gradientTransform="matrix(1.9853,1.1462,-1.704,2.9515,148.38,-2820.1)" />
    <linearGradient
       id="linearGradient4992">
      <stop
         id="stop4996"
         style="stop-color:#ffffff;stop-opacity:1"
         offset="0" />
      <stop
         id="stop4467"
         style="stop-color:#ffffff;stop-opacity:1"
         offset="0.3611111" />
      <stop
         id="stop4994"
         style="stop-color:#a5a5a5;stop-opacity:1"
         offset="1" />
    </linearGradient>
    <radialGradient
       cx="1138.7"
       cy="686.41998"
       r="8.8119001"
       id="radialGradient4441"
       xlink:href="#linearGradient4992"
       gradientUnits="userSpaceOnUse"
       gradientTransform="matrix(2.7793,0.7447,-4.3155,16.106,968.17,-11322)" />
    <linearGradient
       id="linearGradient11824">
      <stop
         id="stop11826"
         style="stop-color:#ffffff;stop-opacity:1"
         offset="0" />
      <stop
         id="stop11828"
         style="stop-color:#ffffff;stop-opacity:1"
         offset="0.3611111" />
      <stop
         id="stop11830"
         style="stop-color:#a5a5a5;stop-opacity:1"
         offset="1" />
    </linearGradient>
    <radialGradient
       cx="1242.4"
       cy="656"
       r="43.088001"
       id="radialGradient4443"
       xlink:href="#linearGradient4992"
       gradientUnits="userSpaceOnUse"
       gradientTransform="matrix(2.449,0,0,0.50966,-1768.2,272.8)" />
    <linearGradient
       id="linearGradient11833">
      <stop
         id="stop11835"
         style="stop-color:#ffffff;stop-opacity:1"
         offset="0" />
      <stop
         id="stop11837"
         style="stop-color:#ffffff;stop-opacity:1"
         offset="0.3611111" />
      <stop
         id="stop11839"
         style="stop-color:#a5a5a5;stop-opacity:1"
         offset="1" />
    </linearGradient>
    <radialGradient
       cx="1275.4"
       cy="648.63"
       r="39.687"
       id="radialGradient4445"
       xlink:href="#linearGradient4992"
       gradientUnits="userSpaceOnUse"
       gradientTransform="matrix(2.5555,0,0,1.3756,-2013.9,-249.79)" />
    <linearGradient
       id="linearGradient11842">
      <stop
         id="stop11844"
         style="stop-color:#ffffff;stop-opacity:1"
         offset="0" />
      <stop
         id="stop11846"
         style="stop-color:#ffffff;stop-opacity:1"
         offset="0.3611111" />
      <stop
         id="stop11848"
         style="stop-color:#a5a5a5;stop-opacity:1"
         offset="1" />
    </linearGradient>
    <radialGradient
       cx="1260.8"
       cy="810.87"
       r="43.153999"
       id="radialGradient4447"
       xlink:href="#linearGradient4992"
       gradientUnits="userSpaceOnUse"
       gradientTransform="matrix(1,0,0,0.19462,0,633.06)" />
    <linearGradient
       id="linearGradient11851">
      <stop
         id="stop11853"
         style="stop-color:#ffffff;stop-opacity:1"
         offset="0" />
      <stop
         id="stop11855"
         style="stop-color:#ffffff;stop-opacity:1"
         offset="0.3611111" />
      <stop
         id="stop11857"
         style="stop-color:#a5a5a5;stop-opacity:1"
         offset="1" />
    </linearGradient>
    <radialGradient
       cx="1201.1"
       cy="631.40002"
       r="32.678001"
       id="radialGradient4449"
       xlink:href="#linearGradient4992"
       gradientUnits="userSpaceOnUse"
       gradientTransform="matrix(0.91766,1.5894,-1.6292,0.94065,1129,-1851.6)" />
    <linearGradient
       id="linearGradient11860">
      <stop
         id="stop11862"
         style="stop-color:#ffffff;stop-opacity:1"
         offset="0" />
      <stop
         id="stop11864"
         style="stop-color:#ffffff;stop-opacity:1"
         offset="0.3611111" />
      <stop
         id="stop11866"
         style="stop-color:#a5a5a5;stop-opacity:1"
         offset="1" />
    </linearGradient>
    <radialGradient
       cx="1317.1"
       cy="705.89001"
       r="27.416"
       id="radialGradient4451"
       xlink:href="#linearGradient4992"
       gradientUnits="userSpaceOnUse"
       gradientTransform="matrix(1.6587,0,0,2.7765,-874.32,-1303.7)" />
    <linearGradient
       id="linearGradient11869">
      <stop
         id="stop11871"
         style="stop-color:#ffffff;stop-opacity:1"
         offset="0" />
      <stop
         id="stop11873"
         style="stop-color:#ffffff;stop-opacity:1"
         offset="0.3611111" />
      <stop
         id="stop11875"
         style="stop-color:#a5a5a5;stop-opacity:1"
         offset="1" />
    </linearGradient>
    <radialGradient
       cx="1282.7"
       cy="750.48999"
       r="44.362"
       id="radialGradient4453"
       xlink:href="#linearGradient4992"
       gradientUnits="userSpaceOnUse"
       gradientTransform="matrix(1.4186,-0.49914,0.24317,0.69112,-722.63,856.34)" />
    <linearGradient
       id="linearGradient11878">
      <stop
         id="stop11880"
         style="stop-color:#ffffff;stop-opacity:1"
         offset="0" />
      <stop
         id="stop11882"
         style="stop-color:#ffffff;stop-opacity:1"
         offset="0.3611111" />
      <stop
         id="stop11884"
         style="stop-color:#a5a5a5;stop-opacity:1"
         offset="1" />
    </linearGradient>
    <radialGradient
       cx="1293.3"
       cy="670.73999"
       r="39.687"
       id="radialGradient4455"
       xlink:href="#linearGradient4992"
       gradientUnits="userSpaceOnUse"
       gradientTransform="matrix(1.2417,-0.71688,0.75396,1.3059,-819.24,704.69)" />
    <linearGradient
       id="linearGradient11887">
      <stop
         id="stop11889"
         style="stop-color:#ffffff;stop-opacity:1"
         offset="0" />
      <stop
         id="stop11891"
         style="stop-color:#ffffff;stop-opacity:1"
         offset="0.3611111" />
      <stop
         id="stop11893"
         style="stop-color:#a5a5a5;stop-opacity:1"
         offset="1" />
    </linearGradient>
    <radialGradient
       cx="1210.3"
       cy="719.57001"
       r="44.362"
       id="radialGradient4457"
       xlink:href="#linearGradient4992"
       gradientUnits="userSpaceOnUse"
       gradientTransform="matrix(1.5966,0.32202,-0.24336,1.2066,-540.17,-563.25)" />
    <linearGradient
       id="linearGradient11896">
      <stop
         id="stop11898"
         style="stop-color:#ffffff;stop-opacity:1"
         offset="0" />
      <stop
         id="stop11900"
         style="stop-color:#ffffff;stop-opacity:1"
         offset="0.3611111" />
      <stop
         id="stop11902"
         style="stop-color:#a5a5a5;stop-opacity:1"
         offset="1" />
    </linearGradient>
    <radialGradient
       cx="1229.2"
       cy="684.07001"
       r="44.384998"
       id="radialGradient4459"
       xlink:href="#linearGradient4992"
       gradientUnits="userSpaceOnUse"
       gradientTransform="matrix(1.5632,0.048278,-0.029029,0.93994,-667.99,-38.299)" />
    <linearGradient
       id="linearGradient11905">
      <stop
         id="stop11907"
         style="stop-color:#ffffff;stop-opacity:1"
         offset="0" />
      <stop
         id="stop11909"
         style="stop-color:#ffffff;stop-opacity:1"
         offset="0.3611111" />
      <stop
         id="stop11911"
         style="stop-color:#a5a5a5;stop-opacity:1"
         offset="1" />
    </linearGradient>
    <radialGradient
       cx="710.39001"
       cy="146.28"
       r="78.880997"
       id="radialGradient4461"
       xlink:href="#linearGradient4992"
       gradientUnits="userSpaceOnUse"
       gradientTransform="matrix(0.94838,0,0,0.9435,36.162,9.1073)"
       spreadMethod="reflect" />
    <linearGradient
       id="linearGradient11914">
      <stop
         id="stop11916"
         style="stop-color:#ffffff;stop-opacity:1"
         offset="0" />
      <stop
         id="stop11918"
         style="stop-color:#ffffff;stop-opacity:1"
         offset="0.3611111" />
      <stop
         id="stop11920"
         style="stop-color:#a5a5a5;stop-opacity:1"
         offset="1" />
    </linearGradient>
    <filter
       color-interpolation-filters="sRGB"
       id="filter3966">
      <feGaussianBlur
         id="feGaussianBlur3968"
         stdDeviation="0.38650542" />
    </filter>
    <radialGradient
       cx="1246.3"
       cy="639.34003"
       r="37.396999"
       id="radialGradient4463"
       xlink:href="#radialGradient4093"
       gradientUnits="userSpaceOnUse"
       gradientTransform="matrix(1.9811,0,0,1.1678,-1221.4,-107.9)" />
    <radialGradient
       cx="1246.3"
       cy="639.34003"
       r="37.396999"
       id="radialGradient4093"
       gradientUnits="userSpaceOnUse"
       gradientTransform="matrix(1.9811,0,0,1.1678,-1221.4,-107.9)">
      <stop
         id="stop6162"
         style="stop-color:#ffffff;stop-opacity:1"
         offset="0" />
      <stop
         id="stop4055"
         style="stop-color:#484848;stop-opacity:1"
         offset="0.60741001" />
      <stop
         id="stop4057"
         style="stop-color:#242424;stop-opacity:1"
         offset="0.78188998" />
      <stop
         id="stop6164"
         style="stop-color:#000000;stop-opacity:1"
         offset="1" />
    </radialGradient>
    <linearGradient
       x1="1283"
       y1="695.84998"
       x2="1335.5"
       y2="692.57001"
       id="linearGradient4465"
       xlink:href="#linearGradient4683"
       gradientUnits="userSpaceOnUse" />
    <linearGradient
       id="linearGradient4683">
      <stop
         id="stop4685"
         style="stop-color:#ffffff;stop-opacity:1"
         offset="0" />
      <stop
         id="stop4687"
         style="stop-color:#ffffff;stop-opacity:0.18261001"
         offset="1" />
    </linearGradient>
    <linearGradient
       x1="1198.7"
       y1="687.96002"
       x2="1214.7"
       y2="738.67999"
       id="linearGradient4467"
       xlink:href="#linearGradient4683"
       gradientUnits="userSpaceOnUse"
       gradientTransform="matrix(1.4895,0,0,1.4895,-593.87,-352.61)" />
    <linearGradient
       id="linearGradient11935">
      <stop
         id="stop11937"
         style="stop-color:#ffffff;stop-opacity:1"
         offset="0" />
      <stop
         id="stop11939"
         style="stop-color:#ffffff;stop-opacity:0.18261001"
         offset="1" />
    </linearGradient>
    <linearGradient
       x1="1253.3"
       y1="665.59998"
       x2="1300"
       y2="677.02002"
       id="linearGradient4469"
       xlink:href="#linearGradient4683"
       gradientUnits="userSpaceOnUse"
       gradientTransform="matrix(1.4871,-0.084891,0.084891,1.4871,-650.13,-243.17)" />
    <linearGradient
       id="linearGradient11942">
      <stop
         id="stop11944"
         style="stop-color:#ffffff;stop-opacity:1"
         offset="0" />
      <stop
         id="stop11946"
         style="stop-color:#ffffff;stop-opacity:0.18261001"
         offset="1" />
    </linearGradient>
    <linearGradient
       x1="1216.5"
       y1="682.94"
       x2="1182.8"
       y2="715.08002"
       id="linearGradient4471"
       xlink:href="#linearGradient4683"
       gradientUnits="userSpaceOnUse"
       gradientTransform="matrix(1.4895,0,0,1.4895,-594.8,-354.04)" />
    <linearGradient
       id="linearGradient11949">
      <stop
         id="stop11951"
         style="stop-color:#ffffff;stop-opacity:1"
         offset="0" />
      <stop
         id="stop11953"
         style="stop-color:#ffffff;stop-opacity:0.18261001"
         offset="1" />
    </linearGradient>
    <linearGradient
       x1="1226.6"
       y1="649.73999"
       x2="1276.7"
       y2="710.09998"
       id="linearGradient4473"
       xlink:href="#linearGradient4683"
       gradientUnits="userSpaceOnUse"
       gradientTransform="matrix(1.4895,0,0,1.4895,-594.94,-353.68)" />
    <linearGradient
       id="linearGradient11956">
      <stop
         id="stop11958"
         style="stop-color:#ffffff;stop-opacity:1"
         offset="0" />
      <stop
         id="stop11960"
         style="stop-color:#ffffff;stop-opacity:0.18261001"
         offset="1" />
    </linearGradient>
    <radialGradient
       cx="197.81616"
       cy="215.28618"
       r="99.943504"
       fx="197.81616"
       fy="215.28618"
       id="radialGradient12268"
       xlink:href="#radialGradient6615-6"
       gradientUnits="userSpaceOnUse"
       gradientTransform="matrix(1.4431854,0,0,0.171983,-137.38104,1038.902)" />
    <radialGradient
       cx="1160.8"
       cy="738.28003"
       r="27.416"
       id="radialGradient12270"
       xlink:href="#linearGradient4992"
       gradientUnits="userSpaceOnUse"
       gradientTransform="matrix(1.9853,1.1462,-1.704,2.9515,148.38,-2820.1)" />
    <radialGradient
       cx="1138.7"
       cy="686.41998"
       r="8.8119001"
       id="radialGradient12272"
       xlink:href="#linearGradient4992"
       gradientUnits="userSpaceOnUse"
       gradientTransform="matrix(2.7793,0.7447,-4.3155,16.106,968.17,-11322)" />
    <radialGradient
       cx="1242.4"
       cy="656"
       r="43.088001"
       id="radialGradient12274"
       xlink:href="#linearGradient4992"
       gradientUnits="userSpaceOnUse"
       gradientTransform="matrix(2.449,0,0,0.50966,-1768.2,272.8)" />
    <radialGradient
       cx="1275.4"
       cy="648.63"
       r="39.687"
       id="radialGradient12276"
       xlink:href="#linearGradient4992"
       gradientUnits="userSpaceOnUse"
       gradientTransform="matrix(2.5555,0,0,1.3756,-2013.9,-249.79)" />
    <radialGradient
       cx="1260.8"
       cy="810.87"
       r="43.153999"
       id="radialGradient12278"
       xlink:href="#linearGradient4992"
       gradientUnits="userSpaceOnUse"
       gradientTransform="matrix(1,0,0,0.19462,0,633.06)" />
    <radialGradient
       cx="1201.1"
       cy="631.40002"
       r="32.678001"
       id="radialGradient12280"
       xlink:href="#linearGradient4992"
       gradientUnits="userSpaceOnUse"
       gradientTransform="matrix(0.91766,1.5894,-1.6292,0.94065,1129,-1851.6)" />
    <radialGradient
       cx="1317.1"
       cy="705.89001"
       r="27.416"
       id="radialGradient12282"
       xlink:href="#linearGradient4992"
       gradientUnits="userSpaceOnUse"
       gradientTransform="matrix(1.6587,0,0,2.7765,-874.32,-1303.7)" />
    <radialGradient
       cx="1282.7"
       cy="750.48999"
       r="44.362"
       id="radialGradient12284"
       xlink:href="#linearGradient4992"
       gradientUnits="userSpaceOnUse"
       gradientTransform="matrix(1.4186,-0.49914,0.24317,0.69112,-722.63,856.34)" />
    <radialGradient
       cx="1293.3"
       cy="670.73999"
       r="39.687"
       id="radialGradient12286"
       xlink:href="#linearGradient4992"
       gradientUnits="userSpaceOnUse"
       gradientTransform="matrix(1.2417,-0.71688,0.75396,1.3059,-819.24,704.69)" />
    <radialGradient
       cx="1210.3"
       cy="719.57001"
       r="44.362"
       id="radialGradient12288"
       xlink:href="#linearGradient4992"
       gradientUnits="userSpaceOnUse"
       gradientTransform="matrix(1.5966,0.32202,-0.24336,1.2066,-540.17,-563.25)" />
    <radialGradient
       cx="1229.2"
       cy="684.07001"
       r="44.384998"
       id="radialGradient12290"
       xlink:href="#linearGradient4992"
       gradientUnits="userSpaceOnUse"
       gradientTransform="matrix(1.5632,0.048278,-0.029029,0.93994,-667.99,-38.299)" />
    <radialGradient
       cx="710.39001"
       cy="146.28"
       r="78.880997"
       id="radialGradient12292"
       xlink:href="#linearGradient4992"
       gradientUnits="userSpaceOnUse"
       gradientTransform="matrix(0.94838,0,0,0.9435,36.162,9.1073)"
       spreadMethod="reflect" />
    <radialGradient
       cx="1246.3"
       cy="639.34003"
       r="37.396999"
       id="radialGradient12294"
       xlink:href="#radialGradient4093"
       gradientUnits="userSpaceOnUse"
       gradientTransform="matrix(1.9811,0,0,1.1678,-1221.4,-107.9)" />
    <linearGradient
       x1="1283"
       y1="695.84998"
       x2="1335.5"
       y2="692.57001"
       id="linearGradient12296"
       xlink:href="#linearGradient4683"
       gradientUnits="userSpaceOnUse" />
    <linearGradient
       x1="1198.7"
       y1="687.96002"
       x2="1214.7"
       y2="738.67999"
       id="linearGradient12298"
       xlink:href="#linearGradient4683"
       gradientUnits="userSpaceOnUse"
       gradientTransform="matrix(1.4895,0,0,1.4895,-593.87,-352.61)" />
    <linearGradient
       x1="1253.3"
       y1="665.59998"
       x2="1300"
       y2="677.02002"
       id="linearGradient12300"
       xlink:href="#linearGradient4683"
       gradientUnits="userSpaceOnUse"
       gradientTransform="matrix(1.4871,-0.084891,0.084891,1.4871,-650.13,-243.17)" />
    <linearGradient
       x1="1216.5"
       y1="682.94"
       x2="1182.8"
       y2="715.08002"
       id="linearGradient12302"
       xlink:href="#linearGradient4683"
       gradientUnits="userSpaceOnUse"
       gradientTransform="matrix(1.4895,0,0,1.4895,-594.8,-354.04)" />
    <linearGradient
       x1="1226.6"
       y1="649.73999"
       x2="1276.7"
       y2="710.09998"
       id="linearGradient12304"
       xlink:href="#linearGradient4683"
       gradientUnits="userSpaceOnUse"
       gradientTransform="matrix(1.4895,0,0,1.4895,-594.94,-353.68)" />
  </defs>
  <g
     transform="matrix(0.18420176,0,0,0.18463037,0.04323649,-146.30205)"
     id="layer1">
    <g
       transform="matrix(1.1152934,0,0,1.1306048,-1255.3964,127.73043)"
       id="layer1-1">
      <path
         d="m 1116.7,609.41 c 0,22.316 -18.09,40.406 -40.406,40.406 -22.316,0 -40.406,-18.09 -40.406,-40.406 0,-22.316 18.09,-40.406 40.406,-40.406 22.316,0 40.406,18.09 40.406,40.406 z"
         transform="matrix(2.8654,0,0,2.8405,-1842.2,-1028)"
         id="path6339"
         style="fill:#797979" />
      <g
         transform="matrix(0.99337,0,0,0.97607,7.4616,17.106)"
         id="g4383">
        <path
           d="m 1136.6,714.92 c -3.7811,5.8438 -6.5768,12.408 -7.618,19.296 5.714,26.878 23.094,48.126 47.305,62.221 -1.0003,-7.3542 3.5336,-13.226 7.5268,-18.931 -7.9444,-13.046 -14.455,-26.94 -20.026,-41.146 -11.425,-4.1906 -20.216,-11.664 -27.188,-21.44 z"
           id="path4186"
           style="fill:url(#radialGradient12270)" />
        <path
           d="m 1143.7,641.17 c -16.219,22.333 -23.511,73.724 -12.05,102.13 -4.3437,-10.98 -1.3763,-20.084 4.5229,-29.644 -1.7758,-15.768 1.6608,-30.955 7.5268,-45.48 -1.4546,-8.9161 -1.5343,-18.107 0,-27.005 z"
           id="path4188"
           style="fill:url(#radialGradient12272)" />
        <path
           d="m 1177.2,606.1 c 10.326,-4.0274 21.404,-6.048 32.434,-6.7969 16.599,-7.8437 45.36,-4.0712 53.742,-8.3919 -10.283,-4.2806 -48.482,-6.2654 -86.176,15.189 z"
           id="path4192"
           style="fill:url(#radialGradient12274)" />
        <path
           d="m 1255,591.43 c 11.716,3.6691 20.193,11.702 27.188,21.44 14.016,5.2883 27.412,12.237 40.052,20.254 3.8938,-2.8523 8.2193,-5.3172 12.134,-1.5054 -8.6671,-9.7519 -18.954,-17.821 -29.377,-25.591 -12.056,-6.3486 -39.822,-19.381 -49.996,-14.597 z"
           id="path4194"
           style="fill:url(#radialGradient12276)" />
        <path
           d="m 1294.2,802.47 c -14.503,4.5491 -29.623,7.0873 -44.75,8.3479 -9.6175,6.4013 -20.604,7.6878 -31.841,6.6601 31.506,5.4276 58.983,-2.1413 86.307,-14.004 -3.8306,1.999 -6.3197,1.207 -9.7164,-1.0036 z"
           id="path4198"
           style="fill:url(#radialGradient12278)" />
        <path
           d="m 1144.5,639.99 c -1.6914,8.8901 -1.3014,18.09 0,27.005 9.6579,-6.2244 20.656,-6.8467 31.795,-6.6602 9.8977,-12.075 20.804,-23.347 32.434,-33.757 -2.5441,-8.9738 -3.061,-17.726 0,-26.549 -33.426,-0.72837 -46.708,13.397 -64.229,39.96 z"
           id="path4204"
           style="fill:url(#radialGradient12280)" />
        <path
           d="m 1335,676.72 c -8.7869,7.8027 -18.139,14.95 -27.644,21.851 1.3391,15.76 -2.1009,30.823 -7.5268,45.48 6.8753,7.9831 13.602,16.1 20.026,24.451 10.111,-5.6696 19.58,-12.675 27.188,-21.44 4.3291,-15.066 6.6987,-30.672 7.618,-46.301 -5.0484,-9.0589 -12.273,-16.823 -19.661,-24.04 z"
           id="path4208"
           style="fill:url(#radialGradient12282)" />
        <path
           d="m 1298.8,745.15 c -13.906,6.4638 -28.849,8.0304 -43.975,8.1654 -7.7363,11.314 -15.98,22.291 -24.724,32.844 6.5532,7.9838 12.735,16.33 19.661,23.994 15.16,-1.0944 30.205,-3.9773 44.75,-8.3479 10.023,-9.1087 17.692,-20.476 24.314,-32.206 -6.3993,-8.3703 -13.17,-16.452 -20.026,-24.451 z"
           id="path4212"
           style="fill:url(#radialGradient12284)" />
        <path
           d="m 1282.2,613.75 c -8.644,7.6865 -18.008,14.424 -27.188,21.44 4.6027,13.905 8.7274,27.974 12.408,42.15 14.532,3.7891 27.335,11.064 39.322,19.889 9.5499,-6.8449 18.807,-14.108 27.644,-21.851 -2.2423,-14.234 -6.3636,-28.185 -12.134,-41.375 -12.568,-8.1582 -26.106,-14.815 -40.052,-20.254 z"
           id="path4216"
           style="fill:url(#radialGradient12286)" />
        <path
           d="m 1189.1,703.94 c -7.5681,11.157 -15.93,21.666 -24.314,32.206 5.4162,14.28 12.237,28.021 20.026,41.146 14.384,3.9433 29.158,6.5574 43.975,8.211 8.7961,-10.513 16.938,-21.568 24.724,-32.844 -9.009,-12.241 -14.634,-26.162 -19.661,-40.371 -14.933,-2.695 -29.862,-5.4143 -44.75,-8.3479 z"
           id="path4218"
           style="fill:url(#radialGradient12288)" />
        <path
           d="m 1209.6,627.29 c -11.704,10.335 -22.464,21.751 -32.434,33.757 4.513,13.664 8.118,27.577 12.18,41.375 14.885,2.9483 29.818,5.6518 44.75,8.3479 8.9357,-12.664 20.082,-23.198 31.841,-33.164 -3.6558,-14.183 -7.8208,-28.241 -12.408,-42.15 -14.546,-3.1536 -29.185,-6.0909 -43.929,-8.1654 z"
           id="path4220"
           style="fill:url(#radialGradient12290)" />
      </g>
      <path
         d="m 712.25,99.294 c -15.141,0.04193 -30.601,3.6707 -42.96,10.191 -3.0523,2.7911 2.9654,-0.81996 4.4824,-0.59784 4.8393,-1.1537 9.7717,-2.0701 14.691,-2.4865 8.2472,-3.9688 17.58,-5.5936 26.692,-4.8564 0.9739,-1.3843 6.8413,-1.244 5.2529,-1.516 l -8.1591,-0.73404 z m 14.031,1.75 c -1.5042,0.11789 -6.7958,0.51633 -5.3417,1.7587 6.6262,2.2614 12.18,7.064 15.967,12.898 8.5955,3.3526 16.935,7.4896 24.688,12.5 2.0345,-1.5854 5.4545,-3.5471 7.4687,-0.9375 -14.891,-14.952 -25.156,-20.645 -42.781,-26.219 z m -41.187,8 c -6.7971,0.43824 -13.633,1.7447 -20,4.1875 -7.8904,5.2922 -14.605,12.359 -19.594,20.438 -1.0035,5.4751 -0.8472,11.168 0,16.656 5.8068,-3.7094 12.849,-4.481 19.594,-4.125 6.1656,-7.3866 12.818,-14.407 20,-20.812 -1.3234,-5.3423 -2.3281,-11.122 0,-16.344 z m 51.812,9.6562 c -5.389,4.6693 -11.058,8.9699 -16.781,13.219 2.808,8.5757 5.4216,17.225 7.6562,25.969 8.784,2.5023 17.099,6.5742 24.25,12.281 5.8339,-4.2826 11.63,-8.6455 17.031,-13.469 -1.405,-8.7642 -3.8734,-17.413 -7.4687,-25.531 -7.7418,-4.9846 -16.086,-9.184 -24.688,-12.469 z m -48.75,9.0938 c -7.2195,6.3663 -13.865,13.4 -20,20.812 2.6917,8.4471 5.0786,16.973 7.5,25.5 9.1789,1.8183 18.387,3.4867 27.594,5.1562 5.5973,-7.6814 12.229,-14.509 19.625,-20.469 -2.2352,-8.7435 -4.8476,-17.393 -7.6562,-25.969 -8.9494,-1.9848 -17.999,-3.6684 -27.063,-5.0312 z m -45.469,9.8125 c -10.756,15.175 -13.473,41.037 -8.1383,61.547 0.0918,-8.2922 0.48331,-9.9419 3.4896,-17.297 -0.8817,-9.4089 0.8006,-19.005 4.6487,-27.625 -0.8344,-5.4483 -0.9714,-11.191 0,-16.625 z m 128.57,23.6 c -5.4185,4.8012 -11.168,9.226 -17.031,13.469 0.6268,9.5505 -0.9406,19.194 -4.625,28.031 4.2027,4.9574 8.4077,9.9203 12.344,15.094 6.1507,-3.5723 12.118,-7.7782 16.75,-13.219 2.5704,-9.3043 4.2318,-18.916 4.6875,-28.562 -3.0968,-5.5333 -7.5939,-10.404 -12.125,-14.812 z m 15.625,7.25 c 0.1063,2.99 -1.1905,5.6465 -1.8339,8.4365 -0.5816,9.3323 -2.1073,18.661 -4.6661,27.657 0.9846,3.1139 -1.5742,8.8262 0.9831,1.9881 4.2077,-12.21 5.7466,-25.208 5.5169,-38.082 z m -112.06,10.75 c -4.7819,6.7771 -9.6537,13.471 -14.969,19.844 3.3616,8.791 7.4997,17.305 12.344,25.375 8.8607,2.4323 17.967,4.0198 27.094,5.0625 5.414,-6.4886 10.457,-13.292 15.25,-20.25 -5.3782,-7.5918 -9.2686,-16.075 -12.125,-24.906 -9.2017,-1.6865 -18.416,-3.3107 -27.594,-5.125 z m -35.281,7.375 c -2.2387,3.7115 -4.4891,7.9181 -4.5766,12.299 -0.086,10.033 12.416,26.239 19.575,31.462 3.0027,2.3883 6.0519,4.7191 9.4701,6.4898 -0.7234,-4.449 2.2147,-8.2554 4.625,-11.688 -4.8482,-8.0545 -8.933,-16.586 -12.344,-25.344 -6.7444,-2.674 -12.868,-6.994 -16.75,-13.219 z m 106.5,19.812 c -8.4907,3.8006 -17.827,5.3077 -27.094,5.0625 -4.8112,6.9469 -9.8503,13.748 -15.25,20.25 3.951,5.0022 8.0047,9.9251 12.125,14.781 9.3313,-0.73298 18.645,-2.3948 27.594,-5.1562 6.0885,-5.6594 10.978,-12.577 14.969,-19.844 -3.9191,-5.187 -8.1331,-10.143 -12.344,-15.094 z m -93.875,23.281 c 8.6223,8.2877 18.304,15.75 29.631,19.904 2.3116,1.0591 4.8403,1.4784 7.2753,2.1582 -8.6678,-2.0305 -16.728,-6.3514 -23.41,-12.189 -4.952,-2.6217 -9.1566,-6.3766 -13.497,-9.8732 z m 36.906,22.062 c 2.9275,0.87096 3.6677,1.0006 0,0 z m 53.406,-8.1875 c -8.9494,2.7456 -18.265,4.3919 -27.594,5.125 -5.7058,3.827 -12.879,5.0761 -19.625,4.125 18.715,2.3738 37.414,-1.4312 53.219,-8.625 -2.0583,1.1904 -4.2026,0.95137 -6,-0.625 z"
         transform="matrix(1.4895,0,0,1.4734,185.58,442.96)"
         id="path5283"
         style="opacity:0.8;fill:url(#radialGradient12292);fill-opacity:1;filter:url(#filter3966)" />
      <g
         transform="matrix(0.98609,0,0,0.99094,15.814,5.3727)"
         id="g4083">
        <path
           d="m 1323.6,635.14 c 5.8091,12.717 9.3683,26.372 11.763,40.108 7.1688,6.994 14.155,14.528 19.059,23.304 3.8306,-21.861 -7.8709,-49.281 -20.739,-66.508 -4.0129,-1.1317 -6.8492,0.95403 -10.082,3.0954 z"
           id="path4200" />
        <path
           d="m 1346.2,748.98 c -7.2105,8.6687 -16.702,15.118 -26.356,20.784 -6.1866,11.556 -14.088,22.186 -23.57,31.22 3.236,2.6646 5.7345,2.3545 9.419,0.97285 14.388,-8.7716 47.255,-45.656 40.506,-52.976 z"
           id="path4202" />
        <path
           d="m 1185.8,778.92 c -4.2423,5.5311 -7.8061,11.217 -7.2963,18.351 23.206,16.39 55.104,24.633 68.984,12.868 -6.458,-7.6559 -12.931,-15.326 -19.059,-23.26 -14.369,-1.5666 -28.68,-4.1685 -42.629,-7.9597 z"
           id="path4206" />
        <path
           d="m 1144.8,669.22 c -6.5962,13.899 -8.1047,28.932 -7.2963,44.088 6.1527,10.129 15.827,16.055 26.355,20.784 8.4825,-9.9412 15.904,-20.657 23.569,-31.22 -3.6031,-13.475 -7.8001,-26.752 -11.807,-40.108 -10.928,-0.92445 -21.194,1.254 -30.822,6.4562 z"
           id="path4214" />
        <path
           d="m 1267.1,679.66 c -11.949,9.1113 -21.641,20.402 -30.866,32.148 4.1301,14.137 11.074,26.873 19.059,39.135 14.831,0.78822 28.934,-2.5781 42.628,-7.9155 6.2216,-14.018 7.6326,-28.953 7.2964,-44.088 -11.188,-9.3329 -24.424,-14.823 -38.118,-19.28 z"
           id="path4222" />
        <path
           d="m 1211.1,601.01 c -3.6306,8.4106 -1.8743,17.137 0,25.736 14.265,2.179 28.512,4.7025 42.584,7.9155 9.1357,-6.5061 17.708,-13.662 26.355,-20.784 -6.2225,-10.12 -15.516,-16.503 -26.355,-20.784 -14.857,-1.4263 -29.062,2.0717 -42.584,7.9155 z"
           id="path4210"
           style="fill:url(#radialGradient12294)" />
      </g>
      <path
         d="m 1335,679.58 c -7.503,6.5476 -17.973,15.114 -26.032,20.958 l 0.14,5.0272 c 9.8711,-6.5459 20.879,-14.902 26.397,-23.839 z"
         id="path6463"
         style="fill:url(#linearGradient12296);fill-opacity:1" />
      <path
         d="m 1190.7,706.21 -3.817,6.2848 c 13.983,6.7043 40.224,12.124 49.02,12.342 l -3.9227,-10.636 c -13.709,-2.4998 -27.607,-5.3012 -41.28,-7.991 z"
         id="path6459"
         style="fill:url(#linearGradient12298);fill-opacity:1" />
      <path
         d="m 1321.6,635.21 c 6.1556,11.717 10.277,24.429 13.272,37.287 l 0.5376,0.43555 c 4.2193,-13.454 2.3424,-29.678 -4.4495,-41.194 -3.8639,-0.86013 -6.4187,1.2588 -9.3597,3.4716 z"
         id="path6369"
         style="fill:url(#linearGradient12300);fill-opacity:1" />
      <path
         d="m 1144.8,669.27 c 5.4591,15.616 18.15,29.178 35.33,38.774 l 4.9807,-6.8425 c -3.4288,-12.76 -7.3938,-25.34 -11.218,-37.983 -10.306,-0.89577 -19.999,1.1738 -29.092,6.0512 z"
         id="path6377"
         style="fill:url(#linearGradient12302);fill-opacity:1" />
      <path
         d="m 1266.2,680.47 c -11.325,8.613 -20.492,19.325 -29.232,30.442 1.3935,4.2017 2.8914,8.3511 4.6081,12.428 23.02,-0.1217 44.189,-5.8489 60.931,-15.407 l -0.1862,-9.2165 c -10.609,-8.8257 -23.145,-14.035 -36.121,-18.247 z"
         id="path6379"
         style="fill:url(#linearGradient12304);fill-opacity:1" />
    </g>
  </g>
</svg>
