<?xml version="1.0" encoding="UTF-8" standalone="no"?>
<!-- Created with Inkscape (http://www.inkscape.org/) -->

<svg
   xmlns:svg="http://www.w3.org/2000/svg"
   xmlns="http://www.w3.org/2000/svg"
   version="1.1"
   width="220"
   height="40"
   viewBox="0 0 220 40"
   id="svg3115">
  <defs
     id="defs3117">
    <clipPath
       id="clipPath2891">
      <path
         d="m 60.6,154.6 493,0 0,549.6 -493,0 0,-549.6 z"
         id="path2893" />
    </clipPath>
  </defs>
  <g
     transform="translate(0,-0.67580678)"
     id="g4112">
    <g
       transform="matrix(1.25,0,0,-1.25,-245.89414,616.7407)"
       id="g3041">
      <text
         transform="matrix(1,0,0,-1,245.4,472.6)"
         id="text3043">
        <tspan
           x="0"
           y="0"
           id="tspan3045"
           style="font-size:12px;font-style:italic;font-variant:normal;writing-mode:lr-tb;fill:#1a1a1a;fill-opacity:1;fill-rule:nonzero;stroke:none;font-family:Liberation Serif;-inkscape-font-specification:LiberationSerif-Italic">f</tspan>
      </text>
    </g>
    <g
       transform="matrix(1.25,0,0,-1.25,-245.89414,616.7407)"
       id="g3047">
      <text
         transform="matrix(1,0,0,-1,252,472.6)"
         id="text3049">
        <tspan
           x="0"
           y="0"
           id="tspan3051"
           style="font-size:12px;font-style:italic;font-variant:normal;writing-mode:lr-tb;fill:#1a1a1a;fill-opacity:1;fill-rule:nonzero;stroke:none;font-family:Liberation Serif;-inkscape-font-specification:LiberationSerif-Italic">'</tspan>
      </text>
    </g>
    <g
       transform="matrix(1.25,0,0,-1.25,-245.89414,616.7407)"
       id="g3053">
      <text
         transform="matrix(1,0,0,-1,256.1,472.6)"
         id="text3055">
        <tspan
           x="0"
           y="0"
           id="tspan3057"
           style="font-size:12px;font-variant:normal;font-weight:normal;writing-mode:lr-tb;fill:#1a1a1a;fill-opacity:1;fill-rule:nonzero;stroke:none;font-family:OpenSymbol;-inkscape-font-specification:OpenSymbol">(</tspan>
      </text>
    </g>
    <g
       transform="matrix(1.25,0,0,-1.25,-245.89414,616.7407)"
       id="g3059">
      <text
         transform="matrix(1,0,0,-1,260.8,472.6)"
         id="text3061">
        <tspan
           x="0"
           y="0"
           id="tspan3063"
           style="font-size:12px;font-style:italic;font-variant:normal;writing-mode:lr-tb;fill:#1a1a1a;fill-opacity:1;fill-rule:nonzero;stroke:none;font-family:Liberation Serif;-inkscape-font-specification:LiberationSerif-Italic">r</tspan>
      </text>
    </g>
    <g
       transform="matrix(1.25,0,0,-1.25,-245.89414,616.7407)"
       id="g3065">
      <text
         transform="matrix(1,0,0,-1,266.6,472.6)"
         id="text3067">
        <tspan
           x="0"
           y="0"
           id="tspan3069"
           style="font-size:12px;font-variant:normal;font-weight:normal;writing-mode:lr-tb;fill:#1a1a1a;fill-opacity:1;fill-rule:nonzero;stroke:none;font-family:OpenSymbol;-inkscape-font-specification:OpenSymbol">)</tspan>
      </text>
    </g>
    <g
       transform="matrix(1.25,0,0,-1.25,-245.89414,616.7407)"
       id="g3071">
      <text
         transform="matrix(1,0,0,-1,270.6,472.6)"
         id="text3073">
        <tspan
           x="0"
           y="0"
           id="tspan3075"
           style="font-size:12px;font-variant:normal;font-weight:normal;writing-mode:lr-tb;fill:#1a1a1a;fill-opacity:1;fill-rule:nonzero;stroke:none;font-family:OpenSymbol;-inkscape-font-specification:OpenSymbol">=</tspan>
      </text>
    </g>
    <g
       transform="matrix(1.25,0,0,-1.25,-245.89414,616.7407)"
       id="g3077">
      <text
         transform="matrix(1,0,0,-1,279.8,472.6)"
         id="text3079">
        <tspan
           x="0"
           y="0"
           id="tspan3081"
           style="font-size:12px;font-variant:normal;font-weight:normal;writing-mode:lr-tb;fill:#1a1a1a;fill-opacity:1;fill-rule:nonzero;stroke:none;font-family:OpenSymbol;-inkscape-font-specification:OpenSymbol">−</tspan>
      </text>
    </g>
    <g
       transform="matrix(1.25,0,0,-1.25,-245.89414,616.7407)"
       id="g3083">
      <text
         transform="matrix(1,0,0,-1,289.2,472.6)"
         id="text3085">
        <tspan
           x="0"
           y="0"
           id="tspan3087"
           style="font-size:12px;font-variant:normal;font-weight:normal;writing-mode:lr-tb;fill:#1a1a1a;fill-opacity:1;fill-rule:nonzero;stroke:none;font-family:OpenSymbol;-inkscape-font-specification:OpenSymbol">ε</tspan>
      </text>
    </g>
    <g
       transform="matrix(1.25,0,0,-1.25,-245.89414,616.7407)"
       id="g3089">
      <text
         transform="matrix(1,0,0,-1,297.6,479.9)"
         id="text3091">
        <tspan
           x="0"
           y="0"
           id="tspan3093"
           style="font-size:12px;font-variant:normal;font-weight:normal;writing-mode:lr-tb;fill:#1a1a1a;fill-opacity:1;fill-rule:nonzero;stroke:none;font-family:OpenSymbol;-inkscape-font-specification:OpenSymbol">ρ</tspan>
      </text>
    </g>
    <path
       d="m 124.60587,22.115702 11.625,0 0,-0.75 -11.625,0 0,0.75 z"
       id="path3095"
       style="fill:#1a1a1a;fill-opacity:1;fill-rule:evenodd;stroke:none" />
    <g
       transform="matrix(1.25,0,0,-1.25,-245.89414,617.96974)"
       id="g3097">
      <text
         transform="matrix(1,0,0,-1,297.1,468.8)"
         id="text3099">
        <tspan
           x="0"
           y="0"
           id="tspan3101"
           style="font-size:12px;font-variant:normal;font-weight:normal;writing-mode:lr-tb;fill:#1a1a1a;fill-opacity:1;fill-rule:nonzero;stroke:none;font-family:OpenSymbol;-inkscape-font-specification:OpenSymbol">σ</tspan>
      </text>
    </g>
    <g
       transform="matrix(1.25,0,0,-1.25,-245.89414,616.7407)"
       id="g3103">
      <text
         transform="matrix(1,0,0,-1,309.4,472.6)"
         id="text3105">
        <tspan
           x="0 5.3039999 11.388"
           y="0"
           id="tspan3107"
           style="font-size:12px;font-variant:normal;font-weight:normal;writing-mode:lr-tb;fill:#1a1a1a;fill-opacity:1;fill-rule:nonzero;stroke:none;font-family:Liberation Serif;-inkscape-font-specification:LiberationSerif">exp</tspan>
      </text>
    </g>
    <g
       transform="matrix(1.25,0,0,-1.25,-245.89414,620.01814)"
       id="g3109">
      <text
         transform="matrix(0.46925,0,0,-1,327.9,472.5)"
         id="text3111">
        <tspan
           x="0"
           y="0"
           id="tspan3113"
           style="font-size:21.20000076px;font-variant:normal;font-weight:normal;writing-mode:lr-tb;fill:#1a1a1a;fill-opacity:1;fill-rule:nonzero;stroke:none;font-family:OpenSymbol;-inkscape-font-specification:OpenSymbol">(</tspan>
      </text>
    </g>
    <g
       transform="matrix(1.25,0,0,-1.25,-245.89414,616.7407)"
       id="g3115">
      <text
         transform="matrix(1,0,0,-1,331.7,472.6)"
         id="text3117">
        <tspan
           x="0"
           y="0"
           id="tspan3119"
           style="font-size:12px;font-variant:normal;font-weight:normal;writing-mode:lr-tb;fill:#1a1a1a;fill-opacity:1;fill-rule:nonzero;stroke:none;font-family:OpenSymbol;-inkscape-font-specification:OpenSymbol">ρ</tspan>
      </text>
    </g>
    <g
       transform="matrix(1.25,0,0,-1.25,-245.89414,616.7407)"
       id="g3121">
      <text
         transform="matrix(1,0,0,-1,340.9,479.5)"
         id="text3123">
        <tspan
           x="0"
           y="0"
           id="tspan3125"
           style="font-size:12px;font-variant:normal;font-weight:normal;writing-mode:lr-tb;fill:#1a1a1a;fill-opacity:1;fill-rule:nonzero;stroke:none;font-family:OpenSymbol;-inkscape-font-specification:OpenSymbol">σ</tspan>
      </text>
    </g>
    <g
       transform="matrix(1.25,0,0,-1.25,-245.89414,616.7407)"
       id="g3127">
      <text
         transform="matrix(1,0,0,-1,349.1,479.5)"
         id="text3129">
        <tspan
           x="0"
           y="0"
           id="tspan3131"
           style="font-size:12px;font-variant:normal;font-weight:normal;writing-mode:lr-tb;fill:#1a1a1a;fill-opacity:1;fill-rule:nonzero;stroke:none;font-family:OpenSymbol;-inkscape-font-specification:OpenSymbol">−</tspan>
      </text>
    </g>
    <g
       transform="matrix(1.25,0,0,-1.25,-245.89414,616.7407)"
       id="g3133">
      <text
         transform="matrix(1,0,0,-1,359.1,479.5)"
         id="text3135">
        <tspan
           x="0"
           y="0"
           id="tspan3137"
           style="font-size:12px;font-style:italic;font-variant:normal;writing-mode:lr-tb;fill:#1a1a1a;fill-opacity:1;fill-rule:nonzero;stroke:none;font-family:Liberation Serif;-inkscape-font-specification:LiberationSerif-Italic">r</tspan>
      </text>
    </g>
    <path
       d="m 179.23086,22.115702 31.125,0 0,-0.75 -31.125,0 0,0.75 z"
       id="path3139"
       style="fill:#1a1a1a;fill-opacity:1;fill-rule:evenodd;stroke:none" />
    <g
       transform="matrix(1.25,0,0,-1.25,-245.89414,617.96974)"
       id="g3141">
      <text
         transform="matrix(1,0,0,-1,348.7,468.8)"
         id="text3143">
        <tspan
           x="0"
           y="0"
           id="tspan3145"
           style="font-size:12px;font-variant:normal;font-weight:normal;writing-mode:lr-tb;fill:#1a1a1a;fill-opacity:1;fill-rule:nonzero;stroke:none;font-family:OpenSymbol;-inkscape-font-specification:OpenSymbol">σ</tspan>
      </text>
    </g>
    <g
       transform="matrix(1.25,0,0,-1.25,-245.89414,620.01814)"
       id="g3147">
      <text
         transform="matrix(0.46925,0,0,-1,366.2,472.5)"
         id="text3149">
        <tspan
           x="0"
           y="0"
           id="tspan3151"
           style="font-size:21.20000076px;font-variant:normal;font-weight:normal;writing-mode:lr-tb;fill:#1a1a1a;fill-opacity:1;fill-rule:nonzero;stroke:none;font-family:OpenSymbol;-inkscape-font-specification:OpenSymbol">)</tspan>
      </text>
    </g>
  </g>
</svg>
