<?xml version="1.0" encoding="UTF-8" standalone="no"?>
<!-- Created with Inkscape (http://www.inkscape.org/) -->

<svg
   xmlns:svg="http://www.w3.org/2000/svg"
   xmlns="http://www.w3.org/2000/svg"
   version="1.1"
   width="220"
   height="40"
   viewBox="0 0 220 40"
   id="svg3115">
  <defs
     id="defs3117">
    <clipPath
       id="clipPath2891">
      <path
         d="m 60.6,154.6 493,0 0,549.6 -493,0 0,-549.6 z"
         id="path2893" />
    </clipPath>
  </defs>
  <g
     id="g3859">
    <g
       transform="matrix(1.25,0,0,-1.25,-228.97793,666.52608)"
       id="g2955">
      <text
         transform="matrix(1,0,0,-1,257.6,511.7)"
         id="text2957">
        <tspan
           x="0"
           y="0"
           id="tspan2959"
           style="font-size:12px;font-style:italic;font-variant:normal;writing-mode:lr-tb;fill:#1a1a1a;fill-opacity:1;fill-rule:nonzero;stroke:none;font-family:Liberation Serif;-inkscape-font-specification:LiberationSerif-Italic">f</tspan>
      </text>
    </g>
    <g
       transform="matrix(1.25,0,0,-1.25,-228.97793,666.52608)"
       id="g2961">
      <text
         transform="matrix(1,0,0,-1,263.8,511.7)"
         id="text2963">
        <tspan
           x="0"
           y="0"
           id="tspan2965"
           style="font-size:12px;font-variant:normal;font-weight:normal;writing-mode:lr-tb;fill:#1a1a1a;fill-opacity:1;fill-rule:nonzero;stroke:none;font-family:OpenSymbol;-inkscape-font-specification:OpenSymbol">(</tspan>
      </text>
    </g>
    <g
       transform="matrix(1.25,0,0,-1.25,-228.97793,666.52608)"
       id="g2967">
      <text
         transform="matrix(1,0,0,-1,268.5,511.7)"
         id="text2969">
        <tspan
           x="0"
           y="0"
           id="tspan2971"
           style="font-size:12px;font-style:italic;font-variant:normal;writing-mode:lr-tb;fill:#1a1a1a;fill-opacity:1;fill-rule:nonzero;stroke:none;font-family:Liberation Serif;-inkscape-font-specification:LiberationSerif-Italic">r</tspan>
      </text>
    </g>
    <g
       transform="matrix(1.25,0,0,-1.25,-228.97793,666.52608)"
       id="g2973">
      <text
         transform="matrix(1,0,0,-1,274.3,511.7)"
         id="text2975">
        <tspan
           x="0"
           y="0"
           id="tspan2977"
           style="font-size:12px;font-variant:normal;font-weight:normal;writing-mode:lr-tb;fill:#1a1a1a;fill-opacity:1;fill-rule:nonzero;stroke:none;font-family:OpenSymbol;-inkscape-font-specification:OpenSymbol">)</tspan>
      </text>
    </g>
    <g
       transform="matrix(1.25,0,0,-1.25,-228.97793,666.52608)"
       id="g2979">
      <text
         transform="matrix(1,0,0,-1,278.3,511.7)"
         id="text2981">
        <tspan
           x="0"
           y="0"
           id="tspan2983"
           style="font-size:12px;font-variant:normal;font-weight:normal;writing-mode:lr-tb;fill:#1a1a1a;fill-opacity:1;fill-rule:nonzero;stroke:none;font-family:OpenSymbol;-inkscape-font-specification:OpenSymbol">=</tspan>
      </text>
    </g>
    <g
       transform="matrix(1.25,0,0,-1.25,-228.97793,666.52608)"
       id="g2985">
      <text
         transform="matrix(1,0,0,-1,288.1,511.7)"
         id="text2987">
        <tspan
           x="0"
           y="0"
           id="tspan2989"
           style="font-size:12px;font-variant:normal;font-weight:normal;writing-mode:lr-tb;fill:#1a1a1a;fill-opacity:1;fill-rule:nonzero;stroke:none;font-family:OpenSymbol;-inkscape-font-specification:OpenSymbol">ε</tspan>
      </text>
    </g>
    <g
       transform="matrix(1.25,0,0,-1.25,-228.97793,666.52608)"
       id="g2991">
      <text
         transform="matrix(1,0,0,-1,297.2,511.7)"
         id="text2993">
        <tspan
           x="0 5.3039999 11.388"
           y="0"
           id="tspan2995"
           style="font-size:12px;font-variant:normal;font-weight:normal;writing-mode:lr-tb;fill:#1a1a1a;fill-opacity:1;fill-rule:nonzero;stroke:none;font-family:Liberation Serif;-inkscape-font-specification:LiberationSerif">exp</tspan>
      </text>
    </g>
    <g
       transform="matrix(1.25,0,0,-1.25,-228.97793,669.80352)"
       id="g2997">
      <text
         transform="matrix(0.46925,0,0,-1,315.6,511.5)"
         id="text2999">
        <tspan
           x="0"
           y="0"
           id="tspan3001"
           style="font-size:21.20000076px;font-variant:normal;font-weight:normal;writing-mode:lr-tb;fill:#1a1a1a;fill-opacity:1;fill-rule:nonzero;stroke:none;font-family:OpenSymbol;-inkscape-font-specification:OpenSymbol">(</tspan>
      </text>
    </g>
    <g
       transform="matrix(1.25,0,0,-1.25,-228.97793,666.52608)"
       id="g3003">
      <text
         transform="matrix(1,0,0,-1,319.5,511.7)"
         id="text3005">
        <tspan
           x="0"
           y="0"
           id="tspan3007"
           style="font-size:12px;font-variant:normal;font-weight:normal;writing-mode:lr-tb;fill:#1a1a1a;fill-opacity:1;fill-rule:nonzero;stroke:none;font-family:OpenSymbol;-inkscape-font-specification:OpenSymbol">ρ</tspan>
      </text>
    </g>
    <g
       transform="matrix(1.25,0,0,-1.25,-228.97793,666.52608)"
       id="g3009">
      <text
         transform="matrix(1,0,0,-1,328.7,518.6)"
         id="text3011">
        <tspan
           x="0"
           y="0"
           id="tspan3013"
           style="font-size:12px;font-variant:normal;font-weight:normal;writing-mode:lr-tb;fill:#1a1a1a;fill-opacity:1;fill-rule:nonzero;stroke:none;font-family:OpenSymbol;-inkscape-font-specification:OpenSymbol">σ</tspan>
      </text>
    </g>
    <g
       transform="matrix(1.25,0,0,-1.25,-228.97793,666.52608)"
       id="g3015">
      <text
         transform="matrix(1,0,0,-1,336.9,518.6)"
         id="text3017">
        <tspan
           x="0"
           y="0"
           id="tspan3019"
           style="font-size:12px;font-variant:normal;font-weight:normal;writing-mode:lr-tb;fill:#1a1a1a;fill-opacity:1;fill-rule:nonzero;stroke:none;font-family:OpenSymbol;-inkscape-font-specification:OpenSymbol">−</tspan>
      </text>
    </g>
    <g
       transform="matrix(1.25,0,0,-1.25,-228.97793,666.52608)"
       id="g3021">
      <text
         transform="matrix(1,0,0,-1,346.8,518.6)"
         id="text3023">
        <tspan
           x="0"
           y="0"
           id="tspan3025"
           style="font-size:12px;font-style:italic;font-variant:normal;writing-mode:lr-tb;fill:#1a1a1a;fill-opacity:1;fill-rule:nonzero;stroke:none;font-family:Liberation Serif;-inkscape-font-specification:LiberationSerif-Italic">r</tspan>
      </text>
    </g>
    <path
       d="m 180.89707,23.02608 31.125,0 0,-0.75 -31.125,0 0,0.75 z"
       id="path3027"
       style="fill:#1a1a1a;fill-opacity:1;fill-rule:evenodd;stroke:none" />
    <g
       transform="matrix(1.25,0,0,-1.25,-228.97793,668.1648)"
       id="g3029">
      <text
         transform="matrix(1,0,0,-1,336.5,507.8)"
         id="text3031">
        <tspan
           x="0"
           y="0"
           id="tspan3033"
           style="font-size:12px;font-variant:normal;font-weight:normal;writing-mode:lr-tb;fill:#1a1a1a;fill-opacity:1;fill-rule:nonzero;stroke:none;font-family:OpenSymbol;-inkscape-font-specification:OpenSymbol">σ</tspan>
      </text>
    </g>
    <g
       transform="matrix(1.25,0,0,-1.25,-228.97793,669.80352)"
       id="g3035">
      <text
         transform="matrix(0.46925,0,0,-1,354,511.5)"
         id="text3037">
        <tspan
           x="0"
           y="0"
           id="tspan3039"
           style="font-size:21.20000076px;font-variant:normal;font-weight:normal;writing-mode:lr-tb;fill:#1a1a1a;fill-opacity:1;fill-rule:nonzero;stroke:none;font-family:OpenSymbol;-inkscape-font-specification:OpenSymbol">)</tspan>
      </text>
    </g>
  </g>
</svg>
