<?xml version="1.0" encoding="UTF-8" standalone="no"?>
<!-- Created with Inkscape (http://www.inkscape.org/) -->

<svg
   xmlns:dc="http://purl.org/dc/elements/1.1/"
   xmlns:cc="http://creativecommons.org/ns#"
   xmlns:rdf="http://www.w3.org/1999/02/22-rdf-syntax-ns#"
   xmlns:svg="http://www.w3.org/2000/svg"
   xmlns="http://www.w3.org/2000/svg"
   xmlns:inkscape="http://www.inkscape.org/namespaces/inkscape"
   version="1.1"
   width="48"
   height="48"
   viewBox="0 0 48 48"
   id="svg2">
  <metadata
     id="metadata37">
    <rdf:RDF>
      <cc:Work
         rdf:about="">
        <dc:format>image/svg+xml</dc:format>
        <dc:type
           rdf:resource="http://purl.org/dc/dcmitype/StillImage" />
      </cc:Work>
    </rdf:RDF>
  </metadata>
  <defs
     id="defs4">
    <marker
       refX="0"
       refY="0"
       orient="auto"
       id="Arrow2Mstart8"
       style="overflow:visible">
      <path
         d="M 8.7185878,4.0337352 -2.2072895,0.01601326 8.7185884,-4.0017078 c -1.7454984,2.3720609 -1.7354408,5.6174519 -6e-7,8.035443 z"
         inkscape:connector-curvature="0"
         transform="scale(0.6,0.6)"
         id="path4635"
         style="font-size:12px;fill:#d12323;fill-rule:evenodd;stroke:#d12323;stroke-width:0.625;stroke-linejoin:round" />
    </marker>
    <marker
       refX="0"
       refY="0"
       orient="auto"
       id="Arrow2Mstart8I"
       style="overflow:visible">
      <path
         d="M 8.7185878,4.0337352 -2.2072895,0.01601326 8.7185884,-4.0017078 c -1.7454984,2.3720609 -1.7354408,5.6174519 -6e-7,8.035443 z"
         inkscape:connector-curvature="0"
         transform="scale(0.6,0.6)"
         id="path4761"
         style="font-size:12px;fill:#ea5c5c;fill-rule:evenodd;stroke:#ea5c5c;stroke-width:0.625;stroke-linejoin:round" />
    </marker>
  </defs>
  <g
     transform="matrix(1.0000352,0,0,0.98827134,0.08145307,0.31591815)"
     id="g2854">
    <g
       transform="matrix(0.30121868,0,0,0.21090715,-18.35422,-2.261168)"
       id="g7236">
      <g
         id="g4121"
         style="fill:#ffffff;fill-opacity:1;stroke:#585858;stroke-width:3;stroke-miterlimit:4;stroke-opacity:0.8;stroke-dasharray:none">
        <path
           d="m 199.99999,220.00002 20,19.50888 -86.45833,-156.839479 -2.93439,0.413231 z"
           inkscape:connector-curvature="0"
           id="path4131"
           style="fill:#afafde;fill-rule:evenodd;stroke:none" />
        <path
           d="m 219.99999,33.829781 0,205.679119 -86.45833,-156.839479 0,-63.942706 z"
           inkscape:connector-curvature="0"
           id="path4129"
           style="fill:#d7d7ff;fill-rule:evenodd;stroke:none" />
        <path
           d="m 130.60727,22.028721 2.93439,-3.302006 0,63.942706 -2.93439,0.413231 z"
           inkscape:connector-curvature="0"
           id="path4133"
           style="fill:#e9e9ff;fill-rule:evenodd;stroke:none" />
        <path
           d="m 199.99999,41.489276 20,-7.659495 -86.45833,-15.103066 -2.93439,3.302006 z"
           inkscape:connector-curvature="0"
           id="path4125"
           style="fill:#4d4d9f;fill-rule:evenodd;stroke:none" />
        <path
           d="m 199.99999,41.489276 0,178.510744 -69.39272,-136.917368 0,-61.053931 z"
           inkscape:connector-curvature="0"
           id="path4123"
           style="fill:#353564;fill-rule:evenodd;stroke:none" />
        <path
           d="m 199.99999,41.489276 20,-7.659495 0,205.679119 -20,-19.50888 z"
           inkscape:connector-curvature="0"
           id="path4127"
           style="fill:#8686bf;fill-rule:evenodd;stroke:none" />
      </g>
      <path
         d="M 80,220 C 170,120 170,120 170,120"
         inkscape:connector-curvature="0"
         id="path4149"
         style="fill:none;stroke:#d12323;stroke-width:8;stroke-linecap:round;stroke-linejoin:miter;stroke-miterlimit:4;stroke-opacity:1;stroke-dasharray:none;marker-start:url(#Arrow2Mstart8)" />
      <path
         d="M 164,104 C 64.000003,14 64.000003,14 64.000003,14"
         inkscape:connector-curvature="0"
         id="path4149-6"
         style="fill:none;stroke:#ea5c5c;stroke-width:8;stroke-linecap:round;stroke-linejoin:miter;stroke-miterlimit:4;stroke-opacity:1;stroke-dasharray:none;marker-start:url(#Arrow2Mstart8I)" />
    </g>
  </g>
</svg>
