<?xml version="1.0" encoding="UTF-8" standalone="no"?>
<!-- Created with Inkscape (http://www.inkscape.org/) -->

<svg
   xmlns:dc="http://purl.org/dc/elements/1.1/"
   xmlns:cc="http://creativecommons.org/ns#"
   xmlns:rdf="http://www.w3.org/1999/02/22-rdf-syntax-ns#"
   xmlns:svg="http://www.w3.org/2000/svg"
   xmlns="http://www.w3.org/2000/svg"
   xmlns:inkscape="http://www.inkscape.org/namespaces/inkscape"
   version="1.1"
   width="48"
   height="48"
   viewBox="0 0 48 48"
   id="svg2">
  <metadata
     id="metadata16">
    <rdf:RDF>
      <cc:Work
         rdf:about="">
        <dc:format>image/svg+xml</dc:format>
        <dc:type
           rdf:resource="http://purl.org/dc/dcmitype/StillImage" />
      </cc:Work>
    </rdf:RDF>
  </metadata>
  <defs
     id="defs4">
    <filter
       color-interpolation-filters="sRGB"
       id="filter3640">
      <feGaussianBlur
         stdDeviation="5.6"
         id="feGaussianBlur3642" />
    </filter>
  </defs>
  <g
     transform="translate(0,-1004.3622)"
     id="layer1">
    <g
       transform="matrix(0.2784951,0,0,0.27862794,1.720392,757.43493)"
       id="g2824">
      <path
         d="M 150,80 A 70,70 0 1 1 10,80 70,70 0 1 1 150,80 z"
         inkscape:connector-curvature="0"
         transform="translate(0,892.36218)"
         id="path2834"
         style="fill:none;stroke:#000000;stroke-width:5.43400002;stroke-linecap:round;stroke-miterlimit:4;stroke-opacity:1;stroke-dasharray:none;stroke-dashoffset:0;filter:url(#filter3640)" />
      <path
         d="M 150,80 A 70,70 0 1 1 10,80 70,70 0 1 1 150,80 z"
         inkscape:connector-curvature="0"
         transform="matrix(1.0714286,0,0,1.0714285,-5.714288,886.6479)"
         id="path3644"
         style="fill:#ffffff;fill-opacity:1;stroke:none" />
      <path
         d="m 150,82.5 a 67.5,67.5 0 1 1 -135,0 67.5,67.5 0 1 1 135,0 z"
         inkscape:connector-curvature="0"
         transform="matrix(1.0518519,0,0,1.0518519,-6.7777817,885.5844)"
         id="path3646"
         style="fill:#ff0000;fill-opacity:1;stroke:none" />
      <path
         d="m 150,82.5 a 67.5,67.5 0 1 1 -135,0 67.5,67.5 0 1 1 135,0 z"
         inkscape:connector-curvature="0"
         transform="matrix(0.74074074,0,0,0.74074074,18.888889,911.25107)"
         id="path3646-1"
         style="fill:#ffffff;fill-opacity:1;stroke:none" />
      <text
         x="45.07605"
         y="1019.9057"
         transform="scale(1.0126461,0.98751183)"
         id="text3692"
         xml:space="preserve"
         style="font-size:96.69894409px;font-style:normal;font-variant:normal;font-weight:bold;font-stretch:normal;text-align:start;line-height:125%;writing-mode:lr-tb;text-anchor:start;fill:#000000;fill-opacity:1;stroke:none;font-family:Cursor;-inkscape-font-specification:Cursor Medium"><tspan
           x="45.07605"
           y="1019.9057"
           id="tspan3694">E</tspan></text>
    </g>
  </g>
</svg>
