<?xml version="1.0" encoding="UTF-8" standalone="no"?>
<!-- Created with Inkscape (http://www.inkscape.org/) -->

<svg
   xmlns:dc="http://purl.org/dc/elements/1.1/"
   xmlns:cc="http://creativecommons.org/ns#"
   xmlns:rdf="http://www.w3.org/1999/02/22-rdf-syntax-ns#"
   xmlns:svg="http://www.w3.org/2000/svg"
   xmlns="http://www.w3.org/2000/svg"
   xmlns:inkscape="http://www.inkscape.org/namespaces/inkscape"
   version="1.1"
   width="48"
   height="48"
   viewBox="0 0 48 48"
   id="svg2">
  <metadata
     id="metadata17">
    <rdf:RDF>
      <cc:Work
         rdf:about="">
        <dc:format>image/svg+xml</dc:format>
        <dc:type
           rdf:resource="http://purl.org/dc/dcmitype/StillImage" />
      </cc:Work>
    </rdf:RDF>
  </metadata>
  <defs
     id="defs2963" />
  <g
     transform="matrix(0.31968883,0,0,0.3404577,371.78777,-317.00209)"
     id="g5634"
     style="fill:#ff0000">
    <path
       d="m -1127.5,961.24 c 0.051,-7.3079 -3.0497,-13.769 -5.4699,-20.414 l 7.3429,4.2394 c 2.0433,-3.8894 3.254,-8.7172 4.765,-13.207 4.3682,7.5661 9.1403,5.2772 15.489,8.9425 -3.0201,3.5793 -6.5579,6.5765 -9.0827,10.714 l 7.3704,4.2553 c -7.2424,1.3309 -14.716,2.3985 -20.414,5.4701 z"
       inkscape:connector-curvature="0"
       id="rect5404-5-9-9-5"
       style="fill:#ff0000" />
    <path
       d="m -1132.5,970.98 c -0.051,7.3079 3.0497,13.769 5.47,20.414 l -7.3429,-4.2394 c -2.0434,3.8894 -3.2541,8.7172 -4.7651,13.207 -4.3682,-7.5661 -9.1402,-5.277 -15.489,-8.9424 3.0201,-3.5793 6.558,-6.5764 9.0827,-10.714 l -7.3704,-4.2553 c 7.2425,-1.3308 14.716,-2.3985 20.414,-5.4701 z"
       inkscape:connector-curvature="0"
       id="rect5404-5-9-4-2-4"
       style="fill:#ff0000" />
  </g>
  <g
     transform="matrix(0.30714578,0,0,0.34237818,7.7023376,-322.73457)"
     id="g3915-8-3-0">
    <path
       d="m 89.471,1065.9 c 3.7268,6.1263 -0.48379,10.049 -6.16,12.947 -8.0302,4.0988 -27.898,2.1019 -34.7,-2.0136 -6.2427,-3.777 -9.0128,-9.3495 -6.0403,-14.184"
       inkscape:connector-curvature="0"
       id="path3894-3-6-1"
       style="fill:#ffffff;stroke:#000000;stroke-width:4.06139994;stroke-linecap:round;stroke-linejoin:round" />
    <path
       d="m -3.2128,1024.9 c -5.6068,10.647 16.858,15.223 23.302,16.037 7.7428,0.9779 19.2,22.194 32.629,26.175 9.1014,2.6983 29.326,3.8464 36.494,-1.431 12.273,-9.0365 18.48,-20.686 21.285,-35.088 0.99446,-5.1051 1.707,-10.986 0.95737,-15.702 -3.1898,-20.064 -14.951,-20.048 -19.514,-20.76 -2.7272,-8.7246 -12.699,-15.044 -26.068,-12.391 -0.1029,-10.746 0.22553,-17.365 1.1122,-27.536 1.4832,-17.013 -28.072,-12.04 -27.471,15.265 0.30164,13.708 6.2504,36.765 -1.6112,54.848 -15.641,-13.196 -30.953,-18.718 -41.116,0.5825 z"
       inkscape:connector-curvature="0"
       id="path3112-8-6-0"
       style="fill:#ffffff;stroke:#000000;stroke-width:4.06139994;stroke-linecap:round;stroke-linejoin:round" />
    <path
       d="m 63.838,981.04 c 0.0308,10.253 1.2148,18.225 7.2258,26.105 -2.5091,-6.5752 -3.3692,-19.666 -3.1766,-27.939 z"
       inkscape:connector-curvature="0"
       id="path3882-8-1-4"
       style="text-indent:0;text-transform:none;block-progression:tb;color:#000000" />
    <path
       d="m 93.471,992.23 -3.8091,1.4862 c 1.929,5.5768 4.0509,11.842 7.1137,15.183 -1.0804,-2.6051 -2.0771,-11.978 -3.3046,-16.669 z"
       inkscape:connector-curvature="0"
       id="path3884-7-6-0"
       style="text-indent:0;text-transform:none;block-progression:tb;color:#000000" />
    <path
       d="m 83.386,1059 c 4.9385,-9.2507 5.1427,-12.031 6.8258,-16.832"
       inkscape:connector-curvature="0"
       id="path3886-1-1-6"
       style="fill:none;stroke:#000000;stroke-width:4.06139994;stroke-linecap:round;stroke-linejoin:round" />
    <path
       d="m 73.981,1058.8 c 2.7752,-11.262 3.048,-16.939 4.2136,-24.609"
       inkscape:connector-curvature="0"
       id="path3888-9-0-7"
       style="fill:none;stroke:#000000;stroke-width:4.06139994;stroke-linecap:round;stroke-linejoin:round" />
    <path
       d="m 62.763,1058.3 c 0.85519,-7.9352 0.52098,-11.757 0.55552,-16.855"
       inkscape:connector-curvature="0"
       id="path3890-3-1-2"
       style="fill:none;stroke:#000000;stroke-width:4.06139994;stroke-linecap:round;stroke-linejoin:round" />
  </g>
</svg>
