<?xml version="1.0" encoding="UTF-8" standalone="no"?>
<!-- Created with Inkscape (http://www.inkscape.org/) -->

<svg
   xmlns:svg="http://www.w3.org/2000/svg"
   xmlns="http://www.w3.org/2000/svg"
   xmlns:xlink="http://www.w3.org/1999/xlink"
   version="1.0"
   width="48"
   height="48"
   viewBox="0 0 48 48"
   id="svg2812">
  <defs
     id="defs2814">
    <filter
       x="-0.74333668"
       y="-0.74333668"
       width="2.4866734"
       height="2.4866734"
       color-interpolation-filters="sRGB"
       id="filter3943">
      <feGaussianBlur
         id="feGaussianBlur3945"
         stdDeviation="33.62542" />
    </filter>
    <linearGradient
       id="linearGradient3947">
      <stop
         id="stop3949"
         style="stop-color:#e1e5ee;stop-opacity:1"
         offset="0" />
      <stop
         id="stop3951"
         style="stop-color:#14e5e5;stop-opacity:0"
         offset="1" />
    </linearGradient>
    <linearGradient
       id="linearGradient4094">
      <stop
         id="stop4096"
         style="stop-color:#ffffff;stop-opacity:1"
         offset="0" />
      <stop
         id="stop4098"
         style="stop-color:#ffffff;stop-opacity:0"
         offset="1" />
    </linearGradient>
    <linearGradient
       id="linearGradient3473">
      <stop
         id="stop3475"
         style="stop-color:#d5cece;stop-opacity:1"
         offset="0" />
      <stop
         id="stop3481"
         style="stop-color:#94b2fd;stop-opacity:1"
         offset="0.33733538" />
      <stop
         id="stop3483"
         style="stop-color:#444470;stop-opacity:1"
         offset="0.86746705" />
      <stop
         id="stop3477"
         style="stop-color:#344671;stop-opacity:1"
         offset="1" />
    </linearGradient>
    <linearGradient
       id="linearGradient3463">
      <stop
         id="stop3465"
         style="stop-color:#94b2fd;stop-opacity:1"
         offset="0" />
      <stop
         id="stop3471"
         style="stop-color:#345ec5;stop-opacity:1"
         offset="0.24937803" />
      <stop
         id="stop3467"
         style="stop-color:#050560;stop-opacity:1"
         offset="0.83126009" />
      <stop
         id="stop3469"
         style="stop-color:#0b2e83;stop-opacity:1"
         offset="1" />
    </linearGradient>
    <linearGradient
       x1="2417.0195"
       y1="907.40247"
       x2="2417.0195"
       y2="757.06"
       id="linearGradient2923"
       xlink:href="#linearGradient3947"
       gradientUnits="userSpaceOnUse" />
    <linearGradient
       x1="2643.0312"
       y1="48.46875"
       x2="2643.0312"
       y2="486.83426"
       id="linearGradient2848"
       xlink:href="#linearGradient4094"
       gradientUnits="userSpaceOnUse"
       gradientTransform="matrix(0.07508548,0,0,0.07503842,-174.59781,-3.2073752)" />
    <radialGradient
       cx="2540.5825"
       cy="236.37978"
       r="290.58035"
       fx="2540.5825"
       fy="236.37978"
       id="radialGradient2851"
       xlink:href="#linearGradient3473"
       gradientUnits="userSpaceOnUse"
       gradientTransform="matrix(0.06665897,0.11538436,-0.12430888,0.07172478,-126.58417,-298.37791)" />
    <radialGradient
       cx="-15.766444"
       cy="-286.37698"
       r="300"
       fx="-15.766444"
       fy="-286.37698"
       id="radialGradient2855"
       xlink:href="#linearGradient3463"
       gradientUnits="userSpaceOnUse"
       gradientTransform="matrix(0.06921753,0.11981314,-0.11996347,0.06921753,-19.667635,32.097913)" />
    <linearGradient
       x1="2417.0195"
       y1="907.40247"
       x2="2417.0195"
       y2="757.06"
       id="linearGradient2857"
       xlink:href="#linearGradient3947"
       gradientUnits="userSpaceOnUse" />
  </defs>
  <path
     d="m 48,23.999999 a 24,24 0 0 1 -48.0000002,0 24,24 0 1 1 48.0000002,0 z"
     id="path2649"
     style="fill:url(#radialGradient2855);fill-opacity:1;stroke:none" />
  <path
     d="m 24.108215,1.0855552 c -0.457849,0 -0.933087,-0.18878162 -1.386821,-0.16205294 l -0.184786,0.0141072 c 0,7.51e-6 -0.695884,-0.0578996 -0.932223,-0.0185345 0.05763,0.0562338 0.0022,0.0281994 0.0031,0.0805237 0.0053,0.0655386 -0.06154,0.0327093 0.02019,0.0288673 0.245199,-0.011488 0.315524,-0.0337073 0.256364,0.1203841 -0.03101,0.080756 -0.161629,0.1082505 -0.498598,0.1079353 -0.492921,-4.802e-4 -1.079909,0.1359696 -1.079909,0.2502907 8e-6,0.03884 0.09926,0.071189 0.220571,0.071189 0.208317,-7.5e-6 0.220586,0.016306 0.220586,0.2939105 8e-6,0.2483246 0.02292,0.293918 0.151643,0.293918 0.08379,-7.5e-6 0.290573,-0.080779 0.459531,-0.1791092 0.168964,-0.098353 0.498139,-0.2511161 0.730679,-0.3375454 0.232525,-0.086429 0.422754,-0.1838516 0.422754,-0.2181291 7e-6,-0.1006191 0.405769,-0.1618204 0.70539,-0.1056391 l 0.275729,0.052804 -0.234364,0.208982 C 23.128844,1.7028134 22.973417,1.79869 22.913393,1.79869 c -0.06001,-7.5e-6 -0.107988,0.049615 -0.107988,0.1102239 8e-6,0.060623 0.06301,0.1102314 0.14246,0.1102314 0.181557,-7.5e-6 0.345896,0.274303 0.232059,0.3880538 -0.04343,0.043395 -0.269909,0.1021123 -0.503185,0.130882 -0.47421,0.058507 -0.680162,0.1368626 -1.033957,0.3949722 -0.133187,0.097137 -0.480607,0.232274 -0.772029,0.2985029 -0.555302,0.1261771 -1.356817,0.3613175 -1.668122,0.4890929 -0.179927,0.07386 -0.180573,0.075609 -0.03675,0.1814129 0.10542,0.077545 0.249809,0.096484 0.514673,0.0643 0.672083,-0.081739 1.171739,-0.1998723 1.447543,-0.3398565 0.357512,-0.1814654 0.645946,-0.1859077 0.599701,-0.00918 -0.02398,0.091652 0.03045,0.1525231 0.186107,0.2112556 0.171855,0.064826 0.231015,0.1422054 0.271126,0.3559148 0.04043,0.2153227 0.100021,0.2947959 0.284912,0.3719954 0.241692,0.1009042 0.629569,0.5801971 0.629569,0.7784261 7e-6,0.08255 -0.05787,0.1019472 -0.220579,0.07807 -0.238531,-0.03499 -0.27651,0.041309 -0.14246,0.2916221 0.0706,0.1318125 0.06207,0.1440512 -0.07351,0.1010467 -0.08434,-0.026766 -0.214677,-0.029077 -0.291812,-0.0046 -0.319557,0.1013619 -0.220376,0.2512661 0.551435,0.824342 0.532168,0.3951223 0.732744,0.5813302 0.641057,0.5970282 -0.239477,0.040993 -0.710181,0.2413911 -0.925954,0.3949572 -0.189441,0.134799 -0.205862,0.1790717 -0.163153,0.4316961 0.04564,0.2699207 0.03621,0.2870294 -0.225159,0.4133266 -0.230565,0.1113945 -0.303345,0.2088319 -0.468729,0.6291746 -0.107747,0.2738077 -0.279798,0.5827034 -0.381419,0.6842679 -0.174266,0.1741641 -0.196416,0.1788616 -0.395205,0.075774 -0.115947,-0.060106 -0.237901,-0.093993 -0.271133,-0.07347 -0.09688,0.059843 -0.07084,0.3853972 0.05056,0.6199902 0.104249,0.20147 0.100442,0.237031 -0.05516,0.528143 -0.109805,0.205447 -0.165428,0.440565 -0.165428,0.681979 7e-6,0.360785 -0.0043,0.367748 -0.238952,0.39035 -0.253879,0.02449 -0.311687,0.155142 -0.133277,0.303102 0.16479,0.136675 0.05197,0.297468 -0.206785,0.29623 -0.260111,-0.0012 -1.262262,-0.684351 -1.185607,-0.808277 0.02434,-0.03935 0.288298,-0.07118 0.585907,-0.07118 0.535074,0 0.542567,-0.0033 0.693902,-0.247995 0.08419,-0.136119 0.15394,-0.364649 0.15394,-0.50747 8e-6,-0.225227 -0.03124,-0.26989 -0.232066,-0.339856 -0.12733,-0.04437 -0.367236,-0.08282 -0.533055,-0.08495 -0.283568,-0.0037 -0.808715,-0.08664 -1.851938,-0.289333 -0.609401,-0.118418 -0.91771,-0.02285 -1.484305,0.456954 -0.510326,0.432146 -0.780589,0.789982 -0.854735,1.127459 -0.04281,0.194853 -0.07819,0.220441 -0.250448,0.195175 -0.143721,-0.02108 -0.24854,0.02427 -0.376824,0.16074 -0.0979,0.104146 -0.143684,0.19059 -0.101103,0.19059 0.04259,0 0.118568,0.09721 0.167749,0.215841 0.07406,0.178704 0.06916,0.251183 -0.02758,0.422511 -0.06422,0.113743 -0.180633,0.355442 -0.257348,0.537328 -0.07668,0.181855 -0.490496,0.810092 -0.919069,1.39612 -0.968858,1.324765 -1.093117,1.57228 -1.132754,2.254904 -0.02614,0.450081 -0.0058,0.568791 0.130964,0.7899 0.08853,0.14312 0.209458,0.261771 0.268813,0.261771 0.191806,0 0.500317,-0.200698 0.675529,-0.438584 0.130326,-0.176889 0.217568,-0.226279 0.367634,-0.208945 0.157454,0.0182 0.200598,0.06535 0.220571,0.241106 0.01374,0.120804 0.121255,0.352125 0.238959,0.512055 0.263393,0.357918 0.26964,0.515514 0.02527,0.874873 -0.109617,0.161242 -0.175084,0.339368 -0.153933,0.420215 0.02024,0.07737 0.0077,0.142378 -0.02759,0.142378 -0.132,0 -0.215968,-0.299846 -0.215968,-0.769257 7e-6,-0.619742 -0.129846,-0.702097 -0.4894,-0.309998 -0.218311,0.238074 -0.245867,0.313713 -0.245867,0.681994 7e-6,0.228289 0.0389,0.548058 0.08732,0.709533 0.08533,0.284613 0.07967,0.300679 -0.149345,0.505181 -0.129928,0.116017 -0.29863,0.211263 -0.376832,0.211263 -0.16663,0 -0.439768,0.341793 -0.645645,0.808269 -0.171773,0.389187 -0.415846,0.629663 -0.709978,0.702637 l -0.211396,0.05283 0.05286,-0.484516 c 0.05073,-0.473387 0.04718,-0.483637 -0.156245,-0.613109 -0.274715,-0.174817 -0.29595,-0.207886 -0.457241,-0.737087 -0.07612,-0.24975 -0.241685,-0.609184 -0.369923,-0.799099 l -0.23438,-0.346715 0.147055,-0.153851 c 0.299021,-0.319056 0.371178,-0.780723 0.121774,-0.780723 -0.138097,0 -0.139096,-0.0071 -0.0069,-0.261794 0.166855,-0.321412 0.05523,-0.356124 -0.252746,-0.07805 -0.3997923,0.360957 -0.5899613,0.45381 -0.6709184,0.328353 -0.053116,-0.0823 -0.077954,-0.07974 -0.137857,0.01149 -0.094863,0.144419 -0.092866,0.269043 0.00918,0.55109 0.098422,0.271992 0.033421,0.717472 -0.1286665,0.879465 -0.061953,0.06192 -0.1917008,0.112513 -0.2872095,0.112513 -0.2274039,0 -0.6962001,0.563336 -0.6962001,0.83583 7.5e-6,0.108273 -0.049624,0.316467 -0.110278,0.461547 -0.060669,0.145087 -0.1103081,0.37556 -0.1103081,0.512069 7.5e-6,0.299074 0.080785,0.310682 0.5951125,0.08955 0.4154104,-0.178591 0.6548355,-0.534348 0.6548355,-0.975912 7.5e-6,-0.279248 0.1298979,-0.62916 0.2343643,-0.62916 0.035958,0 0.1633109,0.04856 0.2826067,0.110209 0.3014382,0.155803 0.3070471,0.484696 0.00919,0.597036 -0.1789137,0.0675 -0.2279971,0.148794 -0.3331543,0.567155 -0.072938,0.290189 -0.1046316,0.601246 -0.078126,0.766961 0.033038,0.206378 0.015558,0.304596 -0.071219,0.37658 -0.1562003,0.129561 -0.14933,0.247469 0.011488,0.197479 0.2811125,-0.08737 1.7466759,-0.261937 1.8703119,-0.222744 0.118477,0.03759 0.119964,0.06137 0.02757,0.238816 -0.05649,0.108522 -0.183786,0.273014 -0.284912,0.367399 -0.147437,0.137628 -0.212844,0.158341 -0.328559,0.09645 -0.171547,-0.09175 -0.236669,-0.04379 -0.236669,0.176807 7e-6,0.191871 -0.2911291,0.334781 -0.6249741,0.307696 -0.1951772,-0.01583 -0.2237698,0.0079 -0.2458524,0.20207 -0.019928,0.175455 0.025199,0.263845 0.2297766,0.44088 0.2161786,0.187071 0.291677,0.343966 0.4848049,1.003462 0.27265,0.931042 0.276171,0.995506 0.06204,1.262927 l -0.1654437,0.20667 -0.475614,-0.107927 C 9.2361166,26.843257 9.0128124,26.764979 9.0009339,26.731325 8.9180771,26.496629 8.8465281,26.46341 8.6264075,26.554518 8.3821169,26.655647 8.2048401,26.59715 7.8957507,26.315708 L 7.7280248,26.164156 7.5649016,26.327184 c -0.2057192,0.205583 -0.2047281,0.602559 0.00228,1.008056 0.1321129,0.258797 0.1392986,0.315112 0.050548,0.475326 -0.055406,0.100021 -0.1019586,0.257225 -0.1034002,0.346729 -0.00142,0.08951 -0.068455,0.197845 -0.149345,0.241112 -0.1039183,0.05558 -0.1470474,0.154027 -0.1470474,0.335244 7.5e-6,0.224436 0.026227,0.261044 0.2136782,0.298518 0.1967766,0.03933 0.2210967,0.08018 0.3078956,0.516653 0.099458,0.500022 0.2085949,0.629927 0.6915973,0.822055 0.1532645,0.06096 0.2598558,0.183031 0.3492526,0.399545 0.1589259,0.384904 0.1566659,0.536301 -0.00691,0.842727 C 8.654643,31.835764 8.634002,31.845257 8.500042,31.744031 8.1831437,31.50459 7.953735,31.634495 7.5579895,32.272168 c -0.2175301,0.350521 -0.2440578,0.547403 -0.087317,0.677388 0.1284562,0.106531 0.2610122,0.04318 0.2642333,-0.12859 0.00423,-0.224605 0.2182885,0.135689 0.2182885,0.3674 7.5e-6,0.157027 -0.072916,0.256371 -0.3055979,0.424809 -0.1678235,0.121492 -0.3491324,0.222739 -0.4020977,0.222739 -0.05295,-7e-6 -0.1365655,0.140523 -0.1861144,0.31229 -0.049519,0.171752 -0.1329163,0.37723 -0.1860994,0.456949 -0.053191,0.07972 -0.096507,0.249875 -0.096507,0.378884 7.5e-6,0.128994 -0.1014931,0.500625 -0.2251739,0.824349 l -0.2251813,0.587838 0.1631382,0.316882 c 0.4258172,0.830939 0.7793197,1.751105 0.7444575,1.933438 -0.026768,0.139929 0.027414,0.268826 0.1952973,0.47762 0.1497805,0.186257 0.2296415,0.372028 0.2320592,0.530429 0.00333,0.216052 0.062681,0.285689 0.5330544,0.622284 0.2911589,0.208323 0.9306469,0.720919 1.4199865,1.141231 1.1441222,0.982742 1.5320662,1.265096 2.0610212,1.497151 0.23691,0.103938 0.647027,0.283618 0.909886,0.399555 0.262867,0.11593 0.932982,0.329403 1.49119,0.47302 0.889343,0.228808 1.125914,0.260772 1.911684,0.261779 0.906882,0.0012 1.081156,0.03135 2.368909,0.404139 0.363955,0.105354 0.938171,0.238875 1.277512,0.296212 0.339341,0.05734 0.623044,0.112872 0.629569,0.123997 0.0065,0.01113 0.06693,0.110719 0.13556,0.220439 0.06865,0.109721 0.126376,0.311585 0.126376,0.450064 8e-6,0.222623 0.03193,0.264322 0.275721,0.360516 0.151666,0.05983 0.523872,0.167253 0.82718,0.238807 0.303292,0.07153 0.716871,0.190431 0.919061,0.264065 0.202205,0.07364 0.466889,0.156616 0.588205,0.183701 0.191295,0.0427 0.363961,0.148774 0.438859,0.259479 3.01e-4,4.5e-4 -3e-4,0.0018 0,0.0023 0.29176,0.106715 0.605107,0.05754 1.005635,0.200205 4.729657,-0.150362 8.165456,-1.73157 12.120351,-3.896786 -0.261365,0.05034 -0.325323,0.05122 -0.536966,0.03177 -0.168612,-0.04368 -0.383605,-0.32992 -0.382538,-0.723507 7.5e-4,-0.270929 0.206124,-0.424602 0.904111,-1.428072 0.435744,-0.626423 0.982516,-1.386932 1.215477,-1.690036 0.630657,-0.820571 1.19512,-1.995719 1.259138,-2.622319 0.02817,-0.275785 0.0985,-0.664089 0.156238,-0.863387 0.152731,-0.527184 0.124281,-1.290483 -0.04826,-1.290483 -0.03454,-8e-6 -0.612006,0.557212 -1.282099,1.239971 -0.670108,0.682761 -1.275072,1.25691 -1.344143,1.274413 -0.206327,0.05227 -0.593851,-0.084 -0.675529,-0.236509 -0.06356,-0.118714 -0.03787,-0.169672 0.15394,-0.309997 0.23022,-0.168408 1.83599,-2.126293 2.559627,-3.120601 0.211425,-0.290482 0.401069,-0.630067 0.420478,-0.753168 0.03591,-0.227634 0.252888,-0.725459 0.944343,-2.172241 l 0.386022,-0.808278 0.04135,-1.028718 c 0.02328,-0.565794 0.02636,-1.116717 0.0046,-1.223902 -0.05694,-0.280554 -0.335729,-0.309792 -0.859338,-0.08955 -0.477161,0.200717 -0.64114,0.182494 -0.944358,-0.101034 -0.438626,-0.410172 -0.443807,-0.900878 -0.0069,-0.64295 l 0.213678,0.123991 0.510086,-0.376584 c 0.554258,-0.410995 0.93594,-0.831425 1.555538,-1.712992 0.601938,-0.85646 0.75078,-0.919968 1.491198,-0.633764 0.747716,0.289019 0.849434,0.29289 1.148822,0.05511 0.147288,-0.116949 0.296678,-0.211254 0.333185,-0.211254 0.145102,0 0.539414,0.353644 0.861621,0.773832 0.326952,0.426366 1.480438,1.577523 1.580819,1.577523 0.06548,0 0.192407,-0.341151 0.252738,-0.677396 0.275594,-0.664147 0.399417,-1.350236 0.232502,-1.635301 C 46.586578,10.871376 37.081056,1.2339887 24.108215,1.0855552 z M 11.347933,4.5686587 C 8.450227,6.630272 6.5580503,8.4389681 4.5223328,11.132307 c 0.020926,0.161333 -0.1892605,0.363291 0.096064,0.209507 0.089705,-0.04592 0.1783505,-0.04192 0.3930049,-0.294488 C 5.2260489,10.794724 5.9831959,10.150137 6.6044457,9.5370428 7.390891,8.760973 7.7783846,8.3238216 7.8796599,8.094992 7.9596785,7.9142394 8.0731777,7.7471439 8.130115,7.7253077 8.1870674,7.703464 8.4961042,7.4859877 8.8171247,7.2407921 9.3510049,6.8330258 9.6442888,6.6972813 9.6442888,6.8573308 9.6442963,6.8914658 9.5746696,6.980844 9.4903336,7.0570906 9.4060201,7.1333521 9.2165494,7.3617766 9.0698699,7.5645754 8.9231904,7.7673517 8.4037716,8.3971792 7.9164218,8.9629839 7.429102,9.5287736 6.8989159,10.157183 6.7377224,10.359096 c -0.1612085,0.201906 -0.383882,0.466432 -0.4963,0.587851 -0.5500162,0.593967 -1.7127073,2.565219 -1.8864101,3.200952 -0.1037531,0.379807 -0.084584,0.741754 0.041357,0.783018 0.046335,0.01519 0.2438626,-0.176746 0.4388671,-0.4248 0.1950195,-0.24807 0.6047385,-0.636926 0.9098859,-0.865681 0.5684046,-0.426135 0.6549706,-0.471669 2.1712994,-1.118282 0.9815474,-0.418542 1.1493484,-0.542633 1.3993005,-1.033302 0.09484,-0.186193 0.4601388,-0.64912 0.8110808,-1.028717 0.350965,-0.379611 0.857859,-0.9677401 1.125869,-1.3088722 0.267995,-0.3411247 0.793158,-0.9486507 1.167227,-1.3478851 0.374061,-0.3992344 0.680109,-0.7728883 0.680109,-0.8312381 7e-6,-0.058357 -0.03994,-0.1675983 -0.0873,-0.2434022 -0.0705,-0.1128277 -0.04986,-0.2144823 0.117163,-0.555697 0.112261,-0.2292724 0.193586,-0.4288295 0.179237,-0.4431769 -0.03148,-0.031456 -0.63505,0.079323 -0.815684,0.1492589 -0.10548,0.040836 -0.128681,0.0088 -0.128681,-0.1768055 7e-6,-0.1772711 0.0479,-0.2506061 0.220586,-0.3398418 C 12.706645,5.2997581 12.8059,5.2152647 12.8059,5.1764774 12.805908,5.1376824 12.599115,5.0022757 12.346369,4.8756709 12.093637,4.749051 11.871272,4.6336494 11.854663,4.6184917 L 11.544477,4.5059716 c -0.222531,-0.1097662 -0.05988,0.116197 -0.196544,0.062687 z m 6.891984,0.3942593 c -0.379692,0.016696 -0.581304,0.2048024 -0.581304,0.5510972 1.5e-5,0.1613329 -0.05155,0.2684127 -0.165436,0.3444492 -0.163589,0.1092109 -0.164715,0.1113495 -0.02527,0.2663638 0.14924,0.16588 0.253556,0.1592015 0.668636,-0.045923 0.372905,-0.1843018 0.772007,-0.6153078 0.772007,-0.8335496 7e-6,-0.1611149 -0.04121,-0.2034141 -0.229762,-0.2411134 -0.164918,-0.032964 -0.312296,-0.046876 -0.438867,-0.041324 z m 2.065639,0.4431844 c -0.129117,3.978e-4 -0.175002,0.054193 -0.284912,0.2319216 -0.08696,0.140607 -0.156245,0.368206 -0.156245,0.5051661 7e-6,0.3733612 0.616444,1.8351697 0.822561,1.9495057 0.259826,0.1441263 0.708191,0.1182605 0.992615,-0.057397 0.28323,-0.1749446 0.262454,-0.2228341 -0.16084,-0.3467375 -0.161757,-0.047349 -0.376832,-0.1512173 -0.477927,-0.22961 -0.177892,-0.1379731 -0.183817,-0.1703672 -0.183817,-1.0218282 8e-6,-0.4839152 -0.02356,-0.9007314 -0.05055,-0.9276927 -0.02698,-0.026984 -0.178764,-0.068233 -0.337757,-0.089551 -0.06698,-0.009 -0.1201,-0.01392 -0.163131,-0.013777 z m -4.298974,0.5281283 c -0.06765,3.751e-4 -0.153265,0.042389 -0.245853,0.1286008 -0.207558,0.1932239 -0.142211,0.304716 0.158543,0.2755336 0.192129,-0.018632 0.23206,-0.053097 0.23206,-0.2043447 7e-6,-0.1329605 -0.05777,-0.2002625 -0.14475,-0.1997897 z m -0.441165,0.9047307 c -0.01474,-5.253e-4 -0.02993,3.001e-4 -0.04594,0.0023 -0.106659,0.013019 -0.251536,0.084283 -0.539954,0.2433871 -0.448674,0.2475217 -0.544685,0.3362321 -0.613486,0.5602743 -0.07596,0.2473942 -0.06123,0.290894 0.188412,0.6613361 0.147423,0.218752 0.305763,0.3995571 0.353848,0.3995571 0.04808,-7.5e-6 0.154375,-0.1125426 0.234356,-0.248002 0.08714,-0.1475705 0.281278,-0.3102763 0.484812,-0.4087342 0.361672,-0.1749746 0.370832,-0.2006528 0.29411,-0.7600492 -0.03554,-0.2591152 -0.08629,-0.3513449 -0.227471,-0.4156303 -0.04431,-0.020185 -0.08441,-0.032807 -0.128682,-0.034435 z M 7.8383103,13.305187 c -0.057628,-0.0041 -0.1043688,0.09889 -0.2090905,0.305399 -0.1527914,0.301347 -0.1907021,0.484891 -0.1907021,0.890946 7.5e-6,0.465021 0.016864,0.525134 0.1930072,0.663602 0.1065538,0.08377 0.2356633,0.153852 0.2871945,0.153852 0.051561,0 0.3024143,-0.140532 0.5583581,-0.312288 0.2559289,-0.171755 0.5078857,-0.394957 0.5583357,-0.495989 0.098827,-0.197981 0.1298978,-0.956679 0.039052,-0.955231 -0.030319,4.5e-4 -0.2371199,0.05015 -0.4595306,0.110216 C 8.2404532,13.766801 8.2030757,13.766238 8.1209247,13.647314 7.9653776,13.422109 7.895946,13.309326 7.8383104,13.305184 z m 21.4787577,5.848517 c 0.09656,-0.0021 1.132844,0.611488 1.477411,0.877177 0.325466,0.250936 0.419908,0.289453 0.608891,0.247994 0.206846,-0.04541 0.272793,-0.0023 0.831767,0.553394 0.333312,0.331377 0.743917,0.715618 0.912184,0.854207 0.395918,0.326079 0.86331,1.003901 0.813378,1.177968 -0.0209,0.07285 -0.06049,0.191043 -0.08961,0.261783 -0.04152,0.100814 -0.0171,0.12859 0.117186,0.12859 l 0.172322,0 -0.165429,0.114804 c -0.101177,0.07084 -0.396594,0.129472 -0.769731,0.153853 -0.333147,0.02177 -0.677842,0.08593 -0.767426,0.142366 -0.213048,0.134242 -0.196551,0.141134 -0.418174,-0.149259 -0.174536,-0.228684 -0.190717,-0.313545 -0.190717,-0.909316 8e-6,-0.722793 -0.0149,-0.748576 -0.477911,-0.897835 -0.706044,-0.227584 -1.430882,-0.668502 -1.838153,-1.11826 -0.362212,-0.400022 -0.40438,-0.483082 -0.40438,-0.771537 7e-6,-0.261457 0.07202,-0.526785 0.181519,-0.66361 0.0011,-0.0014 0.0038,-0.0022 0.0069,-0.0023 z m -4.478189,2.411067 c 0.209684,-0.0086 0.385752,0.09923 0.466446,0.293926 0.05099,0.123048 0.07988,0.23445 0.06433,0.245705 -0.221359,0.16008 -0.792339,0.485979 -0.843262,0.482197 -0.03688,-0.0027 -0.141086,-0.03881 -0.23206,-0.08266 -0.09097,-0.04385 -0.165428,-0.105647 -0.165428,-0.135482 8e-6,-0.12644 0.501534,-0.769429 0.618074,-0.792196 0.03118,-0.0061 0.06196,-0.01028 0.0919,-0.01149 z m 0.454951,0.95295 c 0.155006,-0.007 0.328161,0.01898 0.526169,0.07347 0.141536,0.03896 0.603574,0.122755 1.027064,0.186005 0.846747,0.126448 1.058247,0.24574 1.146548,0.647534 0.04287,0.19509 0.01681,0.25383 -0.19761,0.436294 -0.13637,0.116047 -0.35128,0.309923 -0.475629,0.429394 -0.194441,0.186875 -0.310403,0.225577 -0.829447,0.284735 -0.331848,0.03783 -0.636822,0.08949 -0.677834,0.114813 -0.04098,0.02532 -0.157597,-0.009 -0.259631,-0.07577 -0.145538,-0.09531 -0.209128,-0.103012 -0.291804,-0.03445 -0.05795,0.04807 -0.103393,0.137157 -0.103393,0.197477 0,0.09363 -0.02957,0.09173 -0.19071,-0.01378 -0.21548,-0.141103 -0.354959,-0.07252 -0.425074,0.206662 -0.02309,0.09197 -0.127532,0.211681 -0.229761,0.266366 -0.102244,0.05468 -0.248285,0.207762 -0.326277,0.339843 -0.190837,0.323238 -0.53156,0.484497 -1.109785,0.525843 l -0.482515,0.03444 -0.20909,-0.316881 c -0.208783,-0.315303 -0.210923,-0.321755 -0.167726,-1.180271 0.03103,-0.616695 0.08525,-0.951668 0.186107,-1.177978 0.07764,-0.174176 0.162064,-0.407813 0.188419,-0.518943 0.04333,-0.182718 0.07866,-0.20207 0.372221,-0.20207 0.399177,0 0.703093,0.108093 0.703093,0.250288 8e-6,0.146724 0.35146,0.411029 0.54684,0.411029 0.104782,0 0.248421,-0.116641 0.413586,-0.33755 0.26813,-0.358577 0.525246,-0.531211 0.866239,-0.546504 z m -9.824898,2.88178 c 0.0616,-0.0032 0.136851,0.03648 0.225167,0.119406 0.167515,0.157278 0.177066,0.160745 0.418188,0.160745 0.09374,0 0.19737,0.09805 0.2895,0.275549 0.302362,0.582489 0.510987,0.742345 1.073009,0.826648 0.283095,0.04245 0.619327,0.112196 0.749053,0.153846 0.288726,0.09269 0.537657,0.467044 0.537657,0.812869 7e-6,0.22191 0.05878,0.303326 0.477919,0.649843 0.381141,0.315088 0.477911,0.436866 0.477911,0.601607 8e-6,0.157505 0.03511,0.20667 0.147063,0.20667 0.08075,-7e-6 0.276877,0.117613 0.436554,0.261765 0.231226,0.208764 0.339582,0.257385 0.53307,0.238809 0.256597,-0.02463 0.255133,-0.01824 0.156237,-0.518944 -0.03762,-0.190526 -0.02532,-0.202069 0.225189,-0.202069 0.146124,-8e-6 0.266314,0.02479 0.266516,0.05511 2.26e-4,0.0303 0.07581,0.149282 0.167734,0.264064 0.165105,0.206177 0.169302,0.205677 0.335459,0.07118 0.141626,-0.114599 0.155645,-0.166852 0.09421,-0.328361 -0.05637,-0.14817 -0.212064,-0.248861 -0.68472,-0.445471 -0.495331,-0.206044 -0.659333,-0.315545 -0.85933,-0.576361 l -0.24586,-0.323767 0.222883,-0.0574 c 0.250583,-0.06489 0.34465,-0.168842 0.34465,-0.385768 8e-6,-0.111601 0.09799,-0.178704 0.418174,-0.287036 0.394003,-0.133292 0.428866,-0.134747 0.606593,-0.01837 0.164294,0.107575 0.188419,0.176433 0.188419,0.525844 8e-6,0.368443 0.01411,0.404624 0.186107,0.447765 0.180288,0.04522 0.181805,0.05096 0.05744,0.188291 -0.111127,0.122732 -0.113057,0.152853 -0.02069,0.211254 0.05907,0.03733 0.132811,0.06827 0.163145,0.06889 0.03034,6.01e-4 0.05514,0.06843 0.05514,0.14926 7e-6,0.117957 0.0488,0.14696 0.248157,0.14696 0.174994,0 0.279814,0.04817 0.356146,0.16303 0.107912,0.162429 0.109166,0.161626 0.406693,0.02755 0.164257,-0.07402 0.336878,-0.111586 0.383709,-0.08266 0.04683,0.02892 0.233643,0.0319 0.415891,0.0046 0.284138,-0.04258 0.344237,-0.08338 0.411273,-0.275549 l 0.07813,-0.222732 0.544557,0.03444 c 0.503854,0.03232 0.564327,0.02009 0.815661,-0.163031 0.149533,-0.10894 0.413008,-0.351366 0.583617,-0.537328 l 0.310201,-0.337543 0.07351,0.270956 c 0.04149,0.149274 0.0756,0.350271 0.07583,0.445472 2.25e-4,0.0952 0.08532,0.272499 0.18842,0.394953 0.133201,0.158195 0.176158,0.279136 0.149337,0.415624 -0.09675,0.492426 -0.07013,0.793032 0.08961,1.017234 0.08894,0.124805 0.163146,0.310982 0.163146,0.415624 7e-6,0.279885 -0.472476,0.594297 -1.059239,0.704943 -0.422415,0.07965 -0.491584,0.07403 -0.680109,-0.04593 -0.115526,-0.07352 -0.236497,-0.175845 -0.268836,-0.227324 -0.03232,-0.0515 -0.189501,-0.09185 -0.349252,-0.09185 -0.243315,-8e-6 -0.2895,0.02368 -0.2895,0.149251 0,0.08244 -0.06837,0.282347 -0.15165,0.445473 -0.110796,0.217072 -0.131332,0.323059 -0.07352,0.392652 0.06111,0.07357 -0.0033,0.131538 -0.284919,0.252596 -0.200178,0.08606 -0.483408,0.156143 -0.629562,0.156143 -0.146154,-7e-6 -0.366432,0.05127 -0.489407,0.114806 -0.197039,0.101835 -0.254547,0.103959 -0.491705,0.01149 -0.18468,-0.07202 -0.338005,-0.08489 -0.489407,-0.04133 -0.160112,0.04606 -0.299839,0.02903 -0.505483,-0.062 l -0.282629,-0.126291 -0.477912,0.252588 c -0.596501,0.316169 -0.713868,0.478963 -0.664033,0.92079 0.03088,0.273726 0.01,0.361397 -0.114881,0.477619 -0.08385,0.07807 -0.170301,0.136291 -0.193,0.13089 -0.0227,-0.0054 -0.2068,-0.06871 -0.40899,-0.142368 -0.202191,-0.07366 -0.543927,-0.136011 -0.758229,-0.137774 -0.401812,-0.0033 -0.688886,-0.111161 -1.096015,-0.415617 -0.204968,-0.153293 -0.308361,-0.175102 -0.820256,-0.167628 -0.482056,0.007 -0.659596,-0.02551 -0.990318,-0.176816 -0.504093,-0.230645 -0.596989,-0.438748 -0.303292,-0.672797 l 0.20219,-0.160737 -0.186092,-0.144659 c -0.291842,-0.229419 -0.455589,-0.599816 -0.358451,-0.812878 0.10705,-0.234777 0.105345,-0.243394 -0.06662,-0.243394 -0.08142,-8e-6 -0.209804,-0.03809 -0.284927,-0.08497 -0.110698,-0.0691 -0.176293,-0.05746 -0.35384,0.06889 -0.188487,0.134131 -0.259481,0.14572 -0.4963,0.08037 -0.301874,-0.0833 -1.060027,-0.0536 -1.803681,0.07118 -0.262852,0.0441 -0.643115,0.101497 -0.843255,0.126289 -0.283358,0.03512 -0.413458,0.09795 -0.588212,0.284735 -0.124424,0.13302 -0.383875,0.293898 -0.583602,0.360514 -0.353825,0.118009 -0.368933,0.115143 -0.8639336,-0.07807 -0.4439429,-0.173289 -0.5031778,-0.218904 -0.5031778,-0.388061 7.5e-6,-0.258224 0.375938,-0.407409 0.7214664,-0.287035 0.192662,0.06712 0.272365,0.0572 0.471026,-0.05741 0.351303,-0.202666 0.498455,-0.549727 0.498598,-1.182564 l 0,-0.532728 0.514673,-0.512059 c 0.497089,-0.495791 0.514681,-0.525418 0.514681,-0.872574 8e-6,-0.293508 0.03031,-0.38075 0.167734,-0.470734 0.151402,-0.09914 0.192346,-0.09723 0.420478,0.02067 0.2436,0.125893 0.264346,0.125012 0.512384,-0.0023 0.142031,-0.07289 0.317168,-0.231785 0.388304,-0.353623 0.07114,-0.121836 0.274265,-0.3022 0.452645,-0.401846 l 0.326284,-0.1814 0.04594,0.192886 c 0.164926,0.670239 0.744135,1.153397 2.350529,1.9587 0.840792,0.42148 0.884221,0.453701 0.990302,0.753167 0.127,0.358481 0.230813,0.36591 0.328567,0.02526 0.05173,-0.180247 0.03865,-0.299247 -0.05743,-0.500582 -0.14695,-0.307969 -0.06493,-0.415235 0.261935,-0.346737 0.478385,0.100271 0.190049,-0.337339 -0.489414,-0.741683 -0.373618,-0.222343 -0.483896,-0.255681 -0.721467,-0.215848 -0.275683,0.04623 -0.291834,0.03787 -0.937449,-0.615394 -0.611106,-0.618325 -0.657148,-0.687565 -0.657148,-0.966715 7e-6,-0.227265 0.06044,-0.348323 0.163145,-0.35363 z m 22.652869,1.501753 c 0.08522,-0.0046 0.120482,0.106662 0.121774,0.339845 0.0012,0.220138 -0.434587,1.145528 -0.606578,1.288189 -0.167411,0.138862 -0.502082,0.157637 -0.893803,0.04822 -0.271869,-0.07592 -0.439408,-0.08178 -0.664033,-0.02526 -0.268889,0.06767 -0.350627,0.05168 -0.795005,-0.156145 -0.489453,-0.228896 -0.49401,-0.235222 -0.49401,-0.523542 7e-6,-0.375306 0.10988,-0.577714 0.314788,-0.576354 0.08958,6e-4 0.393178,0.114826 0.675537,0.252579 0.487462,0.237839 0.532904,0.245438 0.916771,0.174514 0.528196,-0.09757 0.787376,-0.235575 1.128152,-0.601608 0.132984,-0.142838 0.230129,-0.216877 0.296407,-0.22044 z m -23.902817,0.119404 c -0.12989,-0.0028 -0.310185,0.588795 -0.310185,1.033304 7e-6,0.273066 -0.05072,0.520656 -0.14246,0.700359 -0.139111,0.272506 -0.139381,0.283763 -0.0046,0.489104 0.137377,0.209262 0.398824,0.396908 0.562939,0.401838 0.04767,0.0014 0.140672,-0.05104 0.204487,-0.114812 0.256027,-0.255864 0.262387,-0.358802 0.06665,-1.067751 -0.104669,-0.379082 -0.211313,-0.852918 -0.236677,-1.051686 -0.02535,-0.198756 -0.08413,-0.373285 -0.128674,-0.388062 -0.0041,-0.0014 -0.0073,-0.0022 -0.01148,-0.0023 z m 2.299981,2.63609 c -0.06297,0.003 -0.110871,0.03482 -0.181511,0.09874 -0.08235,0.07447 -0.150374,0.105458 -0.151658,0.06889 -0.0054,-0.152867 -0.218266,0.232323 -0.218266,0.394955 0,0.1607 0.02301,0.175374 0.238952,0.135482 0.13143,-0.02429 0.338215,-0.01586 0.459531,0.02066 0.342457,0.103078 0.520109,0.09146 0.684712,-0.04822 0.111126,-0.09429 0.140837,-0.182494 0.110285,-0.330659 -0.03451,-0.167386 -0.08001,-0.20207 -0.266538,-0.20207 -0.123809,-7e-6 -0.333598,-0.03926 -0.466416,-0.08726 -0.07816,-0.02824 -0.134756,-0.0468 -0.181512,-0.05051 -0.0097,-7.8e-4 -0.01858,-4.5e-4 -0.02758,0 z m 5.928021,0.227324 c -0.09253,-6.75e-4 -0.16907,0.03937 -0.266523,0.13089 -0.128719,0.120845 -0.227659,0.151633 -0.365343,0.117106 -0.153836,-0.03859 -0.186092,-0.02206 -0.186092,0.09644 7e-6,0.328161 0.666796,0.414579 0.999485,0.128589 0.235386,-0.202334 0.20192,-0.387855 -0.08271,-0.459248 -0.03533,-0.0089 -0.06796,-0.01356 -0.09881,-0.01378 z m 6.332424,2.420243 c 0.241453,0.0027 0.709115,0.248758 1.272932,0.672796 0.403044,0.303148 0.626588,0.414405 0.978807,0.489105 0.318933,0.06764 0.503966,0.153073 0.618066,0.284733 0.394214,0.454746 0.887683,0.893244 1.006393,0.893244 0.071,-8e-6 0.372439,0.08317 0.670927,0.185992 0.298479,0.10282 0.685162,0.222159 0.857025,0.264072 0.251679,0.06135 0.312491,0.106553 0.312491,0.238809 7e-6,0.113306 0.085,0.212048 0.275721,0.319174 0.264038,0.148296 0.606593,0.525375 0.606593,0.668204 8e-6,0.139023 -0.20032,0.214194 -0.684712,0.25718 -0.474412,0.04211 -0.500872,0.03545 -0.576709,-0.130882 -0.104113,-0.228368 -0.326516,-0.280077 -0.59741,-0.140067 -0.210569,0.108815 -0.22633,0.104392 -0.452645,-0.114822 -0.172546,-0.167143 -0.302992,-0.225023 -0.4963,-0.225023 -0.276622,-8e-6 -0.505596,-0.201364 -1.192485,-1.047087 -0.23941,-0.294774 -0.32244,-0.34903 -0.53768,-0.34903 -0.209713,-8e-6 -0.334708,-0.07719 -0.70768,-0.429402 -0.249232,-0.235386 -0.603372,-0.513507 -0.7858,-0.617686 -0.182428,-0.104188 -0.477311,-0.317881 -0.654843,-0.475326 -0.315802,-0.280076 -0.319744,-0.290672 -0.218281,-0.502882 0.05812,-0.121564 0.171721,-0.22623 0.259638,-0.238809 0.01406,-0.002 0.02986,-0.0025 0.04595,-0.0023 z M 6.7813771,33.321554 c -0.037716,-7e-6 -0.089547,0.06488 -0.1148883,0.144662 -0.025334,0.07978 -0.1208951,0.203766 -0.2113807,0.275549 -0.090508,0.07178 -0.1897635,0.172207 -0.2205711,0.222739 -0.091424,0.14987 0.3972398,0.114827 0.5123683,-0.03674 0.1115696,-0.146878 0.137842,-0.60621 0.034472,-0.60621 z m 0.4940024,6.475412 0.039059,0.0597 0.068936,0.05741 c -0.036672,-0.03872 -0.071053,-0.07751 -0.1079954,-0.117105 z"
     id="path2651"
     style="fill:#000000;fill-opacity:1;stroke:none" />
  <path
     d="m 23.999409,0.52242191 -1.173211,0.0164109 c -0.06603,8.0291e-4 -0.220909,0.0723595 -0.466934,0.046899 -0.176398,0.0121862 -0.352646,0.0237797 -0.527949,0.0398679 0.01069,0.0323791 0.01023,0.0708663 -0.0094,0.12193744 -0.03168,0.0824597 -0.165038,0.11053909 -0.50917,0.11020892 -0.503373,-4.8775e-4 -1.102818,0.13881358 -1.102818,0.25560343 -1.5e-5,0.039673 0.101358,0.07269 0.225257,0.07269 0.212724,0 0.225256,0.016674 0.225256,0.3001537 -1.5e-5,0.2535998 0.02343,0.3001536 0.154864,0.3001536 0.08557,0 0.296738,-0.082475 0.469284,-0.1829061 0.172547,-0.1004239 0.508697,-0.2564288 0.746162,-0.3447115 0.237443,-0.088253 0.431742,-0.1877386 0.431742,-0.2227666 -1.5e-5,-0.10273508 0.414381,-0.16523458 0.720347,-0.10786771 l 0.281571,0.0539376 -0.239328,0.21338681 c -0.131978,0.1178328 -0.290648,0.2157354 -0.35197,0.2157354 -0.06131,0 -0.110279,0.050651 -0.110279,0.1125577 -1.5e-5,0.061907 0.06434,0.1125576 0.145479,0.1125576 0.185408,0 0.353232,0.2800959 0.236984,0.3963004 -0.04437,0.04431 -0.275646,0.1042659 -0.513862,0.1336584 -0.484294,0.059753 -0.694571,0.1397591 -1.05589,0.4033316 -0.136017,0.099231 -0.490796,0.2372265 -0.788397,0.3048436 -0.567083,0.128856 -1.385605,0.3689714 -1.703502,0.4994782 -0.183772,0.075414 -0.18441,0.0772 -0.03754,0.1852474 0.107643,0.079203 0.255103,0.098548 0.525599,0.065659 0.686311,-0.083458 1.196577,-0.2040895 1.478245,-0.3470527 0.365103,-0.1852999 0.659656,-0.1898472 0.612412,-0.00938 -0.02451,0.093603 0.03111,0.1557798 0.190064,0.2157355 0.175475,0.066199 0.235911,0.1452518 0.276878,0.3634636 0.04128,0.2198925 0.102139,0.3010241 0.290956,0.3798895 0.246806,0.1030502 0.642919,0.5925108 0.642919,0.7949345 -1.5e-5,0.084306 -0.05911,0.1041008 -0.225256,0.079728 -0.243622,-0.035733 -0.282367,0.042164 -0.145478,0.2978125 0.07209,0.1346039 0.06339,0.1470678 -0.07509,0.1031778 -0.08613,-0.027336 -0.219219,-0.029655 -0.297999,-0.0047 -0.326344,0.103508 -0.225046,0.2566167 0.563141,0.8418413 0.543431,0.4035116 0.748302,0.593659 0.654655,0.6096872 -0.24456,0.041864 -0.72522,0.2465087 -0.945611,0.4033315 -0.193473,0.1376655 -0.210217,0.1828536 -0.166592,0.4408507 0.04658,0.2756461 0.03698,0.2931226 -0.229949,0.4220911 -0.235439,0.1137583 -0.309758,0.2132667 -0.47867,0.6425165 -0.110023,0.2796307 -0.285723,0.5950697 -0.389506,0.6987953 -0.177983,0.1778561 -0.200576,0.182666 -0.403585,0.07738 -0.118417,-0.061381 -0.242939,-0.095989 -0.276878,-0.075038 -0.09894,0.061119 -0.07235,0.393539 0.05162,0.6331441 0.106448,0.205748 0.102574,0.242044 -0.05631,0.539331 -0.112163,0.209815 -0.168943,0.449923 -0.168943,0.696454 -1.5e-5,0.368446 -0.0044,0.375552 -0.244027,0.398641 -0.259278,0.02498 -0.318288,0.158422 -0.136093,0.309534 0.168282,0.139571 0.05306,0.303793 -0.211178,0.302495 -0.265652,-0.0013 -1.289037,-0.69881 -1.210753,-0.825423 0.02484,-0.04019 0.294432,-0.07269 0.598333,-0.07269 0.546398,0 0.554071,-0.0033 0.708627,-0.253255 0.08594,-0.139001 0.157207,-0.372363 0.157207,-0.518238 -1.5e-5,-0.229985 -0.0319,-0.275601 -0.236993,-0.347053 -0.130063,-0.0453 -0.375007,-0.08457 -0.544369,-0.08676 -0.289605,-0.0037 -0.825866,-0.08847 -1.891208,-0.295464 -0.622354,-0.1209164 -0.937172,-0.02334 -1.515796,0.466642 -0.521168,0.441338 -0.79713,0.80673 -0.872869,1.151374 -0.04373,0.198994 -0.07984,0.225145 -0.255756,0.199317 -0.146769,-0.02154 -0.253819,0.0248 -0.384813,0.164154 -0.09998,0.106345 -0.146725,0.194627 -0.103243,0.194627 0.04349,0 0.121098,0.09928 0.171285,0.220426 0.07563,0.182493 0.07067,0.256503 -0.02816,0.431471 -0.0656,0.116159 -0.18447,0.362998 -0.262799,0.548718 -0.07834,0.18572 -0.500902,0.827299 -0.938568,1.42573 -0.989417,1.352868 -1.116289,1.60562 -1.156782,2.302742 -0.02669,0.459625 -0.0059,0.580849 0.133742,0.806663 0.09038,0.146159 0.213896,0.267324 0.274535,0.267324 0.195838,0 0.510919,-0.20502 0.689848,-0.447882 0.133074,-0.18067 0.222178,-0.231096 0.375427,-0.213394 0.160788,0.01857 0.204864,0.06676 0.225257,0.246216 0.01403,0.123371 0.123831,0.359591 0.244028,0.522928 0.268978,0.365519 0.275331,0.526462 0.02581,0.893422 -0.111975,0.164649 -0.178824,0.346565 -0.157214,0.42913 0.02068,0.07901 0.0078,0.145387 -0.02816,0.145387 -0.134808,0 -0.220564,-0.30624 -0.220564,-0.785555 -1.5e-5,-0.632912 -0.132563,-0.717 -0.499791,-0.316572 -0.222944,0.243109 -0.251063,0.320369 -0.251063,0.696447 -1.5e-5,0.233121 0.03974,0.559704 0.08916,0.724593 0.08714,0.290654 0.08135,0.307057 -0.152514,0.515889 -0.132699,0.118478 -0.304982,0.215736 -0.384813,0.215736 -0.170189,0 -0.449116,0.349056 -0.659348,0.825422 -0.17543,0.397449 -0.424661,0.643012 -0.725048,0.717555 l -0.215871,0.05394 0.05397,-0.494789 c 0.05181,-0.483427 0.04819,-0.493895 -0.159557,-0.626105 -0.280527,-0.178539 -0.302212,-0.212291 -0.466942,-0.752726 -0.07774,-0.25504 -0.246791,-0.622098 -0.3777698,-0.816042 l -0.2393049,-0.35409 0.1501709,-0.157108 c 0.3053428,-0.325824 0.3790168,-0.797283 0.1243641,-0.797283 -0.1410556,0 -0.1420467,-0.0073 -0.00704,-0.267324 0.1704067,-0.328248 0.056397,-0.363689 -0.2581064,-0.07973 -0.4082923,0.368627 -0.6024858,0.463453 -0.685155,0.335325 -0.054249,-0.08404 -0.079613,-0.08142 -0.1407852,0.01173 -0.09689,0.147481 -0.094833,0.274768 0.00939,0.562788 0.1004869,0.277755 0.034119,0.73272 -0.1313995,0.898113 -0.06329,0.06323 -0.1957554,0.114906 -0.2933065,0.114906 -0.2322544,0 -0.7109618,0.575282 -0.7109618,0.853562 -1.51e-5,0.110569 -0.05069,0.323153 -0.1126283,0.471339 -0.061961,0.148148 -0.1126282,0.383514 -0.1126282,0.52292 -1.5e-5,0.305421 0.082489,0.317263 0.6077194,0.09145 0.4242029,-0.18238 0.6687338,-0.545671 0.6687338,-0.9966 -1.5e-5,-0.285183 0.132661,-0.642516 0.239335,-0.642516 0.036724,0 0.1667498,0.04959 0.2886135,0.112557 0.3077979,0.159082 0.3135269,0.494961 0.00939,0.609687 -0.1827505,0.06893 -0.2328551,0.151946 -0.3402348,0.5792 -0.0745,0.296326 -0.1068467,0.613979 -0.079778,0.783221 0.033728,0.210737 0.015903,0.311034 -0.072743,0.384571 -0.1595341,0.132285 -0.1524986,0.252714 0.011736,0.201658 0.2870593,-0.08923 1.7837457,-0.267504 1.9099867,-0.227456 0.120993,0.03837 0.12251,0.06266 0.02816,0.243874 -0.05769,0.110817 -0.187683,0.278798 -0.290956,0.375192 -0.150561,0.140547 -0.217342,0.161701 -0.335542,0.09849 -0.1751969,-0.09369 -0.2416776,-0.04472 -0.2416776,0.180565 -1.5e-5,0.195918 -0.2973085,0.341913 -0.6382266,0.314216 -0.1993444,-0.01618 -0.2285452,0.0081 -0.2510633,0.206356 -0.020386,0.179169 0.025702,0.26947 0.2346421,0.45023 0.2207438,0.191048 0.2978641,0.35127 0.4950911,1.024748 0.2784093,0.950787 0.2820513,1.016613 0.06335,1.289722 L 9.658082,27.158712 9.1723766,27.048499 C 8.905688,26.98692 8.6776684,26.906988 8.6655496,26.872628 8.5809057,26.632946 8.5078551,26.599012 8.2830867,26.692067 8.0335851,26.795325 7.8525691,26.735574 7.5369172,26.448192 l -0.171285,-0.154771 -0.1665996,0.166496 c -0.2100892,0.209941 -0.209053,0.615326 0.00235,1.029433 0.1348986,0.264276 0.142257,0.321798 0.051621,0.485405 -0.056577,0.102141 -0.1041361,0.26269 -0.1055852,0.354087 -0.00149,0.0914 -0.069935,0.202045 -0.1525211,0.24622 -0.1061484,0.05677 -0.150171,0.157288 -0.150171,0.342363 -1.5e-5,0.229188 0.026776,0.266581 0.2182209,0.304843 0.2009213,0.04016 0.2257821,0.08186 0.314413,0.527614 0.1015456,0.51062 0.21301,0.64329 0.7062765,0.839493 0.1564857,0.06225 0.2653521,0.186913 0.3566561,0.408021 0.1622747,0.393057 0.1599696,0.547672 -0.00704,0.860597 -0.1213531,0.227335 -0.1424071,0.23702 -0.2792278,0.133662 -0.3236109,-0.244522 -0.5579077,-0.111845 -0.9620328,0.539339 -0.2221629,0.357955 -0.2492237,0.558995 -0.089164,0.69176 0.1311669,0.108782 0.2665235,0.04408 0.2698422,-0.131317 0.00429,-0.229371 0.2229063,0.138566 0.2229063,0.375192 -1.5e-5,0.160348 -0.074447,0.26182 -0.3120778,0.433816 -0.1713976,0.124075 -0.3565359,0.22746 -0.4106199,0.22746 -0.054107,-9e-6 -0.1394488,0.143511 -0.1900639,0.318913 -0.050593,0.175394 -0.1357395,0.385251 -0.1900564,0.466646 -0.054309,0.08141 -0.09855,0.255172 -0.09855,0.386916 -1.5e-5,0.131736 -0.1036254,0.511256 -0.2299493,0.841838 l -0.2299492,0.600307 0.1665921,0.323603 c 0.43482,0.848563 0.7958761,1.788271 0.7602405,1.974449 -0.027346,0.142895 0.027984,0.27455 0.1994496,0.487749 0.1529341,0.190207 0.2344919,0.379916 0.2369923,0.541684 0.00337,0.220627 0.063988,0.291746 0.5443697,0.635482 0.2972859,0.212731 0.9503719,0.736205 1.4500808,1.16544 1.1683678,1.003577 1.5645638,1.291914 2.1047438,1.528908 0.241903,0.106133 0.660745,0.289633 0.929183,0.408021 0.268415,0.118387 0.952759,0.336398 1.522831,0.48306 0.908166,0.233661 1.149776,0.266297 1.952222,0.267325 0.926097,0.0012 1.10408,0.03203 2.419157,0.412711 0.371658,0.107588 0.958068,0.243924 1.30461,0.302499 0.34652,0.05854 0.636267,0.115289 0.64292,0.126627 0.0067,0.01136 0.06834,0.113083 0.138442,0.225115 0.07008,0.112047 0.12905,0.318193 0.12905,0.45961 -1.5e-5,0.227344 0.0326,0.269925 0.28157,0.368158 0.154849,0.0611 0.534977,0.170817 0.844712,0.243875 0.309712,0.07305 0.732083,0.194473 0.938568,0.269669 0.20647,0.0752 0.476786,0.159937 0.600684,0.187596 0.183532,0.04097 0.348877,0.140603 0.431742,0.24622 0.03783,0.01431 0.141671,0.05092 0.187713,0.068 0.09336,0.0011 0.185597,0.007 0.279221,0.007 0.405206,-1e-6 0.808212,-0.01019 1.20841,-0.03048 0.400214,-0.02029 0.797296,-0.05135 1.191982,-0.09145 0.394702,-0.0401 0.786874,-0.08833 1.175554,-0.147732 0.388672,-0.05941 0.774597,-0.13048 1.156789,-0.208701 0.38217,-0.07822 0.760466,-0.163745 1.135668,-0.260289 0.37518,-0.09655 0.746853,-0.202187 1.114546,-0.316568 0.367701,-0.114383 0.731348,-0.238788 1.09109,-0.370503 0.35972,-0.131716 0.716368,-0.271192 1.067618,-0.419746 0.35125,-0.148563 0.697169,-0.306423 1.039468,-0.471335 0.342307,-0.164913 0.680808,-0.337459 1.013654,-0.518234 0.332854,-0.180768 0.660249,-0.368998 0.983155,-0.565133 0.199472,-0.121181 0.393402,-0.250647 0.588947,-0.377537 -0.120392,-0.0056 -0.23974,-7.65e-4 -0.361348,-0.01876 -0.172186,-0.04461 -0.277982,-0.317964 -0.276878,-0.7199 7.51e-4,-0.276683 0.09671,-0.452564 0.809519,-1.477318 0.444949,-0.639712 1.003352,-1.416358 1.241253,-1.725884 0.644038,-0.837971 1.220477,-2.038059 1.285839,-2.677934 0.02877,-0.281635 0.100592,-0.678174 0.159557,-0.881701 0.155967,-0.538372 0.126932,-1.317862 -0.04927,-1.317862 -0.0353,-9e-6 -0.624966,0.569023 -1.30931,1.266273 -0.684337,0.69724 -1.302102,1.283581 -1.372653,1.301448 -0.21069,0.05337 -0.60645,-0.08579 -0.689848,-0.24153 -0.06493,-0.121234 -0.03868,-0.173283 0.157207,-0.316569 0.235077,-0.17199 1.874922,-2.171405 2.613921,-3.186788 0.215878,-0.29665 0.409568,-0.643447 0.429391,-0.769143 0.03664,-0.232471 0.258287,-0.740847 0.964375,-2.218324 l 0.394199,-0.825422 0.04224,-1.050538 c 0.02374,-0.577798 0.02693,-1.140408 0.0047,-1.249859 -0.05816,-0.286512 -0.342856,-0.316358 -0.877554,-0.09145 -0.48732,0.204974 -0.654746,0.186365 -0.964383,-0.103178 -0.447938,-0.418873 -0.453216,-0.919986 -0.007,-0.656586 l 0.218221,0.126627 0.520905,-0.384572 c 0.566017,-0.419712 0.955793,-0.849052 1.588523,-1.749333 0.614688,-0.874617 0.766706,-0.939473 1.522832,-0.647206 0.763559,0.295156 0.867455,0.299103 1.17321,0.05628 0.150359,-0.119431 0.302948,-0.215736 0.340235,-0.215736 0.148159,0 0.55085,0.361145 0.879904,0.790252 0.33386,0.435373 1.511824,1.610978 1.614338,1.610978 0.06686,0 0.196491,-0.348381 0.258106,-0.691757 0.154481,-0.138078 0.275677,-0.28889 0.382471,-0.443199 0.01974,-0.394582 0.0305,-0.789435 0.0305,-1.188887 7e-6,-0.404974 -0.0102,-0.807698 -0.0305,-1.207652 -0.02033,-0.399955 -0.04903,-0.799152 -0.08917,-1.193576 -0.04013,-0.394455 -0.09072,-0.784047 -0.150171,-1.172476 -0.05945,-0.388451 -0.128201,-0.774118 -0.206485,-1.156064 -0.07828,-0.381946 -0.166179,-0.76233 -0.262799,-1.137305 -0.09662,-0.374959 -0.202318,-0.746362 -0.316763,-1.113848 -0.114468,-0.367485 -0.236572,-0.730874 -0.368392,-1.090405 -0.131812,-0.359509 -0.273686,-0.713578 -0.422356,-1.0646 C 45.49419,14.513061 45.33859,14.165026 45.173567,13.822955 45.008537,13.480855 44.83355,13.144916 44.652669,12.812278 44.471766,12.47964 44.283429,12.152443 44.087178,11.82974 43.890904,11.507052 43.688241,11.187599 43.477108,10.875349 43.2659,10.563122 43.047934,10.257475 42.822407,9.9561511 42.596858,9.6548269 42.362614,9.3596632 42.123166,9.0697598 41.883726,8.7798564 41.639226,8.4941851 41.386398,8.2161978 41.133547,7.9382104 40.873106,7.6657309 40.607386,7.400155 40.341628,7.134579 40.068985,6.8766719 39.790831,6.6239726 39.512655,6.3713032 39.229169,6.1245994 38.939077,5.8853169 38.648999,5.6460343 38.353643,5.4142629 38.052129,5.1888625 37.750601,4.9634771 37.442443,4.745633 37.129982,4.534625 36.817521,4.323617 36.500233,4.1187546 36.177343,3.9225891 35.85443,3.7264537 35.527035,3.5382348 35.194188,3.3574598 34.861349,3.1766847 34.522834,3.0041189 34.180534,2.8392294 33.838242,2.6743025 33.492346,2.5164517 33.141066,2.3678906 32.789793,2.2193295 32.433175,2.0798481 32.073448,1.9481481 31.713698,1.8164182 31.350082,1.6920345 30.982358,1.5776384 30.614635,1.4632649 30.243007,1.3576183 29.867812,1.2610738 29.492602,1.1645294 29.114322,1.0790006 28.732144,1.0007881 28.349944,0.92255302 27.964042,0.85382534 27.575355,0.79443243 27.18666,0.73501701 26.794496,0.68444861 26.399801,0.64435559 26.005122,0.60424755 25.608025,0.57319665 25.207819,0.55289876 24.807621,0.53260087 24.404638,0.52241065 23.999409,0.52241815 z M 11.392091,4.1993046 C 11.217412,4.3106616 11.040346,4.4188145 10.868835,4.5346287 10.556397,4.7456368 10.248209,4.9634808 9.9466956,5.1888662 9.6451748,5.4142591 9.3498336,5.6460381 9.0597484,5.8853206 8.7696556,6.1246031 8.4861403,6.3713219 8.2080012,6.6239763 7.929832,6.8766532 7.6571741,7.1345827 7.3914466,7.4001587 7.1256966,7.6657347 6.8652476,7.9382142 6.6124348,8.2162015 6.3595919,8.4941889 6.1150836,8.7798601 5.875651,9.0697636 5.6362334,9.359667 5.4019442,9.6548306 5.1764249,9.9561549 4.9508832,10.257479 4.73291,10.563126 4.5217697,10.875376 4.4163722,11.03123 4.3184457,11.192931 4.2167349,11.351397 4.3046375,11.302937 4.4790686,11.143705 4.6672478,10.922275 4.8864373,10.66433 5.5837637,9.939729 6.218236,9.3136384 7.0213353,8.5211051 7.4170733,8.0746716 7.520496,7.8410094 7.602189,7.6564224 7.718091,7.48577 7.7762597,7.4634761 7.8343984,7.4411597 8.1500052,7.219076 8.4778359,6.9686878 9.0230391,6.5522696 9.3225475,6.4136511 9.3225475,6.5770773 9.32254,6.6119551 9.2514416,6.7032094 9.1653411,6.7810917 9.079218,6.8589741 8.8857378,7.0922311 8.7359422,7.2993221 8.5861392,7.5064206 8.0557128,8.1496049 7.5580388,8.7274008 7.0603572,9.3051966 6.5189834,9.9469402 6.3543209,10.153131 c -0.1646174,0.20619 -0.3920213,0.476329 -0.506827,0.600307 -0.5616844,0.606588 -1.7490261,2.619614 -1.9264081,3.268861 -0.1059754,0.387859 -0.086386,0.757498 0.042236,0.799625 0.047296,0.0155 0.249036,-0.180483 0.4481627,-0.433812 0.1991642,-0.25333 0.6176081,-0.650463 0.9291828,-0.884043 0.5804709,-0.435185 0.668869,-0.481672 2.2173719,-1.141995 1.0023386,-0.427426 1.1736986,-0.554151 1.4289743,-1.055228 0.096845,-0.190139 0.4698924,-0.662881 0.8282829,-1.050537 0.3583826,-0.3876564 0.8760596,-0.9882564 1.1497456,-1.3366223 0.273672,-0.3483658 0.809985,-0.9687685 1.191982,-1.3764898 0.38199,-0.4077062 0.694541,-0.7893066 0.694541,-0.8488646 -7e-6,-0.059603 -0.04079,-0.1711401 -0.08916,-0.2485722 -0.07201,-0.1152065 -0.05091,-0.2190597 0.119671,-0.5674706 0.114611,-0.2341499 0.1977,-0.437932 0.183014,-0.4525795 -0.03214,-0.032124 -0.648506,0.080981 -0.832976,0.1524255 -0.10774,0.041706 -0.1314,0.009 -0.1314,-0.1805649 -7e-6,-0.1810152 0.04891,-0.2559186 0.225257,-0.3470527 0.123883,-0.064023 0.225256,-0.1503095 0.225256,-0.1899448 -7e-6,-0.039613 -0.211178,-0.177886 -0.469284,-0.3071847 -0.258114,-0.1292987 -0.48518,-0.2471391 -0.502134,-0.2626345 -0.0051,-0.0047 -0.0076,-0.010325 -0.0094,-0.016411 -0.08787,-0.043102 -0.104459,-0.042007 -0.178328,-0.075038 z m 6.809315,0.4408507 c -0.03492,-0.00107 -0.0686,9.23e-4 -0.100893,0.00234 -0.387771,0.017049 -0.593648,0.2091396 -0.593648,0.5627881 -8e-6,0.1647544 -0.05265,0.2741004 -0.168942,0.3517426 -0.167088,0.1115374 -0.168229,0.113721 -0.02581,0.2720146 0.152386,0.1693992 0.258917,0.1625782 0.682804,-0.046899 0.380804,-0.1881967 0.788398,-0.6283796 0.788398,-0.8512136 -7e-6,-0.1645443 -0.04209,-0.2077364 -0.234642,-0.2462236 -0.126339,-0.025243 -0.242526,-0.041384 -0.34727,-0.04455 z m 2.008536,0.4549129 c -0.131865,4.352e-4 -0.178718,0.055356 -0.290956,0.2368438 -0.08882,0.143601 -0.159557,0.3760253 -0.159557,0.5158894 -7e-6,0.3812852 0.629517,1.874092 0.840019,1.9908668 0.265322,0.1471729 0.723208,0.1207669 1.013654,-0.058628 0.289237,-0.178651 0.26804,-0.227576 -0.164249,-0.3540833 C 21.283657,7.3775947 21.064039,7.2715203 20.960797,7.1914619 20.77912,7.0505622 20.773083,7.0174928 20.773083,6.1479551 c -7e-6,-0.4941655 -0.02407,-0.9198138 -0.05162,-0.9473604 -0.02757,-0.027547 -0.182525,-0.069703 -0.344928,-0.091449 -0.0684,-0.00918 -0.122644,-0.014212 -0.166592,-0.014077 z m -4.415965,0.5393464 c -0.06432,0.00966 -0.142519,0.054275 -0.225256,0.1313173 -0.211966,0.197336 -0.145215,0.3111618 0.161899,0.2813941 0.196214,-0.019045 0.236993,-0.054238 0.236993,-0.2087044 -8e-6,-0.135767 -0.05901,-0.2045097 -0.147821,-0.204007 -0.0086,3.76e-5 -0.01662,-0.0014 -0.02581,0 z m -0.424698,0.9239031 c -0.01509,-5.253e-4 -0.03061,3.752e-4 -0.04693,0.00235 -0.108941,0.013304 -0.256882,0.086084 -0.551412,0.2485648 -0.458202,0.2527669 -0.556219,0.3433457 -0.626499,0.5721679 -0.07757,0.2526244 -0.06255,0.2970396 0.192415,0.6753458 0.150531,0.2233894 0.31225,0.4080214 0.361341,0.4080214 0.04911,0 0.157634,-0.1148988 0.239342,-0.2532547 0.08895,-0.1506996 0.287232,-0.3168422 0.495091,-0.4174012 C 15.801958,7.6154302 15.811321,7.5892118 15.732969,7.0179293 15.696669,6.7533438 15.644839,6.6591481 15.500677,6.593497 15.455417,6.572891 15.414467,6.559985 15.369278,6.558319 z M 7.4782604,13.161699 c -0.058874,-0.0042 -0.1065763,0.101001 -0.213528,0.311882 -0.1560352,0.30774 -0.1947493,0.495186 -0.1947493,0.909841 -7.5e-6,0.474888 0.017225,0.536269 0.1970994,0.677694 0.1088064,0.08552 0.2406565,0.157108 0.2933064,0.157108 0.05262,0 0.3088191,-0.143511 0.5701766,-0.318913 0.2613501,-0.175402 0.518683,-0.403332 0.5701767,-0.50651 0.1009374,-0.202183 0.132676,-0.97697 0.039893,-0.975499 -0.03098,5.25e-4 -0.2421507,0.05123 -0.4692843,0.112558 C 7.8889179,13.63312 7.8507295,13.632557 7.766874,13.5111 7.6080081,13.281107 7.5371275,13.165931 7.4782604,13.161699 z m 21.9343456,5.972593 c 0.09861,-0.0022 1.156842,0.624447 1.508753,0.895771 0.332336,0.256248 0.428806,0.295621 0.621798,0.253254 0.211238,-0.04637 0.278574,-0.0024 0.849404,0.565137 0.34037,0.338386 0.7597,0.730769 0.931533,0.872322 0.404298,0.332975 0.881654,1.02519 0.830626,1.202955 -0.02135,0.07438 -0.06176,0.1951 -0.09151,0.267324 -0.04242,0.102953 -0.01745,0.131318 0.119664,0.131318 l 0.175985,0 -0.168942,0.117247 c -0.103333,0.07233 -0.404974,0.13221 -0.786055,0.157116 -0.340235,0.02221 -0.692243,0.08775 -0.783697,0.145379 -0.21759,0.137088 -0.200711,0.144134 -0.427056,-0.152418 -0.178253,-0.233542 -0.194749,-0.320189 -0.194749,-0.9286 -1.6e-5,-0.73813 -0.01524,-0.764439 -0.488056,-0.916879 -0.721046,-0.232432 -1.461239,-0.682677 -1.877137,-1.141987 -0.369924,-0.408509 -0.41297,-0.493318 -0.41297,-0.787904 -1.5e-5,-0.267001 0.07358,-0.53792 0.185363,-0.677694 0.0011,-0.0014 0.0039,-0.0023 0.007,-0.0023 z m -4.108587,3.435349 c 0.158265,-0.0071 0.335136,0.01938 0.537334,0.07504 0.144517,0.03978 0.616407,0.125359 1.048847,0.189945 0.864692,0.129133 1.08069,0.250957 1.170868,0.661275 0.0438,0.199227 0.01717,0.25922 -0.201793,0.445541 -0.139291,0.118515 -0.358743,0.316504 -0.485705,0.438502 -0.198601,0.19083 -0.317018,0.230383 -0.847062,0.290774 -0.338898,0.03864 -0.650338,0.09134 -0.69219,0.117255 -0.04188,0.02582 -0.160961,-0.0092 -0.26515,-0.07739 -0.148646,-0.09732 -0.213573,-0.105226 -0.297991,-0.03517 -0.05921,0.04904 -0.105593,0.140089 -0.105593,0.201658 -1.5e-5,0.09563 -0.0302,0.09363 -0.194749,-0.01406 -0.220083,-0.144141 -0.362498,-0.07403 -0.434092,0.211038 -0.0236,0.09393 -0.130236,0.216193 -0.234642,0.272014 -0.104429,0.05587 -0.253556,0.212201 -0.333192,0.347053 -0.194869,0.330117 -0.542793,0.494773 -1.133325,0.536997 l -0.492741,0.03517 -0.213528,-0.323596 C 21.91611,25.619659 21.91391,25.613131 21.95803,24.736374 c 0.03166,-0.629767 0.08707,-0.97186 0.190056,-1.202956 0.07929,-0.177878 0.165481,-0.416463 0.192407,-0.529959 0.04423,-0.186574 0.08033,-0.206354 0.38012,-0.206354 0.407646,0 0.718005,0.110358 0.718005,0.255602 -1.5e-5,0.149807 0.358923,0.419743 0.558448,0.419743 0.106997,0 0.253684,-0.119116 0.422356,-0.344704 0.273814,-0.366202 0.536381,-0.54246 0.884597,-0.558105 z m -10.033297,2.942916 c 0.06291,-0.0032 0.139756,0.03725 0.229956,0.121937 0.171045,0.160612 0.180851,0.164147 0.427042,0.164147 0.09573,0 0.201567,0.100146 0.295656,0.281394 0.308759,0.59485 0.521822,0.758105 1.095775,0.844182 0.289064,0.04335 0.632468,0.11458 0.764933,0.157112 0.294846,0.09465 0.549063,0.476929 0.549063,0.830112 -1.5e-5,0.226599 0.06002,0.309762 0.488056,0.663621 0.389205,0.321771 0.488055,0.446126 0.488055,0.614377 -1.5e-5,0.160836 0.03584,0.211046 0.150171,0.211046 0.08246,-9e-6 0.282757,0.120091 0.44582,0.267324 0.236129,0.21319 0.34679,0.262837 0.54437,0.243875 0.262041,-0.02516 0.260554,-0.01863 0.159557,-0.529959 -0.03843,-0.194568 -0.02587,-0.206356 0.229949,-0.206356 0.14921,-9e-6 0.271967,0.02533 0.272185,0.05628 1.5e-4,0.03094 0.07744,0.152452 0.171292,0.26967 0.168575,0.210549 0.172892,0.210021 0.34257,0.07269 0.144607,-0.117039 0.158956,-0.170386 0.09621,-0.335328 -0.05758,-0.151316 -0.216546,-0.25414 -0.699233,-0.45492 -0.505839,-0.210431 -0.673332,-0.32224 -0.877565,-0.588581 l -0.251063,-0.330638 0.227599,-0.05862 c 0.255891,-0.06627 0.351963,-0.172415 0.351963,-0.393951 -1.5e-5,-0.113963 0.100059,-0.182468 0.427049,-0.293119 0.402353,-0.136128 0.437958,-0.137613 0.619455,-0.01876 0.167771,0.109856 0.192407,0.180186 0.192407,0.536994 -1.5e-5,0.376264 0.01439,0.413218 0.190064,0.457265 0.184087,0.04617 0.185663,0.05202 0.05866,0.192286 -0.113491,0.12532 -0.115474,0.156073 -0.02111,0.215736 0.06029,0.03811 0.135612,0.06972 0.166592,0.07035 0.03096,6e-4 0.05631,0.06988 0.05631,0.152422 -1.5e-5,0.120458 0.04982,0.150077 0.253413,0.150077 0.178673,-2e-6 0.285768,0.04921 0.363692,0.166491 0.110188,0.165872 0.111486,0.165062 0.41532,0.02814 0.167726,-0.07559 0.344057,-0.113939 0.391848,-0.08442 0.04781,0.02953 0.2386,0.03255 0.424706,0.0047 0.290153,-0.0435 0.351566,-0.08516 0.420006,-0.281394 l 0.07979,-0.22746 0.556098,0.03517 c 0.514561,0.03299 0.576289,0.02052 0.832983,-0.166491 0.152672,-0.111254 0.421786,-0.358819 0.595984,-0.548719 l 0.31677,-0.344707 0.07509,0.276704 c 0.04237,0.152423 0.07722,0.357723 0.07743,0.45492 2.25e-4,0.09722 0.08712,0.278288 0.192414,0.403332 0.135995,0.161542 0.179905,0.285059 0.152514,0.424436 -0.09881,0.502868 -0.07163,0.809871 0.09151,1.038813 0.09079,0.127459 0.166592,0.317566 0.166592,0.424436 -1.5e-5,0.285827 -0.482477,0.606922 -1.081704,0.7199 -0.431396,0.08135 -0.501991,0.0756 -0.694541,-0.0469 -0.117996,-0.07508 -0.241497,-0.179571 -0.274527,-0.23215 -0.03302,-0.05258 -0.193518,-0.0938 -0.356656,-0.0938 -0.24848,-9e-6 -0.295649,0.02417 -0.295649,0.152421 -1.5e-5,0.08418 -0.06982,0.288336 -0.154864,0.454921 -0.113154,0.221678 -0.134118,0.329903 -0.07508,0.400986 0.0624,0.07512 -0.0034,0.134327 -0.290957,0.257945 -0.204427,0.08788 -0.493672,0.159457 -0.642919,0.159457 -0.149278,-9e-6 -0.374189,0.05235 -0.499792,0.117247 -0.201244,0.103994 -0.259938,0.106183 -0.502126,0.01172 -0.18863,-0.07355 -0.345191,-0.08668 -0.499792,-0.04221 -0.163536,0.04703 -0.306206,0.02963 -0.516212,-0.06331 l -0.288606,-0.128972 -0.488056,0.257944 c -0.609176,0.322874 -0.72902,0.489112 -0.67812,0.940326 0.03151,0.279524 0.01018,0.369039 -0.117321,0.487749 -0.08562,0.07972 -0.173913,0.139178 -0.197099,0.133663 -0.02318,-0.0055 -0.211178,-0.07018 -0.417663,-0.145387 -0.2065,-0.07523 -0.555452,-0.138896 -0.774319,-0.140697 -0.41032,-0.0034 -0.703491,-0.113522 -1.119239,-0.424436 -0.209346,-0.156547 -0.314916,-0.178813 -0.837676,-0.171182 -0.492298,0.0072 -0.673577,-0.02604 -1.011304,-0.180561 C 15.53961,32.668294 15.444755,32.45576 15.744706,32.21677 l 0.206485,-0.164146 -0.190064,-0.147732 c -0.298044,-0.234286 -0.465244,-0.612539 -0.366041,-0.830113 0.109294,-0.239764 0.107605,-0.248564 -0.06805,-0.248564 -0.08316,-9e-6 -0.214234,-0.03889 -0.290956,-0.08676 -0.113079,-0.07057 -0.180048,-0.05867 -0.361342,0.07035 -0.192511,0.136973 -0.264999,0.148797 -0.506827,0.08207 -0.308301,-0.08507 -1.082522,-0.05472 -1.841944,0.07269 -0.268446,0.04504 -0.656773,0.103639 -0.861133,0.128972 -0.289395,0.03586 -0.422258,0.100019 -0.600684,0.290774 -0.127097,0.135833 -0.392014,0.300127 -0.595998,0.368157 -0.3613493,0.120511 -0.3767268,0.117585 -0.8822548,-0.07973 -0.4533737,-0.176973 -0.5138625,-0.223551 -0.5138625,-0.396297 -1.51e-5,-0.263701 0.383927,-0.416047 0.7367762,-0.293119 0.196754,0.06854 0.2781767,0.0584 0.4810131,-0.05862 0.358743,-0.206973 0.509027,-0.561367 0.509177,-1.20765 l 0,-0.544028 0.525598,-0.522924 c 0.507608,-0.506309 0.525598,-0.536548 0.525598,-0.891082 -1.5e-5,-0.299727 0.03094,-0.388808 0.171293,-0.480715 0.154593,-0.101242 0.196409,-0.09929 0.429391,0.02111 0.248751,0.128562 0.269985,0.127674 0.523248,-0.0023 0.145013,-0.07445 0.323897,-0.236709 0.396549,-0.361123 0.07262,-0.124431 0.280047,-0.308606 0.462249,-0.410366 l 0.333184,-0.185251 0.04693,0.196976 c 0.168402,0.684447 0.75994,1.177867 2.400393,2.000243 0.858617,0.430426 0.902955,0.463332 1.011311,0.769143 0.129672,0.366081 0.235693,0.373673 0.335534,0.02579 0.05281,-0.18407 0.03947,-0.305594 -0.05866,-0.511199 -0.150081,-0.314511 -0.06631,-0.424054 0.2675,-0.354088 0.488506,0.102389 0.194066,-0.344498 -0.499792,-0.757419 -0.381562,-0.227059 -0.494167,-0.261134 -0.736776,-0.220425 -0.281518,0.0472 -0.298014,0.03866 -0.95734,-0.628447 -0.624058,-0.631452 -0.671076,-0.702146 -0.671076,-0.987224 -1.6e-5,-0.232079 0.06174,-0.355712 0.166592,-0.361123 z m 23.133371,1.533597 c 0.08704,-0.0047 0.123072,0.108934 0.124356,0.347053 0.0012,0.224806 -0.44377,1.169823 -0.619455,1.315517 -0.170985,0.141791 -0.512714,0.160969 -0.912754,0.04924 -0.277621,-0.07754 -0.448749,-0.08351 -0.678112,-0.02579 -0.274625,0.0691 -0.358053,0.05278 -0.811869,-0.159457 -0.499852,-0.23376 -0.504477,-0.24022 -0.504477,-0.534649 -1.5e-5,-0.383267 0.112192,-0.589963 0.321463,-0.588582 0.09145,6e-4 0.401542,0.11727 0.689841,0.257944 0.497794,0.242876 0.544234,0.250636 0.936225,0.178217 0.539407,-0.09965 0.804068,-0.240574 1.152097,-0.614377 0.135777,-0.145862 0.235002,-0.221469 0.302685,-0.225116 z m -24.409825,0.121938 c -0.132638,-0.0029 -0.316763,0.601283 -0.316763,1.055228 -7e-6,0.278848 -0.0518,0.531695 -0.145478,0.715209 -0.142069,0.278287 -0.142332,0.289788 -0.0047,0.499475 0.140268,0.2137 0.407272,0.405339 0.574877,0.410366 0.04866,0.0015 0.143661,-0.05214 0.208828,-0.117247 0.26144,-0.261294 0.267965,-0.366417 0.06804,-1.090402 -0.106877,-0.387125 -0.215774,-0.871009 -0.241678,-1.073988 -0.02591,-0.20298 -0.08592,-0.381214 -0.1314,-0.396296 -0.0042,-0.0014 -0.0074,-0.0023 -0.01174,-0.0023 z m 2.348772,2.692003 c -0.06431,0.003 -0.113229,0.03559 -0.185364,0.100833 -0.0841,0.07605 -0.153549,0.10768 -0.154871,0.07035 -0.0055,-0.156112 -0.222906,0.237249 -0.222906,0.403332 -8e-6,0.164099 0.02351,0.17909 0.244028,0.138352 0.134207,-0.0248 0.345393,-0.0162 0.469284,0.02111 0.349703,0.105254 0.53114,0.09339 0.699233,-0.04924 0.11347,-0.0963 0.143834,-0.186358 0.112629,-0.337673 -0.03526,-0.170939 -0.08172,-0.206356 -0.272185,-0.206356 -0.126482,-9e-6 -0.340663,-0.04009 -0.476327,-0.08911 -0.07982,-0.02885 -0.13761,-0.0478 -0.185364,-0.05159 -0.01,-7.95e-4 -0.01897,-4.5e-4 -0.02816,0 z m 6.020917,0.23215 c -0.07964,0.0087 -0.152243,0.05189 -0.239335,0.133662 -0.13146,0.123407 -0.232502,0.154868 -0.373077,0.119593 -0.157132,-0.03941 -0.190064,-0.02253 -0.190064,0.09849 -8e-6,0.335112 0.68095,0.423382 1.020689,0.131317 0.240371,-0.206636 0.20623,-0.396098 -0.08447,-0.46899 -0.03607,-0.0091 -0.06939,-0.01384 -0.100892,-0.01407 -0.01183,-7.5e-5 -0.02147,-0.0012 -0.03285,0 z m 6.499587,2.471578 c 0.24655,0.0028 0.724162,0.254031 1.299917,0.687071 0.411619,0.309569 0.639886,0.423205 0.999576,0.499474 0.325683,0.06908 0.514635,0.156328 0.631191,0.290774 0.40254,0.464397 0.906537,0.912186 1.027725,0.912186 0.07248,-9e-6 0.380368,0.08492 0.685155,0.189941 0.304794,0.104991 0.699699,0.226875 0.875218,0.269669 0.256988,0.06266 0.319114,0.108806 0.319114,0.243875 -1.5e-5,0.115715 0.08679,0.21655 0.28157,0.325948 0.269617,0.151449 0.619456,0.536506 0.619456,0.682381 -1.5e-5,0.141963 -0.204563,0.218722 -0.699234,0.262634 -0.484474,0.043 -0.511475,0.03619 -0.588955,-0.133662 -0.106344,-0.233222 -0.33341,-0.286013 -0.61007,-0.143042 -0.215052,0.111123 -0.231128,0.106615 -0.462241,-0.117247 -0.176203,-0.170699 -0.309427,-0.229806 -0.506827,-0.229806 -0.282494,-9e-6 -0.516318,-0.205635 -1.217797,-1.069297 -0.244493,-0.301018 -0.329279,-0.356433 -0.549055,-0.356433 -0.214204,-9e-6 -0.341834,-0.07884 -0.722697,-0.438505 -0.254555,-0.240388 -0.616167,-0.524403 -0.802484,-0.630792 -0.18631,-0.106399 -0.487425,-0.324613 -0.668726,-0.485405 -0.322485,-0.286019 -0.326517,-0.296841 -0.222914,-0.513544 0.05935,-0.124145 0.175362,-0.231028 0.265149,-0.243875 0.01432,-0.0021 0.03048,-0.0025 0.04693,-0.0023 z M 6.3989067,33.602636 c -0.038526,-9e-6 -0.091454,0.06629 -0.1173211,0.147732 -0.025882,0.08147 -0.1234555,0.208097 -0.2158708,0.281394 -0.09243,0.0733 -0.1937881,0.175872 -0.2252564,0.22746 -0.093369,0.153047 0.4056869,0.11727 0.5232482,-0.03752 0.1139347,-0.149996 0.1407703,-0.619067 0.0352,-0.619067 z"
     id="path2653"
     style="fill:url(#radialGradient2851);fill-opacity:1;stroke:none" />
  <path
     d="m 24.000942,0.42964322 c -12.203005,0 -22.0704383,9.86580978 -22.0704459,22.07067578 0,2.309859 0.370652,4.524539 1.0300827,6.61745 0.2684381,0.266171 0.5385506,0.526043 0.8188973,0.780869 0.3086163,0.280515 0.624531,0.55532 0.9432688,0.818387 0.315727,0.260603 0.6430771,0.514179 0.9807966,0.766799 0.3375092,0.252458 0.6757994,0.497024 1.0160042,0.726935 0.3435461,0.232156 0.6933843,0.455519 1.0511967,0.673001 0.356168,0.216486 0.7187407,0.423956 1.0863893,0.623757 0.369856,0.200996 0.741867,0.393718 1.1168965,0.574513 0.3772968,0.181886 0.7618318,0.356413 1.1497538,0.520579 0.383116,0.162137 0.774139,0.314882 1.175553,0.461955 0.396677,0.145331 0.800427,0.281767 1.206061,0.408021 0.405116,0.126091 0.812695,0.240331 1.227174,0.347053 0.415974,0.107106 0.833389,0.204839 1.252997,0.290774 0.423888,0.08681 0.849968,0.164582 1.276453,0.229805 0.425112,0.06502 0.858062,0.119467 1.297567,0.164147 0.436765,0.0444 0.875122,0.0761 1.316339,0.09849 0.445302,0.0226 0.890544,0.03517 1.335117,0.03517 0.444574,0 0.889823,-0.01258 1.335118,-0.03517 0.441217,-0.02239 0.879574,-0.05409 1.316338,-0.09849 0.439513,-0.04468 0.872471,-0.09913 1.297568,-0.164147 0.426485,-0.06522 0.852565,-0.142992 1.276453,-0.229805 0.419607,-0.08593 0.837023,-0.183668 1.252996,-0.290774 0.414472,-0.10672 0.822036,-0.220958 1.227175,-0.347053 0.405626,-0.126252 0.809361,-0.262685 1.20606,-0.408021 0.401407,-0.147069 0.79243,-0.299815 1.175554,-0.461955 0.387921,-0.164166 0.772456,-0.338693 1.149753,-0.520579 0.37503,-0.180795 0.747041,-0.373517 1.116897,-0.574513 0.367656,-0.199806 0.730251,-0.407283 1.086389,-0.623757 0.357813,-0.217482 0.707651,-0.440845 1.051197,-0.673001 0.340197,-0.229898 0.678487,-0.474469 1.016004,-0.726935 0.337727,-0.252628 0.6651,-0.506215 0.980797,-0.766799 0.318753,-0.263084 0.63466,-0.537882 0.943269,-0.818387 0.307482,-0.279491 0.605339,-0.56257 0.898675,-0.855907 0.291662,-0.291659 0.577888,-0.593754 0.85879,-0.902806 0.282126,-0.310381 0.554972,-0.623403 0.816555,-0.940325 0.261733,-0.317115 0.518758,-0.644856 0.769626,-0.98019 7.51e-4,-5.25e-4 -7.51e-4,-0.0018 0,-0.0023 0.247805,-0.33135 0.489189,-0.669814 0.722698,-1.015364 0.233418,-0.34541 0.459395,-0.696902 0.675769,-1.052882 0.217613,-0.358022 0.425337,-0.719866 0.624148,-1.085713 0.200433,-0.368813 0.393628,-0.742581 0.574877,-1.118541 0.182706,-0.378988 0.355064,-0.76036 0.518555,-1.146681 0.162823,-0.384749 0.318063,-0.777224 0.464592,-1.177165 0.07485,-0.204298 0.142542,-0.42057 0.21352,-0.633137 C 44.096557,8.4728531 35.005995,0.42964329 24.000942,0.42964322 z"
     id="path2650"
     style="opacity:0.09790213;fill:url(#linearGradient2848);fill-opacity:1;stroke:none" />
  <path
     d="m 21.953893,0.62663526 c 0.175294,-0.0160657 0.351565,-0.0276817 0.527948,-0.0398679 -0.222981,-0.0230743 -0.478445,-0.0459085 -0.635876,-0.0422091 0.06239,0.0131768 0.09476,0.0422466 0.107928,0.082077 z"
     id="path3965"
     style="fill:#94b2fd;fill-opacity:1;stroke:none" />
</svg>
