<?xml version="1.0" encoding="UTF-8" standalone="no"?>
<!-- Created with Inkscape (http://www.inkscape.org/) -->

<svg
   xmlns:svg="http://www.w3.org/2000/svg"
   xmlns="http://www.w3.org/2000/svg"
   xmlns:xlink="http://www.w3.org/1999/xlink"
   version="1.0"
   width="48"
   height="48"
   viewBox="0 0 48 48"
   id="svg3313">
  <defs
     id="defs3315">
    <linearGradient
       id="linearGradient3533">
      <stop
         id="stop3535"
         style="stop-color:#3a3a3a;stop-opacity:1"
         offset="0" />
      <stop
         id="stop3537"
         style="stop-color:#ffffff;stop-opacity:1"
         offset="1" />
    </linearGradient>
    <linearGradient
       id="linearGradient3624">
      <stop
         id="stop3628"
         style="stop-color:#398fe5;stop-opacity:1"
         offset="0" />
      <stop
         id="stop3630"
         style="stop-color:#acc1d5;stop-opacity:1"
         offset="1" />
    </linearGradient>
    <linearGradient
       id="linearGradient3615">
      <stop
         id="stop3619"
         style="stop-color:#ffffff;stop-opacity:1"
         offset="0" />
      <stop
         id="stop3621"
         style="stop-color:#398fe5;stop-opacity:1"
         offset="1" />
    </linearGradient>
    <radialGradient
       cx="82.9272"
       cy="578.88593"
       r="19.966738"
       fx="82.9272"
       fy="578.88593"
       id="radialGradient2333"
       xlink:href="#linearGradient3364"
       gradientUnits="userSpaceOnUse"
       gradientTransform="matrix(7.6237907,4.4015976,-5.0675166,8.7771962,2328.4492,-5270.6109)" />
    <linearGradient
       id="linearGradient3351">
      <stop
         id="stop3353"
         style="stop-color:#ffffff;stop-opacity:0.86734694"
         offset="0" />
      <stop
         id="stop3355"
         style="stop-color:#ffffff;stop-opacity:0"
         offset="1" />
    </linearGradient>
    <linearGradient
       id="linearGradient3364">
      <stop
         id="stop3366"
         style="stop-color:#007fff;stop-opacity:0.74509805"
         offset="0" />
      <stop
         id="stop3413"
         style="stop-color:#1c8eff;stop-opacity:0.74509805"
         offset="0.39285713" />
      <stop
         id="stop3368"
         style="stop-color:#1a4a7a;stop-opacity:0.74509805"
         offset="1" />
    </linearGradient>
    <linearGradient
       id="linearGradient6692">
      <stop
         id="stop6694"
         style="stop-color:#b8ff71;stop-opacity:1"
         offset="0" />
      <stop
         id="stop6700"
         style="stop-color:#66cc00;stop-opacity:1"
         offset="1" />
    </linearGradient>
    <radialGradient
       cx="317.86237"
       cy="249.47238"
       r="141.81195"
       fx="317.86237"
       fy="249.47238"
       id="radialGradient2331"
       xlink:href="#linearGradient6692"
       gradientUnits="userSpaceOnUse"
       gradientTransform="matrix(0.9225535,0.5499376,-0.6128212,1.0614374,210.79224,-49.879453)" />
    <radialGradient
       cx="333.362"
       cy="244.68217"
       r="179.38509"
       fx="333.362"
       fy="244.68217"
       id="radialGradient2335"
       xlink:href="#linearGradient4328"
       gradientUnits="userSpaceOnUse"
       gradientTransform="matrix(1.0565445,0,0,0.5952981,10.2201,208.24643)" />
    <linearGradient
       id="linearGradient4328">
      <stop
         id="stop4330"
         style="stop-color:#398fe5;stop-opacity:1"
         offset="0" />
      <stop
         id="stop4332"
         style="stop-color:#0066cc;stop-opacity:1"
         offset="1" />
    </linearGradient>
    <radialGradient
       cx="318.06638"
       cy="365.75668"
       r="179.50987"
       fx="318.06638"
       fy="365.75668"
       id="radialGradient2337"
       xlink:href="#linearGradient4328"
       gradientUnits="userSpaceOnUse"
       gradientTransform="matrix(1.0565445,0,0,0.5956187,10.2201,263.97431)" />
    <radialGradient
       cx="290.86432"
       cy="314.29395"
       r="130.08176"
       fx="290.86432"
       fy="314.29395"
       id="radialGradient3357"
       xlink:href="#linearGradient3351"
       gradientUnits="userSpaceOnUse"
       gradientTransform="matrix(1.4674635,0,0,1.0734203,-134.66628,-8.6146276)" />
    <radialGradient
       cx="298.10294"
       cy="315.40961"
       r="149.30214"
       fx="298.10294"
       fy="315.40961"
       id="radialGradient3361"
       xlink:href="#linearGradient3364"
       gradientUnits="userSpaceOnUse"
       gradientTransform="matrix(1.131046,0,0,1.131204,-29.352716,-17.655402)" />
    <radialGradient
       cx="317.86237"
       cy="249.47238"
       r="141.81195"
       fx="317.86237"
       fy="249.47238"
       id="radialGradient3373"
       xlink:href="#linearGradient6692"
       gradientUnits="userSpaceOnUse"
       gradientTransform="matrix(0.9225535,0.5499376,-0.6128212,1.0614374,-0.1554987,-133.93797)" />
    <radialGradient
       cx="333.362"
       cy="244.68217"
       r="179.38509"
       fx="333.362"
       fy="244.68217"
       id="radialGradient3375"
       xlink:href="#linearGradient4328"
       gradientUnits="userSpaceOnUse"
       gradientTransform="matrix(1.0565445,0,0,0.5952981,-200.72763,124.1879)" />
    <radialGradient
       cx="318.06638"
       cy="365.75668"
       r="179.50987"
       fx="318.06638"
       fy="365.75668"
       id="radialGradient3377"
       xlink:href="#linearGradient4328"
       gradientUnits="userSpaceOnUse"
       gradientTransform="matrix(1.0565445,0,0,0.5956187,-200.72763,179.91578)" />
    <radialGradient
       cx="333.362"
       cy="244.68217"
       r="179.38509"
       fx="333.362"
       fy="244.68217"
       id="radialGradient3383"
       xlink:href="#linearGradient4328"
       gradientUnits="userSpaceOnUse"
       gradientTransform="matrix(1.0565445,0,0,0.5952981,-200.72763,124.1879)" />
    <radialGradient
       cx="318.06638"
       cy="365.75668"
       r="179.50987"
       fx="318.06638"
       fy="365.75668"
       id="radialGradient3385"
       xlink:href="#linearGradient4328"
       gradientUnits="userSpaceOnUse"
       gradientTransform="matrix(1.0565445,0,0,0.5956187,-200.72763,179.91578)" />
    <radialGradient
       cx="298.10294"
       cy="315.40961"
       r="149.30214"
       fx="298.10294"
       fy="315.40961"
       id="radialGradient3392"
       xlink:href="#linearGradient3364"
       gradientUnits="userSpaceOnUse"
       gradientTransform="matrix(1.131046,0,0,1.131204,-29.352716,-17.655402)" />
    <radialGradient
       cx="317.86237"
       cy="249.47238"
       r="141.81195"
       fx="317.86237"
       fy="249.47238"
       id="radialGradient3394"
       xlink:href="#linearGradient6692"
       gradientUnits="userSpaceOnUse"
       gradientTransform="matrix(0.9225535,0.5499376,-0.6128212,1.0614374,210.79224,-49.879453)" />
    <radialGradient
       cx="290.86432"
       cy="314.29395"
       r="130.08176"
       fx="290.86432"
       fy="314.29395"
       id="radialGradient3396"
       xlink:href="#linearGradient3351"
       gradientUnits="userSpaceOnUse"
       gradientTransform="matrix(1.4674635,0,0,1.0734203,-134.66628,-8.6146276)" />
    <radialGradient
       cx="290.86432"
       cy="314.29395"
       r="130.08176"
       fx="290.86432"
       fy="314.29395"
       id="radialGradient3686"
       xlink:href="#linearGradient3351"
       gradientUnits="userSpaceOnUse"
       gradientTransform="matrix(1.4674635,0,0,1.0734203,-127.41403,-8.614628)" />
    <radialGradient
       cx="317.86237"
       cy="249.47238"
       r="141.81195"
       fx="317.86237"
       fy="249.47238"
       id="radialGradient3732"
       xlink:href="#linearGradient6692"
       gradientUnits="userSpaceOnUse"
       gradientTransform="matrix(0.9225535,0.5499376,-0.6128212,1.0614374,218.04449,-49.879453)"
       spreadMethod="reflect" />
    <radialGradient
       cx="298.10294"
       cy="315.40961"
       r="149.30214"
       fx="298.10294"
       fy="315.40961"
       id="radialGradient3813"
       xlink:href="#linearGradient3364"
       gradientUnits="userSpaceOnUse"
       gradientTransform="matrix(1.131046,0,0,1.131204,-22.100471,-17.655402)" />
    <radialGradient
       cx="298.66852"
       cy="309.10764"
       r="130.08176"
       fx="298.66852"
       fy="309.10764"
       id="radialGradient3969"
       xlink:href="#linearGradient3351"
       gradientUnits="userSpaceOnUse"
       gradientTransform="matrix(0.2436217,0.8776417,-1.1344403,0.3149057,586.4121,-25.658023)" />
    <radialGradient
       cx="317.86237"
       cy="249.47238"
       r="141.81195"
       fx="317.86237"
       fy="249.47238"
       id="radialGradient3976"
       xlink:href="#linearGradient6692"
       gradientUnits="userSpaceOnUse"
       gradientTransform="matrix(0.9225535,0.5499376,-0.6128212,1.0614374,218.04449,-49.879453)"
       spreadMethod="reflect" />
    <radialGradient
       cx="298.10294"
       cy="315.40961"
       r="149.30214"
       fx="298.10294"
       fy="315.40961"
       id="radialGradient3979"
       xlink:href="#linearGradient3364"
       gradientUnits="userSpaceOnUse"
       gradientTransform="matrix(1.131046,0,0,1.131204,-22.100471,-17.655402)" />
    <radialGradient
       cx="361.18896"
       cy="641.82562"
       r="143.60872"
       fx="361.18896"
       fy="641.82562"
       id="radialGradient3539"
       xlink:href="#linearGradient3533"
       gradientUnits="userSpaceOnUse"
       gradientTransform="matrix(1.2871291,0,0,0.588703,-103.70783,273.98098)" />
    <radialGradient
       cx="298.10294"
       cy="315.40961"
       r="149.30214"
       fx="298.10294"
       fy="315.40961"
       id="radialGradient4429"
       xlink:href="#linearGradient3364"
       gradientUnits="userSpaceOnUse"
       gradientTransform="matrix(1.131046,0,0,1.131204,-22.100471,282.3446)" />
    <radialGradient
       cx="298.10294"
       cy="315.40961"
       r="149.30214"
       fx="298.10294"
       fy="315.40961"
       id="radialGradient4466"
       xlink:href="#linearGradient3364"
       gradientUnits="userSpaceOnUse"
       gradientTransform="matrix(1.131046,0,0,0.5900932,-22.100471,489.57569)" />
    <radialGradient
       cx="374.42188"
       cy="655.5625"
       r="225.89062"
       fx="374.42188"
       fy="655.5625"
       id="radialGradient4475"
       xlink:href="#linearGradient3533"
       gradientUnits="userSpaceOnUse"
       gradientTransform="matrix(1.0526127,0,0,0.7540853,-19.699324,101.21241)" />
    <radialGradient
       cx="298.66852"
       cy="309.10764"
       r="130.08176"
       fx="298.66852"
       fy="309.10764"
       id="radialGradient2865"
       xlink:href="#linearGradient3351"
       gradientUnits="userSpaceOnUse"
       gradientTransform="matrix(0.2436217,0.8776417,-1.1344403,0.3149057,586.4121,-25.658023)" />
    <radialGradient
       cx="317.86237"
       cy="249.47238"
       r="141.81195"
       fx="317.86237"
       fy="249.47238"
       id="radialGradient2868"
       xlink:href="#linearGradient6692"
       gradientUnits="userSpaceOnUse"
       gradientTransform="matrix(0.9225535,0.5499376,-0.6128212,1.0614374,218.04449,-49.879453)"
       spreadMethod="reflect" />
    <radialGradient
       cx="298.10294"
       cy="315.40961"
       r="149.30214"
       fx="298.10294"
       fy="315.40961"
       id="radialGradient2871"
       xlink:href="#linearGradient3364"
       gradientUnits="userSpaceOnUse"
       gradientTransform="matrix(1.131046,0,0,1.131204,-22.100471,-17.655402)" />
    <radialGradient
       cx="298.66852"
       cy="309.10764"
       r="130.08176"
       fx="298.66852"
       fy="309.10764"
       id="radialGradient2870"
       xlink:href="#linearGradient3351"
       gradientUnits="userSpaceOnUse"
       gradientTransform="matrix(0.03924619,0.1413834,-0.18275244,0.05072963,272.47867,469.75484)" />
    <radialGradient
       cx="317.86237"
       cy="249.47238"
       r="141.81195"
       fx="317.86237"
       fy="249.47238"
       id="radialGradient2873"
       xlink:href="#linearGradient6692"
       gradientUnits="userSpaceOnUse"
       gradientTransform="matrix(0.14861858,0.08859202,-0.09872231,0.17099191,213.13656,465.8529)"
       spreadMethod="reflect" />
    <radialGradient
       cx="298.10294"
       cy="315.40961"
       r="149.30214"
       fx="298.10294"
       fy="315.40961"
       id="radialGradient2876"
       xlink:href="#linearGradient3364"
       gradientUnits="userSpaceOnUse"
       gradientTransform="matrix(0.18220564,0,0,0.18223094,174.45045,471.04402)" />
  </defs>
  <g
     transform="translate(-212.19409,-516.88878)"
     id="layer2" />
  <g
     transform="translate(-212.19409,-516.88878)"
     id="layer1">
    <g
       transform="matrix(0.99770279,0,0,0.99770673,0.48773373,1.2954425)"
       id="g3652">
      <path
         d="m 236.25024,516.7785 c -4.26593,0 -8.26594,1.12213 -11.74085,3.07329 -0.002,10e-4 -0.007,-0.001 -0.009,0 -2.24857,1.26349 -4.26023,2.88851 -5.98793,4.77969 -3.90863,4.27855 -6.31865,9.95387 -6.31865,16.20217 0,13.28005 10.78033,24.05512 24.05615,24.05513 0.41783,0 0.82329,-0.0399 1.23588,-0.061 0.6639,-0.034 1.31832,-0.0873 1.96695,-0.17414 6.0147,-0.80489 11.32735,-3.81745 15.08296,-8.21863 3.58588,-4.20224 5.76165,-9.64755 5.76165,-15.60141 0,-3.03845 -0.58114,-5.93304 -1.61013,-8.6104 -0.50466,-1.31315 -1.12843,-2.5703 -1.84511,-3.76107 -3.10596,-5.16057 -8.07853,-9.05341 -13.99504,-10.7434 -2.10039,-0.59995 -4.30508,-0.94028 -6.59716,-0.94028 z"
         id="path6109"
         style="fill:url(#radialGradient2876);fill-opacity:1;fill-rule:nonzero;stroke:none;display:inline" />
      <path
         d="m 232.84384,517.53603 c -0.0866,0 -0.22355,0.0158 -0.2823,0.0942 -0.0567,0.0756 -0.11114,0.17388 -0.1725,0.23525 -0.0368,0.0368 -0.0753,0.14118 -0.17252,0.14118 -0.0561,0 -0.24193,-0.0303 -0.28229,0 -0.0748,0.0561 -0.18024,0.10938 -0.20387,0.20391 -0.0303,0.12141 -0.13316,0.10179 -0.21954,0.1882 -0.0488,0.0488 -0.1628,0.13876 -0.23525,0.15688 -0.0947,0.0237 -0.17781,0.047 -0.28229,0.047 -0.0795,0 -0.18992,-0.0192 -0.26661,0 -0.12522,0.0313 -0.19078,0.14575 -0.29796,0.17253 -0.0975,0.0244 -0.14161,0.0634 -0.18821,0.12549 -0.0602,0.0802 -0.20012,0.12546 -0.29797,0.12546 -0.15026,0 -0.15679,0.0274 -0.26661,0.1098 -0.078,0.0585 -0.21434,0.0784 -0.31366,0.0784 -0.13334,0 -0.32225,0.004 -0.43911,0.0627 -0.0796,0.0398 -0.18505,0.0549 -0.21955,0.1412 -0.0551,0.13771 -0.10126,0.15256 -0.23525,0.21961 -0.0779,0.039 -0.24976,0.0929 -0.31366,0.1568 -0.0487,0.0488 -0.0758,0.22237 -0.14112,0.23531 0.005,0.003 0.10275,0.0884 0.12545,0.0941 0.0964,0.0241 0.2219,0.0157 0.32933,0.0157 0.12986,0 0.24319,0.0157 0.37638,0.0157 0.11453,0 0.18262,-0.0784 0.28229,-0.0784 0.1335,0 0.26639,-5e-5 0.39208,0.0314 0.10477,0.0262 0.2035,0.0627 0.31363,0.0627 0.11664,0 0.18237,-0.006 0.2823,-0.0314 0.12683,-0.0317 0.20321,-0.0253 0.26661,-0.10979 0.0558,-0.0744 0.10281,-0.12022 0.17251,-0.17255 0.0557,-0.0418 0.26663,-0.26664 0.31366,-0.26666 0.11688,0 0.20231,-0.0348 0.31364,-0.0627 0.0765,-0.0191 0.0795,-0.2037 0.15685,-0.18823 0.0454,0.009 0.13863,0.12221 0.18818,0.10979 0.0431,-0.0108 0.0965,-0.0225 0.14115,-0.0157 0.0447,0.007 0.0808,0.0409 0.0941,0.0941 0.0261,0.10453 0.0563,0.10118 0.10976,0.17254 0.0262,0.035 0.15646,0.18974 0.14114,0.25097 -0.0186,0.0746 -0.0364,0.19954 -0.0156,0.28231 0.0207,0.0831 0.0247,0.17494 0.0627,0.25097 0.0254,0.0508 0.0972,0.16911 0.10979,0.21958 0.0246,0.0983 0.0792,0.0957 0.12547,0.18823 0.0551,0.11019 0.0277,0.1582 -0.0157,0.26663 -0.0371,0.0928 -0.0912,0.2001 -0.0628,0.31371 0.006,0.0234 0.01,0.0549 0.0157,0.0784 0.0175,0.0702 0.0276,0.10818 0.047,0.12545 0.0194,0.0173 0.0468,0.0157 0.12543,0.0157 0.0926,0 0.22012,4.8e-4 0.26662,0.047 0.0629,0.0629 0.12548,0.0982 0.12548,0.18823 0,0.0648 -0.0358,0.23749 -0.0941,0.26664 -0.0422,0.0211 -0.17249,0.13435 -0.17249,0.2039 0,0.0874 0.0157,0.18596 0.0157,0.26664 0,0.0176 -0.004,0.0457 0,0.0628 0.026,0.10414 0.0482,0.23748 0.0941,0.32937 0.0361,0.0723 0.11721,0.1362 0.15683,0.23528 0.035,0.0875 0.0385,0.21808 0.0784,0.29802 0.0442,0.0883 0.0883,0.16099 0.12546,0.23526 0.044,0.088 0.0705,0.2587 0.14114,0.32941 0.0833,0.0833 0.11659,0.13978 0.18822,0.23526 0.0614,0.082 0.1395,0.18658 0.20384,0.25095 0.0572,0.0572 0.11545,0.13114 0.18823,0.2039 0.14977,0.14983 0.24021,0.23776 0.42341,0.3294 0.0938,0.0469 0.20281,0.0936 0.29797,0.14116 0.10756,0.0538 0.19848,0.12535 0.2823,0.18822 0.0953,0.0715 0.1944,0.17487 0.32935,0.14116 0.11695,-0.0293 0.29693,-0.007 0.40774,-0.0628 0.0365,-0.0182 0.0766,-0.0301 0.10977,-0.0627 0.0332,-0.0326 0.0614,-0.0811 0.0314,-0.14121 -0.0244,-0.0489 -0.0784,-0.12825 -0.0784,-0.20387 0,-0.12852 -0.0314,-0.24418 -0.0314,-0.37643 0,-0.0937 -0.006,-0.16582 0.0157,-0.25099 0.0168,-0.0673 0.0216,-0.16452 0,-0.25093 -0.0266,-0.10637 -0.005,-0.20822 -0.0314,-0.31372 -0.0219,-0.0876 -0.0157,-0.20048 -0.0157,-0.29799 0,-0.0914 -0.005,-0.16738 0.0157,-0.25096 0.0246,-0.0983 0.0157,-0.20072 0.0157,-0.29802 0,-0.0834 -0.014,-0.17601 0.0157,-0.23528 0.0303,-0.0606 0.0699,-0.20629 0.15683,-0.2353 0.0734,-0.0244 0.32935,-0.0799 0.32935,-0.1725 0,-0.1033 -0.01,-0.18043 -0.0314,-0.26665 -0.0248,-0.0991 -0.0898,-0.19679 -0.0314,-0.3137 0.0672,-0.1344 0.19869,-0.17084 0.2823,-0.28233 0.0476,-0.0635 0.13002,-0.13004 0.20384,-0.20392 0.0555,-0.0555 0.17734,-0.10369 0.2039,-0.15684 0.0344,-0.0688 0.0784,-0.17126 0.0784,-0.25097 0,-0.0562 0.0244,-0.25443 -0.0314,-0.28233 -0.0812,-0.0406 -0.1725,-0.0263 -0.1725,-0.12547 0,-0.0659 0.0711,-0.21846 0.0471,-0.26665 -0.038,-0.0761 -0.0805,-0.14167 -0.20389,-0.17252 -0.0973,-0.0243 -0.231,-0.0431 -0.32932,-0.0627 -0.0596,-0.0119 -0.19505,-0.0294 -0.21956,-0.0784 -0.0279,-0.0559 -0.0552,-0.20801 -0.10977,-0.2353 -0.089,-0.0445 -0.18948,-0.047 -0.298,-0.047 -0.0274,0 -0.36581,-0.0811 -0.25089,-0.10977 0.11423,-0.0286 0.11085,-0.0492 0.1568,-0.14119 0.0261,-0.0522 0.0785,-0.14109 0.0314,-0.2039 -0.0656,-0.0875 -0.15494,-0.1236 -0.21956,-0.18823 -0.0858,-0.0858 -0.28446,-0.12547 -0.40775,-0.12547 -0.0176,0 -0.03,0.004 -0.0471,0 -0.0695,-0.0174 -0.13425,-0.0872 -0.18819,-0.14117 -0.0799,-0.08 -0.22475,-0.11502 -0.32934,-0.14115 -0.0791,-0.0198 -0.1276,-0.0868 -0.21955,-0.10982 -0.0907,-0.0226 -0.18792,-0.0234 -0.28229,-0.047 -0.12322,-0.0308 -0.2547,-0.0541 -0.3764,-0.0785 -0.0452,-0.009 -0.36426,-0.0326 -0.34502,-0.10977 0.0118,-0.0472 0.0724,-0.15684 0.14114,-0.15684 0.0944,0 0.20584,0.0185 0.29799,0 0.12026,-0.0241 0.24364,-0.0471 0.3764,-0.0471 0.1211,0 0.243,0.008 0.36067,0.0314 0.14708,0.0294 0.31,0.0108 0.45482,0.0471 0.11376,0.0284 0.28903,0.0471 0.40774,0.0471 0.16723,0 0.36202,-0.0157 0.53323,-0.0157 0.26155,0 0.49517,-0.0627 0.75276,-0.0627 0.14904,0 0.2,-0.0909 0.31366,-0.10979 0.0576,-0.01 0.10661,-0.0262 0.12545,-0.0471 0.0189,-0.0208 0.002,-0.0425 -0.0784,-0.0627 -0.0984,-0.0246 -0.21179,0.01 -0.31365,-0.0157 -0.0765,-0.0191 -0.19815,-0.047 -0.28228,-0.047 -0.12103,0 -0.22464,-0.0157 -0.34502,-0.0157 -0.0862,0 -0.1639,0.0253 -0.25091,0.047 -0.11464,0.0287 -0.22478,0 -0.34503,0 -0.1231,0 -0.25332,0 -0.3764,0 -0.16851,0 -0.34549,-0.0313 -0.50185,-0.0313 -0.1019,0 -0.20158,-0.0157 -0.28229,-0.0157 -0.16021,0 -0.34593,-4.8e-4 -0.47049,-0.0627 -0.11612,-0.0581 -0.20036,-0.0933 -0.32934,-0.1255 -0.0596,-0.0149 -0.19786,-0.17255 -0.25092,-0.17255 z m 10.00562,0.18823 c -0.19657,0.041 -0.39953,0.0646 -0.58026,0.10983 -0.22863,0.0572 -0.36959,0.16245 -0.58025,0.10977 -0.14657,-0.0366 -0.28576,-0.0477 -0.43913,-0.0784 0.0498,0.0498 0.0258,0.11473 -0.0157,0.17253 -0.0415,0.0578 -0.1095,0.10178 -0.14115,0.12549 -0.005,0.003 -0.3616,0.0434 -0.37639,0.0471 -0.085,0.0212 -0.0519,0.0784 0,0.14116 0.0519,0.0628 0.13139,0.11912 0.15685,0.12547 0.19392,0.0485 0.43864,0.16444 0.61161,0.25095 0.0744,0.0372 0.10915,0.0666 0.12545,0.10981 0.0163,0.0432 0.0143,0.10415 0.0314,0.17254 0.0337,0.13497 0.0535,0.17572 0.17252,0.23528 0.10412,0.0521 0.33778,0.0628 0.45479,0.0628 0.18958,0 0.46993,0.0939 0.61163,0.14114 0.11945,0.0398 0.29683,0.17141 0.37638,0.25096 0.0826,0.0827 0.16143,0.13159 0.25094,0.25098 0.10366,0.13822 0.20855,0.21406 0.34501,0.2823 0.11795,0.059 0.30236,0.0571 0.37639,0.0941 0.13469,0.0674 0.29836,0.17295 0.39208,0.26666 0.11053,0.11058 0.19838,0.21407 0.28227,0.29802 0.10897,0.10899 0.13513,0.23076 0.26661,0.32939 0.13459,0.10098 0.24264,0.17991 0.34504,0.28234 0.11876,0.11876 0.22487,0.17782 0.32934,0.2823 0.0822,0.0822 0.16354,0.20164 0.29797,0.23529 0.18288,0.0457 0.2992,-0.0709 0.45481,-0.10979 0.0762,-0.0191 0.35214,0.26804 0.39205,0.29803 0.0925,0.0693 0.18182,0.20683 0.21958,0.28232 0.0429,0.0859 0.18841,0.20415 0.25092,0.26664 0.12084,0.12086 0.14955,0.14537 0.29797,0.21958 0.0608,0.0304 0.1302,0.0354 0.18817,0.0157 0.058,-0.0197 0.098,-0.0626 0.10979,-0.10982 0.0328,-0.13108 0.0831,-0.20099 0.047,-0.34504 -0.0212,-0.0849 -0.008,-0.18152 0.0314,-0.25096 0.0395,-0.0694 0.1036,-0.10505 0.21958,-0.0471 0.0828,0.0415 0.13556,0.17703 0.17252,0.25098 0.0521,0.10432 0.12545,0.24228 0.12545,0.39208 0,0.13301 0,0.21975 0,0.36079 0,0.0571 0.65961,0.42441 0.67436,0.43919 0.0846,0.0845 0.19852,0.13758 0.29795,0.20388 0.10947,0.073 0.1802,0.14501 0.32934,0.2196 0.0846,0.0423 0.13016,0.12075 0.15685,0.2039 0.0267,0.0831 0.033,0.16616 0.0157,0.23527 -0.0194,0.0775 0.0462,0.25454 0.0157,0.37645 -0.0236,0.0946 -0.0411,0.16952 -0.0314,0.21959 0.01,0.0501 0.0501,0.0721 0.15682,0.12546 0.15473,0.0774 0.21321,0.20011 0.37639,0.29802 0.0854,0.0512 0.1523,0.64968 0.20388,0.75289 0.0594,0.11887 0.12614,0.27956 0.0941,0.40781 -0.0348,0.13917 -0.0941,0.24243 -0.0941,0.39212 0,0.10668 -0.0836,0.25611 -0.10978,0.36075 -0.0249,0.0999 -0.0724,0.20528 -0.0941,0.28233 -0.0217,0.077 -0.0177,0.12783 0.0941,0.17253 0.14527,0.0581 0.38432,0.12548 0.5332,0.12548 0.15754,0 0.31302,0 0.47049,0 0.0748,0 0.15031,0.15016 0.21956,0.3137 0.0693,0.16355 0.12747,0.3394 0.14117,0.40782 0.029,0.14517 0.067,0.20814 0.15681,0.29801 0.11781,0.11786 0.29003,0.21918 0.32935,0.37643 0.0448,0.17954 0.1068,0.22548 0.0314,0.37645 -0.0367,0.0735 -0.29442,0.13154 -0.37638,0.17253 -0.11766,0.0588 -0.3154,0.0803 -0.48617,0.12549 -0.0854,0.0226 -0.16289,0.0556 -0.21957,0.0941 -0.0566,0.0385 -0.0941,0.0895 -0.0941,0.15685 0,0.15354 0.0618,0.21773 0.12548,0.34506 0.0693,0.1386 0.13329,0.24567 0.21955,0.36076 0.0141,0.0187 0.0305,0.0462 0.0471,0.0627 0.0957,0.0957 0.0856,0.24484 0.17253,0.36075 0.11984,0.15993 0.17901,0.29537 0.26657,0.47057 0.0843,0.16866 0.27461,0.29833 0.37639,0.50188 0.0569,0.11376 0.15685,0.33038 0.15685,0.48626 0,0.12298 0.0649,0.24388 0.0941,0.36076 0.0223,0.0891 0.11274,0.1757 0.20388,0.23528 0.0912,0.0596 0.18352,0.10468 0.26661,0.12547 0.14676,0.0367 0.31699,0.0157 0.47049,0.0157 0.16254,0 0.26212,-0.047 0.40774,-0.047 0.084,0 0.20306,-0.2185 0.25093,-0.28235 0.10479,-0.13975 0.16578,-0.22397 0.20387,-0.37642 0.0205,-0.0822 0.0419,-0.16422 0.0471,-0.251 0.005,-0.0867 -0.0115,-0.16825 -0.0784,-0.23524 -0.0571,-0.0571 -0.0668,-0.11338 -0.0627,-0.17257 0.004,-0.0591 0.0218,-0.11793 0.0627,-0.17251 0.022,-0.0293 0.0314,-0.40517 0.0314,-0.4235 0,-0.0152 -0.19916,-0.26557 -0.23523,-0.31369 -0.0881,-0.11748 -0.1104,-0.26779 -0.17253,-0.39213 -0.067,-0.13408 -0.0784,-0.25177 -0.0784,-0.42349 0,-0.13265 0,-0.25945 0,-0.39213 0,-0.17943 -0.0821,-0.23889 -0.17253,-0.32937 -0.0952,-0.0952 -0.0913,-0.17721 -0.12544,-0.31371 -0.0234,-0.0937 -0.0126,-0.14856 0.0157,-0.18821 0.0283,-0.0397 0.0829,-0.0661 0.14114,-0.10981 0.0965,-0.0724 0.12547,-0.2251 0.12547,-0.34504 -2e-5,-0.0866 -0.0272,-0.17419 -0.0314,-0.2353 -0.004,-0.0611 0.009,-0.10821 0.0784,-0.12546 0.0635,-0.0159 0.13549,0.0364 0.18818,0.0941 0.0527,0.0577 0.0882,0.12812 0.10977,0.15686 0.0817,0.10897 0.0984,0.17185 0.2039,0.25095 0.14166,0.1063 0.3484,0.15853 0.47049,0.21961 0.12908,0.0646 0.24714,0.13045 0.34501,0.20389 0.12128,0.091 0.22254,0.17553 0.29796,0.25094 0.072,0.072 0.093,0.21293 0.15685,0.29803 0.0669,0.0892 0.14196,0.11058 0.21955,0.18824 0.0837,0.0838 0.13134,0.24706 0.17252,0.32937 0.0456,0.0913 0.0774,0.12667 0.10975,0.12547 0.0324,-10e-4 0.0727,-0.0442 0.14116,-0.0784 0.0433,-0.0217 -0.0674,-0.34805 -0.0784,-0.39213 -0.0306,-0.12257 -0.20351,-0.29721 -0.25092,-0.39212 -0.0506,-0.10127 -0.0343,-0.14459 0,-0.14118 0.0342,0.003 0.0901,0.0431 0.12545,0.0784 0.10375,0.10377 0.20275,0.13889 0.28229,0.29802 0.0344,0.0689 0.16544,0.16545 0.23525,0.23528 0.10221,0.10226 0.088,0.19538 0.12545,0.34509 0.0133,0.053 0.0463,0.0656 0.0784,0.0627 0.0321,-0.003 0.072,-0.0292 0.1098,-0.0627 0.0756,-0.067 0.15338,-0.16572 0.17249,-0.2039 0.0469,-0.0938 0.0609,-0.19851 0.0941,-0.29803 0.0432,-0.12963 0.0221,-0.24153 -0.0157,-0.34507 -0.0378,-0.10355 -0.10101,-0.19762 -0.14117,-0.29802 -0.0359,-0.0898 -0.0914,-0.16806 -0.14114,-0.25097 -0.1508,-0.25136 -0.27567,-0.48862 -0.40773,-0.75286 -0.006,-0.0129 -0.009,-0.0184 -0.0157,-0.0314 -3.10595,-5.16055 -8.07253,-9.0542 -13.98905,-10.7442 z m -15.3064,2.07041 c -0.0789,0 -0.20488,0.14955 -0.25091,0.17257 -0.10098,0.0505 -0.20642,0.16657 -0.298,0.23525 -0.0952,0.0715 -0.17579,0.13577 -0.26658,0.20391 -0.10361,0.0777 -0.17234,0.0941 -0.32935,0.0941 -0.14894,4e-5 -0.15228,0.0683 -0.26661,0.12549 -0.13373,0.0669 -0.25737,0.27951 -0.31366,0.3921 -0.053,0.10612 -0.12914,0.23894 -0.18818,0.29802 -0.0718,0.0718 -0.19973,0.11553 -0.28229,0.15686 -0.0985,0.0492 -0.0627,0.24359 -0.0627,0.34506 0,0.0678 -0.26432,0.0784 -0.28229,0.0784 -0.036,0 -0.2444,-0.30718 -0.26661,-0.32941 -0.11092,-0.11097 -0.0532,-0.13092 -0.21956,-0.17254 -0.0901,-0.0225 -0.1633,-0.0148 -0.20388,-0.0314 -0.0406,-0.0165 -0.0627,-0.0609 -0.0627,-0.17252 0,-0.12101 0.14484,-0.17624 0.20387,-0.23529 0.0718,-0.0718 0.21305,-0.12222 0.28229,-0.15684 0.10089,-0.0505 0.14343,-0.14342 0.21955,-0.2196 0.0945,-0.0946 0.10979,-0.20332 0.10979,-0.34507 0,-0.0442 -0.22313,-0.13509 -0.26662,-0.15684 -0.0996,-0.0498 -0.1628,-0.15983 -0.28228,-0.2196 -0.002,0.001 -0.0135,-10e-4 -0.0157,0 -2.24855,1.26347 -4.26314,2.87706 -5.99082,4.76823 -0.0193,0.0969 -0.0283,0.21342 -0.0627,0.28232 -0.0658,0.13177 -0.15822,0.15825 -0.25093,0.25099 -0.0694,0.0694 -0.10625,0.19915 -0.15681,0.26665 -0.0728,0.0971 -0.18323,0.13618 -0.26661,0.21957 -0.0808,0.0808 -0.0784,0.26467 -0.0784,0.37646 0,0.10579 0.0468,0.14474 0.0941,0.14114 0.0473,-0.004 0.0885,-0.0514 0.12548,-0.12547 0.0458,-0.0916 0.27523,-0.2339 0.3607,-0.29802 0.11726,-0.088 0.28424,-0.14505 0.34501,-0.26664 0.0549,-0.1099 0.10734,-0.17841 0.14115,-0.31369 0.0449,-0.17978 0.14432,-0.2573 0.23523,-0.43922 0.0325,0.10154 0.0856,0.22678 0.1882,0.32941 0.0469,0.047 0.0689,0.11496 0.0627,0.17255 -0.006,0.0576 -0.0403,0.11202 -0.0627,0.15681 -0.0353,0.0707 -0.17731,0.17734 -0.25093,0.25099 -0.0892,0.0892 -0.13825,0.0883 -0.18818,0.18824 -0.0539,0.10786 -0.14352,0.13485 -0.17251,0.25092 -0.0271,0.10845 -0.0827,0.18956 -0.10977,0.298 -0.0387,0.15483 -0.013,0.24829 -0.12548,0.36078 -0.0763,0.0763 -0.11941,0.22672 -0.14116,0.31372 -0.0385,0.15431 -0.10781,0.19456 -0.20386,0.2666 -0.10469,0.0786 -0.1425,0.24067 -0.17252,0.3608 -0.0393,0.15718 -0.2263,0.32711 -0.29797,0.47054 -0.0616,0.12319 -0.10993,0.14145 -0.1725,0.26666 -0.0435,0.087 -0.0497,0.23037 -0.0784,0.34504 -0.0318,0.1273 -0.10345,0.24773 -0.18819,0.36075 -0.014,0.0188 -0.0461,0.0305 -0.0627,0.0471 -0.0837,0.0838 -0.14114,0.27704 -0.14114,0.39213 0,0.10713 -0.14446,0.29555 -0.17251,0.4078 -0.0382,0.1527 -0.0681,0.27742 -0.12549,0.39211 -0.0708,0.14158 -0.13779,0.19722 -0.20387,0.32939 -0.0727,0.14544 -0.11506,0.23018 -0.1725,0.34508 -0.0461,0.0924 -0.047,0.2249 -0.047,0.34509 0,0.10564 -0.0368,0.27275 -0.0627,0.37641 -0.0287,0.11493 0,0.27347 0,0.39215 0,0.15374 -0.055,0.24318 -0.14116,0.32937 -0.101,0.10103 -0.16561,0.1606 -0.20387,0.31372 -0.0242,0.0969 -0.089,0.22517 -0.14114,0.32934 -0.0689,0.1379 -0.0773,0.21805 -0.17253,0.34509 -0.0718,0.0958 -0.12388,0.24464 -0.15682,0.37643 -0.035,0.14005 -0.0464,0.24954 -0.10977,0.37644 -0.0639,0.12776 -0.0776,0.21638 -0.10978,0.34506 -0.0312,0.12479 -0.0836,0.21433 -0.12547,0.29804 -0.0605,0.12098 -0.0627,0.25076 -0.0941,0.37645 -0.0342,0.13707 -0.047,0.30162 -0.047,0.43913 0,0.12056 -0.0627,0.26783 -0.0627,0.40782 0,0.14463 -0.0151,0.2644 -0.047,0.39214 -0.0308,0.12318 -0.0157,0.25483 -0.0157,0.39212 0,0.19518 -0.047,0.38185 -0.047,0.58035 0,0.1526 0.0603,0.17835 0.0941,0.3137 0.0298,0.11922 0.0179,0.25975 0.047,0.3764 0.0143,0.057 0.0314,0.10343 0.0314,0.1726 0.0474,0.18967 0.17252,0.24574 0.17252,0.43915 0,0.15204 0.0159,0.22064 0.047,0.34508 0.0303,0.12136 0,0.28205 0,0.4078 0,0.12555 -0.0486,0.28839 -0.0784,0.40781 -0.004,0.0161 0,0.0304 0,0.047 0,0.15003 -0.047,0.30884 -0.047,0.47054 0,0.0461 0.0928,0.26411 0.12544,0.32939 0.0605,0.12109 0.0934,0.29529 0.12547,0.42354 0.0474,0.18953 0.10076,0.35378 0.1725,0.53326 0.0571,0.14281 0.0639,0.25393 0.12546,0.40777 0.0403,0.10064 -0.006,0.28899 0.0157,0.37646 0.0306,0.12219 0.0314,0.26533 0.0314,0.39212 0,0.14293 0.0314,0.25615 0.0314,0.39211 -2e-5,0.13581 0.0169,0.25583 0.047,0.37644 0.0361,0.14436 0.0157,0.25099 0.0627,0.34507 0.0796,0.15922 0.15426,0.19366 0.18819,0.32941 0.0339,0.13578 0.0808,0.26046 0.10979,0.37642 0.0339,0.13574 0.17199,0.24903 0.20386,0.37646 0.0438,0.17516 0.20239,0.33112 0.28228,0.5176 0.0495,0.11546 0.0502,0.25716 0.0941,0.34507 0.0417,0.0833 0.23427,0.1561 0.29796,0.2039 0.0595,0.0446 0.0592,0.0949 0.0784,0.14117 0.0192,0.0463 0.0512,0.0873 0.14115,0.10979 0.10773,0.0269 0.1788,0.1341 0.25091,0.1882 0.095,0.0713 -0.0496,-0.22991 -0.0784,-0.34505 -0.0326,-0.13025 -0.16333,-0.26699 -0.21957,-0.36075 -0.0526,-0.0878 -0.007,-0.29694 -0.0471,-0.37645 -0.0647,-0.12949 -0.12276,-0.24018 -0.15684,-0.37643 -0.0362,-0.14502 -0.10505,-0.2792 -0.14113,-0.42351 -0.0368,-0.14725 -0.0926,-0.24787 -0.15682,-0.37642 -0.0768,-0.15372 -0.1725,-0.2101 -0.1725,-0.39214 0,-0.11688 -0.0897,-0.32052 -0.14115,-0.42348 -0.0542,-0.10835 -0.0314,-0.32651 -0.0314,-0.45487 0,-0.12604 -0.0471,-0.22904 -0.0471,-0.36074 0,-0.15555 -0.0425,-0.31121 -0.0784,-0.45487 -0.033,-0.13215 -0.0784,-0.25033 -0.0784,-0.39214 0,-0.10482 0.0274,-0.14029 0.047,-0.12548 0.0196,0.0148 0.0314,0.0834 0.0314,0.17257 0,0.0976 0.13235,0.19988 0.15685,0.29799 0.0346,0.13831 0.0587,0.282 0.0941,0.4235 0.0278,0.11128 -0.0303,0.27075 0,0.39215 0.0347,0.13888 0.1098,0.21938 0.1098,0.37641 0,0.13113 0.047,0.22642 0.047,0.34509 0,0.0858 0.10411,0.25956 0.12547,0.34506 0.0336,0.13463 0.0608,0.27469 0.0941,0.40781 0.0282,0.11264 0.0924,0.25967 0.12547,0.39212 0.0269,0.10762 0.0941,0.24045 0.1725,0.34505 0.0682,0.091 0.0813,0.25664 0.12549,0.34507 0.0702,0.14046 0.10392,0.22355 0.17249,0.36076 0.0556,0.1113 0.0965,0.19802 0.12547,0.3137 0.0327,0.13091 0.14646,0.30862 0.20387,0.4235 0.0547,0.1093 0.11603,0.22895 0.14116,0.32938 0.0371,0.14839 0.0731,0.31883 0.14114,0.45486 0.055,0.11013 0.10898,0.21799 0.15682,0.31371 0.0685,0.13697 0.15809,0.23648 0.25092,0.32939 0.11341,0.1134 0.2708,0.16816 0.40774,0.23524 0.13697,0.0671 0.24719,0.14179 0.28229,0.28234 0.0304,0.12146 0.12932,0.25865 0.17252,0.34508 0.0639,0.12776 0.18389,0.24665 0.28229,0.34507 0.26035,0.26042 0.48004,0.53803 0.81552,0.70584 0.1136,0.0568 0.18913,0.0904 0.32935,0.12546 0.1414,0.0354 0.25641,0.0498 0.37637,0.10979 0.12095,0.0605 0.2334,0.0784 0.3764,0.0784 0.0569,0 0.20049,0.13245 0.29797,0.15684 0.0869,0.0217 0.22756,-0.0294 0.34501,0 0.16148,0.0404 0.21257,-0.10371 0.37639,-0.0627 0.15168,0.0379 0.38413,0.38616 0.51751,0.48621 0.11814,0.0886 0.24116,0.18206 0.37641,0.29802 0.12368,0.10606 0.20966,0.16616 0.36069,0.20391 0.12033,0.0301 0.18749,0.0467 0.28229,0.0941 0.10149,0.0508 0.27204,0.0157 0.39209,0.0157 0.11504,0 0.23032,0.16762 0.29797,0.23529 0.16074,0.16078 0.34989,0.25222 0.45478,0.39213 0.0922,0.1229 0.14491,0.28608 0.25093,0.39211 0.0954,0.0954 0.22924,0.21356 0.34503,0.3294 0.0958,0.0958 0.20512,0.16187 0.23523,0.28227 0.0322,0.12887 0.18687,0.18758 0.2823,0.23531 0.10518,0.0526 0.24699,0.0853 0.34503,0.10978 0.0875,0.0219 0.22891,0.21488 0.29796,0.26666 0.0527,0.0395 0.32299,-0.0314 0.40776,-0.0314 0.11046,0 0.24608,0.16085 0.31367,0.25096 0.077,0.1027 0.1249,0.1882 0.26658,0.1882 0.14597,0 0.26814,-0.0642 0.3607,-0.15687 0.0734,-0.0734 0.0941,-0.27267 0.0941,-0.37641 0,-0.0964 0.24905,0.1236 0.29798,0.17255 0.0765,0.0765 0.17684,0.19254 0.23525,0.25094 0.11032,0.11035 0.26053,0.25448 0.31366,0.36076 0.0533,0.10661 0.0224,0.24872 0.0784,0.36076 0.0626,0.12524 0.11364,0.19854 0.18821,0.29799 0.0795,0.10603 0.0784,0.19149 0.0784,0.36076 0,0.13616 0.0314,0.24366 0.0314,0.37644 0,0.1161 -0.0992,0.16142 -0.12546,0.26666 -0.0315,0.12591 -0.0784,0.21385 -0.0784,0.37644 0,0.11274 -0.20386,0.22609 -0.20386,0.39212 0,0.1255 0.12579,0.31508 0.1568,0.43916 0.0356,0.14239 0.0753,0.32313 0.14117,0.45489 0.0759,0.15187 0.19365,0.13158 0.23522,0.29801 0.0357,0.14287 0.0448,0.28912 0.0784,0.42348 0.0316,0.12655 0.11096,0.17721 0.14115,0.29802 0.0263,0.10516 0.10706,0.20119 0.17252,0.26665 0.0808,0.0809 0.21866,0.16053 0.32931,0.18821 0.20053,0.0501 0.27472,0.13102 0.3764,0.26666 0.0893,0.11911 0.1344,0.24588 0.26659,0.34508 0.13147,0.0986 0.18958,0.11111 0.28229,0.20388 0.0212,0.0211 0.0379,0.0305 0.0628,0.047 0.12509,0.0834 0.15963,0.1896 0.31366,0.26666 0.12496,0.0625 0.23201,0.1674 0.34501,0.23527 0.14326,0.086 0.21804,0.14822 0.36071,0.21958 0.1228,0.0614 0.21715,0.17915 0.32935,0.23528 0.12207,0.0611 0.21242,0.11149 0.36069,0.14116 0.12007,0.024 0.27403,0.0685 0.37641,0.0941 0.15545,0.0389 0.3047,0.0661 0.42342,0.12547 0.11155,0.0558 0.23359,0.18656 0.29796,0.251 0.0927,0.0927 0.24791,0.16314 0.36073,0.21954 0.0851,0.0426 0.20267,0.11705 0.28227,0.15689 0.15857,0.0793 0.22093,0.19313 0.36072,0.29798 0.10767,0.0808 0.18124,0.18129 0.26659,0.26664 0.10404,0.10411 0.16691,0.24537 0.25093,0.32936 0.10026,0.10035 0.14221,0.2082 0.17252,0.3294 0.038,0.15215 0.14289,0.23878 0.20387,0.3608 0.0601,0.12023 0.23314,0.19058 0.31365,0.298 0.0781,0.10413 0.23059,0.15219 0.31365,0.23526 0.10904,0.10907 0.20468,0.14221 0.29799,0.26666 0.0907,0.12093 0.1878,0.15642 0.25091,0.21959 0.0892,0.0892 0.21817,0.13261 0.29796,0.17252 0.024,0.012 0.0388,0.0223 0.0628,0.0314 0.66387,-0.034 1.31169,-0.0857 1.96033,-0.17257 0.005,-0.0125 0.0277,-0.0165 0.0314,-0.0313 0.0413,-0.16539 0.24311,-0.29415 0.32932,-0.4235 0.0892,-0.13382 0.23063,-0.14965 0.34501,-0.17253 0.13606,-0.0272 0.19632,-0.11794 0.29797,-0.21958 0.10371,-0.10377 0.20287,-0.20255 0.29798,-0.32938 0.0938,-0.12512 0.1275,-0.21188 0.20388,-0.31369 0.0904,-0.12054 0.10938,-0.2345 0.17251,-0.36078 0.0722,-0.14454 0.14858,-0.25469 0.26662,-0.31371 0.13731,-0.0687 0.17681,-0.17359 0.29797,-0.20388 0.16198,-0.0405 0.23221,-0.10513 0.37636,-0.14118 0.11682,-0.0292 0.309,-0.30903 0.37641,-0.37644 0.099,-0.099 0.16638,-0.16434 0.26659,-0.29803 0.037,-0.0493 0.0669,-0.11395 0.10979,-0.15685 0.0332,-0.0415 0.061,-0.0683 0.0941,-0.1098 0.0556,-0.0696 0.0582,-0.29539 0.0784,-0.37643 0.0288,-0.11526 0.0875,-0.26903 0.14117,-0.37646 0.0552,-0.11036 0.037,-0.26219 0.0941,-0.37642 0.0635,-0.127 0.10345,-0.23829 0.15685,-0.34507 0.0597,-0.11936 0.0195,-0.25861 0.0784,-0.37643 0.0606,-0.12114 0.0967,-0.24055 0.14116,-0.32938 0.0636,-0.12724 0.0405,-0.16923 0.20384,-0.25096 0.0873,-0.0436 0.17699,-0.19266 0.25094,-0.26663 0.069,-0.0691 0.10751,-0.27774 0.14117,-0.34508 0.0588,-0.11766 0.20634,-0.22206 0.28228,-0.29804 0.06,-0.0601 0.11674,-0.19517 0.17251,-0.25094 0.0667,-0.0667 0.0771,-0.26152 0.0941,-0.3294 0.0271,-0.10821 0.0195,-0.23498 0.0471,-0.34506 0.0303,-0.12128 -0.0881,-0.21359 -0.14117,-0.26666 -0.10066,-0.10066 -0.16802,-0.23187 -0.29796,-0.32939 -0.11176,-0.0838 -0.18965,-0.12691 -0.25092,-0.18819 -0.0806,-0.0806 -0.2237,-0.11968 -0.32938,-0.17252 -0.0902,-0.0451 -0.17241,-0.0627 -0.31364,-0.0627 -0.13261,0 -0.27512,0 -0.40774,0 -0.14303,0 -0.2184,0.0313 -0.34503,0.0313 -0.13514,2e-5 -0.22562,0.0314 -0.36068,0.0314 -0.12434,0 -0.25209,0 -0.37639,0 -0.11254,0 -0.19744,-0.0627 -0.32936,-0.0627 -0.13514,0 -0.14725,-0.0918 -0.21955,-0.18823 -0.0647,-0.0864 -0.23638,-0.10979 -0.34502,-0.10979 -0.14741,0 -0.28385,-0.0157 -0.45479,-0.0157 -0.19748,0 -0.23022,0.0524 -0.37641,0.12549 -0.10343,0.0517 -0.20228,0.12389 -0.26661,0.18823 -0.0749,0.0749 -0.24035,0.12125 -0.32932,0.15685 -0.11696,0.0468 -0.26623,0.0275 -0.3764,0 -0.075,-0.0188 -0.0981,-0.0683 -0.10977,-0.1255 -0.0117,-0.0571 0,-0.1291 0,-0.2039 0,-0.14523 0.0854,-0.21088 0.17251,-0.29799 0.0566,-0.0567 0.047,-0.25688 0.047,-0.34508 0,-0.17526 0.019,-0.19724 -0.047,-0.32938 -0.0567,-0.11344 -0.17193,-0.15628 -0.23526,-0.21959 -0.075,-0.0751 -0.13157,-0.21005 -0.20386,-0.28233 -0.0691,-0.0691 -0.14101,-0.20361 -0.1882,-0.298 -0.0468,-0.0936 -0.17987,-0.14484 -0.26661,-0.18825 -0.10786,-0.0539 -0.27204,-0.0719 -0.36069,-0.0941 -0.10845,-0.0271 -0.26396,0 -0.37641,0 -0.1243,0 -0.23637,0 -0.36069,0 -0.13283,0 -0.23569,0.0314 -0.36071,0.0314 -0.0937,0 -0.18396,0.0627 -0.31366,0.0627 -0.10221,0 -0.19681,-0.14216 -0.26659,-0.23527 -0.0915,-0.12199 -0.2037,-0.14093 -0.28228,-0.21958 -0.0839,-0.0839 -0.18523,-0.10681 -0.25095,-0.17253 -0.0778,-0.0779 -0.29111,-0.11593 -0.39205,-0.14116 -0.14834,-0.0371 -0.27252,-0.0736 -0.3764,-0.12549 -0.1431,-0.0716 -0.14853,-0.14026 -0.21955,-0.28234 -0.0605,-0.12091 -0.1098,-0.18766 -0.1098,-0.31367 0,-0.0999 -0.0609,-0.26313 -0.0941,-0.32939 -0.0239,-0.0479 -0.0633,-0.10024 -0.0784,-0.1255 -0.0486,-0.0971 -0.007,-0.15084 0.0157,-0.1882 0.0224,-0.0374 0.0303,-0.0552 -0.0627,-0.0784 -0.0113,-0.003 -0.22874,0.20294 -0.25093,0.2196 -0.0991,0.0743 -0.17361,0.0591 -0.31368,0.0941 -0.2066,0.0517 -0.22845,0.0426 -0.40773,-0.0471 -0.0746,-0.0373 -0.0869,-0.0816 -0.10978,-0.10978 -0.0229,-0.0282 -0.0444,-0.0438 -0.15682,-0.0157 -0.11453,0.0286 -0.19967,0.10769 -0.29799,0.15686 -0.11096,0.0555 -0.16841,0.0675 -0.26661,0.14115 -0.10142,0.0761 -0.2826,0.13357 -0.37639,0.20392 -0.0865,0.0649 -0.31612,-0.0561 -0.36072,-0.0784 -0.1176,-0.0589 -0.12079,-0.26379 -0.14114,-0.34506 -0.0274,-0.10986 -0.0588,-0.12324 -0.0941,-0.0941 -0.0353,0.0291 -0.0782,0.10945 -0.10977,0.17253 -0.0405,0.0811 -0.0995,0.10398 -0.15682,0.10979 -0.0574,0.006 -0.10477,-0.005 -0.15685,-0.0314 -0.0147,-0.007 0.0157,-0.32955 0.0157,-0.37641 0,-0.0611 -0.19759,-0.22899 -0.21957,-0.25097 -0.0594,-0.0594 -0.0969,-0.045 -0.12546,0 -0.0285,0.0451 -0.0517,0.11917 -0.0784,0.17253 -0.0611,0.12223 -0.0637,0.27163 -0.0941,0.4235 -0.0257,0.12842 -0.0313,0.26263 -0.0313,0.39213 0,0.0897 -0.0777,0.15617 -0.14114,0.21959 -0.0589,0.0589 -0.0685,-0.0228 -0.0627,-0.14117 0.006,-0.11836 0.032,-0.26337 0.0157,-0.34506 -0.0264,-0.13213 -0.0774,-0.24678 -0.10978,-0.37643 -0.0269,-0.10775 -0.0216,-0.21576 -0.0627,-0.29803 -0.0392,-0.0785 -0.10827,-0.0131 -0.1725,0.0784 -0.0642,0.0915 -0.13097,0.21647 -0.15681,0.25095 -0.10021,0.13362 -0.31576,0.25896 -0.39207,0.36076 -0.0361,0.0481 -0.24063,0.12815 -0.29799,0.15684 -0.13181,0.0659 -0.29767,0.26249 -0.40774,0.34505 -0.10468,0.0786 -0.0941,0.30151 -0.0941,0.42352 -10e-6,0.15384 0.0515,0.13215 -0.0314,0.298 -0.0391,0.0782 -0.1022,0.0745 -0.15684,0.0471 -0.0546,-0.0274 -0.0889,-0.0732 -0.10977,-0.0941 -0.0872,-0.0872 -0.15504,-0.12503 -0.2823,-0.15685 -0.13901,-0.0348 -0.24698,0.0343 -0.36071,0.0627 -0.15373,0.0385 -0.29378,0.10485 -0.4391,0.1412 -0.11773,0.0294 -0.28818,-0.005 -0.39209,-0.0314 -0.088,-0.022 -0.17165,-0.1403 -0.25092,-0.21958 -0.1,-0.10002 -0.13446,-0.13224 -0.23524,-0.26667 -0.0763,-0.10181 -0.10106,-0.1738 -0.20388,-0.25093 -0.12629,-0.0947 -0.15434,-0.0421 -0.21955,-0.17256 -0.056,-0.11213 -0.0939,-0.18798 -0.15683,-0.25095 -0.0635,-0.0635 -0.047,-0.22029 -0.047,-0.34505 0,-0.12222 -0.0314,-0.27623 -0.0314,-0.40782 0,-0.12691 -0.025,-0.25707 -0.047,-0.34507 -0.0275,-0.11023 -0.0157,-0.26669 -0.0157,-0.37646 0,-0.0923 -0.15684,-0.18428 -0.23526,-0.20387 -0.13,-0.0325 -0.22183,-0.0627 -0.42342,-0.0627 -0.16795,0 -0.30341,0 -0.47049,0 -0.12433,0 -0.25206,0 -0.37639,0 -0.0944,0 -0.11823,-0.0199 -0.1725,-0.0471 -0.0215,0 -0.14117,-0.33091 -0.14117,-0.3764 0,-0.1362 -0.0314,-0.24365 -0.0314,-0.37647 0,-0.13014 -0.0239,-0.25247 -0.0471,-0.34504 -0.0255,-0.10229 -0.0171,-0.22538 -0.047,-0.34509 -0.0271,-0.10846 0,-0.26396 0,-0.37642 0,-0.13604 0.0314,-0.20092 0.0314,-0.34508 0,-0.0965 0.0157,-0.23164 0.0157,-0.34507 0,-0.14594 -0.0823,-0.25289 -0.20387,-0.3137 -0.10614,-0.0531 -0.23409,-0.0314 -0.3607,-0.0314 -0.12957,0 -0.21172,0.0333 -0.32935,0.0627 -0.13326,0.0333 -0.19871,0.18308 -0.25091,0.23532 -0.0888,0.0888 -0.0967,0.22984 -0.12547,0.34506 -0.0275,0.11017 -0.0157,0.26666 -0.0157,0.37645 0,0.0615 -0.1377,0.2371 -0.15685,0.31365 -0.0347,0.13906 -0.22541,0.22254 -0.31363,0.26666 -0.13084,0.0654 -0.35618,-0.0134 -0.4548,-0.0627 -0.0807,-0.0404 -0.22462,-0.27334 -0.2666,-0.32935 -0.0678,-0.0905 -0.14241,-0.1581 -0.2039,-0.21964 -0.0837,-0.0837 -0.1592,-0.12862 -0.2509,-0.25093 -0.0713,-0.0951 -0.12303,-0.199 -0.15685,-0.26666 -0.0594,-0.11893 -0.076,-0.19901 -0.14114,-0.32939 -0.0591,-0.11819 -0.1367,-0.24201 -0.20387,-0.3764 -0.0742,-0.14842 -0.0768,-0.21796 -0.17253,-0.31371 -0.0991,-0.0992 -0.12545,-0.23752 -0.12545,-0.37647 0,-0.1392 -0.0471,-0.28542 -0.0471,-0.42349 0,-0.12599 -0.0471,-0.2447 -0.0471,-0.37643 3e-5,-0.12604 0,-0.24471 0,-0.37643 3e-5,-0.1164 0.0784,-0.2124 0.0784,-0.34507 0,-0.14475 -0.0314,-0.20885 -0.0314,-0.34508 0,-0.16376 0.0132,-0.24464 0.0784,-0.40781 0.042,-0.10505 0.1628,-0.18444 0.20387,-0.26664 0.0493,-0.0987 0.10141,-0.17179 0.17253,-0.26665 0.0718,-0.0959 0.18224,-0.15156 0.29796,-0.1882 0.1157,-0.0367 0.23567,-0.0668 0.34501,-0.0941 0.17005,-0.0426 0.31309,-0.0237 0.4705,0.0157 0.17064,0.0427 0.33731,0.0627 0.51752,0.0627 0.0868,0 0.12853,0.0426 0.1725,0.0784 0.044,0.0358 0.0871,0.0684 0.17252,0.0471 0.087,-0.0218 0.0627,-0.30245 0.0627,-0.37644 0,-0.0888 -0.0347,-0.13539 -0.0314,-0.17252 0.003,-0.0371 0.0428,-0.0685 0.12546,-0.10982 0.14466,-0.0723 0.16585,-0.0941 0.34503,-0.0941 0.15829,0 0.30634,0.0314 0.45478,0.0314 0.0879,-2e-5 0.21581,0.10007 0.29799,0.14115 0.08,0.04 0.12983,0.0404 0.18817,0.0471 0.0584,0.007 0.11166,0.0286 0.17252,0.10979 0.0834,0.11122 0.20268,0.18701 0.28229,0.26664 0.0869,0.087 0.25303,0.13435 0.32935,0.17252 0.0559,0.028 0.0469,0.31289 0.0627,0.37645 0.0303,0.12117 0.10211,0.2199 0.15681,0.32939 0.0764,0.15283 0.1122,0.31968 0.17251,0.47056 0.0432,0.10797 0.0837,0.21439 0.12549,0.29801 0.066,0.13205 0.10398,0.19317 0.21952,0.25095 0.0952,0.0476 0.19343,0.0523 0.298,0.0784 0.12382,0.031 0.22431,-0.0795 0.28229,-0.15687 0.0447,-0.0596 0.0326,-0.14923 0.0157,-0.23525 -0.0169,-0.086 -0.049,-0.17062 -0.0784,-0.2196 -0.0928,-0.15466 -0.065,-0.30471 -0.12546,-0.48623 -0.0477,-0.14297 -0.14662,-0.27915 -0.21957,-0.37644 -0.0728,-0.0971 -0.0863,-0.26671 -0.14114,-0.37643 -0.0586,-0.1172 -0.0955,-0.20942 -0.12546,-0.32941 -0.0295,-0.11812 -0.0373,-0.2432 -0.0627,-0.34506 -0.0393,-0.15732 0.0521,-0.2874 0.15681,-0.3921 0.0776,-0.0776 0.0879,-0.13195 0.1098,-0.21962 0.12533,-0.12537 0.19251,-0.27521 0.26661,-0.42345 0.0632,-0.12658 0.0941,-0.22918 0.0941,-0.37647 0,-0.077 0.0711,-0.15763 0.15681,-0.23528 0.0857,-0.0776 0.18637,-0.15437 0.23524,-0.21958 0.0911,-0.12147 0.21604,-0.24395 0.28229,-0.37644 0.0559,-0.11179 0.16658,-0.1958 0.20388,-0.34506 0.0255,-0.10231 0.0171,-0.22538 0.0471,-0.34508 0.0333,-0.13313 0.062,-0.2483 0.0941,-0.37643 0.0321,-0.12818 0.0305,-0.23852 0,-0.36077 -0.0298,-0.1191 -0.0794,-0.23724 -0.12546,-0.32938 -0.0622,-0.12445 -0.14829,-0.19534 -0.21955,-0.26666 -0.0562,-0.0562 -0.047,-0.28627 -0.047,-0.3764 0,-0.08 0.23984,-0.0784 0.31364,-0.0784 0.11446,0 0.25016,-0.0743 0.32933,-0.0941 0.0733,-0.0183 0.17542,-0.19402 0.21954,-0.28232 0.0551,-0.1103 0.0926,-0.21373 0.12548,-0.3451 0.0355,-0.14195 -0.0314,-0.25156 -0.0314,-0.3764 0,-0.10721 0.11887,-0.22413 0.20388,-0.26664 0.12227,-0.0612 0.19519,-0.10983 0.34503,-0.10983 0.14516,0 0.26754,0.0314 0.40775,0.0314 0.16758,0 0.20501,-0.0493 0.26661,-0.17251 0.0464,-0.093 0.0314,-0.26564 0.0314,-0.37645 0,-0.12707 -0.008,-0.25158 -0.0314,-0.34509 -0.019,-0.0761 0.0149,-0.15384 0.0314,-0.21958 -0.021,-0.0842 0.15123,-0.3394 0.17251,-0.36073 0.0819,-0.0819 0.17225,-0.16455 0.2823,-0.2196 0.0943,-0.0471 0.20359,-0.12515 0.29799,-0.21958 0.10167,-0.10174 0.18883,-0.22023 0.25092,-0.28232 0.0918,-0.0919 0.10499,-0.18342 0.18818,-0.26666 0.0392,-0.0392 0.0214,0.28667 0,0.32938 -0.0306,0.0611 -0.0149,0.10414 0.0157,0.15688 0.0306,0.0527 0.0816,0.10658 0.0941,0.15682 0.0204,0.0816 -0.0135,0.13633 -0.0157,0.17255 -0.002,0.0362 0.0151,0.0627 0.12544,0.0627 0.15468,0 0.19396,-0.0428 0.25095,-0.15688 0.0608,-0.12165 0.16979,-0.13519 0.28228,-0.21959 0.0852,-0.0639 0.13332,-0.16466 0.21955,-0.25096 0.10135,-0.10138 0.17128,-0.12374 0.26661,-0.25095 0.0821,-0.1094 0.19155,-0.11146 0.31366,-0.17252 0.17158,-0.0859 0.093,-0.20364 0.28228,-0.25097 0.11682,-0.0292 0.19044,-0.12995 0.23525,-0.21957 0.0468,-0.0937 -0.0784,-0.2293 -0.0784,-0.3294 0,-0.15989 -0.0432,-0.21972 -0.12547,-0.32937 -0.0444,-0.0592 -0.0876,-0.0699 -0.12547,-0.0628 -0.0379,0.007 -0.0636,0.0322 -0.0941,0.0628 -0.0748,0.0748 -0.1098,0.26658 -0.15684,0.36073 -0.0654,0.13087 -0.0325,0.21651 -0.14115,0.29804 -0.0794,0.0596 -0.2889,-0.16182 -0.34503,-0.20392 -0.0985,-0.0739 -0.24592,-0.0941 -0.37637,-0.0941 -0.0805,0 -0.12086,0.0309 -0.15682,0.0471 -0.036,0.0162 -0.0713,0.0142 -0.12547,-0.0941 -0.0433,-0.0867 -0.0282,-0.26983 -0.047,-0.34508 -0.0171,-0.0682 -0.0588,-0.0968 -0.0784,-0.12546 -0.0196,-0.0287 -0.007,-0.0717 0.0627,-0.14118 0.0909,-0.091 0.14114,-0.0518 0.14114,-0.21962 0,-0.12639 0.10946,-0.2194 0.20389,-0.26662 0.12254,-0.0613 0.0565,-0.15684 0.23524,-0.15684 0.12448,0 0.25384,-0.0407 0.32934,-0.0784 0.0713,-0.0357 0.11335,-0.0843 0.10978,-0.12549 -0.004,-0.0412 -0.0423,-0.0627 -0.12547,-0.0627 -0.1569,0 -0.24756,0.0941 -0.40775,0.0941 -0.099,0 -0.25778,0.10804 -0.34503,0.12548 -0.12568,0.0251 -0.24561,0.0144 -0.37636,0.0471 -0.13465,0.0337 -0.23888,0.13815 -0.37641,0.17251 -0.12124,0.0303 -0.27279,0.22869 -0.29797,0.3294 -0.0392,0.15692 -0.16715,0.29264 -0.28228,0.40781 -0.11495,0.11496 -0.17087,0.11849 -0.2823,0.0627 -0.0148,-0.007 0.16863,-0.32161 0.20389,-0.39212 0.0811,-0.16223 0.10754,-0.26437 0.25091,-0.40783 0.10885,-0.10884 0.22271,-0.17563 0.31367,-0.26663 0.10682,-0.10683 0.1577,-0.21588 0.29797,-0.25095 0.14295,-0.0358 0.30347,-0.0157 0.4548,-0.0157 0.1436,-3e-5 0.2375,-0.0628 0.3607,-0.0628 0.11465,0 0.24365,-0.15918 0.34501,-0.23523 0.11618,-0.0872 0.30515,-0.083 0.43914,-0.10983 0.15239,-0.0305 0.21563,-0.0706 0.26659,-0.17253 0.0561,-0.11228 0.2044,-0.0946 0.28232,-0.17255 0.0557,-0.0557 0.0624,-0.11484 0.0784,-0.15684 0.016,-0.042 0.0292,-0.074 0.10976,-0.0941 0.12346,-0.0309 0.25928,-0.0217 0.3607,-0.047 0.10844,-0.0271 0.24828,0 0.36072,0 0.0883,0 0.14671,-0.0133 0.17251,-0.0471 0.0258,-0.0337 0.0314,-0.0916 0.0314,-0.15685 0,-0.12254 -0.0708,-0.22758 -0.15684,-0.31372 -0.0988,-0.0989 -0.152,-0.19422 -0.21958,-0.32938 -0.0583,-0.11659 -0.11149,-0.25441 -0.15681,-0.34508 -0.0535,-0.10701 -0.0941,-0.23529 -0.14115,-0.32937 -0.0633,-0.1266 -0.19352,-0.19348 -0.29797,-0.21961 -0.10709,-0.0267 -0.23709,-0.14298 -0.29798,-0.2039 -0.0741,-0.0741 -0.14693,-0.14939 -0.21955,-0.20389 -0.10416,-0.0781 -0.15353,-0.0875 -0.20389,-0.18823 -0.0476,-0.0952 -0.11359,-0.18017 -0.17249,-0.29801 -0.0457,-0.0915 -0.1121,-0.14576 -0.15685,-0.23527 -0.0476,-0.0952 -0.0137,-0.24704 -0.047,-0.3137 -0.045,-0.0901 -0.0787,-0.23575 -0.12544,-0.32937 -0.0528,-0.10557 -0.0862,-0.1254 -0.14115,-0.23532 -0.07,-0.14007 0.0158,-0.21939 -0.0784,-0.31368 -0.0894,-0.0894 -0.0945,-0.16491 -0.20388,-0.21961 -0.0671,-0.0335 -0.0936,-0.0643 -0.12544,-0.0784 -0.0318,-0.0141 -0.0657,-0.006 -0.14113,0.0314 -0.0136,0.007 -0.11202,0.23971 -0.12549,0.26663 -0.0569,0.11386 -0.13669,0.13671 -0.25091,0.25096 -0.10535,0.10537 -0.16621,0.17561 -0.21958,0.28233 -0.0472,0.0944 -0.2364,0.0311 -0.29797,0.0157 -0.0568,-0.0142 -0.0674,-0.0719 -0.0627,-0.14117 0.005,-0.0693 0.0142,-0.14702 0,-0.20393 -0.0271,-0.10845 0,-0.26394 0,-0.37642 3e-5,-0.0539 0.0589,-0.0553 0.12547,-0.0628 0.0667,-0.007 0.1501,-0.0246 0.1882,-0.0627 0.0471,-0.0472 0.0751,-0.0735 0.0784,-0.10981 0.003,-0.0362 -0.0181,-0.0809 -0.0784,-0.14115 -0.0704,-0.0704 -0.24686,-0.0421 -0.32934,-0.0628 -0.17478,-0.0437 -0.24378,-0.026 -0.37641,-0.12546 -0.11739,-0.0881 -0.18573,-0.16269 -0.21955,-0.29801 -0.0221,-0.0886 -0.20911,-0.0719 -0.29797,-0.0941 -0.12528,-0.0313 -0.25499,-0.0313 -0.39206,-0.0313 -0.11756,-4e-5 -0.207,0.0949 -0.32933,0.12546 -0.0687,0.0172 -0.12657,-0.0115 -0.17251,-0.0157 -0.0459,-0.004 -0.0838,0.006 -0.10978,0.10978 -0.0345,0.13804 -0.0901,0.22729 -0.14115,0.32937 -0.042,0.0839 -0.0471,0.22219 -0.0471,0.34509 0,0.15284 -0.0414,0.17938 0,0.34507 0.0282,0.11269 -0.0105,0.26143 -0.0314,0.34506 -0.0319,0.12776 0.0318,0.24925 0,0.37645 -0.0407,0.16289 -0.086,0.22005 -0.0157,0.36076 0.0652,0.1305 0.13385,0.15908 0.1725,0.31368 0.0311,0.12431 -0.0471,0.25183 -0.0471,0.37645 0,0.10773 -0.15777,0.23651 -0.20387,0.29801 -0.0577,0.077 -0.12545,0.20796 -0.12545,0.31368 -1e-5,0.086 -0.20418,0.14916 -0.25094,0.17255 -0.12458,0.0623 -0.19102,0.1658 -0.2666,0.26664 -0.0588,0.0783 -0.0627,0.26469 -0.0627,0.36077 0,0.12275 -0.0314,0.24602 -0.0314,0.37643 0,0.12437 0,0.25209 0,0.37646 0,0.12733 0.0309,0.19011 0,0.31367 -0.0297,0.11881 -0.17298,0.1963 -0.25091,0.23528 -0.0734,0.0367 -0.14345,-0.004 -0.1882,-0.0627 -0.0447,-0.0588 -0.0784,-0.14271 -0.0784,-0.1882 1e-5,-0.13269 0,-0.27515 0,-0.40784 1e-5,-0.10596 -0.0314,-0.23121 -0.0314,-0.34504 0,-0.13267 0,-0.25948 0,-0.39216 0,-0.15348 -0.0482,-0.22398 -0.0784,-0.34504 -0.0191,-0.0764 -0.19267,-0.19269 -0.25093,-0.25096 -0.0855,-0.0855 -0.20144,-0.15564 -0.29798,-0.20392 -0.0794,-0.0397 -0.19399,-0.14698 -0.25092,-0.2039 -0.11963,-0.11968 -0.19313,-0.16673 -0.25092,-0.28234 -0.0597,-0.11952 -0.21583,-0.14115 -0.34503,-0.14115 -0.1369,10e-6 -0.27087,-0.0307 -0.37638,-0.10977 -0.0759,-0.057 -0.0941,-0.24835 -0.0941,-0.32942 0,-0.15737 -0.0189,-0.28285 -0.047,-0.42348 -0.0231,-0.11546 -0.01,-0.2755 0.0157,-0.37642 0.0353,-0.14146 0.18881,-0.25222 0.23523,-0.34508 0.0649,-0.12985 0.27102,-0.22398 0.37639,-0.32938 0.10131,-0.10134 0.15574,-0.25012 0.28229,-0.34509 0.16029,-0.12027 0.32682,-0.21042 0.50184,-0.29802 0.0925,-0.0462 0.10471,-0.17801 0.14116,-0.25093 0.0653,-0.13057 0.10565,-0.24682 0.18819,-0.3294 0.1012,-0.10125 0.18995,-0.18994 0.28229,-0.28235 0.0801,-0.0801 0.30455,-0.0627 0.34503,-0.0627 0.0553,0 0.15625,0.29684 0.1725,0.32939 0.0343,0.0687 0.0604,0.10667 0.10979,0.12547 0.0494,0.0188 0.12542,0.0133 0.18819,0 0.12552,-0.0266 0.27007,-0.0928 0.43911,-0.14115 0.0941,-0.0269 0.20676,-0.20534 0.29797,-0.25099 0.0888,-0.0444 0.0941,-0.25173 0.0941,-0.36074 0,-0.14311 -0.0157,-0.21842 -0.0157,-0.34506 0,-0.0711 -0.2077,-0.1509 -0.25092,-0.17254 -0.0606,-0.0303 -0.0662,-0.0999 -0.047,-0.17252 0.0191,-0.0726 0.0666,-0.14509 0.0941,-0.17253 0.0777,-0.0778 0.21214,-0.13148 0.31364,-0.15687 0.13491,-0.0337 0.2585,-0.0273 0.3607,-0.0784 0.11032,-0.0551 0.13963,-0.12393 0.21959,-0.20389 0.12422,-0.12428 0.13672,-0.20193 0.17248,-0.34507 0.0263,-0.1052 0.0123,-0.26884 0.0314,-0.34505 0.0317,-0.12679 0.1525,-0.24515 0.20389,-0.31373 0.0377,-0.0503 0.0533,-0.0945 0.0941,-0.12547 0.0408,-0.031 0.0931,-0.0471 0.1882,-0.0471 0.0905,0 0.14927,0.004 0.18818,0.0314 0.0389,0.0273 0.0617,0.0765 0.0941,0.14114 0.0465,0.093 0.0157,0.26566 0.0157,0.37647 0,0.13321 -0.10351,0.18191 -0.17252,0.25093 -0.0624,0.0625 0.21874,0.19545 0.25092,0.21961 0.05,0.0374 0.0222,0.11799 -0.0314,0.20389 -0.0536,0.0859 -0.13143,0.16876 -0.14115,0.18823 -0.0409,0.0818 -0.14466,0.16383 -0.20387,0.28234 -0.0788,0.15759 -0.0944,0.18043 -0.31368,0.23527 -0.14219,0.0355 -0.25834,0.14487 -0.345,0.18819 -0.0619,0.031 -0.0644,0.0748 -0.0471,0.12549 0.0174,0.0507 0.0442,0.10694 0.0627,0.12547 0.10871,0.10874 0.15565,0.1056 0.29798,0.14117 0.16904,0.0423 0.22917,-0.008 0.32932,0.12549 0.0681,0.0908 0.0962,0.12961 0.14116,0.21959 0.0639,0.1278 0.13761,0.20545 0.17252,0.34505 0.0155,0.0619 0.24837,0.085 0.32932,0.12549 0.10536,0.0527 0.26955,0.0642 0.36072,0.10981 0.11543,0.0577 0.1685,0.0931 0.29796,0.12547 0.10455,0.0261 0.1388,0.0778 0.26661,0.1098 0.0763,0.0191 0.12355,0.0249 0.15683,0 0.0333,-0.0249 0.0458,-0.0736 0.0627,-0.14116 0.014,-0.0561 -0.0474,-0.12558 -0.10979,-0.17252 -0.0623,-0.047 -0.12402,-0.0699 -0.14114,-0.0785 -0.13136,-0.0657 -0.18253,-0.0884 -0.26661,-0.17252 -0.0682,-0.0682 -0.0987,-0.12801 -0.0941,-0.17256 0.005,-0.0445 0.0445,-0.0758 0.0941,-0.12545 0.0482,-0.0483 0.1001,-0.033 0.15685,0 0.0567,0.033 0.12038,0.089 0.14113,0.10979 0.0543,0.0544 0.11823,0.0393 0.17251,0 0.0543,-0.0393 0.0872,-0.11342 0.0941,-0.14117 0.0249,-0.0997 0.047,-0.16533 0.047,-0.31371 0,-0.15516 -0.10362,-0.18146 -0.0627,-0.34507 0.0172,-0.069 -0.0413,-0.1205 -0.10979,-0.15684 -0.0685,-0.0363 -0.14893,-0.0647 -0.18817,-0.0941 -0.12623,-0.0947 -0.18716,-0.0919 -0.25094,-0.21957 -0.046,-0.0919 -0.0147,-0.1406 0.0314,-0.15681 0.0461,-0.0163 0.10564,-0.009 0.14116,0 0.14261,0.0356 0.16852,0.10576 0.26658,0.20389 0.11163,0.11163 0.1109,0.17307 0.23525,0.23527 0.1199,0.06 0.11951,0.15685 0.25091,0.15685 0.0835,0 0.0941,-0.25297 0.0941,-0.32941 0,-0.13407 -0.0627,-0.23331 -0.0627,-0.37644 0,-0.0568 0.13244,-0.15504 0.15684,-0.20389 0.0371,-0.0742 0.0334,-0.1391 0,-0.18823 -0.0334,-0.0491 -0.0915,-0.0915 -0.12547,-0.12546 -0.0894,-0.0894 -0.16611,-0.12834 -0.21957,-0.2353 -0.0613,-0.12257 -0.19126,-0.17559 -0.29796,-0.2823 -0.0161,-0.0323 -0.0696,10e-4 -0.12547,0.0157 -0.0559,0.0142 -0.11107,0.0106 -0.14115,-0.10978 -0.0288,-0.11551 0.0367,-0.2722 0.0627,-0.37646 0.0297,-0.11859 0.0969,-0.15242 0.12547,-0.26665 0.0224,-0.0896 0.0715,-0.11545 0.0941,-0.14113 0.0226,-0.0257 0.0274,-0.055 -0.0157,-0.14119 -0.0301,-0.0603 -0.1907,-0.1267 -0.25092,-0.15683 -0.0998,-0.0499 -0.16249,-0.13112 -0.21957,-0.18825 -0.055,-0.055 -0.0314,-0.29246 -0.0314,-0.37643 0,-0.0628 -0.0302,-0.11315 -0.0784,-0.14117 -0.0482,-0.028 -0.10587,-0.0372 -0.1568,-0.0627 -0.0902,-0.0452 -0.19369,-0.0471 -0.32937,-0.0471 -0.10838,0 -0.2756,-0.0219 -0.37636,-0.047 -0.11584,-0.029 -0.26737,0.0276 -0.34501,0.047 -0.10845,0.0271 -0.26399,0 -0.3764,0 -0.12855,0 -0.17453,-0.0476 -0.29797,-0.0784 -0.0796,-0.0199 -0.26296,0.13931 -0.32935,0.17252 -0.0673,0.0337 -0.0962,0.009 -0.10975,-0.047 -0.0136,-0.0558 -0.0157,-0.13406 -0.0157,-0.18824 0,-0.12437 0,-0.25206 0,-0.37645 0,-0.0529 -0.0387,-0.0812 -0.0941,-0.0941 -0.0554,-0.0129 -0.12439,-0.0157 -0.17252,-0.0157 z m 13.59699,1.52146 c -0.0668,0.0138 -0.12312,0.0691 -0.14116,0.14114 -0.0209,0.0837 -0.0311,0.20304 -0.047,0.26666 -0.005,0.0199 -0.31015,-0.039 -0.48617,0.0314 -0.0744,0.0298 -0.18119,0.0767 -0.25093,0.0941 -0.0957,0.0239 -0.0671,0.0925 -0.047,0.17254 0.025,0.10001 0.30629,0.1197 0.39205,0.14117 0.06,0.015 0.14081,0.12511 0.20387,0.18823 0.0628,0.0628 0.1694,0.10744 0.23524,0.15682 0.0513,0.0384 0.10533,0.15239 0.17252,0.21961 0.0697,0.0698 0.18991,0.10235 0.28228,0.12546 0.11183,0.028 0.18184,-0.0313 0.29798,-0.0313 0.0948,0 0.17747,0.047 0.2823,0.047 0.10859,0 0.18421,-0.047 0.28228,-0.047 0.0799,0 0.11235,-0.12888 0.15683,-0.1882 0.0583,-0.0778 0.0627,-0.1981 0.0627,-0.29805 0,-0.0925 -0.0303,-0.18387 -0.047,-0.25096 -0.0199,-0.0798 -0.17753,-0.11977 -0.21956,-0.20391 -0.0528,-0.10556 -0.0559,-0.13213 -0.1725,-0.21958 -0.0795,-0.0596 -0.22361,-0.1275 -0.28229,-0.15683 -0.0932,-0.0466 -0.16125,-0.0857 -0.23526,-0.14119 -0.049,-0.0368 -0.12338,-0.0471 -0.20388,-0.0471 -0.0527,0 -0.11972,0 -0.17251,0 -0.0233,-0.006 -0.0405,-0.005 -0.0627,0 z m 5.52031,2.02337 c -0.10112,0.0132 -0.12545,0.16555 -0.12543,0.298 0,0.13355 -0.17896,0.25579 -0.23526,0.298 -0.0774,0.0581 0.31408,0.21188 0.34503,0.21962 0.13235,0.0331 0.24236,0.14569 0.37638,0.17253 0.0967,0.0193 0.25679,0.12467 0.3764,0.17252 0.0686,0.0275 0.09,0.12805 0.10976,0.23529 0.0199,0.1072 0.0314,0.2163 0.0314,0.28234 0,0.13642 -8.1e-4,0.27924 0.0314,0.40781 0.0335,0.13407 0.0713,0.18532 0.0314,0.34503 -0.019,0.0763 -0.0283,0.13461 -0.0314,0.18824 -0.003,0.0536 0.005,0.0995 0.0627,0.15684 0.10304,0.1031 0.39317,0.0481 0.51755,0.17254 0.12312,0.12319 0.21925,0.20663 0.36069,0.37644 0.0726,0.0871 -0.007,0.24424 0.0941,0.34507 0.0692,0.0692 0.2986,0.0822 0.37638,0.0628 0.0548,-0.0137 0.081,-0.32411 0.0941,-0.37647 0.0164,-0.0656 0.11288,-0.1 0.21955,-0.10978 0.10667,-0.01 0.22928,0.005 0.28229,0.0314 0.0943,0.0471 0.10429,0.19443 0.0784,0.29801 -0.0195,0.078 -0.003,0.12938 0.0314,0.17255 0.0344,0.0431 0.0852,0.0818 0.14114,0.10981 0.10321,0.0516 0.24124,0.0338 0.31366,0.0157 0.11507,-0.0288 0.16667,-0.19221 0.21955,-0.29802 0.0359,-0.0717 0.0512,-0.12577 0.0627,-0.17252 0.0116,-0.0467 0.0196,-0.0882 0.0941,-0.12549 0.10546,-0.0528 0.15457,-0.13446 0.12545,-0.25099 -0.0317,-0.12691 -0.0673,-0.24432 -0.12545,-0.36072 -0.0774,-0.15476 -0.24076,-0.21196 -0.37639,-0.31369 -0.10362,-0.0778 -0.093,-0.10557 -0.12548,-0.23529 -0.0217,-0.0872 -0.17119,-0.15617 -0.26659,-0.20391 -0.0878,-0.0439 -0.14538,-0.19816 -0.25091,-0.25097 -0.15334,-0.0767 -0.30037,-0.0998 -0.43914,-0.20387 -0.14108,-0.10584 -0.26499,-0.14386 -0.40774,-0.25099 -0.13796,-0.10349 -0.25901,-0.22763 -0.37639,-0.34505 -0.11576,-0.11579 -0.22908,-0.16637 -0.31365,-0.25095 -0.10384,-0.10388 -0.26648,-0.16465 -0.37639,-0.2196 -0.14204,-0.071 -0.22179,-0.1546 -0.34502,-0.20391 -0.14885,-0.0595 -0.25479,-0.0755 -0.39209,-0.10981 -0.0469,-0.0117 -0.0997,-0.0535 -0.14111,-0.0784 -0.0177,-0.004 -0.0326,-0.002 -0.0471,0 z m -13.70674,7.45034 c -0.0419,0.042 -0.11942,0.005 -0.1725,0.0314 -0.0569,0.0285 -0.0813,0.13693 -0.0941,0.18825 -0.0211,0.0842 -0.0137,0.16268 -0.0314,0.25096 -0.0201,0.10031 0.01,0.2596 0.0314,0.34504 0.0169,0.0677 -0.0917,0.15196 -0.12549,0.21959 -0.0348,0.0697 -0.0794,0.12684 -0.12544,0.18823 -0.054,0.0721 -0.0458,0.22894 -0.0627,0.31369 -0.0202,0.10098 -0.0251,0.17899 -0.047,0.26667 -0.0166,0.0665 -0.0157,0.13212 -0.0157,0.20391 0,0.0543 0.1289,0.0879 0.17252,0.10979 0.0468,0.0234 0.0715,-0.0322 0.0941,-0.0941 0.0226,-0.0619 0.0414,-0.13554 0.0784,-0.17255 0.0757,-0.0757 0.11491,-0.10979 0.21956,-0.10979 0.0685,0 0.14183,-0.0157 0.21955,-0.0157 0.0435,0 0.13276,0.0272 0.17252,0.047 0.0755,0.0378 0.12155,0.0745 0.1725,0.12547 0.0607,0.0607 0.0428,0.13227 0.14116,0.15688 0.08,0.02 0.13064,0.0627 0.21954,0.0627 0.0912,0 0.17544,0 0.26664,0 0.0663,0 0.13681,0 0.20385,0 0.0956,0 0.0941,-0.0608 0.0941,-0.15689 0,-0.0844 0.0122,-0.14302 0.0314,-0.21956 0.0195,-0.0782 -0.0169,-0.13024 -0.0314,-0.18825 -0.017,-0.0681 -0.12884,-0.1445 -0.17254,-0.18819 -0.0975,-0.0975 -0.20444,-0.0807 -0.23523,-0.20395 -0.0144,-0.0573 0.0157,-0.14248 0.0157,-0.20387 0,-0.0598 0.0157,-0.12108 0.0157,-0.18821 0,-0.0803 -0.0504,-0.11654 -0.0784,-0.17254 -0.0346,-0.0692 -0.0991,-0.0627 -0.17254,-0.0627 -0.069,0 -0.16694,-0.0177 -0.23523,-0.0314 -0.0772,-0.0154 -0.12005,-0.0103 -0.17249,-0.0627 -0.0575,-0.0574 -0.1098,-0.0485 -0.1098,-0.14115 0,-0.0485 -0.0332,-0.10148 -0.047,-0.15683 -0.0164,-0.0658 -0.0298,-0.089 -0.0784,-0.12549 -0.0292,-0.0219 -0.10835,-0.0157 -0.14114,-0.0157 z m 23.3203,0.59604 c -0.0801,0.0115 -0.0828,0.30239 -0.17251,0.39213 -0.0829,0.0829 -0.1675,0.10475 -0.23524,0.17248 -0.11643,0.11648 -0.25665,0.22536 -0.37639,0.34512 -0.1026,0.10263 -0.11944,0.30639 -0.17251,0.43919 -0.038,0.095 0,0.30301 0,0.40781 0,0.13323 -0.15292,0.34312 -0.20388,0.47051 -0.032,0.08 -0.0589,0.1165 -0.10977,0.14118 -0.0509,0.0247 -0.11744,0.0254 -0.20388,0.0471 -0.14045,0.0351 -0.254,0.0643 -0.37639,0.1255 -0.0894,0.0447 -0.15811,0.23781 -0.20386,0.32938 -0.0474,0.0948 -0.0212,0.27313 -0.047,0.37642 -0.0419,0.16746 -0.0322,0.35676 0,0.51758 0.0263,0.13154 0.0469,0.25041 0.0784,0.37647 0.0341,0.13627 -0.0252,0.25763 -0.0471,0.34503 -0.0329,0.13187 -0.0783,0.25048 -0.10978,0.37647 -0.032,0.12802 0.12547,0.25592 0.12547,0.39213 0,0.14355 0.0368,0.27625 0,0.4235 -0.024,0.0958 0.0215,0.23581 0.0784,0.37643 0.0569,0.14061 0.13421,0.28593 0.15681,0.37642 0.0156,0.0623 -0.32494,0.4753 -0.36069,0.56467 -0.0454,0.11354 -0.11147,0.26425 -0.18818,0.39213 -0.0775,0.12926 0.0157,0.27509 0.0157,0.40782 0,0.1383 0.0313,0.29131 0.0313,0.43918 0,0.18167 0.0314,0.36812 0.0314,0.54898 0,0.16265 -0.16508,0.39366 -0.20388,0.54895 -0.0369,0.14746 0.003,0.33463 0.0627,0.45491 0.0448,0.0897 -0.0366,0.31857 -0.0627,0.42345 -0.0442,0.17663 0.047,0.37449 0.047,0.54897 0,0.0249 0,0.0535 0,0.0784 0,0.24215 0.19779,0.56558 0.25092,0.83129 0.0291,0.14537 -0.0525,0.22567 -0.0784,0.32939 -0.0397,0.15901 0.0463,0.27951 0.0784,0.40779 0.052,0.2079 0.0102,0.38738 -0.0784,0.56467 -0.0447,0.0895 -0.0456,0.15741 -0.0314,0.23528 0.0143,0.0779 0.0473,0.15739 0.0784,0.23528 0.0602,0.15045 0.006,0.3546 0.0471,0.5176 0.0347,0.13875 -0.0157,0.39113 -0.0157,0.54897 0,0.1138 -0.0459,0.16755 -0.0784,0.23527 -0.0325,0.0677 -0.0501,0.14453 -0.0157,0.28234 0.008,0.0332 0.007,0.0766 0.0157,0.10977 0.029,0.11586 0.27031,0.35964 0.37636,0.43919 0.074,0.0555 0.0957,0.11511 0.10978,0.17256 0.0142,0.0575 0.0157,0.1148 0.0157,0.20391 0,0.18819 0.0205,0.30274 0.14112,0.42348 0.0738,0.0738 0.21628,0.0636 0.298,0.17255 0.0671,0.0894 0.0627,0.34043 0.0627,0.45484 0,0.13964 0.004,0.21985 0.0471,0.29801 0.0434,0.0782 0.12337,0.15476 0.21955,0.25097 0.0414,0.0414 0.084,0.0683 0.12545,0.10978 0.0985,0.0985 0.11616,0.27303 0.21955,0.37644 0.0959,0.096 0.24526,0.21675 0.37643,0.28234 0.0791,0.0396 0.16156,0.0122 0.23521,-0.0314 0.0736,-0.0435 0.13544,-0.10158 0.18821,-0.14118 0.15458,-0.11592 0.26929,-0.22495 0.34502,-0.37643 0.10261,-0.20526 0.28352,-0.42961 0.32932,-0.65875 0.0176,-0.0881 0.0423,-0.14511 0.0941,-0.18823 0.0518,-0.0431 0.13294,-0.0743 0.20386,-0.10979 0.12664,-0.0633 0.24628,-0.20136 0.31366,-0.31371 0.0742,-0.12373 0.20768,-0.20689 0.34503,-0.17251 0.10599,0.0265 0.17993,0.10477 0.23522,0.18818 0.0553,0.0834 0.10456,0.16719 0.1255,0.25101 0.0335,0.13419 -0.10222,0.29852 -0.15686,0.40777 -0.0915,0.18316 -0.0487,0.32106 -0.17249,0.48624 -0.1106,0.14749 -0.16596,0.36328 -0.23525,0.50191 -0.0936,0.18723 -0.0695,0.47317 -0.10977,0.67448 -0.0179,0.0895 -0.0819,0.2674 -0.12547,0.37642 -0.0508,0.12708 -0.10979,0.36868 -0.10979,0.50192 0,0.17642 -0.18428,0.3215 -0.26659,0.48622 -0.0976,0.19524 -0.1706,0.39517 -0.25093,0.59604 -0.0608,0.15207 -0.135,0.3139 -0.21955,0.45486 -0.0751,0.12524 -0.13853,0.25612 -0.17252,0.39214 -0.0313,0.12531 -0.11413,0.22829 -0.1725,0.34506 -0.0553,0.11055 -0.0652,0.2245 -0.12547,0.34508 -0.11192,0.22385 -0.3617,0.61264 -0.5489,0.79992 -0.16137,0.16146 -0.37073,0.38077 -0.4548,0.54896 -0.0552,0.1104 -0.0895,0.19481 -0.14117,0.29804 -0.0752,0.1506 -0.17572,0.32015 -0.26657,0.50191 -0.0635,0.12709 -0.1734,0.18996 -0.23527,0.31373 -0.0642,0.12831 -0.0933,0.18128 -0.10975,0.25092 3.58588,-4.20225 5.77125,-9.65263 5.77125,-15.60652 0,-3.03847 -0.58635,-5.93367 -1.61531,-8.61104 -0.10487,0.008 -0.29041,0.0471 -0.40779,0.0471 -0.0756,4e-5 -0.13164,0.0583 -0.17248,0.12547 -0.0409,0.0672 -0.065,0.15037 -0.0784,0.20393 -0.0372,0.14871 -0.0292,0.31756 0.0157,0.47054 0.0449,0.15296 0.11998,0.2925 0.20387,0.37643 0.0636,0.0636 0.10203,0.12531 0.0941,0.17252 -0.008,0.0472 -0.0554,0.0784 -0.15682,0.0784 -0.10984,10e-6 -0.174,-0.0175 -0.21956,-0.047 -0.0456,-0.0295 -0.0694,-0.0694 -0.12546,-0.12549 -0.10627,-0.10633 -0.203,-0.1956 -0.34503,-0.26663 -0.12555,-0.0628 -0.23285,-0.11646 -0.34501,-0.17255 -0.0806,-0.0403 -0.14922,-0.26706 -0.18821,-0.34505 -0.0613,-0.12264 -0.10975,-0.24622 -0.10975,-0.39217 -10e-6,-0.0992 -0.10111,-0.24921 -0.14116,-0.32936 -0.0485,-0.097 -0.11578,-0.20016 -0.1725,-0.31368 -0.0634,-0.12686 -0.12146,-0.21267 -0.23528,-0.29801 -0.0145,-0.0109 -0.0199,-0.0173 -0.0313,-0.0157 z m -29.73455,13.06559 c -0.0174,0.008 -0.0389,0.0232 -0.0627,0.047 -0.0694,0.0694 -0.0532,0.0559 -0.1725,-0.0157 0.0258,0 0.32746,0.36282 0.39206,0.47056 0.0304,0.0507 0.11726,0.0664 0.20387,0.0627 0.0866,-0.004 0.17001,-0.0215 0.21958,-0.0314 0.11103,-0.0222 0.14011,-0.0884 0.12545,-0.15684 -0.0147,-0.0684 -0.0731,-0.14633 -0.12545,-0.17256 -0.13597,-0.068 -0.22902,-0.12 -0.3764,-0.15682 -0.12192,-0.0305 -0.15165,-0.07 -0.20387,-0.0471 z m 0.28229,1.05086 c -0.0928,0.0168 -0.23236,0.0755 -0.28229,0.12549 -0.0394,0.0394 -0.007,0.11306 0.0314,0.18821 0.0382,0.0752 0.0926,0.13817 0.10978,0.17256 0.0481,0.0961 0.33301,0.12546 0.43913,0.12546 0.0892,0 0.12957,-0.0403 0.14112,-0.0941 0.0116,-0.0539 -0.002,-0.11795 -0.0157,-0.17254 -0.0246,-0.0982 -0.14587,-0.19294 -0.20388,-0.25096 -0.0591,-0.0591 -0.007,-0.0135 -0.14115,-0.0941 -0.0186,-0.005 -0.0475,-0.006 -0.0784,0 z m -1.27031,0.84702 c -0.17934,-4.9e-4 -0.34763,0.005 -0.51753,0.14117 -0.20624,0.16498 -0.45599,0.4647 -0.59593,0.51758 0.0309,0.0774 0.0557,0.14445 0.10976,0.17251 0.054,0.0281 0.13595,0.0262 0.21957,-0.0157 0.13703,-0.0685 0.22822,-0.0984 0.34503,-0.15682 0.12109,-0.0606 0.21435,-0.10979 0.34502,-0.10979 0.1677,0 0.27962,0.0581 0.42342,0.0941 0.10872,0.0272 0.19158,0.0644 0.31366,0.12547 0.12693,0.0635 0.24333,0.11786 0.34502,0.21961 0.0988,0.0988 0.2812,0.14815 0.37638,0.21956 0.0978,0.0734 0.27823,0.15278 0.3764,0.25097 0.0636,0.0637 0.19818,0.20104 0.29797,0.25098 0.10534,0.0527 0.19524,0.0419 0.28228,0.0157 0.087,-0.0263 0.17703,-0.0627 0.29799,-0.0628 0.0882,0 0.23777,0.009 0.37638,0.0157 0.13859,0.007 0.25998,0.007 0.31364,-0.0471 0.0333,-0.0333 0.0792,-0.0786 0.0941,-0.12547 0.0149,-0.0468 -0.001,-0.0866 -0.0941,-0.10977 -0.13258,-0.0332 -0.2494,-0.0741 -0.39206,-0.10983 -0.19743,-0.0494 -0.13492,-0.13802 -0.29796,-0.21957 -0.18469,-0.0924 -0.23941,-0.11866 -0.45481,-0.17256 -0.14111,-0.0353 -0.35503,-0.057 -0.47049,-0.17251 -0.10387,-0.10392 -0.15957,-0.29154 -0.26659,-0.34509 -0.18717,-0.0936 -0.3303,-0.22289 -0.5489,-0.26664 -0.21816,-0.0436 -0.48495,-0.1098 -0.70574,-0.10976 -0.0651,0 -0.11271,1.3e-4 -0.17251,0 z m 4.18732,1.4273 c -0.0356,-0.003 -0.0743,0.007 -0.1098,0.0157 -0.14579,0.0365 -0.52648,0.002 -0.54891,0.0471 -0.0248,0.0414 -0.0568,0.0822 -0.0784,0.12547 -0.0504,0.10089 -0.042,0.13357 -0.0157,0.15687 0.0263,0.0233 0.0757,0.0287 0.12547,0.0784 0.0186,0.0187 0.0629,0.0797 0.0784,0.14117 0.0155,0.0614 4.8e-4,0.12519 -0.0627,0.15685 -0.0141,0.007 -0.31937,0.16111 -0.31365,0.17253 0.0414,0.0827 0.0838,0.10977 0.26659,0.10977 0.15213,0 0.25677,0.02 0.39209,0.0471 0.091,0.0182 0.29014,0.0686 0.37637,0.0471 0.20393,-0.051 0.35634,-0.10545 0.48618,-0.2353 0.10953,-0.10958 0.11124,-0.0592 0.31366,-0.10978 0.07,-0.0175 0.15392,-0.0144 0.20386,-0.0314 0.05,-0.017 0.0784,-0.0525 0.0784,-0.14119 0,-0.0942 -0.10853,-0.21957 -0.23526,-0.21957 -0.11095,0 -0.2586,0.004 -0.36068,-0.0471 -0.14192,-0.071 -0.14293,-0.1926 -0.31366,-0.23528 -0.0802,-0.0201 -0.17545,-0.0687 -0.28227,-0.0784 z m 1.78781,0.54896 c -0.0494,-0.0124 -0.0757,0.0593 -0.0784,0.14121 -0.003,0.0819 0.0231,0.171 0.0313,0.20388 0.0182,0.0728 0.27341,0.10977 0.36071,0.10977 0.0873,0 0.15712,0.003 0.1882,-0.0157 0.0311,-0.0182 0.0219,-0.0504 -0.0157,-0.12548 -0.0529,-0.10593 -0.0839,-0.23019 -0.18817,-0.28234 -0.0861,-0.043 -0.20416,-0.0313 -0.29799,-0.0314 z m 1.41146,0.10979 c -0.0257,0.019 -0.0402,0.0881 -0.0314,0.15687 0.009,0.0688 0.0446,0.12878 0.15684,0.15686 0.11053,0.0277 0.2736,0.0178 0.34502,0 0.058,-0.0145 0.0355,-0.0618 -0.0157,-0.12551 -0.0512,-0.0637 -0.11902,-0.13009 -0.1725,-0.1568 -0.0642,-0.0322 -0.18679,-0.0314 -0.26661,-0.0314 -0.007,-0.003 -0.008,-0.005 -0.0157,0 z m -5.12827,0.15687 c -0.0209,10e-4 -0.0577,0.0157 -0.0784,0.0157 -0.0209,-0.0171 -0.2421,-0.004 -0.34501,0.0471 -0.0719,0.0359 -0.11887,0.0708 -0.14115,0.10976 -0.0223,0.0389 -0.0234,0.0942 0.0157,0.17254 0.0409,0.0817 0.046,0.13562 0.0628,0.17253 0.0167,0.0369 0.0485,0.0553 0.14116,0.0784 0.15045,0.0376 0.28588,0.0845 0.4234,0.0157 0.1063,-0.0532 0.15682,-0.20676 0.15685,-0.32938 0,-0.15135 -0.0423,-0.23411 -0.17252,-0.26667 -0.0201,-0.005 -0.0419,-0.0169 -0.0627,-0.0157 z m 5.78694,0.56465 c -0.0802,0.017 -0.0663,0.13761 0.0157,0.2196 0.0978,0.0978 0.20027,0.0645 0.2666,0.0314 0.0722,-0.0361 0.0447,-0.096 -0.0157,-0.14117 -0.0604,-0.0451 -0.15222,-0.0775 -0.15684,-0.0784 -0.0473,-0.0237 -0.083,-0.0371 -0.10978,-0.0314 z m 0.48616,0.69014 c -0.0421,0.0326 -0.17249,0.13958 -0.17249,0.20392 0,0.0613 0.0638,0.0608 0.14113,0.0471 0.0774,-0.0138 0.15994,-0.0408 0.17253,-0.0471 0.0726,-0.0363 -0.0585,-0.15088 -0.12546,-0.20392 -0.002,10e-4 -0.0118,-0.002 -0.0157,0 z m 0.0941,0.56468 c 0.003,0.004 0.0127,0.0266 0.0157,0.0313 0.0117,-0.01 0.0175,-0.0305 0.0157,-0.0313 -0.002,-6.4e-4 -0.0176,-0.007 -0.0314,0 z m 0.0157,0.0313 c -0.0554,0.0465 -0.22932,0.16455 -0.25092,0.25096 -0.0184,0.0736 0.30625,-0.012 0.31366,-0.0157 0.0728,-0.0364 -0.0147,-0.15913 -0.0627,-0.2353 z m 0.6587,0.17252 c -0.007,0.0744 -0.0853,0.27717 -0.0157,0.32941 0.10267,0.077 0.14951,0.0551 0.17251,0.0157 0.023,-0.0394 0.0206,-0.10004 0,-0.14115 -0.0393,-0.0786 -0.0848,-0.13033 -0.15682,-0.20393 z"
         id="path6111"
         style="fill:url(#radialGradient2873);fill-opacity:1;fill-rule:nonzero;stroke:none;display:inline" />
      <path
         d="m 256.29137,531.87508 c 0,0 -6.2957,-0.61012 -10.62728,2.52264 -4.33159,3.13276 -6.69905,10.00841 -11.73017,12.09237 -10.06225,4.16791 -17.89152,2.05664 -17.89152,2.05664 -4.60138,-11.1087 0.67993,-23.85892 11.78865,-28.46029 11.10871,-4.60138 23.85894,0.67993 28.46032,11.78864 z"
         id="path3339"
         style="color:#000000;fill:url(#radialGradient2870);fill-opacity:1;fill-rule:nonzero;stroke:none;stroke-width:20;marker:none;visibility:visible;display:inline;overflow:visible;enable-background:accumulate" />
    </g>
  </g>
</svg>
