<?xml version="1.0" encoding="UTF-8" standalone="no"?>
<!-- Created with Inkscape (http://www.inkscape.org/) -->

<svg
   xmlns:svg="http://www.w3.org/2000/svg"
   xmlns="http://www.w3.org/2000/svg"
   version="1.1"
   width="48"
   height="48"
   viewBox="0 0 48 48"
   id="svg2">
  <defs
     id="defs347" />
  <g
     transform="matrix(0.18685425,0,0,0.16593366,-45.922111,-48.690209)"
     id="layer1">
    <g
       id="g4154"
       style="stroke-width:6.69999981">
      <g
         transform="matrix(1.0731,0,0,1.0731,-986.58,-36.258)"
         id="g3138"
         style="fill:#b3b3b3;fill-rule:evenodd;stroke:#b3b3b3">
        <g
           transform="translate(-2.4062,-32.083)"
           id="g3140">
          <path
             d="m 1272.7,479.8 1.1,-131.58"
             id="path3142" />
          <path
             d="m 1264.3,441.24 h 18.3"
             id="path3144" />
          <path
             d="m 1286.3,428.76 h -25"
             id="path3146" />
          <path
             d="m 1290.8,403.8 h -34"
             id="path3148" />
          <path
             d="m 1292,365.24 -18.2,23.82 -17,-20.42"
             id="path3150" />
          <path
             d="m 1260.2,353.89 13,12.88 12.7,-13.14"
             id="path3152" />
        </g>
        <g
           transform="matrix(0.5,0.86602,-0.86602,0.5,1046.8,-897.82)"
           id="g3154">
          <path
             d="m 1272.7,479.8 1.1,-131.58"
             id="path3156" />
          <path
             d="m 1264.3,441.24 h 18.3"
             id="path3158" />
          <path
             d="m 1286.3,428.76 h -25"
             id="path3160" />
          <path
             d="m 1290.8,403.8 h -34"
             id="path3162" />
          <path
             d="m 1292,365.24 -18.2,23.82 -17,-20.42"
             id="path3164" />
          <path
             d="m 1260.2,353.89 13,12.88 12.7,-13.14"
             id="path3166" />
        </g>
        <g
           transform="matrix(-1,0,0,-1,2543.3,921.49)"
           id="g3168">
          <path
             d="m 1272.7,479.8 1.1,-131.58"
             id="path3170" />
          <path
             d="m 1264.3,441.24 h 18.3"
             id="path3172" />
          <path
             d="m 1286.3,428.76 h -25"
             id="path3174" />
          <path
             d="m 1290.8,403.8 h -34"
             id="path3176" />
          <path
             d="m 1292,365.24 -18.2,23.82 -17,-20.42"
             id="path3178" />
          <path
             d="m 1260.2,353.89 13,12.88 12.7,-13.14"
             id="path3180" />
        </g>
        <g
           transform="matrix(0.5,-0.86602,0.86602,0.5,220.57,1307.1)"
           id="g3182">
          <path
             d="m 1272.7,479.8 1.1,-131.58"
             id="path3184" />
          <path
             d="m 1264.3,441.24 h 18.3"
             id="path3186" />
          <path
             d="m 1286.3,428.76 h -25"
             id="path3188" />
          <path
             d="m 1290.8,403.8 h -34"
             id="path3190" />
          <path
             d="m 1292,365.24 -18.2,23.82 -17,-20.42"
             id="path3192" />
          <path
             d="m 1260.2,353.89 13,12.88 12.7,-13.14"
             id="path3194" />
        </g>
        <g
           transform="matrix(2.1968e-7,-0.57708,0.73278,-4.7433e-8,919.6,1179.3)"
           id="g3196">
          <path
             d="m 1272.7,479.8 1.1,-131.58"
             id="path3198" />
          <path
             d="m 1264.3,441.24 h 18.3"
             id="path3200" />
          <path
             d="m 1286.3,428.76 h -25"
             id="path3202" />
          <path
             d="m 1290.8,403.8 h -34"
             id="path3204" />
          <path
             d="m 1292,365.24 -18.2,23.82 -17,-20.42"
             id="path3206" />
          <path
             d="m 1260.2,353.89 13,12.88 12.7,-13.14"
             id="path3208" />
        </g>
        <g
           transform="matrix(-0.5,0.86602,-0.86602,-0.5,2321.2,-421.25)"
           id="g3210">
          <path
             d="m 1272.7,479.8 1.1,-131.58"
             id="path3212" />
          <path
             d="m 1264.3,441.24 h 18.3"
             id="path3214" />
          <path
             d="m 1286.3,428.76 h -25"
             id="path3216" />
          <path
             d="m 1290.8,403.8 h -34"
             id="path3218" />
          <path
             d="m 1292,365.24 -18.2,23.82 -17,-20.42"
             id="path3220" />
          <path
             d="m 1260.2,353.89 13,12.88 12.7,-13.14"
             id="path3222" />
        </g>
        <g
           transform="matrix(-0.5,-0.86602,0.86602,-0.5,1495.8,1786.1)"
           id="g3224">
          <path
             d="m 1272.7,479.8 1.1,-131.58"
             id="path3226" />
          <path
             d="m 1264.3,441.24 h 18.3"
             id="path3228" />
          <path
             d="m 1286.3,428.76 h -25"
             id="path3230" />
          <path
             d="m 1290.8,403.8 h -34"
             id="path3232" />
          <path
             d="m 1292,365.24 -18.2,23.82 -17,-20.42"
             id="path3234" />
          <path
             d="m 1260.2,353.89 13,12.88 12.7,-13.14"
             id="path3236" />
        </g>
        <g
           transform="matrix(0.51962,-0.25105,0.31878,0.65981,454.71,449.35)"
           id="g3238">
          <path
             d="m 1272.7,479.8 1.1,-131.58"
             id="path3240" />
          <path
             d="m 1264.3,441.24 h 18.3"
             id="path3242" />
          <path
             d="m 1286.3,428.76 h -25"
             id="path3244" />
          <path
             d="m 1290.8,403.8 h -34"
             id="path3246" />
          <path
             d="m 1292,365.24 -18.2,23.82 -17,-20.42"
             id="path3248" />
          <path
             d="m 1260.2,353.89 13,12.88 12.7,-13.14"
             id="path3250" />
        </g>
        <g
           transform="matrix(0.47823,0.32299,-0.41014,0.60726,854.83,-257.16)"
           id="g3252">
          <path
             d="m 1272.7,479.8 1.1,-131.58"
             id="path3254" />
          <path
             d="m 1264.3,441.24 h 18.3"
             id="path3256" />
          <path
             d="m 1286.3,428.76 h -25"
             id="path3258" />
          <path
             d="m 1290.8,403.8 h -34"
             id="path3260" />
          <path
             d="m 1292,365.24 -18.2,23.82 -17,-20.42"
             id="path3262" />
          <path
             d="m 1260.2,353.89 13,12.88 12.7,-13.14"
             id="path3264" />
        </g>
        <g
           transform="matrix(3.6007e-4,0.57708,-0.73278,4.5755e-4,1617.6,-291.79)"
           id="g3266">
          <path
             d="m 1272.7,479.8 1.1,-131.58"
             id="path3268" />
          <path
             d="m 1264.3,441.24 h 18.3"
             id="path3270" />
          <path
             d="m 1286.3,428.76 h -25"
             id="path3272" />
          <path
             d="m 1290.8,403.8 h -34"
             id="path3274" />
          <path
             d="m 1292,365.24 -18.2,23.82 -17,-20.42"
             id="path3276" />
          <path
             d="m 1260.2,353.89 13,12.88 12.7,-13.14"
             id="path3278" />
        </g>
        <g
           transform="matrix(-0.51252,-0.26524,0.3368,-0.6508,1761.5,1092)"
           id="g3280">
          <path
             d="m 1272.7,479.8 1.1,-131.58"
             id="path3282" />
          <path
             d="m 1264.3,441.24 h 18.3"
             id="path3284" />
          <path
             d="m 1286.3,428.76 h -25"
             id="path3286" />
          <path
             d="m 1290.8,403.8 h -34"
             id="path3288" />
          <path
             d="m 1292,365.24 -18.2,23.82 -17,-20.42"
             id="path3290" />
          <path
             d="m 1260.2,353.89 13,12.88 12.7,-13.14"
             id="path3292" />
        </g>
        <g
           transform="matrix(-0.48815,0.30779,-0.39084,-0.61985,2077.2,347.02)"
           id="g3294">
          <path
             d="m 1272.7,479.8 1.1,-131.58"
             id="path3296" />
          <path
             d="m 1264.3,441.24 h 18.3"
             id="path3298" />
          <path
             d="m 1286.3,428.76 h -25"
             id="path3300" />
          <path
             d="m 1290.8,403.8 h -34"
             id="path3302" />
          <path
             d="m 1292,365.24 -18.2,23.82 -17,-20.42"
             id="path3304" />
          <path
             d="m 1260.2,353.89 13,12.88 12.7,-13.14"
             id="path3306" />
        </g>
        <g
           transform="translate(-2.4062,-32.083)"
           id="g3308">
          <path
             d="m 1272.7,479.8 1.1,-131.58"
             id="path3310" />
          <path
             d="m 1264.3,441.24 h 18.3"
             id="path3312" />
          <path
             d="m 1286.3,428.76 h -25"
             id="path3314" />
          <path
             d="m 1290.8,403.8 h -34"
             id="path3316" />
          <path
             d="m 1292,365.24 -18.2,23.82 -17,-20.42"
             id="path3318" />
          <path
             d="m 1260.2,353.89 13,12.88 12.7,-13.14"
             id="path3320" />
        </g>
        <g
           transform="matrix(0.5,0.86602,-0.86602,0.5,1046.8,-897.82)"
           id="g3322">
          <path
             d="m 1272.7,479.8 1.1,-131.58"
             id="path3324" />
          <path
             d="m 1264.3,441.24 h 18.3"
             id="path3326" />
          <path
             d="m 1286.3,428.76 h -25"
             id="path3328" />
          <path
             d="m 1290.8,403.8 h -34"
             id="path3330" />
          <path
             d="m 1292,365.24 -18.2,23.82 -17,-20.42"
             id="path3332" />
          <path
             d="m 1260.2,353.89 13,12.88 12.7,-13.14"
             id="path3334" />
        </g>
        <g
           transform="matrix(-1,0,0,-1,2543.3,921.49)"
           id="g3336">
          <path
             d="m 1272.7,479.8 1.1,-131.58"
             id="path3338" />
          <path
             d="m 1264.3,441.24 h 18.3"
             id="path3340" />
          <path
             d="m 1286.3,428.76 h -25"
             id="path3342" />
          <path
             d="m 1290.8,403.8 h -34"
             id="path3344" />
          <path
             d="m 1292,365.24 -18.2,23.82 -17,-20.42"
             id="path3346" />
          <path
             d="m 1260.2,353.89 13,12.88 12.7,-13.14"
             id="path3348" />
        </g>
        <g
           transform="matrix(0.5,-0.86602,0.86602,0.5,220.57,1307.1)"
           id="g3350">
          <path
             d="m 1272.7,479.8 1.1,-131.58"
             id="path3352" />
          <path
             d="m 1264.3,441.24 h 18.3"
             id="path3354" />
          <path
             d="m 1286.3,428.76 h -25"
             id="path3356" />
          <path
             d="m 1290.8,403.8 h -34"
             id="path3358" />
          <path
             d="m 1292,365.24 -18.2,23.82 -17,-20.42"
             id="path3360" />
          <path
             d="m 1260.2,353.89 13,12.88 12.7,-13.14"
             id="path3362" />
        </g>
        <g
           transform="matrix(2.1968e-7,-0.57708,0.73278,-4.7433e-8,919.6,1179.3)"
           id="g3364">
          <path
             d="m 1272.7,479.8 1.1,-131.58"
             id="path3366" />
          <path
             d="m 1264.3,441.24 h 18.3"
             id="path3368" />
          <path
             d="m 1286.3,428.76 h -25"
             id="path3370" />
          <path
             d="m 1290.8,403.8 h -34"
             id="path3372" />
          <path
             d="m 1292,365.24 -18.2,23.82 -17,-20.42"
             id="path3374" />
          <path
             d="m 1260.2,353.89 13,12.88 12.7,-13.14"
             id="path3376" />
        </g>
        <g
           transform="matrix(-0.5,0.86602,-0.86602,-0.5,2321.2,-421.25)"
           id="g3378">
          <path
             d="m 1272.7,479.8 1.1,-131.58"
             id="path3380" />
          <path
             d="m 1264.3,441.24 h 18.3"
             id="path3382" />
          <path
             d="m 1286.3,428.76 h -25"
             id="path3384" />
          <path
             d="m 1290.8,403.8 h -34"
             id="path3386" />
          <path
             d="m 1292,365.24 -18.2,23.82 -17,-20.42"
             id="path3388" />
          <path
             d="m 1260.2,353.89 13,12.88 12.7,-13.14"
             id="path3390" />
        </g>
        <g
           transform="matrix(-0.5,-0.86602,0.86602,-0.5,1495.8,1786.1)"
           id="g3392">
          <path
             d="m 1272.7,479.8 1.1,-131.58"
             id="path3394" />
          <path
             d="m 1264.3,441.24 h 18.3"
             id="path3396" />
          <path
             d="m 1286.3,428.76 h -25"
             id="path3398" />
          <path
             d="m 1290.8,403.8 h -34"
             id="path3400" />
          <path
             d="m 1292,365.24 -18.2,23.82 -17,-20.42"
             id="path3402" />
          <path
             d="m 1260.2,353.89 13,12.88 12.7,-13.14"
             id="path3404" />
        </g>
        <g
           transform="matrix(0.51962,-0.25105,0.31878,0.65981,454.71,449.35)"
           id="g3406">
          <path
             d="m 1272.7,479.8 1.1,-131.58"
             id="path3408" />
          <path
             d="m 1264.3,441.24 h 18.3"
             id="path3410" />
          <path
             d="m 1286.3,428.76 h -25"
             id="path3412" />
          <path
             d="m 1290.8,403.8 h -34"
             id="path3414" />
          <path
             d="m 1292,365.24 -18.2,23.82 -17,-20.42"
             id="path3416" />
          <path
             d="m 1260.2,353.89 13,12.88 12.7,-13.14"
             id="path3418" />
        </g>
        <g
           transform="matrix(0.47823,0.32299,-0.41014,0.60726,854.83,-257.16)"
           id="g3420">
          <path
             d="m 1272.7,479.8 1.1,-131.58"
             id="path3422" />
          <path
             d="m 1264.3,441.24 h 18.3"
             id="path3424" />
          <path
             d="m 1286.3,428.76 h -25"
             id="path3426" />
          <path
             d="m 1290.8,403.8 h -34"
             id="path3428" />
          <path
             d="m 1292,365.24 -18.2,23.82 -17,-20.42"
             id="path3430" />
          <path
             d="m 1260.2,353.89 13,12.88 12.7,-13.14"
             id="path3432" />
        </g>
        <g
           transform="matrix(3.6007e-4,0.57708,-0.73278,4.5755e-4,1617.6,-291.79)"
           id="g3434">
          <path
             d="m 1272.7,479.8 1.1,-131.58"
             id="path3436" />
          <path
             d="m 1264.3,441.24 h 18.3"
             id="path3438" />
          <path
             d="m 1286.3,428.76 h -25"
             id="path3440" />
          <path
             d="m 1290.8,403.8 h -34"
             id="path3442" />
          <path
             d="m 1292,365.24 -18.2,23.82 -17,-20.42"
             id="path3444" />
          <path
             d="m 1260.2,353.89 13,12.88 12.7,-13.14"
             id="path3446" />
        </g>
        <g
           transform="matrix(-0.51252,-0.26524,0.3368,-0.6508,1761.5,1092)"
           id="g3448">
          <path
             d="m 1272.7,479.8 1.1,-131.58"
             id="path3450" />
          <path
             d="m 1264.3,441.24 h 18.3"
             id="path3452" />
          <path
             d="m 1286.3,428.76 h -25"
             id="path3454" />
          <path
             d="m 1290.8,403.8 h -34"
             id="path3456" />
          <path
             d="m 1292,365.24 -18.2,23.82 -17,-20.42"
             id="path3458" />
          <path
             d="m 1260.2,353.89 13,12.88 12.7,-13.14"
             id="path3460" />
        </g>
        <g
           transform="matrix(-0.48815,0.30779,-0.39084,-0.61985,2077.2,347.02)"
           id="g3462">
          <path
             d="m 1272.7,479.8 1.1,-131.58"
             id="path3464" />
          <path
             d="m 1264.3,441.24 h 18.3"
             id="path3466" />
          <path
             d="m 1286.3,428.76 h -25"
             id="path3468" />
          <path
             d="m 1290.8,403.8 h -34"
             id="path3470" />
          <path
             d="m 1292,365.24 -18.2,23.82 -17,-20.42"
             id="path3472" />
          <path
             d="m 1260.2,353.89 13,12.88 12.7,-13.14"
             id="path3474" />
        </g>
      </g>
      <g
         transform="matrix(1.0731,0,0,1.0731,-992.58,-41.972)"
         id="g6515"
         style="fill:none;stroke:#d7e3f4">
        <g
           transform="translate(-2.4062,-32.083)"
           id="g5114">
          <path
             d="m 1272.7,479.8 1.1,-131.58"
             id="path5102" />
          <path
             d="m 1264.3,441.24 h 18.3"
             id="path5104" />
          <path
             d="m 1286.3,428.76 h -25"
             id="path5106" />
          <path
             d="m 1290.8,403.8 h -34"
             id="path5108" />
          <path
             d="m 1292,365.24 -18.2,23.82 -17,-20.42"
             id="path5110" />
          <path
             d="m 1260.2,353.89 13,12.88 12.7,-13.14"
             id="path5112" />
        </g>
        <g
           transform="matrix(0.5,0.86602,-0.86602,0.5,1046.8,-897.82)"
           id="g6007">
          <path
             d="m 1272.7,479.8 1.1,-131.58"
             id="path6009" />
          <path
             d="m 1264.3,441.24 h 18.3"
             id="path6011" />
          <path
             d="m 1286.3,428.76 h -25"
             id="path6013" />
          <path
             d="m 1290.8,403.8 h -34"
             id="path6015" />
          <path
             d="m 1292,365.24 -18.2,23.82 -17,-20.42"
             id="path6017" />
          <path
             d="m 1260.2,353.89 13,12.88 12.7,-13.14"
             id="path6019" />
        </g>
        <g
           transform="matrix(-1,0,0,-1,2543.3,921.49)"
           id="g6021">
          <path
             d="m 1272.7,479.8 1.1,-131.58"
             id="path6023" />
          <path
             d="m 1264.3,441.24 h 18.3"
             id="path6025" />
          <path
             d="m 1286.3,428.76 h -25"
             id="path6027" />
          <path
             d="m 1290.8,403.8 h -34"
             id="path6029" />
          <path
             d="m 1292,365.24 -18.2,23.82 -17,-20.42"
             id="path6031" />
          <path
             d="m 1260.2,353.89 13,12.88 12.7,-13.14"
             id="path6033" />
        </g>
        <g
           transform="matrix(0.5,-0.86602,0.86602,0.5,220.57,1307.1)"
           id="g6035">
          <path
             d="m 1272.7,479.8 1.1,-131.58"
             id="path6037" />
          <path
             d="m 1264.3,441.24 h 18.3"
             id="path6039" />
          <path
             d="m 1286.3,428.76 h -25"
             id="path6041" />
          <path
             d="m 1290.8,403.8 h -34"
             id="path6043" />
          <path
             d="m 1292,365.24 -18.2,23.82 -17,-20.42"
             id="path6045" />
          <path
             d="m 1260.2,353.89 13,12.88 12.7,-13.14"
             id="path6047" />
        </g>
        <g
           transform="matrix(2.1968e-7,-0.57708,0.73278,-4.7433e-8,919.6,1179.3)"
           id="g6049">
          <path
             d="m 1272.7,479.8 1.1,-131.58"
             id="path6051" />
          <path
             d="m 1264.3,441.24 h 18.3"
             id="path6053" />
          <path
             d="m 1286.3,428.76 h -25"
             id="path6055" />
          <path
             d="m 1290.8,403.8 h -34"
             id="path6057" />
          <path
             d="m 1292,365.24 -18.2,23.82 -17,-20.42"
             id="path6059" />
          <path
             d="m 1260.2,353.89 13,12.88 12.7,-13.14"
             id="path6061" />
        </g>
        <g
           transform="matrix(-0.5,0.86602,-0.86602,-0.5,2321.2,-421.25)"
           id="g6105">
          <path
             d="m 1272.7,479.8 1.1,-131.58"
             id="path6107" />
          <path
             d="m 1264.3,441.24 h 18.3"
             id="path6109" />
          <path
             d="m 1286.3,428.76 h -25"
             id="path6111" />
          <path
             d="m 1290.8,403.8 h -34"
             id="path6113" />
          <path
             d="m 1292,365.24 -18.2,23.82 -17,-20.42"
             id="path6115" />
          <path
             d="m 1260.2,353.89 13,12.88 12.7,-13.14"
             id="path6117" />
        </g>
        <g
           transform="matrix(-0.5,-0.86602,0.86602,-0.5,1495.8,1786.1)"
           id="g6119">
          <path
             d="m 1272.7,479.8 1.1,-131.58"
             id="path6121" />
          <path
             d="m 1264.3,441.24 h 18.3"
             id="path6123" />
          <path
             d="m 1286.3,428.76 h -25"
             id="path6125" />
          <path
             d="m 1290.8,403.8 h -34"
             id="path6127" />
          <path
             d="m 1292,365.24 -18.2,23.82 -17,-20.42"
             id="path6129" />
          <path
             d="m 1260.2,353.89 13,12.88 12.7,-13.14"
             id="path6131" />
        </g>
        <g
           transform="matrix(0.51962,-0.25105,0.31878,0.65981,454.71,449.35)"
           id="g6133">
          <path
             d="m 1272.7,479.8 1.1,-131.58"
             id="path6135" />
          <path
             d="m 1264.3,441.24 h 18.3"
             id="path6137" />
          <path
             d="m 1286.3,428.76 h -25"
             id="path6139" />
          <path
             d="m 1290.8,403.8 h -34"
             id="path6141" />
          <path
             d="m 1292,365.24 -18.2,23.82 -17,-20.42"
             id="path6143" />
          <path
             d="m 1260.2,353.89 13,12.88 12.7,-13.14"
             id="path6145" />
        </g>
        <g
           transform="matrix(0.47823,0.32299,-0.41014,0.60726,854.83,-257.16)"
           id="g6147">
          <path
             d="m 1272.7,479.8 1.1,-131.58"
             id="path6149" />
          <path
             d="m 1264.3,441.24 h 18.3"
             id="path6151" />
          <path
             d="m 1286.3,428.76 h -25"
             id="path6153" />
          <path
             d="m 1290.8,403.8 h -34"
             id="path6155" />
          <path
             d="m 1292,365.24 -18.2,23.82 -17,-20.42"
             id="path6157" />
          <path
             d="m 1260.2,353.89 13,12.88 12.7,-13.14"
             id="path6159" />
        </g>
        <g
           transform="matrix(3.6007e-4,0.57708,-0.73278,4.5755e-4,1617.6,-291.79)"
           id="g6161">
          <path
             d="m 1272.7,479.8 1.1,-131.58"
             id="path6163" />
          <path
             d="m 1264.3,441.24 h 18.3"
             id="path6165" />
          <path
             d="m 1286.3,428.76 h -25"
             id="path6167" />
          <path
             d="m 1290.8,403.8 h -34"
             id="path6169" />
          <path
             d="m 1292,365.24 -18.2,23.82 -17,-20.42"
             id="path6171" />
          <path
             d="m 1260.2,353.89 13,12.88 12.7,-13.14"
             id="path6173" />
        </g>
        <g
           transform="matrix(-0.51252,-0.26524,0.3368,-0.6508,1761.5,1092)"
           id="g6175">
          <path
             d="m 1272.7,479.8 1.1,-131.58"
             id="path6177" />
          <path
             d="m 1264.3,441.24 h 18.3"
             id="path6179" />
          <path
             d="m 1286.3,428.76 h -25"
             id="path6181" />
          <path
             d="m 1290.8,403.8 h -34"
             id="path6183" />
          <path
             d="m 1292,365.24 -18.2,23.82 -17,-20.42"
             id="path6185" />
          <path
             d="m 1260.2,353.89 13,12.88 12.7,-13.14"
             id="path6187" />
        </g>
        <g
           transform="matrix(-0.48815,0.30779,-0.39084,-0.61985,2077.2,347.02)"
           id="g6189">
          <path
             d="m 1272.7,479.8 1.1,-131.58"
             id="path6191" />
          <path
             d="m 1264.3,441.24 h 18.3"
             id="path6193" />
          <path
             d="m 1286.3,428.76 h -25"
             id="path6195" />
          <path
             d="m 1290.8,403.8 h -34"
             id="path6197" />
          <path
             d="m 1292,365.24 -18.2,23.82 -17,-20.42"
             id="path6199" />
          <path
             d="m 1260.2,353.89 13,12.88 12.7,-13.14"
             id="path6201" />
        </g>
        <g
           transform="translate(-2.4062,-32.083)"
           id="g6347">
          <path
             d="m 1272.7,479.8 1.1,-131.58"
             id="path6349" />
          <path
             d="m 1264.3,441.24 h 18.3"
             id="path6351" />
          <path
             d="m 1286.3,428.76 h -25"
             id="path6353" />
          <path
             d="m 1290.8,403.8 h -34"
             id="path6355" />
          <path
             d="m 1292,365.24 -18.2,23.82 -17,-20.42"
             id="path6357" />
          <path
             d="m 1260.2,353.89 13,12.88 12.7,-13.14"
             id="path6359" />
        </g>
        <g
           transform="matrix(0.5,0.86602,-0.86602,0.5,1046.8,-897.82)"
           id="g6361">
          <path
             d="m 1272.7,479.8 1.1,-131.58"
             id="path6363" />
          <path
             d="m 1264.3,441.24 h 18.3"
             id="path6365" />
          <path
             d="m 1286.3,428.76 h -25"
             id="path6367" />
          <path
             d="m 1290.8,403.8 h -34"
             id="path6369" />
          <path
             d="m 1292,365.24 -18.2,23.82 -17,-20.42"
             id="path6371" />
          <path
             d="m 1260.2,353.89 13,12.88 12.7,-13.14"
             id="path6373" />
        </g>
        <g
           transform="matrix(-1,0,0,-1,2543.3,921.49)"
           id="g6375">
          <path
             d="m 1272.7,479.8 1.1,-131.58"
             id="path6377" />
          <path
             d="m 1264.3,441.24 h 18.3"
             id="path6379" />
          <path
             d="m 1286.3,428.76 h -25"
             id="path6381" />
          <path
             d="m 1290.8,403.8 h -34"
             id="path6383" />
          <path
             d="m 1292,365.24 -18.2,23.82 -17,-20.42"
             id="path6385" />
          <path
             d="m 1260.2,353.89 13,12.88 12.7,-13.14"
             id="path6387" />
        </g>
        <g
           transform="matrix(0.5,-0.86602,0.86602,0.5,220.57,1307.1)"
           id="g6389">
          <path
             d="m 1272.7,479.8 1.1,-131.58"
             id="path6391" />
          <path
             d="m 1264.3,441.24 h 18.3"
             id="path6393" />
          <path
             d="m 1286.3,428.76 h -25"
             id="path6395" />
          <path
             d="m 1290.8,403.8 h -34"
             id="path6397" />
          <path
             d="m 1292,365.24 -18.2,23.82 -17,-20.42"
             id="path6399" />
          <path
             d="m 1260.2,353.89 13,12.88 12.7,-13.14"
             id="path6401" />
        </g>
        <g
           transform="matrix(2.1968e-7,-0.57708,0.73278,-4.7433e-8,919.6,1179.3)"
           id="g6403">
          <path
             d="m 1272.7,479.8 1.1,-131.58"
             id="path6405" />
          <path
             d="m 1264.3,441.24 h 18.3"
             id="path6407" />
          <path
             d="m 1286.3,428.76 h -25"
             id="path6409" />
          <path
             d="m 1290.8,403.8 h -34"
             id="path6411" />
          <path
             d="m 1292,365.24 -18.2,23.82 -17,-20.42"
             id="path6413" />
          <path
             d="m 1260.2,353.89 13,12.88 12.7,-13.14"
             id="path6415" />
        </g>
        <g
           transform="matrix(-0.5,0.86602,-0.86602,-0.5,2321.2,-421.25)"
           id="g6417">
          <path
             d="m 1272.7,479.8 1.1,-131.58"
             id="path6419" />
          <path
             d="m 1264.3,441.24 h 18.3"
             id="path6421" />
          <path
             d="m 1286.3,428.76 h -25"
             id="path6423" />
          <path
             d="m 1290.8,403.8 h -34"
             id="path6425" />
          <path
             d="m 1292,365.24 -18.2,23.82 -17,-20.42"
             id="path6427" />
          <path
             d="m 1260.2,353.89 13,12.88 12.7,-13.14"
             id="path6429" />
        </g>
        <g
           transform="matrix(-0.5,-0.86602,0.86602,-0.5,1495.8,1786.1)"
           id="g6431">
          <path
             d="m 1272.7,479.8 1.1,-131.58"
             id="path6433" />
          <path
             d="m 1264.3,441.24 h 18.3"
             id="path6435" />
          <path
             d="m 1286.3,428.76 h -25"
             id="path6437" />
          <path
             d="m 1290.8,403.8 h -34"
             id="path6439" />
          <path
             d="m 1292,365.24 -18.2,23.82 -17,-20.42"
             id="path6441" />
          <path
             d="m 1260.2,353.89 13,12.88 12.7,-13.14"
             id="path6443" />
        </g>
        <g
           transform="matrix(0.51962,-0.25105,0.31878,0.65981,454.71,449.35)"
           id="g6445">
          <path
             d="m 1272.7,479.8 1.1,-131.58"
             id="path6447" />
          <path
             d="m 1264.3,441.24 h 18.3"
             id="path6449" />
          <path
             d="m 1286.3,428.76 h -25"
             id="path6451" />
          <path
             d="m 1290.8,403.8 h -34"
             id="path6453" />
          <path
             d="m 1292,365.24 -18.2,23.82 -17,-20.42"
             id="path6455" />
          <path
             d="m 1260.2,353.89 13,12.88 12.7,-13.14"
             id="path6457" />
        </g>
        <g
           transform="matrix(0.47823,0.32299,-0.41014,0.60726,854.83,-257.16)"
           id="g6459">
          <path
             d="m 1272.7,479.8 1.1,-131.58"
             id="path6461" />
          <path
             d="m 1264.3,441.24 h 18.3"
             id="path6463" />
          <path
             d="m 1286.3,428.76 h -25"
             id="path6465" />
          <path
             d="m 1290.8,403.8 h -34"
             id="path6467" />
          <path
             d="m 1292,365.24 -18.2,23.82 -17,-20.42"
             id="path6469" />
          <path
             d="m 1260.2,353.89 13,12.88 12.7,-13.14"
             id="path6471" />
        </g>
        <g
           transform="matrix(3.6007e-4,0.57708,-0.73278,4.5755e-4,1617.6,-291.79)"
           id="g6473">
          <path
             d="m 1272.7,479.8 1.1,-131.58"
             id="path6475" />
          <path
             d="m 1264.3,441.24 h 18.3"
             id="path6477" />
          <path
             d="m 1286.3,428.76 h -25"
             id="path6479" />
          <path
             d="m 1290.8,403.8 h -34"
             id="path6481" />
          <path
             d="m 1292,365.24 -18.2,23.82 -17,-20.42"
             id="path6483" />
          <path
             d="m 1260.2,353.89 13,12.88 12.7,-13.14"
             id="path6485" />
        </g>
        <g
           transform="matrix(-0.51252,-0.26524,0.3368,-0.6508,1761.5,1092)"
           id="g6487">
          <path
             d="m 1272.7,479.8 1.1,-131.58"
             id="path6489" />
          <path
             d="m 1264.3,441.24 h 18.3"
             id="path6491" />
          <path
             d="m 1286.3,428.76 h -25"
             id="path6493" />
          <path
             d="m 1290.8,403.8 h -34"
             id="path6495" />
          <path
             d="m 1292,365.24 -18.2,23.82 -17,-20.42"
             id="path6497" />
          <path
             d="m 1260.2,353.89 13,12.88 12.7,-13.14"
             id="path6499" />
        </g>
        <g
           transform="matrix(-0.48815,0.30779,-0.39084,-0.61985,2077.2,347.02)"
           id="g6501">
          <path
             d="m 1272.7,479.8 1.1,-131.58"
             id="path6503" />
          <path
             d="m 1264.3,441.24 h 18.3"
             id="path6505" />
          <path
             d="m 1286.3,428.76 h -25"
             id="path6507" />
          <path
             d="m 1290.8,403.8 h -34"
             id="path6509" />
          <path
             d="m 1292,365.24 -18.2,23.82 -17,-20.42"
             id="path6511" />
          <path
             d="m 1260.2,353.89 13,12.88 12.7,-13.14"
             id="path6513" />
        </g>
      </g>
    </g>
  </g>
</svg>
