<?xml version="1.0" encoding="UTF-8" standalone="no"?>
<!-- Created with Inkscape (http://www.inkscape.org/) -->

<svg
   xmlns:dc="http://purl.org/dc/elements/1.1/"
   xmlns:cc="http://creativecommons.org/ns#"
   xmlns:rdf="http://www.w3.org/1999/02/22-rdf-syntax-ns#"
   xmlns:svg="http://www.w3.org/2000/svg"
   xmlns="http://www.w3.org/2000/svg"
   xmlns:xlink="http://www.w3.org/1999/xlink"
   xmlns:inkscape="http://www.inkscape.org/namespaces/inkscape"
   version="1.0"
   width="48"
   height="48"
   viewBox="0 0 48 48"
   id="svg3533">
  <metadata
     id="metadata55">
    <rdf:RDF>
      <cc:Work
         rdf:about="">
        <dc:format>image/svg+xml</dc:format>
        <dc:type
           rdf:resource="http://purl.org/dc/dcmitype/StillImage" />
      </cc:Work>
    </rdf:RDF>
  </metadata>
  <defs
     id="defs3535">
    <radialGradient
       cx="-80.336998"
       cy="531.58002"
       r="19.268999"
       id="radialGradient3853"
       xlink:href="#linearGradient3726"
       gradientUnits="userSpaceOnUse"
       gradientTransform="matrix(1,0,0,0.6055,0,209.71)" />
    <linearGradient
       id="linearGradient3726">
      <stop
         id="stop3728"
         style="stop-color:#555753;stop-opacity:1"
         offset="0" />
      <stop
         id="stop3730"
         style="stop-color:#555753;stop-opacity:0"
         offset="1" />
    </linearGradient>
    <radialGradient
       cx="-69.827003"
       cy="531.58002"
       r="19.268999"
       id="radialGradient3849"
       xlink:href="#linearGradient3726"
       gradientUnits="userSpaceOnUse"
       gradientTransform="matrix(1,0,0,0.6055,0,209.71)" />
    <linearGradient
       x1="-54.234001"
       y1="588.47998"
       x2="-39.977001"
       y2="628.47998"
       id="linearGradient3863"
       gradientUnits="userSpaceOnUse"
       gradientTransform="translate(400.69,-145.8)">
      <stop
         id="stop3859"
         style="stop-color:#ffffff;stop-opacity:1"
         offset="0" />
      <stop
         id="stop3861"
         style="stop-color:#ffffff;stop-opacity:0"
         offset="1" />
    </linearGradient>
    <linearGradient
       x1="-211.27"
       y1="651.35999"
       x2="-121.84"
       y2="686.35999"
       id="linearGradient3947"
       gradientUnits="userSpaceOnUse"
       gradientTransform="translate(400.69,-145.8)">
      <stop
         id="stop3943"
         style="stop-color:#fcfcfb;stop-opacity:1"
         offset="0" />
      <stop
         id="stop3945"
         style="stop-color:#fcfcfb;stop-opacity:0"
         offset="1" />
    </linearGradient>
    <linearGradient
       x1="-59.965"
       y1="706.53003"
       x2="-56.264999"
       y2="723.14001"
       id="linearGradient3981"
       xlink:href="#linearGradient3975"
       gradientUnits="userSpaceOnUse"
       gradientTransform="translate(400.69,-145.8)" />
    <linearGradient
       x1="-59.965"
       y1="706.53003"
       x2="-56.264999"
       y2="723.14001"
       id="linearGradient3985"
       xlink:href="#linearGradient3975"
       gradientUnits="userSpaceOnUse"
       gradientTransform="matrix(0.87759,0.17805,-0.16912,0.83356,397.08,-39.175)" />
    <linearGradient
       id="linearGradient3975">
      <stop
         id="stop3977"
         style="stop-color:#eeeeec;stop-opacity:1"
         offset="0" />
      <stop
         id="stop3979"
         style="stop-color:#eeeeec;stop-opacity:0"
         offset="1" />
    </linearGradient>
    <linearGradient
       x1="-59.965"
       y1="706.53003"
       x2="-56.264999"
       y2="723.14001"
       id="linearGradient3991"
       xlink:href="#linearGradient3975"
       gradientUnits="userSpaceOnUse"
       gradientTransform="matrix(-0.87759,0.17805,0.16912,0.83356,313.27,-37.76)" />
    <radialGradient
       cx="-80.336998"
       cy="531.58002"
       r="19.268999"
       id="radialGradient2862"
       xlink:href="#linearGradient3726"
       gradientUnits="userSpaceOnUse"
       gradientTransform="matrix(1,0,0,0.6055,0,209.71)" />
  </defs>
  <g
     transform="matrix(0.12734798,0,0,0.17969989,-20.571793,-71.206617)"
     id="layer1">
    <path
       d="m 129.4,245.31 a 71.771,43.487 0 1 1 -143.54,0 71.771,43.487 0 1 1 143.54,0 z"
       inkscape:connector-curvature="0"
       transform="matrix(1.1576,0,0,1,283.97,339.17)"
       id="path2639"
       style="fill:#5d3667" />
    <path
       d="m 350.82,490.13 c -104.45,0 -162.07,30.62 -188.49,54.99 55.44,39.96 119.73,53.57 188.49,53 68.38,0.37 126.85,-18.35 187.44,-52.5 -26.42,-24.37 -83,-55.49 -187.44,-55.49 z"
       inkscape:connector-curvature="0"
       id="path2878"
       style="fill:#ad7fa8" />
    <path
       d="m 161.54,545.19 c 56.58,37.64 119.3,54.86 187.69,54.49 h 0.04 c 68.39,0.37 128.61,-19.85 189.19,-53.99 -47.4,10.59 -127.53,40.03 -183.8,36.92 -1.83,0 -3.63,-0.01 -5.43,-0.05 -1.79,0.04 -3.58,0.05 -5.39,0.05 -56.27,3.11 -134.9,-26.83 -182.3,-37.42 z"
       inkscape:connector-curvature="0"
       id="path3654"
       style="fill:#5c3566;fill-opacity:0.98000004" />
    <path
       d="m 105.06,571.53 a 48.742,13.132539 0 1 1 -97.484,0 48.742,13.132539 0 1 1 97.484,0 z"
       inkscape:connector-curvature="0"
       transform="matrix(1.7538,0,0,1.7538,253.98,-486.07)"
       id="path3659"
       style="fill:#d3d7cf;fill-opacity:0.98000004" />
    <path
       d="m 352.74,519.47 c -29.91,0 -54.19,6.52 -54.38,14.57 14.78,3.28 33.73,5.24 54.38,5.24 20.66,0 39.64,-1.95 54.42,-5.24 -0.19,-8.05 -24.51,-14.57 -54.42,-14.57 z"
       inkscape:connector-curvature="0"
       id="path3661"
       style="fill:#555753;fill-opacity:0.98000004" />
    <path
       d="m 438.5,504.69 c 0,37.5 -34.67,40.11 -86.26,40.76 -56.42,0.7 -87.5,-5.88 -84.7,-40.76 3,-37.27 38.3,-67.94 85.48,-67.94 47.18,0 85.48,30.44 85.48,67.94 z"
       inkscape:connector-curvature="0"
       id="path3666"
       style="opacity:0.73944002;fill:#eeeeec;fill-opacity:0.98000004" />
    <g
       transform="translate(401.19,-123.3)"
       id="g3835">
      <g
         transform="translate(109,127)"
         id="g3776">
        <path
           d="m -156.94,488.84 c -16.18,0 -29.34,13.38 -29.34,29.88 0,5.53 1.49,10.71 4.06,15.16 8.57,0.78 17.74,1.21 27.28,1.21 8,0 15.73,-0.31 23.06,-0.87 2.7,-4.52 4.26,-9.83 4.26,-15.5 0,-16.5 -13.13,-29.88 -29.32,-29.88 z"
           inkscape:connector-curvature="0"
           id="path3700"
           style="fill:#4d9a06;fill-opacity:0.98039" />
        <path
           d="m -50.558,531.58 a 19.269,11.667 0 1 1 -38.537,0 19.269,11.667 0 1 1 38.537,0 z"
           inkscape:connector-curvature="0"
           transform="matrix(0.78989,0,0,0.78989,-102.77,82.924)"
           id="path3716"
           style="fill:url(#radialGradient3849)" />
        <path
           d="m -190.69,446.7 c -2.41,0 -4.35,2.17 -4.35,4.84 0,2.67 1.94,4.81 4.35,4.81 2.4,0 4.37,-2.14 4.37,-4.81 0,-0.14 -0.02,-0.28 -0.03,-0.42 2,-0.43 4.67,-0.72 7.31,-0.1 2.6,0.61 5.15,2.01 7.23,5.14 1.75,2.62 3.16,6.55 3.73,12.26 -4.55,3.71 -7.51,9.66 -7.51,16.39 0,11.24 8.24,20.34 18.37,20.34 10.13,0 18.34,-9.1 18.34,-20.34 0,-7.7 -3.87,-14.42 -9.58,-17.87 1.72,-5.6 3.92,-9.25 6.2,-11.5 2.67,-2.64 5.44,-3.5 8.12,-3.58 2.71,-0.08 5.26,0.76 7.13,1.58 -0.04,0.13 -0.07,0.26 -0.1,0.4 -0.53,2.61 0.96,5.12 3.31,5.6 2.36,0.48 4.7,-1.24 5.23,-3.85 0.54,-2.61 -0.95,-5.12 -3.3,-5.61 -1.18,-0.24 -2.36,0.07 -3.31,0.77 -1.19,-0.56 -2.69,-1.13 -4.37,-1.53 -1.44,-0.34 -3.02,-0.57 -4.69,-0.52 -3.34,0.1 -7.04,1.3 -10.27,4.49 -2.68,2.66 -5.03,6.64 -6.84,12.37 -1.84,-0.69 -3.81,-1.09 -5.87,-1.09 -2.82,0 -5.51,0.69 -7.9,1.95 -0.7,-5.23 -2.13,-9.14 -4.05,-12.02 -2.52,-3.77 -5.91,-5.7 -9.16,-6.46 -1.62,-0.39 -3.2,-0.49 -4.69,-0.45 -1.74,0.06 -3.3,0.33 -4.59,0.64 -0.79,-0.88 -1.87,-1.43 -3.08,-1.43 z"
           inkscape:connector-curvature="0"
           id="path3669"
           style="fill:#4e9a06" />
        <path
           d="m 199,564.96 a 18.69,22.730432 0 1 1 -37.38,0 18.69,22.730432 0 1 1 37.38,0 z"
           inkscape:connector-curvature="0"
           transform="matrix(0.4374,0,0,0.39873,-236.4,253.34)"
           id="path3671"
           style="fill:#eeeeec;fill-opacity:0.98000004" />
        <path
           d="m 199,564.96 a 18.69,22.730432 0 1 1 -37.38,0 18.69,22.730432 0 1 1 37.38,0 z"
           inkscape:connector-curvature="0"
           transform="matrix(0.19798,0,0,0.21754,-193.76,358.42)"
           id="path3673"
           style="fill:#2e3436;fill-opacity:0.98000004" />
        <path
           d="m -152.29,475.6 c 0,2.81 -0.43,-3.24 -5.36,-1.83 -2.85,0.81 -5.36,4.64 -5.36,1.83 0,-2.8 2.4,-5.07 5.36,-5.07 2.95,0 5.36,2.27 5.36,5.07 z"
           inkscape:connector-curvature="0"
           id="path3697"
           style="fill:#ffffff" />
        <path
           d="m -50.558,531.58 a 19.269,11.667 0 1 1 -38.537,0 19.269,11.667 0 1 1 38.537,0 z"
           inkscape:connector-curvature="0"
           transform="matrix(0.39857,0,0,0.55327,-149.37,215.44)"
           id="path3734"
           style="fill:url(#radialGradient2862)" />
        <path
           d="m -176.22,510.21 c 9.66,-2.62 -8.29,-24.93 -18.37,-17.65 -3.03,23.37 -10.54,22.37 -29.84,27.59 9.4,1.06 20.95,3.62 28.35,-4.04 7.27,-19.72 9.9,-6.39 19.86,-5.9 z"
           inkscape:connector-curvature="0"
           id="path3706"
           style="fill:#4c9a06;fill-opacity:0.98039;fill-rule:evenodd" />
        <path
           d="m -50.558,531.58 a 19.269,11.667 0 1 1 -38.537,0 19.269,11.667 0 1 1 38.537,0 z"
           inkscape:connector-curvature="0"
           transform="matrix(-0.39857,0,0,0.55327,-164.15,214.04)"
           id="path3738"
           style="fill:url(#radialGradient3853)" />
        <path
           d="m -137.3,508.82 c -9.66,-2.62 8.29,-24.93 18.37,-17.66 3.03,23.38 10.54,22.38 29.84,27.6 -9.392,1.05 -20.95,3.62 -28.35,-4.05 -7.27,-19.72 -9.9,-6.38 -19.86,-5.89 z"
           inkscape:connector-curvature="0"
           id="path3740"
           style="fill:#4c9a06;fill-opacity:0.98039;fill-rule:evenodd" />
      </g>
      <path
         d="m -75.239,653.34 c 0.684,2.29 1.608,4.47 2.781,6.5 8.572,0.78 17.737,1.21 27.281,1.21 8.002,0 15.723,-0.31 23.063,-0.87 1.197,-2.01 2.133,-4.19 2.844,-6.47 -0.935,-0.02 -1.842,-0.09 -2.75,-0.22 -0.035,0.06 -0.059,0.13 -0.094,0.19 -7.34,0.56 -15.061,0.87 -23.063,0.87 -9.544,0 -18.709,-0.43 -27.281,-1.21 -0.472,0.03 -0.928,0.06 -1.406,0.06 -0.457,0 -0.924,-0.03 -1.375,-0.06 z"
         inkscape:connector-curvature="0"
         id="path3790"
         style="opacity:0.18310002;fill:#555753;fill-opacity:0.98039" />
    </g>
    <path
       d="m 423.71,495.85 c 0,31.52 -17.99,-33.44 -71.65,-16.17 -62.25,20.04 -73.13,31.2 -72.03,16.17 2.28,-31.34 32.18,-57.1 71.84,-57.1 39.66,0 71.84,25.58 71.84,57.1 z"
       inkscape:connector-curvature="0"
       id="path3855"
       style="opacity:0.73944002;fill:url(#linearGradient3863)" />
    <path
       d="M 284.02,589.78 z"
       inkscape:connector-curvature="0"
       id="path3870"
       style="fill:none;stroke:#000000;stroke-width:1px" />
    <path
       d="m 290.69,496.45 c -1.28,0.22 -1.79,1.54 -7.37,0.85 -32.25,0.48 -77.75,21.52 -108.91,46.65 4.52,0.71 8.61,1.46 12.41,2.32 29.17,-22.52 69.33,-41.15 99.87,-43.66 3.52,-1.12 7.21,-2.2 11.16,-3.19 -4.7,-2.64 -6.16,-3.14 -7.16,-2.97 z m -78.81,60.07 c 0.09,0.06 0.19,0.12 0.28,0.18 l 0.03,-0.03 c -0.1,-0.05 -0.21,-0.11 -0.31,-0.15 z"
       inkscape:connector-curvature="0"
       id="path3930"
       style="fill:url(#linearGradient3947)" />
    <path
       d="m -33,711.36 a 17.5,7 0 1 1 -35,0 17.5,7 0 1 1 35,0 z"
       inkscape:connector-curvature="0"
       transform="translate(394.69,-145.8)"
       id="path3964"
       style="fill:#fcaf3e;fill-opacity:0.92940997" />
    <path
       d="m -33,711.36 a 17.5,7 0 1 1 -35,0 17.5,7 0 1 1 35,0 z"
       inkscape:connector-curvature="0"
       transform="matrix(0.8535,0.22435,-0.22435,0.8535,429.89,-51.201)"
       id="path3966"
       style="fill:#f6ac46" />
    <path
       d="m 354.68,564.5 c 0,2.61 -9.93,-7.61 -11.84,4.73 -0.99,6.46 -11.84,-2.12 -11.84,-4.73 0,-2.61 5.31,-4.74 11.84,-4.74 6.54,0 11.84,2.13 11.84,4.74 z"
       inkscape:connector-curvature="0"
       id="path3972"
       style="fill:url(#linearGradient3981)" />
    <path
       d="m 236.58,544.71 c -0.44,2.18 -7.43,-8.12 -11.19,1.84 -1.97,5.2 -10.03,-3.88 -9.59,-6.06 0.44,-2.18 5.46,-3 11.19,-1.84 5.74,1.17 10.03,3.88 9.59,6.06 z"
       inkscape:connector-curvature="0"
       id="path3983"
       style="fill:url(#linearGradient3985)" />
    <path
       d="m -33,711.36 a 17.5,7 0 1 1 -35,0 17.5,7 0 1 1 35,0 z"
       inkscape:connector-curvature="0"
       transform="matrix(-0.8535,0.22435,0.22435,0.8535,280.47,-49.787)"
       id="path3987"
       style="fill:#f6ac46" />
    <path
       d="m 473.78,546.12 c 0.44,2.18 7.43,-8.11 11.19,1.84 1.96,5.21 10.03,-3.88 9.58,-6.05 -0.44,-2.18 -5.45,-3.01 -11.19,-1.84 -5.73,1.16 -10.03,3.87 -9.58,6.05 z"
       inkscape:connector-curvature="0"
       id="path3989"
       style="fill:url(#linearGradient3991)" />
    <path
       d="m 432.25,590.19 c -18.73,4.24 -45.9,10.05 -57.71,7.94 17.5,10 0,26.91 0,26.91 30.01,-4.83 52.8,-18.28 57.71,-34.85 z"
       inkscape:connector-curvature="0"
       id="path3430"
       style="fill:#2e3436" />
    <path
       d="m 534.08,547.67 c -25.15,5.62 -47.51,14.24 -82.64,23.12 4.52,3.2 -4.07,9.02 -1.66,13.06 28.51,-9.17 56.47,-20.5 84.3,-36.18 z"
       inkscape:connector-curvature="0"
       id="path3439"
       style="fill:#2e3436" />
  </g>
</svg>
